M48
;Layer_Color=9474304
;FILE_FORMAT=2:5
INCH,TZ
;TYPE=PLATED
T1F00S00C0.01181
T2F00S00C0.03500
T3F00S00C0.04000
T4F00S00C0.04134
T5F00S00C0.04291
T6F00S00C0.05118
T7F00S00C0.06400
T8F00S00C0.08661
T9F00S00C0.11417
T10F00S00C0.12598
T11F00S00C0.12835
;TYPE=NON_PLATED
T12F00S00C0.05000
T13F00S00C0.12800
%
T01
X592126Y124016
X594910Y126800
X598819Y129284
X595067Y134014
X595438Y138012
X599294Y138807
X599213Y142866
X598819Y148156
Y152093
X591782Y152333
X588882Y154996
X588976Y161933
X594488Y167323
X598425Y164567
Y159449
X602756Y157874
X616535Y154331
Y144882
Y135433
X590945Y132996
X592126Y146685
X593307Y173622
X598425Y174803
X598032Y179134
X594488Y181496
X593298Y196130
X589747Y194053
X588897Y204895
X592330Y206821
X598425Y207580
Y211517
X598659Y201571
X598819Y197638
X616535Y204724
Y182677
Y173228
X613779Y170078
X616535Y163780
X468504Y161880
Y152431
Y142982
Y133533
X458044Y129650
X455118Y132283
X457480Y138189
Y142126
X456693Y147835
Y151772
X455905Y156299
X455512Y160630
Y164642
X458334Y167387
X455905Y172835
X459055Y175591
X459801Y179610
X455320Y180772
X446063Y180778
Y171329
Y161880
Y152431
Y142982
X440157Y142126
X440158Y138189
X446063Y133534
X449957Y126421
X433465Y132283
X433877Y142862
X434252Y146782
X433465Y162992
Y170079
Y175870
X433071Y202362
X433057Y206422
X434497Y212274
X440563Y211417
X440551Y207480
Y201181
Y197244
X446063Y202825
Y212274
X455521Y206366
X459010Y204542
X468504Y202824
Y212273
Y180777
Y171328
X267323Y171496
Y141496
X228740
Y171496
Y201496
X267323
Y101496
X267146Y71673
X228740Y101496
X170472
Y71496
Y141496
Y171496
Y201496
X116535
Y171496
Y141496
X110236Y122047
Y117323
X109843Y107087
X116535Y101496
X66142Y73228
X116535Y231496
Y261496
Y291496
Y311496
Y331496
X170472
Y311496
Y291496
Y261496
Y231496
X228740
Y261496
Y291496
Y311496
Y331496
X267323
Y311496
Y291496
Y261496
Y231496
X299213Y298031
X290945Y316929
X316388Y318204
X319144
X321900
X322047Y329921
X319291Y337795
X326378Y348819
X331102
X328740Y346457
Y351181
X331102Y353543
X326378
Y358268
X331102
X328740Y355906
Y360630
X331102Y362992
X326378
Y367717
X331102
X328740Y365354
X361003Y363048
X363366Y365410
Y360686
X361003Y358324
X363366Y355961
X361003Y353599
Y348875
X363366Y351237
X365728Y348875
Y353599
Y358324
Y363048
Y367772
X361003
X363366Y346513
X348031Y313779
X346702Y308799
Y305799
Y302299
Y298799
X343202Y297799
Y301049
Y304299
Y307549
Y310799
X283071Y336614
X369685Y329921
X383071
X382677Y337795
X386378Y348819
Y353543
Y358268
Y362992
Y367717
X388740Y365354
X391102Y367717
Y362992
X388740Y360630
Y355906
X391102Y358268
Y353543
X388740Y351181
Y346457
X391102Y348819
X421003Y348875
X423366Y351237
X421003Y353599
X423366Y355961
X421003Y358324
X423366Y360686
X421003Y363048
X423366Y365410
X421003Y367772
X425728
Y363048
Y358324
Y353599
Y348875
X423366Y346513
X429528Y329921
X408021Y314042
X406702Y308799
Y305799
Y302299
Y298799
X403202Y297799
Y301049
Y304299
Y307549
Y310799
X381890Y318110
X379134
X376378
X446063Y264567
Y261417
Y255118
Y248819
Y242520
X440158Y240158
Y236221
X439760Y230415
X440788Y226614
X439961Y220966
X440831Y217126
X433465Y216073
X434145Y221722
X433112Y225522
X434822Y231171
X433789Y234970
X446063Y231171
Y221722
X455550Y225502
X458570Y222976
X459010Y213991
X455521Y215814
X468504Y221722
Y231171
X458578Y232828
X455550Y235345
X468110Y242520
Y248819
Y255118
Y261417
Y264567
X616535Y264567
Y261417
Y255118
Y248819
Y242520
X612598Y245668
Y251968
X612795Y258267
X616535Y233071
Y223622
Y214173
X599680Y217165
X598425Y220897
Y226665
Y230709
Y238189
Y242126
X591013Y235365
X587424Y233746
X588234Y223833
X591723Y225657
X592698Y215783
X588897Y214344
X425728Y372497
Y377221
X421003
X423366Y379584
Y374859
X421003Y372497
X423366Y370135
X391102Y372441
X388740Y370079
Y374803
X391102Y377165
X386378
Y372441
X388740Y379528
X365728Y377221
Y372497
X363366Y374859
X361003Y372497
X363366Y370135
Y379584
X361003Y377221
X331102Y377165
X328740Y374803
X331102Y372441
X328740Y370079
X326378Y372441
Y377165
X328740Y379528
T02
X523181Y39283
X531181
X539181
X547181
X543181Y32283
X535181
X527181
X551181
X555181Y58284
X564181
X519181
X510181
T03
X532008Y96969
X542008
X552008
X562008
X572008
Y106968
X562008
X552008
X542008
X532008
X522008
Y96969
X512008
Y106968
X502008
Y96969
X380472Y97638
X370472
Y79921
X380472
X360472
Y97638
X355906Y275197
X345905
X335906
X316600Y352800
Y362800
X377000Y361800
Y351800
X444400Y354500
X454400
X464400
Y344500
X454400
X444400
X415748Y275197
X405748
X395748
X496693Y270472
X506693
X516693
Y287402
X506693
X496693
Y253543
X506693
X516693
X377000Y371800
X316600Y372800
T04
X413346Y18740
Y28740
Y38740
T05
X63264Y109890
Y120760
Y131630
Y142500
Y153370
Y164240
Y175110
Y185980
Y196851
Y207720
X52083Y202285
Y191415
Y180545
Y169675
Y158805
Y147935
Y137065
Y126195
Y115325
X40901Y120760
Y131630
Y142500
Y153370
Y164240
Y175110
Y185980
Y196851
Y207720
Y109890
Y218590
Y229461
Y240331
Y251201
Y262071
Y272941
Y283811
X52083Y278376
Y267506
Y256636
Y245766
Y234896
Y224026
Y213156
X63264Y218590
Y229461
Y240331
Y251201
Y262071
Y272941
Y283811
T06
X354331Y35039
X487874Y321654
Y361653
X527874
X542992
X582992
Y321654
X542992
X527874
T07
X505181Y35783
X569181
T08
X507874Y336614
X562992
T09
X335236Y15945
Y54134
X373425
Y15945
T10
X19685Y19685
X610236
Y374016
X19685
T11
X52083Y76555
Y317146
T12
X457209Y123228
X451303Y270472
T13
X512181Y22284
X562181
M30
