M48
;Layer_Color=9474304
;FILE_FORMAT=2:5
INCH,TZ
;TYPE=PLATED
T1F00S00C0.00787
T2F00S00C0.01181
T3F00S00C0.03500
T4F00S00C0.04000
T5F00S00C0.04134
T6F00S00C0.04291
T7F00S00C0.05118
T8F00S00C0.06400
T9F00S00C0.08661
T10F00S00C0.11417
T11F00S00C0.12598
T12F00S00C0.12835
;TYPE=NON_PLATED
T13F00S00C0.05000
T14F00S00C0.12800
%
T01
X590945Y125272
X594488Y127559
X598425Y129996
X594571Y133872
X594882Y137402
X598425Y138385
Y141929
Y147638
X598425Y151380
X591732Y152137
Y146881
X594488Y155193
Y161736
Y167323
X598425Y164567
Y159449
X600931Y156943
X616535Y154331
Y144882
Y135433
X590945Y132996
X594488Y174091
X598425Y174803
Y178347
X594488Y180429
X591876Y197372
X588735Y195731
X588548Y205605
X591876Y206821
X598425Y207677
Y211221
Y201772
Y198228
X616535Y204724
Y182677
Y173228
Y163780
X459055Y166929
X455512Y164642
Y160630
Y157087
X456693Y151378
Y147835
X458661Y141732
Y138189
X458268Y129921
X455118Y132283
X449957Y126421
X439764Y138386
Y141929
X433465Y142785
Y146329
X433465Y132283
Y162992
Y170079
Y175870
X455512Y173697
X459055Y175984
Y179528
X455118Y179642
X455369Y206821
X458509Y205180
X441732Y207677
Y211221
Y201772
Y198228
X433858Y203121
Y206664
X322047Y329921
X319291Y337795
X369685Y329921
X383071
X382677Y337795
X429528Y329921
X433858Y235167
Y231624
Y225562
Y222018
Y216187
Y212644
X441732Y217126
Y220669
Y226575
Y230118
Y236024
Y239567
X455762Y235168
X458479Y232894
Y223445
X455762Y225719
X455369Y216270
X458509Y214629
X588548Y215054
X591876Y216270
X598425Y217126
Y220669
Y226575
Y230118
Y236024
Y239567
X591088Y235168
X588158Y233176
X588735Y224078
X591876Y225719
X616535Y223622
Y233071
Y242520
Y248819
Y255118
Y261417
Y264567
Y214173
T02
X613779Y170078
X468504Y171328
Y161880
Y152431
Y142982
Y133533
X446063Y133534
Y142982
Y152431
Y161880
Y171329
Y180778
Y202825
Y212274
X468504Y212273
Y202824
Y180777
X267323Y171496
Y141496
X228740
Y171496
Y201496
X267323
Y101496
X267146Y71673
X228740Y101496
X170472
Y71496
Y141496
Y171496
Y201496
X116535
Y171496
Y141496
X110236Y122047
Y117323
X109843Y107087
X116535Y101496
X66142Y73228
X116535Y231496
Y261496
Y291496
Y311496
Y331496
X170472
Y311496
Y291496
Y261496
Y231496
X228740
Y261496
Y291496
Y311496
Y331496
X267323
Y311496
Y291496
Y261496
Y231496
X299213Y298031
X290945Y316929
X316388Y318204
X319144
X321900
X343202Y310799
Y307549
Y304299
Y301049
Y297799
X346702Y298799
Y302299
Y305799
Y308799
X348031Y313779
X363366Y346513
X361003Y348875
X363366Y351237
X365728Y348875
Y353599
X363366Y355961
X361003Y353599
Y358324
X363366Y360686
X365728Y358324
Y363048
X363366Y365410
X361003Y363048
Y367772
X365728
X331102Y367717
X328740Y365354
X331102Y362992
X328740Y360630
X331102Y358268
X328740Y355906
X331102Y353543
X328740Y351181
X331102Y348819
X328740Y346457
X326378Y348819
Y353543
Y358268
Y362992
Y367717
X283071Y336614
X376378Y318110
X379134
X381890
X403202Y310799
Y307549
Y304299
Y301049
Y297799
X406702Y298799
Y302299
Y305799
Y308799
X408021Y314042
X423366Y346513
Y351237
X421003Y348875
Y353599
X423366Y355961
X421003Y358324
X423366Y360686
X421003Y363048
X423366Y365410
X421003Y367772
X425728
Y363048
Y358324
Y353599
Y348875
X391102Y348819
X388740Y346457
Y351181
X391102Y353543
X388740Y355906
X391102Y358268
X388740Y360630
X391102Y362992
X388740Y365354
X391102Y367717
X386378
Y362992
Y358268
Y353543
Y348819
X446063Y264567
Y261417
Y255118
Y248819
Y242520
Y231171
Y221722
X468504Y221722
Y231171
X468110Y242520
Y248819
Y255118
Y261417
Y264567
X612795Y258267
X612598Y251968
Y245668
X425728Y372497
Y377221
X421003
X423366Y379584
Y374859
X421003Y372497
X423366Y370135
X391102Y372441
X388740Y370079
Y374803
X391102Y377165
X386378
Y372441
X388740Y379528
X365728Y377221
Y372497
X363366Y374859
X361003Y372497
X363366Y370135
Y379584
X361003Y377221
X331102Y377165
X328740Y374803
X331102Y372441
X328740Y370079
X326378Y372441
Y377165
X328740Y379528
T03
X523181Y39283
X531181
X539181
X547181
X543181Y32283
X535181
X527181
X551181
X555181Y58284
X564181
X519181
X510181
T04
X532008Y96969
X542008
X552008
X562008
X572008
Y106968
X562008
X552008
X542008
X532008
X522008
Y96969
X512008
Y106968
X502008
Y96969
X380472Y97638
X370472
Y79921
X380472
X360472
Y97638
X355906Y275197
X345905
X335906
X316600Y352800
Y362800
X377000Y361800
Y351800
X444400Y354500
X454400
X464400
Y344500
X454400
X444400
X415748Y275197
X405748
X395748
X496693Y270472
X506693
X516693
Y287402
X506693
X496693
Y253543
X506693
X516693
X377000Y371800
X316600Y372800
T05
X413346Y18740
Y28740
Y38740
T06
X63264Y109890
Y120760
Y131630
Y142500
Y153370
Y164240
Y175110
Y185980
Y196851
Y207720
X52083Y202285
Y191415
Y180545
Y169675
Y158805
Y147935
Y137065
Y126195
Y115325
X40901Y120760
Y131630
Y142500
Y153370
Y164240
Y175110
Y185980
Y196851
Y207720
Y109890
Y218590
Y229461
Y240331
Y251201
Y262071
Y272941
Y283811
X52083Y278376
Y267506
Y256636
Y245766
Y234896
Y224026
Y213156
X63264Y218590
Y229461
Y240331
Y251201
Y262071
Y272941
Y283811
T07
X354331Y35039
X487874Y321654
Y361653
X527874
X542992
X582992
Y321654
X542992
X527874
T08
X505181Y35783
X569181
T09
X507874Y336614
X562992
T10
X335236Y15945
Y54134
X373425
Y15945
T11
X19685Y19685
X610236
Y374016
X19685
T12
X52083Y76555
Y317146
T13
X457209Y123228
X451303Y270472
T14
X512181Y22284
X562181
M30
