G04*
G04 #@! TF.GenerationSoftware,Altium Limited,Altium Designer,22.7.1 (60)*
G04*
G04 Layer_Physical_Order=1*
G04 Layer_Color=255*
%FSLAX25Y25*%
%MOIN*%
G70*
G04*
G04 #@! TF.SameCoordinates,94073C5C-6B49-494D-9988-DEB99AEB3CDA*
G04*
G04*
G04 #@! TF.FilePolarity,Positive*
G04*
G01*
G75*
%ADD10C,0.00787*%
%ADD13C,0.01968*%
%ADD17C,0.00591*%
%ADD18C,0.01000*%
%ADD21R,0.07874X0.01969*%
%ADD22R,0.07874X0.03937*%
%ADD23R,0.03150X0.03150*%
G04:AMPARAMS|DCode=24|XSize=47.24mil|YSize=19.68mil|CornerRadius=2.95mil|HoleSize=0mil|Usage=FLASHONLY|Rotation=0.000|XOffset=0mil|YOffset=0mil|HoleType=Round|Shape=RoundedRectangle|*
%AMROUNDEDRECTD24*
21,1,0.04724,0.01378,0,0,0.0*
21,1,0.04134,0.01968,0,0,0.0*
1,1,0.00591,0.02067,-0.00689*
1,1,0.00591,-0.02067,-0.00689*
1,1,0.00591,-0.02067,0.00689*
1,1,0.00591,0.02067,0.00689*
%
%ADD24ROUNDEDRECTD24*%
G04:AMPARAMS|DCode=25|XSize=19.68mil|YSize=35.43mil|CornerRadius=3.25mil|HoleSize=0mil|Usage=FLASHONLY|Rotation=270.000|XOffset=0mil|YOffset=0mil|HoleType=Round|Shape=RoundedRectangle|*
%AMROUNDEDRECTD25*
21,1,0.01968,0.02894,0,0,270.0*
21,1,0.01319,0.03543,0,0,270.0*
1,1,0.00650,-0.01447,-0.00659*
1,1,0.00650,-0.01447,0.00659*
1,1,0.00650,0.01447,0.00659*
1,1,0.00650,0.01447,-0.00659*
%
%ADD25ROUNDEDRECTD25*%
%ADD26O,0.03504X0.12047*%
%ADD27R,0.21063X0.33622*%
G04:AMPARAMS|DCode=28|XSize=47.64mil|YSize=71.65mil|CornerRadius=7.86mil|HoleSize=0mil|Usage=FLASHONLY|Rotation=180.000|XOffset=0mil|YOffset=0mil|HoleType=Round|Shape=RoundedRectangle|*
%AMROUNDEDRECTD28*
21,1,0.04764,0.05593,0,0,180.0*
21,1,0.03192,0.07165,0,0,180.0*
1,1,0.01572,-0.01596,0.02797*
1,1,0.01572,0.01596,0.02797*
1,1,0.01572,0.01596,-0.02797*
1,1,0.01572,-0.01596,-0.02797*
%
%ADD28ROUNDEDRECTD28*%
G04:AMPARAMS|DCode=29|XSize=39.37mil|YSize=51.58mil|CornerRadius=6.5mil|HoleSize=0mil|Usage=FLASHONLY|Rotation=90.000|XOffset=0mil|YOffset=0mil|HoleType=Round|Shape=RoundedRectangle|*
%AMROUNDEDRECTD29*
21,1,0.03937,0.03858,0,0,90.0*
21,1,0.02638,0.05158,0,0,90.0*
1,1,0.01299,0.01929,0.01319*
1,1,0.01299,0.01929,-0.01319*
1,1,0.01299,-0.01929,-0.01319*
1,1,0.01299,-0.01929,0.01319*
%
%ADD29ROUNDEDRECTD29*%
G04:AMPARAMS|DCode=30|XSize=19.68mil|YSize=35.43mil|CornerRadius=3.25mil|HoleSize=0mil|Usage=FLASHONLY|Rotation=0.000|XOffset=0mil|YOffset=0mil|HoleType=Round|Shape=RoundedRectangle|*
%AMROUNDEDRECTD30*
21,1,0.01968,0.02894,0,0,0.0*
21,1,0.01319,0.03543,0,0,0.0*
1,1,0.00650,0.00659,-0.01447*
1,1,0.00650,-0.00659,-0.01447*
1,1,0.00650,-0.00659,0.01447*
1,1,0.00650,0.00659,0.01447*
%
%ADD30ROUNDEDRECTD30*%
G04:AMPARAMS|DCode=31|XSize=27.95mil|YSize=34.65mil|CornerRadius=4.61mil|HoleSize=0mil|Usage=FLASHONLY|Rotation=270.000|XOffset=0mil|YOffset=0mil|HoleType=Round|Shape=RoundedRectangle|*
%AMROUNDEDRECTD31*
21,1,0.02795,0.02542,0,0,270.0*
21,1,0.01873,0.03465,0,0,270.0*
1,1,0.00922,-0.01271,-0.00936*
1,1,0.00922,-0.01271,0.00936*
1,1,0.00922,0.01271,0.00936*
1,1,0.00922,0.01271,-0.00936*
%
%ADD31ROUNDEDRECTD31*%
G04:AMPARAMS|DCode=32|XSize=27.95mil|YSize=34.65mil|CornerRadius=4.61mil|HoleSize=0mil|Usage=FLASHONLY|Rotation=180.000|XOffset=0mil|YOffset=0mil|HoleType=Round|Shape=RoundedRectangle|*
%AMROUNDEDRECTD32*
21,1,0.02795,0.02542,0,0,180.0*
21,1,0.01873,0.03465,0,0,180.0*
1,1,0.00922,-0.00936,0.01271*
1,1,0.00922,0.00936,0.01271*
1,1,0.00922,0.00936,-0.01271*
1,1,0.00922,-0.00936,-0.01271*
%
%ADD32ROUNDEDRECTD32*%
%ADD33R,0.14488X0.05000*%
%ADD34R,0.20000X0.05000*%
%ADD35R,0.25197X0.03937*%
%ADD36R,0.25197X0.03937*%
%ADD70C,0.03937*%
%ADD71C,0.03937*%
%ADD72C,0.06653*%
%ADD73C,0.18740*%
%ADD74R,0.06653X0.06653*%
%ADD75C,0.15417*%
%ADD76C,0.07677*%
%ADD77C,0.06000*%
%ADD78R,0.06000X0.06000*%
%ADD79C,0.12800*%
%ADD80C,0.08400*%
%ADD81C,0.05500*%
%ADD82C,0.07087*%
%ADD83C,0.15748*%
%ADD84R,0.06102X0.06102*%
%ADD85C,0.06102*%
%ADD86C,0.21654*%
%ADD87C,0.02362*%
%ADD88C,0.01575*%
%ADD89C,0.01968*%
G36*
X627882Y306050D02*
X627882Y284803D01*
X627529Y284450D01*
X615752D01*
X615685Y284436D01*
X615618Y284445D01*
X615214Y284419D01*
X615020Y284367D01*
X614819Y284353D01*
X614038Y284144D01*
X613798Y284026D01*
X613546Y283940D01*
X612845Y283536D01*
X612644Y283360D01*
X612423Y283212D01*
X611850Y282639D01*
X611702Y282418D01*
X611526Y282217D01*
X611122Y281516D01*
X611036Y281264D01*
X610918Y281025D01*
X610709Y280243D01*
X610691Y279977D01*
X610639Y279715D01*
Y278906D01*
X610691Y278644D01*
X610709Y278378D01*
X610918Y277596D01*
X611036Y277357D01*
X611122Y277104D01*
X611526Y276404D01*
X611702Y276203D01*
X611850Y275981D01*
X612423Y275409D01*
X612644Y275261D01*
X612845Y275085D01*
X613546Y274680D01*
X613798Y274595D01*
X614038Y274477D01*
X614819Y274267D01*
X615020Y274254D01*
X615214Y274202D01*
X615618Y274176D01*
X615685Y274184D01*
X615752Y274171D01*
X627882D01*
Y260405D01*
X627559Y260039D01*
X627383Y260039D01*
X623008D01*
X622835Y260074D01*
X613578D01*
X613187Y260236D01*
X612404D01*
X612012Y260074D01*
X603504D01*
X584348Y279230D01*
X583762Y279622D01*
X583071Y279759D01*
X516890D01*
X510325Y286324D01*
X510480Y286903D01*
Y287900D01*
X510222Y288863D01*
X509724Y289727D01*
X509018Y290432D01*
X508155Y290931D01*
X507192Y291189D01*
X506194D01*
X505231Y290931D01*
X504367Y290432D01*
X503662Y289727D01*
X503164Y288863D01*
X502906Y287900D01*
Y286956D01*
X476023Y260074D01*
X450516D01*
X450448Y260061D01*
X448449D01*
X448026Y259977D01*
X447668Y259737D01*
X447429Y259379D01*
X447345Y258957D01*
Y257579D01*
X447429Y257156D01*
X447668Y256798D01*
X448026Y256559D01*
X448449Y256475D01*
X450448D01*
X450516Y256461D01*
X476772D01*
X477463Y256599D01*
X478049Y256990D01*
X492519Y271461D01*
X492967Y271202D01*
X492906Y270971D01*
Y269974D01*
X493164Y269011D01*
X493662Y268147D01*
X494367Y267442D01*
X495231Y266943D01*
X496194Y266685D01*
X497191D01*
X498155Y266943D01*
X499018Y267442D01*
X499724Y268147D01*
X500222Y269011D01*
X500480Y269974D01*
Y270971D01*
X500222Y271934D01*
X499724Y272798D01*
X499018Y273503D01*
X498155Y274002D01*
X497191Y274260D01*
X496194D01*
X495964Y274198D01*
X495705Y274646D01*
X505041Y283982D01*
X505231Y283872D01*
X506194Y283614D01*
X507192D01*
X507771Y283769D01*
X514864Y276676D01*
X515450Y276284D01*
X516142Y276146D01*
X582323D01*
X601479Y256990D01*
X602065Y256598D01*
X602756Y256461D01*
X612012D01*
X612404Y256299D01*
X613187D01*
X613578Y256461D01*
X622835D01*
X623008Y256495D01*
X627383D01*
X627559Y256495D01*
X627882Y256130D01*
Y254106D01*
X627559Y253740D01*
X627383Y253740D01*
X623008D01*
X622835Y253775D01*
X613381D01*
X612990Y253937D01*
X612207D01*
X611815Y253775D01*
X587756D01*
X576868Y264663D01*
X576282Y265055D01*
X575591Y265192D01*
X514528D01*
X510325Y269395D01*
X510480Y269974D01*
Y270971D01*
X510222Y271934D01*
X509724Y272798D01*
X509018Y273503D01*
X508155Y274002D01*
X507192Y274260D01*
X506194D01*
X505231Y274002D01*
X504367Y273503D01*
X503662Y272798D01*
X503164Y271934D01*
X502906Y270971D01*
Y269974D01*
X503061Y269395D01*
X487441Y253775D01*
X450516D01*
X450448Y253761D01*
X448449D01*
X448026Y253677D01*
X447668Y253438D01*
X447429Y253080D01*
X447345Y252658D01*
Y251279D01*
X447429Y250857D01*
X447668Y250499D01*
X448026Y250260D01*
X448449Y250176D01*
X450448D01*
X450516Y250162D01*
X488189D01*
X488880Y250300D01*
X489466Y250691D01*
X492406Y253630D01*
X492906Y253423D01*
Y253045D01*
X493164Y252081D01*
X493662Y251218D01*
X494367Y250513D01*
X495231Y250014D01*
X496194Y249756D01*
X497191D01*
X498155Y250014D01*
X499018Y250513D01*
X499724Y251218D01*
X500222Y252081D01*
X500480Y253045D01*
Y254042D01*
X500222Y255005D01*
X499724Y255869D01*
X499018Y256574D01*
X498155Y257073D01*
X497191Y257331D01*
X496813D01*
X496606Y257831D01*
X505615Y266840D01*
X506194Y266685D01*
X507192D01*
X507771Y266840D01*
X512502Y262108D01*
X513088Y261717D01*
X513779Y261579D01*
X574842D01*
X585731Y250691D01*
X586317Y250300D01*
X587008Y250162D01*
X611815D01*
X612207Y250000D01*
X612990D01*
X613381Y250162D01*
X622835D01*
X623008Y250197D01*
X627383D01*
X627559Y250197D01*
X627882Y249831D01*
Y247806D01*
X627559Y247440D01*
X627383Y247440D01*
X623008D01*
X622835Y247475D01*
X613381D01*
X612990Y247637D01*
X612207D01*
X611815Y247475D01*
X515316D01*
X510325Y252466D01*
X510480Y253045D01*
Y254042D01*
X510222Y255005D01*
X509724Y255869D01*
X509018Y256574D01*
X508155Y257073D01*
X507192Y257331D01*
X506194D01*
X505231Y257073D01*
X504367Y256574D01*
X503662Y255869D01*
X503164Y255005D01*
X502906Y254042D01*
Y253045D01*
X503061Y252466D01*
X498071Y247476D01*
X450516D01*
X450448Y247462D01*
X448449D01*
X448026Y247378D01*
X447668Y247139D01*
X447429Y246781D01*
X447345Y246358D01*
Y244980D01*
X447429Y244558D01*
X447668Y244200D01*
X448026Y243960D01*
X448449Y243876D01*
X450448D01*
X450516Y243863D01*
X498819D01*
X499510Y244000D01*
X500096Y244392D01*
X505615Y249911D01*
X506194Y249756D01*
X507192D01*
X507771Y249911D01*
X513291Y244391D01*
X513877Y244000D01*
X514568Y243862D01*
X611815D01*
X612207Y243700D01*
X612990D01*
X613381Y243862D01*
X622835D01*
X623008Y243897D01*
X627383D01*
X627559Y243897D01*
X627882Y243531D01*
Y241507D01*
X627559Y241141D01*
X627383Y241141D01*
X618110D01*
Y239444D01*
X611177D01*
X611175Y239444D01*
X600109D01*
X600000Y239553D01*
Y239880D01*
X599760Y240459D01*
X599317Y240902D01*
X598738Y241142D01*
X598112D01*
X597533Y240902D01*
X597090Y240459D01*
X596850Y239880D01*
Y239254D01*
X597090Y238675D01*
X597533Y238232D01*
X597947Y238060D01*
Y237530D01*
X597533Y237359D01*
X597090Y236916D01*
X596850Y236337D01*
Y235710D01*
X597090Y235132D01*
X597533Y234689D01*
X598112Y234449D01*
X598738D01*
X599317Y234689D01*
X599760Y235132D01*
X600000Y235710D01*
Y236037D01*
X600109Y236146D01*
X610722D01*
X610724Y236146D01*
X618110D01*
Y234449D01*
X627383D01*
X627559Y234449D01*
X627882Y234083D01*
Y232058D01*
X627559Y231692D01*
X627383Y231692D01*
X618110D01*
Y229995D01*
X611178D01*
X611175Y229996D01*
X600109D01*
X600000Y230104D01*
Y230431D01*
X599760Y231010D01*
X599317Y231453D01*
X598738Y231693D01*
X598112D01*
X597533Y231453D01*
X597090Y231010D01*
X596850Y230431D01*
Y229805D01*
X597090Y229226D01*
X597533Y228783D01*
X597947Y228611D01*
Y228081D01*
X597533Y227910D01*
X597090Y227467D01*
X596850Y226888D01*
Y226262D01*
X597090Y225683D01*
X597533Y225240D01*
X598112Y225000D01*
X598738D01*
X599317Y225240D01*
X599760Y225683D01*
X600000Y226262D01*
Y226589D01*
X600109Y226697D01*
X610721D01*
X610724Y226697D01*
X618110D01*
Y224999D01*
X627383D01*
X627559Y224999D01*
X627882Y224634D01*
Y222610D01*
X627559Y222244D01*
X627383Y222244D01*
X618110D01*
Y220547D01*
X611176D01*
X611175Y220547D01*
X600109D01*
X600000Y220656D01*
Y220983D01*
X599760Y221561D01*
X599317Y222004D01*
X598738Y222244D01*
X598112D01*
X597533Y222004D01*
X597090Y221561D01*
X596850Y220983D01*
Y220356D01*
X597090Y219777D01*
X597533Y219334D01*
X597947Y219163D01*
Y218633D01*
X597533Y218461D01*
X597090Y218018D01*
X596850Y217439D01*
Y216813D01*
X597090Y216234D01*
X597533Y215791D01*
X598112Y215551D01*
X598738D01*
X599317Y215791D01*
X599760Y216234D01*
X600000Y216813D01*
Y217140D01*
X600109Y217249D01*
X610722D01*
X610724Y217248D01*
X618110D01*
Y215550D01*
X627383D01*
X627559Y215550D01*
X627882Y215184D01*
Y213161D01*
X627559Y212795D01*
X627383Y212795D01*
X618110D01*
Y211588D01*
X618011Y211098D01*
X605025D01*
X605025Y211098D01*
X600109D01*
X600000Y211207D01*
Y211534D01*
X599760Y212112D01*
X599317Y212556D01*
X598738Y212795D01*
X598112D01*
X597533Y212556D01*
X597090Y212112D01*
X596850Y211534D01*
Y210907D01*
X597090Y210328D01*
X597533Y209885D01*
X597947Y209714D01*
Y209184D01*
X597533Y209012D01*
X597090Y208569D01*
X596850Y207990D01*
Y207364D01*
X597090Y206785D01*
X597533Y206342D01*
X598112Y206102D01*
X598738D01*
X599317Y206342D01*
X599760Y206785D01*
X600000Y207364D01*
Y207691D01*
X600109Y207800D01*
X604573D01*
X604573Y207800D01*
X617454D01*
X617456Y207799D01*
X618110D01*
Y206101D01*
X627383D01*
X627559Y206101D01*
X627882Y205735D01*
Y203712D01*
X627559Y203346D01*
X627383Y203346D01*
X618110D01*
Y202139D01*
X618011Y201649D01*
X607387D01*
X607387Y201649D01*
X600109D01*
X600000Y201758D01*
Y202085D01*
X599760Y202664D01*
X599317Y203107D01*
X598738Y203346D01*
X598112D01*
X597533Y203107D01*
X597090Y202664D01*
X596850Y202085D01*
Y201458D01*
X597090Y200880D01*
X597533Y200437D01*
X597947Y200265D01*
Y199735D01*
X597533Y199563D01*
X597090Y199120D01*
X596850Y198542D01*
Y197915D01*
X597090Y197336D01*
X597533Y196893D01*
X598112Y196653D01*
X598738D01*
X599317Y196893D01*
X599760Y197336D01*
X600000Y197915D01*
Y198242D01*
X600109Y198351D01*
X606935D01*
X606935Y198351D01*
X617059D01*
X617062Y198350D01*
X618110D01*
Y196652D01*
X627383D01*
X627559Y196652D01*
X627882Y196286D01*
Y181665D01*
X627559Y181299D01*
X627383Y181299D01*
X622252D01*
X622145Y181321D01*
X619595D01*
X619403Y181449D01*
X618980Y181533D01*
X595611D01*
X595380Y181764D01*
X594801Y182004D01*
X594175D01*
X593596Y181764D01*
X593153Y181321D01*
X592913Y180742D01*
Y180116D01*
X592982Y179950D01*
X592648Y179450D01*
X468168D01*
X467930Y179688D01*
X467572Y179928D01*
X467150Y180012D01*
X467072D01*
Y180217D01*
X466988Y180639D01*
X466749Y180997D01*
X466391Y181236D01*
X465969Y181320D01*
X461835D01*
X461412Y181236D01*
X461054Y180997D01*
X460815Y180639D01*
X460813Y180631D01*
X460178D01*
X459947Y180863D01*
X459368Y181102D01*
X458742D01*
X458163Y180863D01*
X457720Y180420D01*
X457480Y179841D01*
Y179214D01*
X457720Y178636D01*
X458163Y178192D01*
X458577Y178021D01*
Y177491D01*
X458163Y177319D01*
X457720Y176876D01*
X457480Y176297D01*
Y175671D01*
X457720Y175092D01*
X458163Y174649D01*
X458742Y174409D01*
X459368D01*
X459947Y174649D01*
X460363Y175065D01*
X460949D01*
X461054Y174908D01*
X461412Y174669D01*
X461835Y174585D01*
X465969D01*
X466391Y174669D01*
X466749Y174908D01*
X466854Y175065D01*
X592646D01*
X592980Y174565D01*
X592913Y174404D01*
Y173777D01*
X593153Y173198D01*
X593596Y172756D01*
X594175Y172516D01*
X594207D01*
X595040Y171682D01*
X594833Y171182D01*
X592519D01*
X592097Y171098D01*
X591739Y170859D01*
X590488Y169608D01*
X468562D01*
X467930Y170239D01*
X467572Y170479D01*
X467150Y170563D01*
X467072D01*
Y170768D01*
X466988Y171190D01*
X466749Y171548D01*
X466391Y171788D01*
X465969Y171872D01*
X461835D01*
X461412Y171788D01*
X461054Y171548D01*
X460815Y171190D01*
X460813Y171183D01*
X453604D01*
X453603Y171190D01*
X453363Y171548D01*
X453005Y171788D01*
X452583Y171872D01*
X448449D01*
X448026Y171788D01*
X447668Y171548D01*
X447429Y171190D01*
X447345Y170768D01*
Y170467D01*
X447067Y170282D01*
X444031Y167246D01*
X383071D01*
X382648Y167162D01*
X382290Y166922D01*
X333007Y117639D01*
X251384D01*
X251177Y118139D01*
X251600Y118563D01*
X265807D01*
Y120538D01*
X330512D01*
X331014Y120638D01*
X331440Y120922D01*
X379284Y168766D01*
X432550D01*
X432573Y168744D01*
X433151Y168504D01*
X433778D01*
X434357Y168744D01*
X434800Y169187D01*
X435039Y169765D01*
Y170392D01*
X434800Y170971D01*
X434748Y171022D01*
X434956Y171522D01*
X438583D01*
X439085Y171622D01*
X439511Y171906D01*
X442670Y175065D01*
X447563D01*
X447668Y174908D01*
X448026Y174669D01*
X448449Y174585D01*
X450980D01*
X451000Y174581D01*
X452771D01*
X453937Y173415D01*
Y173384D01*
X454177Y172805D01*
X454620Y172362D01*
X455199Y172122D01*
X455825D01*
X456404Y172362D01*
X456847Y172805D01*
X457087Y173384D01*
Y174010D01*
X456847Y174589D01*
X456404Y175032D01*
X455825Y175272D01*
X455793D01*
X454243Y176822D01*
X453817Y177106D01*
X453673Y177135D01*
X453603Y177489D01*
X453544Y177577D01*
X453403Y177953D01*
X453544Y178328D01*
X453588Y178394D01*
X453878Y178428D01*
X454095Y178438D01*
X454226Y178307D01*
X454805Y178067D01*
X455431D01*
X456010Y178307D01*
X456453Y178750D01*
X456693Y179329D01*
Y179955D01*
X456453Y180534D01*
X456010Y180977D01*
X455431Y181217D01*
X454805D01*
X454226Y180977D01*
X454023Y180774D01*
X453488Y180810D01*
X453363Y180997D01*
X453005Y181236D01*
X452583Y181320D01*
X448449D01*
X448026Y181236D01*
X447668Y180997D01*
X447429Y180639D01*
X447345Y180217D01*
Y179296D01*
X447106Y179057D01*
X369291D01*
X368869Y178973D01*
X368511Y178733D01*
X327496Y137718D01*
X247795D01*
X247373Y137634D01*
X247015Y137395D01*
X244758Y135138D01*
X230256D01*
Y132954D01*
X198823D01*
X194383Y137395D01*
X194025Y137634D01*
X193602Y137718D01*
X142187D01*
X141764Y137634D01*
X141406Y137395D01*
X139148Y135136D01*
X119134D01*
Y132953D01*
X99711D01*
X78513Y154151D01*
X78155Y154390D01*
X77732Y154474D01*
X67227D01*
X67098Y154958D01*
X66556Y155896D01*
X65790Y156662D01*
X65630Y156754D01*
X65764Y157254D01*
X81375D01*
X93177Y145452D01*
X93535Y145212D01*
X93958Y145128D01*
X140642D01*
X141064Y145212D01*
X141422Y145452D01*
X145309Y149339D01*
X145549Y149697D01*
X145633Y150119D01*
Y152266D01*
X145634Y152267D01*
X146134Y152000D01*
Y148561D01*
X167709D01*
Y155136D01*
X168182Y155200D01*
X196028D01*
X205854Y145373D01*
X206212Y145134D01*
X206635Y145050D01*
X245424D01*
X245847Y145134D01*
X246205Y145373D01*
X249288Y148457D01*
X249744Y148563D01*
X249744Y148563D01*
X265807D01*
Y155138D01*
X266281Y155201D01*
X334651D01*
X335074Y155285D01*
X335432Y155525D01*
X372201Y192294D01*
X453238D01*
X453661Y192378D01*
X454019Y192617D01*
X459753Y198351D01*
X460731D01*
Y197736D01*
X460815Y197314D01*
X461054Y196956D01*
X461412Y196716D01*
X461835Y196632D01*
X465969D01*
X466391Y196716D01*
X466749Y196956D01*
X466988Y197314D01*
X467072Y197736D01*
Y197864D01*
X467150Y198350D01*
X586342D01*
X587735Y196958D01*
X587400Y196623D01*
X587160Y196045D01*
Y195418D01*
X587400Y194839D01*
X587843Y194396D01*
X588422Y194156D01*
X589049D01*
X589627Y194396D01*
X590070Y194839D01*
X590310Y195418D01*
Y195675D01*
X590460Y195955D01*
X590983Y196037D01*
X591562Y195798D01*
X592189D01*
X592768Y196037D01*
X593211Y196480D01*
X593450Y197059D01*
Y197686D01*
X593211Y198265D01*
X592768Y198707D01*
X592189Y198947D01*
X591562D01*
X590983Y198707D01*
X590817Y198541D01*
X588032Y201325D01*
X587674Y201565D01*
X587251Y201649D01*
X467603D01*
X467601Y201649D01*
X467072D01*
Y202264D01*
X466988Y202686D01*
X466749Y203044D01*
X466391Y203284D01*
X465969Y203368D01*
X461835D01*
X461412Y203284D01*
X461054Y203044D01*
X460815Y202686D01*
X460731Y202264D01*
Y201649D01*
X458844D01*
X458421Y201565D01*
X458063Y201326D01*
X454128Y197390D01*
X453667Y197637D01*
X453687Y197736D01*
Y199114D01*
X453603Y199537D01*
X453544Y199625D01*
X453403Y200000D01*
X453544Y200376D01*
X453603Y200463D01*
X453687Y200886D01*
Y202264D01*
X453603Y202686D01*
X453363Y203044D01*
X453005Y203284D01*
X452583Y203368D01*
X448449D01*
X448026Y203284D01*
X447668Y203044D01*
X447429Y202686D01*
X447345Y202264D01*
Y201649D01*
X446669D01*
X446669Y201649D01*
X443416D01*
X443307Y201758D01*
Y202085D01*
X443067Y202664D01*
X442624Y203107D01*
X442045Y203346D01*
X441419D01*
X440840Y203107D01*
X440397Y202664D01*
X440158Y202085D01*
Y201758D01*
X440049Y201649D01*
X435321D01*
X435114Y202149D01*
X435193Y202229D01*
X435433Y202807D01*
Y203434D01*
X435193Y204013D01*
X434750Y204456D01*
X434336Y204627D01*
Y205157D01*
X434750Y205329D01*
X435193Y205772D01*
X435433Y206351D01*
Y206977D01*
X435299Y207300D01*
X435603Y207800D01*
X439937D01*
X440158Y207579D01*
Y207364D01*
X440397Y206785D01*
X440840Y206342D01*
X441419Y206102D01*
X442045D01*
X442624Y206342D01*
X443067Y206785D01*
X443307Y207364D01*
Y207691D01*
X443416Y207800D01*
X446217D01*
X446218Y207800D01*
X447345D01*
Y207185D01*
X447429Y206763D01*
X447668Y206404D01*
X448026Y206165D01*
X448449Y206081D01*
X452583D01*
X453005Y206165D01*
X453332Y206383D01*
X453429Y206390D01*
X453886Y206286D01*
X454034Y205929D01*
X454476Y205486D01*
X455055Y205246D01*
X455682D01*
X456261Y205486D01*
X456784Y205404D01*
X456934Y205123D01*
Y204867D01*
X457174Y204288D01*
X457617Y203845D01*
X458195Y203605D01*
X458822D01*
X459401Y203845D01*
X459844Y204288D01*
X460084Y204867D01*
Y205493D01*
X459844Y206072D01*
X459509Y206407D01*
X460253Y207150D01*
X460775Y206965D01*
X460815Y206763D01*
X461054Y206404D01*
X461412Y206165D01*
X461835Y206081D01*
X465969D01*
X466391Y206165D01*
X466749Y206404D01*
X466988Y206763D01*
X467072Y207185D01*
Y207313D01*
X467150Y207799D01*
X587552D01*
X587816Y207490D01*
X587694Y206956D01*
X587656Y206940D01*
X587213Y206497D01*
X586973Y205918D01*
Y205292D01*
X587213Y204713D01*
X587656Y204270D01*
X588234Y204030D01*
X588861D01*
X589440Y204270D01*
X589883Y204713D01*
X590122Y205292D01*
X590552Y205634D01*
X590877Y205593D01*
X590983Y205486D01*
X591562Y205246D01*
X592189D01*
X592768Y205486D01*
X593211Y205929D01*
X593450Y206508D01*
Y207135D01*
X593211Y207713D01*
X592768Y208156D01*
X592189Y208396D01*
X591672D01*
X591652Y208499D01*
X591413Y208857D01*
X589495Y210774D01*
X589137Y211014D01*
X588715Y211098D01*
X467604D01*
X467601Y211098D01*
X467072D01*
Y211713D01*
X466988Y212135D01*
X466749Y212493D01*
X466391Y212733D01*
X465969Y212817D01*
X461835D01*
X461412Y212733D01*
X461054Y212493D01*
X460815Y212135D01*
X460731Y211713D01*
Y211098D01*
X459993D01*
X459571Y211014D01*
X459213Y210775D01*
X456427Y207989D01*
X456261Y208156D01*
X455682Y208396D01*
X455055D01*
X454476Y208156D01*
X454187Y207867D01*
X453687Y208074D01*
Y208563D01*
X453603Y208985D01*
X453363Y209344D01*
Y209554D01*
X453603Y209912D01*
X453687Y210335D01*
Y211713D01*
X453603Y212135D01*
X453363Y212493D01*
X453005Y212733D01*
X452583Y212817D01*
X448449D01*
X448026Y212733D01*
X447668Y212493D01*
X447429Y212135D01*
X447345Y211713D01*
Y211098D01*
X446669D01*
X446669Y211098D01*
X443416D01*
X443307Y211207D01*
Y211534D01*
X443067Y212112D01*
X442624Y212556D01*
X442045Y212795D01*
X441419D01*
X440840Y212556D01*
X440397Y212112D01*
X440158Y211534D01*
Y211098D01*
X435247D01*
X435039Y211598D01*
X435193Y211752D01*
X435433Y212331D01*
Y212957D01*
X435193Y213536D01*
X434750Y213979D01*
X434336Y214151D01*
Y214681D01*
X434750Y214852D01*
X435193Y215295D01*
X435433Y215874D01*
Y216500D01*
X435330Y216748D01*
X435665Y217249D01*
X440049D01*
X440158Y217140D01*
Y216813D01*
X440397Y216234D01*
X440840Y215791D01*
X441419Y215551D01*
X442045D01*
X442624Y215791D01*
X443067Y216234D01*
X443307Y216813D01*
Y217140D01*
X443416Y217249D01*
X446217D01*
X446218Y217249D01*
X447345D01*
Y216634D01*
X447429Y216211D01*
X447668Y215853D01*
X448026Y215614D01*
X448449Y215530D01*
X452583D01*
X453005Y215614D01*
X453332Y215832D01*
X453429Y215839D01*
X453886Y215735D01*
X454034Y215378D01*
X454476Y214935D01*
X455055Y214695D01*
X455682D01*
X456261Y214935D01*
X456784Y214853D01*
X456934Y214572D01*
Y214316D01*
X457174Y213737D01*
X457617Y213294D01*
X458195Y213054D01*
X458822D01*
X459401Y213294D01*
X459844Y213737D01*
X460084Y214316D01*
Y214942D01*
X459844Y215521D01*
X459509Y215856D01*
X460253Y216599D01*
X460775Y216414D01*
X460815Y216211D01*
X461054Y215853D01*
X461412Y215614D01*
X461835Y215530D01*
X465969D01*
X466391Y215614D01*
X466749Y215853D01*
X466988Y216211D01*
X467072Y216634D01*
Y216762D01*
X467150Y217248D01*
X587552D01*
X587816Y216939D01*
X587694Y216405D01*
X587656Y216389D01*
X587213Y215946D01*
X586973Y215367D01*
Y214740D01*
X587213Y214162D01*
X587656Y213719D01*
X588234Y213479D01*
X588861D01*
X589440Y213719D01*
X589883Y214162D01*
X590122Y214740D01*
X590552Y215082D01*
X590877Y215042D01*
X590983Y214935D01*
X591562Y214695D01*
X592189D01*
X592768Y214935D01*
X593211Y215378D01*
X593450Y215957D01*
Y216583D01*
X593211Y217162D01*
X592768Y217605D01*
X592189Y217845D01*
X591672D01*
X591652Y217948D01*
X591413Y218306D01*
X589495Y220223D01*
X589137Y220462D01*
X588715Y220546D01*
X467604D01*
X467601Y220547D01*
X467072D01*
Y221161D01*
X466988Y221584D01*
X466749Y221942D01*
X466391Y222181D01*
X465969Y222265D01*
X461835D01*
X461412Y222181D01*
X461054Y221942D01*
X460815Y221584D01*
X460731Y221161D01*
Y220547D01*
X459993D01*
X459571Y220463D01*
X459213Y220223D01*
X456427Y217438D01*
X456261Y217605D01*
X455682Y217845D01*
X455055D01*
X454476Y217605D01*
X454187Y217315D01*
X453687Y217522D01*
Y218012D01*
X453603Y218434D01*
X453544Y218522D01*
X453403Y218898D01*
X453544Y219273D01*
X453603Y219361D01*
X453687Y219783D01*
Y221161D01*
X453603Y221584D01*
X453363Y221942D01*
X453005Y222181D01*
X452583Y222265D01*
X448449D01*
X448026Y222181D01*
X447668Y221942D01*
X447429Y221584D01*
X447345Y221161D01*
Y220547D01*
X446669D01*
X446669Y220547D01*
X443416D01*
X443307Y220656D01*
Y220983D01*
X443067Y221561D01*
X442624Y222004D01*
X442045Y222244D01*
X441419D01*
X440840Y222004D01*
X440397Y221561D01*
X440158Y220983D01*
Y220656D01*
X440049Y220547D01*
X435321D01*
X435114Y221047D01*
X435193Y221126D01*
X435433Y221705D01*
Y222332D01*
X435193Y222910D01*
X434750Y223353D01*
X434336Y223525D01*
Y224055D01*
X434750Y224227D01*
X435193Y224670D01*
X435433Y225248D01*
Y225875D01*
X435299Y226197D01*
X435603Y226697D01*
X440049D01*
X440158Y226589D01*
Y226262D01*
X440397Y225683D01*
X440840Y225240D01*
X441419Y225000D01*
X442045D01*
X442624Y225240D01*
X443067Y225683D01*
X443307Y226262D01*
Y226589D01*
X443416Y226697D01*
X446217D01*
X446218Y226697D01*
X447345D01*
Y226083D01*
X447429Y225660D01*
X447668Y225302D01*
X448026Y225063D01*
X448449Y224979D01*
X452583D01*
X453005Y225063D01*
X453363Y225302D01*
X453603Y225660D01*
X453687Y226083D01*
Y227461D01*
X453603Y227883D01*
X453544Y227971D01*
X453403Y228346D01*
X453544Y228722D01*
X453603Y228810D01*
X453687Y229232D01*
Y230610D01*
X453603Y231033D01*
X453363Y231391D01*
X453005Y231630D01*
X452583Y231714D01*
X448449D01*
X448026Y231630D01*
X447668Y231391D01*
X447429Y231033D01*
X447345Y230610D01*
Y229996D01*
X446669D01*
X446669Y229996D01*
X443416D01*
X443307Y230104D01*
Y230431D01*
X443067Y231010D01*
X442624Y231453D01*
X442045Y231693D01*
X441419D01*
X440840Y231453D01*
X440397Y231010D01*
X440158Y230431D01*
Y230104D01*
X440049Y229996D01*
X435164D01*
X434957Y230496D01*
X435193Y230732D01*
X435433Y231311D01*
Y231937D01*
X435193Y232516D01*
X434750Y232959D01*
X434336Y233131D01*
Y233661D01*
X434750Y233832D01*
X435193Y234275D01*
X435433Y234854D01*
Y235481D01*
X435364Y235646D01*
X435699Y236146D01*
X440049D01*
X440158Y236037D01*
Y235710D01*
X440397Y235132D01*
X440840Y234689D01*
X441419Y234449D01*
X442045D01*
X442624Y234689D01*
X443067Y235132D01*
X443307Y235710D01*
Y236037D01*
X443416Y236146D01*
X446217D01*
X446218Y236146D01*
X447345D01*
Y235531D01*
X447429Y235109D01*
X447668Y234751D01*
X448026Y234512D01*
X448449Y234428D01*
X452583D01*
X453005Y234512D01*
X453363Y234751D01*
X453603Y235109D01*
X453687Y235531D01*
Y236909D01*
X453603Y237332D01*
X453544Y237420D01*
X453403Y237795D01*
X453544Y238171D01*
X453603Y238259D01*
X453687Y238681D01*
Y240059D01*
X453603Y240481D01*
X453363Y240840D01*
X453005Y241079D01*
X452583Y241163D01*
X448449D01*
X448026Y241079D01*
X447668Y240840D01*
X447429Y240481D01*
X447345Y240059D01*
Y239444D01*
X446669D01*
X446669Y239444D01*
X443416D01*
X443307Y239553D01*
Y239880D01*
X443067Y240459D01*
X442624Y240902D01*
X442045Y241142D01*
X441419D01*
X440840Y240902D01*
X440397Y240459D01*
X440158Y239880D01*
Y239553D01*
X440049Y239444D01*
X351881D01*
X303233Y288092D01*
X302875Y288331D01*
X302453Y288415D01*
X249942D01*
X249519Y288331D01*
X249161Y288092D01*
X246208Y285138D01*
X230256D01*
Y278563D01*
X229782Y278500D01*
X228967D01*
X221253Y286214D01*
X221253Y286214D01*
X219285Y288182D01*
X218926Y288421D01*
X218504Y288506D01*
X144882D01*
X144459Y288421D01*
X144101Y288182D01*
X141590Y285671D01*
X141351Y285313D01*
X141267Y284891D01*
Y281581D01*
X141209Y281542D01*
X140709Y281809D01*
Y285136D01*
X119134D01*
Y278561D01*
X118660Y278498D01*
X117810D01*
X117810Y278498D01*
X93949D01*
X93527Y278414D01*
X93168Y278175D01*
X73279Y258285D01*
X65901D01*
X65798Y258667D01*
X65796Y258785D01*
X66556Y259545D01*
X67098Y260483D01*
X67378Y261529D01*
Y262613D01*
X67098Y263659D01*
X66556Y264597D01*
X65790Y265363D01*
X64852Y265905D01*
X63805Y266185D01*
X62722D01*
X61676Y265905D01*
X60738Y265363D01*
X59972Y264597D01*
X59430Y263659D01*
X59150Y262613D01*
Y261529D01*
X59430Y260483D01*
X59972Y259545D01*
X60738Y258779D01*
X61676Y258237D01*
X62160Y258107D01*
Y257527D01*
X62244Y257105D01*
X62483Y256747D01*
X62594Y256636D01*
X62483Y256525D01*
X62244Y256167D01*
X62160Y255745D01*
Y255164D01*
X61676Y255035D01*
X60738Y254493D01*
X59972Y253727D01*
X59430Y252789D01*
X59150Y251743D01*
Y250659D01*
X59430Y249613D01*
X59972Y248675D01*
X60251Y248395D01*
X60044Y247895D01*
X59292D01*
X55142Y252046D01*
X54783Y252286D01*
X54361Y252369D01*
X51674D01*
X46082Y257962D01*
X45724Y258201D01*
X45302Y258285D01*
X43538D01*
X43436Y258667D01*
X43434Y258785D01*
X44194Y259545D01*
X44735Y260483D01*
X45016Y261529D01*
Y262613D01*
X44735Y263659D01*
X44194Y264597D01*
X43428Y265363D01*
X42490Y265905D01*
X41443Y266185D01*
X40360D01*
X39314Y265905D01*
X38375Y265363D01*
X37609Y264597D01*
X37068Y263659D01*
X36787Y262613D01*
Y261529D01*
X37068Y260483D01*
X37609Y259545D01*
X38375Y258779D01*
X39314Y258237D01*
X39798Y258107D01*
Y257527D01*
X39882Y257105D01*
X40121Y256747D01*
X40232Y256636D01*
X40121Y256525D01*
X39882Y256167D01*
X39798Y255745D01*
Y255164D01*
X39314Y255035D01*
X38375Y254493D01*
X37609Y253727D01*
X37068Y252789D01*
X36787Y251743D01*
Y250659D01*
X37068Y249613D01*
X37609Y248675D01*
X38375Y247909D01*
X39314Y247367D01*
X40360Y247087D01*
X41443D01*
X42490Y247367D01*
X43428Y247909D01*
X44194Y248675D01*
X44735Y249613D01*
X45016Y250659D01*
Y251743D01*
X44735Y252789D01*
X44194Y253727D01*
X43434Y254487D01*
X43436Y254605D01*
X43538Y254987D01*
X44393D01*
X49985Y249394D01*
X50343Y249155D01*
X50765Y249071D01*
X53452D01*
X57603Y244920D01*
X57961Y244681D01*
X58384Y244597D01*
X61425D01*
X61559Y244097D01*
X60738Y243623D01*
X59972Y242857D01*
X59430Y241919D01*
X59150Y240872D01*
Y239789D01*
X59430Y238743D01*
X59972Y237805D01*
X60738Y237038D01*
X61676Y236497D01*
X62160Y236367D01*
Y235787D01*
X62244Y235364D01*
X62483Y235006D01*
X62594Y234896D01*
X62483Y234785D01*
X62244Y234427D01*
X62160Y234004D01*
Y233424D01*
X61676Y233295D01*
X60738Y232753D01*
X59972Y231987D01*
X59430Y231049D01*
X59150Y230002D01*
Y228919D01*
X59430Y227873D01*
X59972Y226935D01*
X60251Y226655D01*
X60044Y226155D01*
X59293D01*
X55142Y230306D01*
X54783Y230545D01*
X54361Y230629D01*
X51674D01*
X46082Y236222D01*
X45724Y236461D01*
X45302Y236545D01*
X43538D01*
X43436Y236927D01*
X43434Y237045D01*
X44194Y237805D01*
X44735Y238743D01*
X45016Y239789D01*
Y240872D01*
X44735Y241919D01*
X44194Y242857D01*
X43428Y243623D01*
X42490Y244164D01*
X41443Y244445D01*
X40360D01*
X39314Y244164D01*
X38375Y243623D01*
X37609Y242857D01*
X37068Y241919D01*
X36787Y240872D01*
Y239789D01*
X37068Y238743D01*
X37609Y237805D01*
X38375Y237038D01*
X39314Y236497D01*
X39798Y236367D01*
Y235787D01*
X39882Y235364D01*
X40121Y235006D01*
X40232Y234896D01*
X40121Y234785D01*
X39882Y234427D01*
X39798Y234004D01*
Y233424D01*
X39314Y233295D01*
X38375Y232753D01*
X37609Y231987D01*
X37068Y231049D01*
X36787Y230002D01*
Y228919D01*
X37068Y227873D01*
X37609Y226935D01*
X38375Y226168D01*
X39314Y225627D01*
X40360Y225346D01*
X41443D01*
X42490Y225627D01*
X43428Y226168D01*
X44194Y226935D01*
X44735Y227873D01*
X45016Y228919D01*
Y230002D01*
X44735Y231049D01*
X44194Y231987D01*
X43434Y232747D01*
X43436Y232864D01*
X43538Y233246D01*
X44393D01*
X49985Y227655D01*
X50343Y227415D01*
X50765Y227331D01*
X53452D01*
X57603Y223180D01*
X57961Y222941D01*
X58384Y222857D01*
X61425D01*
X61559Y222357D01*
X60738Y221883D01*
X59972Y221117D01*
X59430Y220179D01*
X59150Y219132D01*
Y218049D01*
X59430Y217002D01*
X59972Y216064D01*
X60738Y215298D01*
X61676Y214757D01*
X62160Y214627D01*
Y214047D01*
X62244Y213624D01*
X62483Y213266D01*
X62594Y213156D01*
X62483Y213045D01*
X62244Y212687D01*
X62160Y212264D01*
Y211684D01*
X61676Y211554D01*
X60738Y211013D01*
X59972Y210247D01*
X59430Y209309D01*
X59150Y208262D01*
Y207179D01*
X59430Y206132D01*
X59972Y205194D01*
X60251Y204915D01*
X60044Y204415D01*
X59293D01*
X55142Y208566D01*
X54783Y208805D01*
X54361Y208889D01*
X51674D01*
X46082Y214481D01*
X45724Y214721D01*
X45302Y214805D01*
X43538D01*
X43436Y215187D01*
X43434Y215305D01*
X44194Y216064D01*
X44735Y217002D01*
X45016Y218049D01*
Y219132D01*
X44735Y220179D01*
X44194Y221117D01*
X43428Y221883D01*
X42490Y222424D01*
X41443Y222705D01*
X40360D01*
X39314Y222424D01*
X38375Y221883D01*
X37609Y221117D01*
X37068Y220179D01*
X36787Y219132D01*
Y218049D01*
X37068Y217002D01*
X37609Y216064D01*
X38375Y215298D01*
X39314Y214757D01*
X39798Y214627D01*
Y214047D01*
X39882Y213624D01*
X40121Y213266D01*
X40232Y213156D01*
X40121Y213045D01*
X39882Y212687D01*
X39798Y212264D01*
Y211684D01*
X39314Y211554D01*
X38375Y211013D01*
X37609Y210247D01*
X37068Y209309D01*
X36787Y208262D01*
Y207179D01*
X37068Y206132D01*
X37609Y205194D01*
X38375Y204428D01*
X39314Y203887D01*
X40360Y203606D01*
X41443D01*
X42490Y203887D01*
X43428Y204428D01*
X44194Y205194D01*
X44735Y206132D01*
X45016Y207179D01*
Y208262D01*
X44735Y209309D01*
X44194Y210247D01*
X43434Y211006D01*
X43436Y211124D01*
X43538Y211506D01*
X44393D01*
X49985Y205914D01*
X50343Y205675D01*
X50765Y205591D01*
X53452D01*
X57603Y201440D01*
X57961Y201201D01*
X58384Y201117D01*
X61424D01*
X61559Y200617D01*
X60738Y200143D01*
X59972Y199377D01*
X59430Y198439D01*
X59150Y197392D01*
Y196309D01*
X59430Y195262D01*
X59972Y194324D01*
X60738Y193558D01*
X61676Y193017D01*
X62160Y192887D01*
Y192307D01*
X62244Y191884D01*
X62483Y191526D01*
X62594Y191415D01*
X62483Y191305D01*
X62244Y190947D01*
X62160Y190524D01*
Y189944D01*
X61676Y189814D01*
X60738Y189272D01*
X59972Y188506D01*
X59430Y187568D01*
X59150Y186522D01*
Y186127D01*
X58650Y185920D01*
X57743Y186826D01*
X57385Y187065D01*
X56963Y187149D01*
X51674D01*
X46082Y192741D01*
X45724Y192981D01*
X45301Y193064D01*
X43538D01*
X43436Y193447D01*
X43434Y193564D01*
X44194Y194324D01*
X44735Y195262D01*
X45016Y196309D01*
Y197392D01*
X44735Y198439D01*
X44194Y199377D01*
X43428Y200143D01*
X42490Y200684D01*
X41443Y200965D01*
X40360D01*
X39314Y200684D01*
X38375Y200143D01*
X37609Y199377D01*
X37068Y198439D01*
X36787Y197392D01*
Y196309D01*
X37068Y195262D01*
X37609Y194324D01*
X38375Y193558D01*
X39314Y193017D01*
X39798Y192887D01*
Y192307D01*
X39882Y191884D01*
X40121Y191526D01*
X40232Y191415D01*
X40121Y191305D01*
X39882Y190947D01*
X39798Y190524D01*
Y189944D01*
X39314Y189814D01*
X38375Y189272D01*
X37609Y188506D01*
X37068Y187568D01*
X36787Y186522D01*
Y185439D01*
X37068Y184392D01*
X37609Y183454D01*
X38375Y182688D01*
X39314Y182147D01*
X40360Y181866D01*
X41443D01*
X42490Y182147D01*
X43428Y182688D01*
X44194Y183454D01*
X44735Y184392D01*
X45016Y185439D01*
Y186522D01*
X44735Y187568D01*
X44194Y188506D01*
X43434Y189266D01*
X43436Y189384D01*
X43538Y189766D01*
X44392D01*
X49985Y184174D01*
X50343Y183935D01*
X50765Y183851D01*
X56054D01*
X60856Y179048D01*
X60774Y178424D01*
X60738Y178402D01*
X59972Y177636D01*
X59430Y176698D01*
X59150Y175652D01*
Y174569D01*
X59430Y173522D01*
X59972Y172584D01*
X60738Y171818D01*
X61676Y171276D01*
X62160Y171147D01*
Y170566D01*
X62244Y170144D01*
X62483Y169786D01*
X62594Y169675D01*
X62483Y169564D01*
X62244Y169206D01*
X62160Y168784D01*
Y168204D01*
X61676Y168074D01*
X60738Y167532D01*
X59972Y166766D01*
X59430Y165828D01*
X59150Y164782D01*
Y163698D01*
X59333Y163014D01*
X58885Y162755D01*
X55899Y165741D01*
X55541Y165981D01*
X55118Y166065D01*
X51019D01*
X46082Y171001D01*
X45724Y171240D01*
X45302Y171324D01*
X43538D01*
X43436Y171706D01*
X43434Y171824D01*
X44194Y172584D01*
X44735Y173522D01*
X45016Y174569D01*
Y175652D01*
X44735Y176698D01*
X44194Y177636D01*
X43428Y178402D01*
X42490Y178944D01*
X41443Y179224D01*
X40360D01*
X39314Y178944D01*
X38375Y178402D01*
X37609Y177636D01*
X37068Y176698D01*
X36787Y175652D01*
Y174569D01*
X37068Y173522D01*
X37609Y172584D01*
X38375Y171818D01*
X39314Y171276D01*
X39798Y171147D01*
Y170566D01*
X39882Y170144D01*
X40121Y169786D01*
X40232Y169675D01*
X40121Y169564D01*
X39882Y169206D01*
X39798Y168784D01*
Y168204D01*
X39314Y168074D01*
X38375Y167532D01*
X37609Y166766D01*
X37068Y165828D01*
X36787Y164782D01*
Y163698D01*
X37068Y162652D01*
X37609Y161714D01*
X38375Y160948D01*
X39314Y160406D01*
X40360Y160126D01*
X41443D01*
X42490Y160406D01*
X43428Y160948D01*
X44194Y161714D01*
X44735Y162652D01*
X45016Y163698D01*
Y164782D01*
X44735Y165828D01*
X44194Y166766D01*
X43434Y167526D01*
X43436Y167644D01*
X43538Y168026D01*
X44393D01*
X49329Y163090D01*
X49687Y162850D01*
X49816Y162824D01*
X49903Y162297D01*
X49557Y162097D01*
X48791Y161331D01*
X48249Y160393D01*
X47969Y159347D01*
Y158263D01*
X48249Y157217D01*
X48791Y156279D01*
X49557Y155513D01*
X50495Y154971D01*
X51541Y154691D01*
X52624D01*
X53671Y154971D01*
X54105Y155222D01*
X55832Y153494D01*
Y151331D01*
X55917Y150909D01*
X56156Y150551D01*
X59849Y146857D01*
X60207Y146618D01*
X60630Y146534D01*
X61022D01*
X61156Y146034D01*
X60738Y145792D01*
X59972Y145026D01*
X59430Y144088D01*
X59150Y143042D01*
Y141958D01*
X59430Y140912D01*
X59972Y139974D01*
X60738Y139208D01*
X61676Y138666D01*
X62159Y138537D01*
X62093Y138037D01*
X60678D01*
X60255Y137953D01*
X59897Y137714D01*
X56446Y134263D01*
X55666Y135043D01*
X55917Y135477D01*
X56197Y136523D01*
Y137607D01*
X55917Y138653D01*
X55375Y139591D01*
X54609Y140357D01*
X53671Y140899D01*
X52624Y141179D01*
X51541D01*
X50495Y140899D01*
X49557Y140357D01*
X48791Y139591D01*
X48249Y138653D01*
X47969Y137607D01*
Y136523D01*
X48249Y135477D01*
X48791Y134539D01*
X49557Y133773D01*
X50495Y133231D01*
X51541Y132951D01*
X52624D01*
X53671Y133231D01*
X54105Y133482D01*
X55421Y132166D01*
X55779Y131926D01*
X56202Y131842D01*
X56675D01*
X56732Y131553D01*
X56972Y131195D01*
X57318Y130849D01*
X57676Y130610D01*
X58098Y130526D01*
X59300D01*
X59430Y130042D01*
X59972Y129104D01*
X60738Y128338D01*
X61676Y127796D01*
X62158Y127667D01*
X62092Y127167D01*
X60678D01*
X60255Y127083D01*
X59897Y126844D01*
X56446Y123392D01*
X55666Y124173D01*
X55917Y124607D01*
X56197Y125653D01*
Y126736D01*
X55917Y127783D01*
X55375Y128721D01*
X54609Y129487D01*
X53671Y130029D01*
X52624Y130309D01*
X51541D01*
X50495Y130029D01*
X49557Y129487D01*
X48791Y128721D01*
X48249Y127783D01*
X47969Y126736D01*
Y126341D01*
X47469Y126134D01*
X46082Y127521D01*
X45724Y127760D01*
X45302Y127844D01*
X43538D01*
X43436Y128226D01*
X43434Y128344D01*
X44194Y129104D01*
X44735Y130042D01*
X45016Y131088D01*
Y132171D01*
X44735Y133218D01*
X44194Y134156D01*
X43428Y134922D01*
X42490Y135464D01*
X41443Y135744D01*
X40360D01*
X39314Y135464D01*
X38375Y134922D01*
X37609Y134156D01*
X37068Y133218D01*
X36787Y132171D01*
Y131088D01*
X37068Y130042D01*
X37609Y129104D01*
X38375Y128338D01*
X39314Y127796D01*
X39798Y127666D01*
Y127086D01*
X39882Y126664D01*
X40121Y126305D01*
X40232Y126195D01*
X40121Y126084D01*
X39882Y125726D01*
X39798Y125304D01*
Y124723D01*
X39314Y124594D01*
X38375Y124052D01*
X37609Y123286D01*
X37068Y122348D01*
X36787Y121301D01*
Y120218D01*
X37068Y119172D01*
X37609Y118234D01*
X38375Y117468D01*
X39314Y116926D01*
X40360Y116646D01*
X41443D01*
X42490Y116926D01*
X43428Y117468D01*
X44194Y118234D01*
X44735Y119172D01*
X45016Y120218D01*
Y121301D01*
X44735Y122348D01*
X44194Y123286D01*
X43434Y124046D01*
X43436Y124163D01*
X43538Y124546D01*
X44393D01*
X49024Y119914D01*
X49382Y119675D01*
X49805Y119591D01*
X50244D01*
X50378Y119091D01*
X49557Y118617D01*
X48791Y117851D01*
X48249Y116913D01*
X47969Y115866D01*
Y114783D01*
X48249Y113737D01*
X48791Y112799D01*
X49557Y112033D01*
X50495Y111491D01*
X51541Y111211D01*
X52624D01*
X53671Y111491D01*
X53918Y111634D01*
X54971Y110580D01*
Y108395D01*
X55071Y107893D01*
X55356Y107467D01*
X106271Y56552D01*
X106697Y56268D01*
X107199Y56168D01*
X139231D01*
X139422Y55706D01*
X138852Y55136D01*
X119134D01*
Y53161D01*
X99486D01*
X44593Y108055D01*
X44735Y108302D01*
X45016Y109348D01*
Y110431D01*
X44735Y111478D01*
X44194Y112416D01*
X43428Y113182D01*
X42490Y113724D01*
X41443Y114004D01*
X40360D01*
X39314Y113724D01*
X38375Y113182D01*
X37609Y112416D01*
X37068Y111478D01*
X36787Y110431D01*
Y109348D01*
X37068Y108302D01*
X37609Y107363D01*
X38375Y106597D01*
X39314Y106056D01*
X40360Y105775D01*
X41443D01*
X42490Y106056D01*
X42737Y106198D01*
X98014Y50921D01*
X98440Y50636D01*
X98942Y50536D01*
X119134D01*
Y48561D01*
X140709D01*
Y53280D01*
X142809Y55380D01*
X145735D01*
X146134Y55136D01*
Y50418D01*
X141911Y46194D01*
X95032D01*
X68110Y73116D01*
Y73620D01*
X67811Y74343D01*
X67257Y74897D01*
X66533Y75197D01*
X65750D01*
X65027Y74897D01*
X64473Y74343D01*
X64173Y73620D01*
Y72837D01*
X64473Y72113D01*
X65027Y71560D01*
X65750Y71260D01*
X66254D01*
X93560Y43954D01*
X93986Y43669D01*
X94488Y43569D01*
X142454D01*
X142957Y43669D01*
X143383Y43954D01*
X147990Y48561D01*
X165852D01*
X168885Y45529D01*
X169311Y45244D01*
X169813Y45144D01*
X247638D01*
X248140Y45244D01*
X248566Y45529D01*
X251600Y48563D01*
X265807D01*
Y50538D01*
X307362D01*
X307864Y50638D01*
X308290Y50922D01*
X356410Y99042D01*
X356858Y98783D01*
X356685Y98136D01*
Y97139D01*
X356943Y96176D01*
X357442Y95312D01*
X358147Y94607D01*
X358666Y94307D01*
Y90526D01*
X334212Y66073D01*
X333821Y65487D01*
X333683Y64795D01*
Y62488D01*
X332758Y62303D01*
X331212Y61663D01*
X329820Y60733D01*
X328637Y59550D01*
X327707Y58158D01*
X327067Y56612D01*
X326740Y54971D01*
Y53297D01*
X327067Y51656D01*
X327707Y50109D01*
X328637Y48718D01*
X329820Y47534D01*
X331212Y46605D01*
X332758Y45964D01*
X333430Y45831D01*
Y24248D01*
X332758Y24114D01*
X331212Y23474D01*
X329820Y22544D01*
X328637Y21361D01*
X327707Y19969D01*
X327067Y18423D01*
X326740Y16782D01*
Y15108D01*
X327067Y13467D01*
X327707Y11920D01*
X328637Y10529D01*
X329820Y9346D01*
X331212Y8416D01*
X332758Y7775D01*
X334399Y7449D01*
X336073D01*
X337714Y7775D01*
X339261Y8416D01*
X340652Y9346D01*
X341835Y10529D01*
X342765Y11920D01*
X343406Y13467D01*
X343539Y14139D01*
X365122D01*
X365256Y13467D01*
X365896Y11920D01*
X366826Y10529D01*
X368009Y9346D01*
X369401Y8416D01*
X370947Y7775D01*
X372588Y7449D01*
X374262D01*
X375903Y7775D01*
X377450Y8416D01*
X378841Y9346D01*
X380025Y10529D01*
X380954Y11920D01*
X381595Y13467D01*
X381921Y15108D01*
Y16782D01*
X381595Y18423D01*
X380954Y19969D01*
X380025Y21361D01*
X378841Y22544D01*
X377450Y23474D01*
X375903Y24114D01*
X375232Y24248D01*
Y45831D01*
X375903Y45964D01*
X377450Y46605D01*
X378841Y47534D01*
X380025Y48718D01*
X380954Y50109D01*
X381595Y51656D01*
X381921Y53297D01*
Y54971D01*
X381595Y56612D01*
X380954Y58158D01*
X380025Y59550D01*
X378841Y60733D01*
X377450Y61663D01*
X375903Y62303D01*
X374262Y62630D01*
X372588D01*
X370947Y62303D01*
X369401Y61663D01*
X368009Y60733D01*
X366826Y59550D01*
X365896Y58158D01*
X365256Y56612D01*
X364929Y54971D01*
Y53297D01*
X365256Y51656D01*
X365896Y50109D01*
X366826Y48718D01*
X368009Y47534D01*
X369401Y46605D01*
X370947Y45964D01*
X371619Y45831D01*
Y24248D01*
X370947Y24114D01*
X369401Y23474D01*
X368009Y22544D01*
X366826Y21361D01*
X365896Y19969D01*
X365256Y18423D01*
X365122Y17751D01*
X343539D01*
X343406Y18423D01*
X342765Y19969D01*
X341835Y21361D01*
X340652Y22544D01*
X339261Y23474D01*
X337714Y24114D01*
X337043Y24248D01*
Y45831D01*
X337714Y45964D01*
X339261Y46605D01*
X340652Y47534D01*
X341835Y48718D01*
X342765Y50109D01*
X343406Y51656D01*
X343732Y53297D01*
Y54971D01*
X343406Y56612D01*
X342765Y58158D01*
X341835Y59550D01*
X340652Y60733D01*
X339261Y61663D01*
X337714Y62303D01*
X337296Y62387D01*
Y64047D01*
X361750Y88501D01*
X362141Y89087D01*
X362279Y89778D01*
Y94307D01*
X362798Y94607D01*
X363503Y95312D01*
X364002Y96176D01*
X364260Y97139D01*
Y98136D01*
X364002Y99100D01*
X363503Y99963D01*
X362798Y100669D01*
X361934Y101167D01*
X360971Y101425D01*
X359974D01*
X359327Y101252D01*
X359068Y101700D01*
X379678Y122309D01*
X450394D01*
X450896Y122409D01*
X451322Y122694D01*
X454222Y125594D01*
X454578Y125247D01*
X454145Y124497D01*
X453921Y123661D01*
Y122796D01*
X454145Y121959D01*
X454578Y121210D01*
X455190Y120598D01*
X455940Y120165D01*
X456776Y119941D01*
X457642D01*
X458478Y120165D01*
X459227Y120598D01*
X459839Y121210D01*
X460272Y121959D01*
X460496Y122796D01*
Y123661D01*
X460272Y124497D01*
X459839Y125247D01*
X459340Y125746D01*
X459499Y126246D01*
X461454D01*
X461956Y126346D01*
X462382Y126631D01*
X462967Y127217D01*
X463051Y127341D01*
X465969D01*
X466391Y127425D01*
X466749Y127664D01*
X466854Y127821D01*
X586539D01*
X589370Y124990D01*
Y124958D01*
X589610Y124380D01*
X590053Y123937D01*
X590632Y123697D01*
X591258D01*
X591837Y123937D01*
X592280Y124380D01*
X592520Y124958D01*
Y125585D01*
X592280Y126164D01*
X591837Y126607D01*
X591258Y126847D01*
X591226D01*
X589067Y129006D01*
X589234Y129546D01*
X589586Y129780D01*
X591226Y131421D01*
X591258D01*
X591837Y131661D01*
X592280Y132104D01*
X592520Y132683D01*
Y133309D01*
X592280Y133888D01*
X591837Y134331D01*
X591258Y134571D01*
X590632D01*
X590053Y134331D01*
X589610Y133888D01*
X589370Y133309D01*
Y133278D01*
X588114Y132021D01*
X467398D01*
X467072Y132347D01*
Y132972D01*
X466988Y133395D01*
X466749Y133753D01*
X466391Y133992D01*
X465969Y134076D01*
X461835D01*
X461412Y133992D01*
X461054Y133753D01*
X460815Y133395D01*
X460731Y132972D01*
Y132347D01*
X459728Y131344D01*
X458948D01*
X458581Y131496D01*
X457955D01*
X457376Y131256D01*
X456933Y130813D01*
X456693Y130235D01*
Y129608D01*
X456791Y129372D01*
X456457Y128872D01*
X454331D01*
X454187Y128843D01*
X453687Y129233D01*
Y129823D01*
X453603Y130245D01*
X453544Y130333D01*
X453468Y130535D01*
X453618Y130906D01*
X453673Y130971D01*
X454204D01*
X454226Y130948D01*
X454805Y130709D01*
X455431D01*
X456010Y130948D01*
X456453Y131391D01*
X456693Y131970D01*
Y132597D01*
X456453Y133176D01*
X456010Y133618D01*
X455431Y133858D01*
X454805D01*
X454226Y133618D01*
X454204Y133596D01*
X453468D01*
X453363Y133753D01*
X453005Y133992D01*
X452583Y134076D01*
X448449D01*
X448026Y133992D01*
X447668Y133753D01*
X447429Y133395D01*
X447345Y132972D01*
Y131595D01*
X447429Y131172D01*
X447488Y131084D01*
X447629Y130709D01*
X447488Y130333D01*
X447429Y130245D01*
X447391Y130053D01*
X379921D01*
X379419Y129953D01*
X379261Y129848D01*
X378943Y130236D01*
X379678Y130971D01*
X432550D01*
X432573Y130948D01*
X433151Y130709D01*
X433778D01*
X434357Y130948D01*
X434800Y131391D01*
X435039Y131970D01*
Y132597D01*
X434800Y133176D01*
X434357Y133618D01*
X433778Y133858D01*
X433151D01*
X432573Y133618D01*
X432550Y133596D01*
X379134D01*
X378649Y133500D01*
X378615Y133521D01*
X378354Y133912D01*
X382950Y138508D01*
X438189D01*
Y138073D01*
X438429Y137494D01*
X438872Y137051D01*
X439451Y136811D01*
X440077D01*
X440656Y137051D01*
X441099Y137494D01*
X441339Y138073D01*
Y138400D01*
X441447Y138508D01*
X447345D01*
Y137894D01*
X447429Y137471D01*
X447668Y137113D01*
X448026Y136874D01*
X448449Y136790D01*
X452583D01*
X453005Y136874D01*
X453363Y137113D01*
X453603Y137471D01*
X453687Y137894D01*
Y139272D01*
X453603Y139694D01*
X453544Y139782D01*
X453403Y140157D01*
X453544Y140533D01*
X453603Y140621D01*
X453687Y141043D01*
Y142421D01*
X453603Y142844D01*
X453363Y143202D01*
X453005Y143441D01*
X452583Y143525D01*
X448449D01*
X448026Y143441D01*
X447668Y143202D01*
X447429Y142844D01*
X447345Y142421D01*
Y141807D01*
X441447D01*
X441339Y141916D01*
Y142242D01*
X441099Y142821D01*
X440656Y143264D01*
X440077Y143504D01*
X439451D01*
X438872Y143264D01*
X438429Y142821D01*
X438189Y142242D01*
Y141916D01*
X438080Y141807D01*
X435305D01*
X434971Y142307D01*
X435039Y142472D01*
Y143099D01*
X434800Y143677D01*
X434357Y144121D01*
X433943Y144292D01*
Y144822D01*
X434357Y144994D01*
X434800Y145437D01*
X435039Y146016D01*
Y146642D01*
X434800Y147221D01*
X434563Y147457D01*
X434770Y147957D01*
X447345D01*
Y147343D01*
X447429Y146920D01*
X447668Y146562D01*
X448026Y146323D01*
X448449Y146239D01*
X452583D01*
X453005Y146323D01*
X453363Y146562D01*
X453603Y146920D01*
X453687Y147343D01*
Y147957D01*
X454215D01*
X454216Y147957D01*
X455009D01*
X455118Y147848D01*
Y147521D01*
X455358Y146943D01*
X455801Y146500D01*
X456380Y146260D01*
X457006D01*
X457585Y146500D01*
X458028Y146943D01*
X458268Y147521D01*
Y148148D01*
X458028Y148727D01*
X457585Y149170D01*
X457171Y149341D01*
Y149871D01*
X457585Y150043D01*
X458028Y150486D01*
X458268Y151065D01*
Y151691D01*
X458028Y152270D01*
X457585Y152713D01*
X457006Y152953D01*
X456380D01*
X455801Y152713D01*
X455358Y152270D01*
X455118Y151691D01*
Y151364D01*
X455009Y151256D01*
X453764D01*
X453687Y151742D01*
Y151870D01*
X453603Y152293D01*
X453363Y152651D01*
X453005Y152890D01*
X452583Y152974D01*
X448449D01*
X448026Y152890D01*
X447668Y152651D01*
X447429Y152293D01*
X447345Y151870D01*
Y151255D01*
X377711D01*
X377288Y151171D01*
X376930Y150932D01*
X324649Y98651D01*
X249851D01*
X249429Y98567D01*
X249071Y98328D01*
X245881Y95138D01*
X230256D01*
Y88563D01*
X229782Y88499D01*
X222904D01*
X218103Y93300D01*
X218103Y93300D01*
X213773Y97631D01*
X213415Y97870D01*
X212992Y97954D01*
X145669D01*
X145247Y97870D01*
X144889Y97631D01*
X141590Y94333D01*
X141351Y93975D01*
X141267Y93552D01*
Y91581D01*
X141209Y91542D01*
X140709Y91809D01*
Y95136D01*
X119134D01*
Y88561D01*
X118660Y88498D01*
X117810D01*
X117810Y88498D01*
X115456D01*
X66241Y137714D01*
X65883Y137953D01*
X65460Y138037D01*
X64435D01*
X64369Y138537D01*
X64852Y138666D01*
X65790Y139208D01*
X66556Y139974D01*
X67098Y140912D01*
X67227Y141396D01*
X70822D01*
X101150Y111068D01*
X101508Y110829D01*
X101931Y110745D01*
X119134D01*
Y108561D01*
X118701Y108399D01*
X111314D01*
X110958Y108755D01*
X110234Y109055D01*
X109451D01*
X108727Y108755D01*
X108174Y108202D01*
X107874Y107478D01*
Y106695D01*
X108174Y105972D01*
X108727Y105418D01*
X109451Y105118D01*
X110234D01*
X110958Y105418D01*
X111314Y105774D01*
X141732D01*
X142235Y105874D01*
X142660Y106158D01*
X145038Y108536D01*
X154921D01*
X155048Y108561D01*
X167709D01*
Y110536D01*
X174615D01*
X178993Y106158D01*
X179419Y105874D01*
X179921Y105774D01*
X248268D01*
X248770Y105874D01*
X249196Y106158D01*
X251600Y108563D01*
X265807D01*
Y110538D01*
X334685D01*
X335187Y110638D01*
X335613Y110922D01*
X386370Y161679D01*
X432550D01*
X432573Y161657D01*
X433151Y161417D01*
X433778D01*
X434357Y161657D01*
X434800Y162100D01*
X435039Y162679D01*
Y163305D01*
X434800Y163884D01*
X434357Y164327D01*
X433778Y164567D01*
X433848Y165038D01*
X444488D01*
X444911Y165122D01*
X445269Y165361D01*
X446883Y166975D01*
X447345Y166784D01*
Y166240D01*
X447429Y165818D01*
X447668Y165460D01*
X448026Y165220D01*
X448449Y165136D01*
X452583D01*
X453005Y165220D01*
X453363Y165460D01*
X453534Y165476D01*
X453971Y165038D01*
X453937Y164955D01*
Y164329D01*
X454177Y163750D01*
X454620Y163307D01*
X455199Y163067D01*
X455825D01*
X456404Y163307D01*
X456847Y163750D01*
X457087Y164329D01*
Y164955D01*
X456847Y165534D01*
X456664Y165716D01*
X456614Y165967D01*
X456330Y166393D01*
X454865Y167857D01*
X454439Y168142D01*
X453937Y168242D01*
X453683Y168742D01*
X453823Y168975D01*
X458672D01*
X458742Y168504D01*
X458163Y168264D01*
X457720Y167821D01*
X457480Y167242D01*
Y166616D01*
X457720Y166037D01*
X458163Y165594D01*
X458742Y165354D01*
X459368D01*
X459947Y165594D01*
X459970Y165617D01*
X460949D01*
X461054Y165460D01*
X461412Y165220D01*
X461835Y165136D01*
X465969D01*
X466391Y165220D01*
X466749Y165460D01*
X466854Y165617D01*
X593939D01*
X594441Y165716D01*
X594489Y165748D01*
X594801D01*
X595380Y165988D01*
X595823Y166431D01*
X596063Y167010D01*
Y167636D01*
X595823Y168215D01*
X595564Y168474D01*
X595771Y168974D01*
X611913D01*
X612089Y168741D01*
X611840Y168241D01*
X600787D01*
X600284Y168141D01*
X599859Y167857D01*
X598144Y166142D01*
X598112D01*
X597533Y165902D01*
X597090Y165459D01*
X596850Y164880D01*
Y164254D01*
X597090Y163675D01*
X597216Y163549D01*
X597009Y163049D01*
X595403D01*
X595380Y163071D01*
X594801Y163311D01*
X594175D01*
X593596Y163071D01*
X593153Y162628D01*
X592913Y162049D01*
Y161423D01*
X592980Y161261D01*
X592646Y160761D01*
X469587D01*
X469317Y160708D01*
X467072D01*
Y161319D01*
X466988Y161741D01*
X466749Y162100D01*
X466391Y162339D01*
X465969Y162423D01*
X461835D01*
X461412Y162339D01*
X461054Y162100D01*
X460815Y161741D01*
X460731Y161319D01*
Y159941D01*
X460815Y159519D01*
X460874Y159431D01*
X461015Y159055D01*
X460874Y158680D01*
X460815Y158592D01*
X460731Y158169D01*
Y156791D01*
X460815Y156369D01*
X461054Y156011D01*
X461412Y155772D01*
X461835Y155687D01*
X465969D01*
X466391Y155772D01*
X466749Y156011D01*
X466854Y156168D01*
X592646D01*
X592980Y155668D01*
X592913Y155506D01*
Y154880D01*
X593153Y154301D01*
X593596Y153858D01*
X594175Y153618D01*
X594378D01*
X594757Y153365D01*
X595259Y153265D01*
X597553D01*
X597652Y152765D01*
X597533Y152715D01*
X597090Y152272D01*
X596850Y151693D01*
Y151067D01*
X597090Y150488D01*
X597533Y150045D01*
X597994Y149854D01*
X598138Y149509D01*
X597994Y149164D01*
X597533Y148973D01*
X597090Y148530D01*
X596850Y147951D01*
Y147325D01*
X597090Y146746D01*
X597533Y146303D01*
X598112Y146063D01*
X598738D01*
X599317Y146303D01*
X599760Y146746D01*
X600000Y147325D01*
Y147652D01*
X600208Y147860D01*
X612203D01*
X612203Y147860D01*
X618110D01*
Y146259D01*
X627383D01*
X627559Y146259D01*
X627882Y145894D01*
Y143869D01*
X627559Y143503D01*
X627383Y143503D01*
X618110D01*
Y141806D01*
X607238D01*
X606815Y141722D01*
X606457Y141483D01*
X604018Y139044D01*
X604018Y139044D01*
X602260Y137286D01*
X600206D01*
X599881Y137786D01*
X600000Y138072D01*
Y138699D01*
X599760Y139277D01*
X599317Y139720D01*
X599262Y139743D01*
X599257Y139770D01*
X599017Y140129D01*
X598989Y140157D01*
X599017Y140186D01*
X599257Y140544D01*
X599262Y140571D01*
X599317Y140594D01*
X599760Y141037D01*
X600000Y141615D01*
Y142242D01*
X599760Y142821D01*
X599317Y143264D01*
X598738Y143503D01*
X598112D01*
X597533Y143264D01*
X597090Y142821D01*
X596850Y142242D01*
Y141806D01*
X467603D01*
X467601Y141807D01*
X467072D01*
Y142421D01*
X466988Y142844D01*
X466749Y143202D01*
X466391Y143441D01*
X465969Y143525D01*
X461835D01*
X461412Y143441D01*
X461054Y143202D01*
X460815Y142844D01*
X460731Y142421D01*
Y142059D01*
X460236Y142045D01*
X459997Y142624D01*
X459553Y143067D01*
X458975Y143307D01*
X458348D01*
X457769Y143067D01*
X457326Y142624D01*
X457087Y142045D01*
Y141419D01*
X457326Y140840D01*
X457769Y140397D01*
X458169Y140232D01*
X458183Y140204D01*
Y139696D01*
X457769Y139524D01*
X457326Y139081D01*
X457087Y138502D01*
Y137876D01*
X457326Y137297D01*
X457769Y136854D01*
X458348Y136614D01*
X458975D01*
X459553Y136854D01*
X459997Y137297D01*
X460236Y137876D01*
Y137881D01*
X460731Y137894D01*
X460815Y137471D01*
X461054Y137113D01*
X461412Y136874D01*
X461835Y136790D01*
X465969D01*
X466391Y136874D01*
X466749Y137113D01*
X466988Y137471D01*
X467072Y137894D01*
Y138021D01*
X467150Y138508D01*
X593108D01*
X593429Y138008D01*
X593307Y137715D01*
Y137088D01*
X593547Y136510D01*
X593990Y136066D01*
X594279Y135947D01*
X594263Y135569D01*
X594218Y135431D01*
X593679Y135207D01*
X593236Y134764D01*
X592996Y134185D01*
Y133559D01*
X593236Y132980D01*
X593679Y132537D01*
X594257Y132297D01*
X594884D01*
X595463Y132537D01*
X595906Y132980D01*
X596145Y133559D01*
Y133730D01*
X596403Y133988D01*
X599804D01*
X599896Y133496D01*
X599471Y133212D01*
X599186Y132786D01*
X599143Y132570D01*
X598144Y131571D01*
X598112D01*
X597533Y131331D01*
X597090Y130888D01*
X596850Y130309D01*
Y129683D01*
X596979Y129372D01*
X596669Y128872D01*
X595403D01*
X595380Y128894D01*
X594801Y129134D01*
X594175D01*
X593596Y128894D01*
X593153Y128451D01*
X592913Y127872D01*
Y127246D01*
X593153Y126667D01*
X593596Y126224D01*
X594175Y125984D01*
X594801D01*
X595380Y126224D01*
X595403Y126246D01*
X601181D01*
X601683Y126346D01*
X602109Y126631D01*
X603299Y127821D01*
X618110D01*
Y127362D01*
X627383D01*
X627559Y127362D01*
X627882Y126996D01*
Y87650D01*
X627882Y2039D01*
X2039D01*
Y391662D01*
X627882D01*
Y306050D01*
D02*
G37*
G36*
X342779Y232070D02*
X343138Y231831D01*
X343560Y231747D01*
X432175D01*
X432283Y231638D01*
Y231311D01*
X432523Y230732D01*
X432760Y230496D01*
X432552Y229996D01*
X338495D01*
X310320Y258170D01*
X309962Y258410D01*
X309539Y258494D01*
X251116D01*
X250694Y258410D01*
X250336Y258170D01*
X246819Y254654D01*
X246319Y254861D01*
Y255138D01*
X230256D01*
Y248563D01*
X229782Y248499D01*
X197592D01*
X188224Y257867D01*
X187866Y258106D01*
X187444Y258190D01*
X145669D01*
X145247Y258106D01*
X144889Y257867D01*
X141545Y254523D01*
X141305Y254165D01*
X141221Y253743D01*
Y251427D01*
X141209Y251418D01*
X140709Y251686D01*
Y255136D01*
X119134D01*
Y248561D01*
X118660Y248498D01*
X117810D01*
X117810Y248498D01*
X89819D01*
X89611Y248457D01*
X89364Y248917D01*
X105575Y265128D01*
X140642D01*
X141064Y265212D01*
X141422Y265452D01*
X145309Y269339D01*
X145549Y269697D01*
X145633Y270120D01*
Y272266D01*
X145634Y272267D01*
X146134Y272000D01*
Y268561D01*
X167709D01*
Y275136D01*
X168182Y275200D01*
X194543D01*
X203987Y265755D01*
X204345Y265516D01*
X204768Y265432D01*
X245171D01*
X245594Y265516D01*
X245952Y265755D01*
X248834Y268637D01*
X249073Y268995D01*
X249157Y269418D01*
Y272303D01*
X249244Y272361D01*
X249744Y272094D01*
Y268563D01*
X265807D01*
Y275138D01*
X266281Y275201D01*
X299648D01*
X342779Y232070D01*
D02*
G37*
G36*
X330305Y222464D02*
X330663Y222225D01*
X331086Y222141D01*
X432175D01*
X432283Y222032D01*
Y221705D01*
X432523Y221126D01*
X432603Y221047D01*
X432396Y220547D01*
X330588D01*
X323280Y227855D01*
X322921Y228095D01*
X322499Y228179D01*
X250801D01*
X250379Y228095D01*
X250021Y227855D01*
X246819Y224654D01*
X246319Y224861D01*
Y225138D01*
X230256D01*
Y218563D01*
X229782Y218499D01*
X221251D01*
X216922Y222828D01*
X216922Y222828D01*
X212288Y227462D01*
X211930Y227701D01*
X211508Y227785D01*
X145611D01*
X145189Y227701D01*
X144831Y227462D01*
X141590Y224221D01*
X141351Y223863D01*
X141267Y223441D01*
Y221581D01*
X141209Y221542D01*
X140709Y221809D01*
Y225136D01*
X119134D01*
Y218561D01*
X118660Y218498D01*
X117810D01*
X117810Y218498D01*
X85689D01*
X85267Y218414D01*
X84909Y218175D01*
X81539Y214805D01*
X65901D01*
X65798Y215187D01*
X65796Y215305D01*
X66556Y216064D01*
X67098Y217002D01*
X67378Y218049D01*
Y219132D01*
X67098Y220179D01*
X66556Y221117D01*
X65790Y221883D01*
X64969Y222357D01*
X65103Y222857D01*
X92847D01*
X93269Y222941D01*
X93627Y223180D01*
X105575Y235128D01*
X140642D01*
X141064Y235212D01*
X141422Y235452D01*
X145309Y239339D01*
X145549Y239697D01*
X145633Y240120D01*
Y242266D01*
X145634Y242267D01*
X146134Y242000D01*
Y238561D01*
X167709D01*
Y245136D01*
X168182Y245200D01*
X185555D01*
X194831Y235924D01*
X195189Y235685D01*
X195611Y235601D01*
X246515D01*
X246937Y235685D01*
X247295Y235924D01*
X249374Y238003D01*
X249613Y238361D01*
X249744Y238563D01*
X265807D01*
Y245138D01*
X266281Y245201D01*
X307568D01*
X330305Y222464D01*
D02*
G37*
G36*
X325297Y213090D02*
X325655Y212850D01*
X326077Y212766D01*
X413537D01*
X413537Y212766D01*
X432175D01*
X432283Y212658D01*
Y212331D01*
X432523Y211752D01*
X432677Y211598D01*
X432470Y211098D01*
X285224D01*
X284801Y211014D01*
X284443Y210775D01*
X271894Y198226D01*
X248303D01*
X247881Y198142D01*
X247523Y197903D01*
X245637Y196017D01*
X245397Y195659D01*
X245314Y195236D01*
Y195138D01*
X230256D01*
Y188563D01*
X229782Y188499D01*
X221392D01*
X211867Y198025D01*
X211509Y198264D01*
X211087Y198348D01*
X145308D01*
X144886Y198264D01*
X144528Y198025D01*
X141830Y195327D01*
X141590Y194969D01*
X141506Y194546D01*
Y191415D01*
X141171Y191079D01*
X140709Y191271D01*
Y195136D01*
X119134D01*
Y188561D01*
X118660Y188498D01*
X117810D01*
X117810Y188498D01*
X69807D01*
X65564Y192741D01*
X65476Y192800D01*
X65495Y193388D01*
X65790Y193558D01*
X66556Y194324D01*
X67098Y195262D01*
X67378Y196309D01*
Y197392D01*
X67098Y198439D01*
X66556Y199377D01*
X65790Y200143D01*
X64969Y200617D01*
X65103Y201117D01*
X79877D01*
X80300Y201201D01*
X80658Y201440D01*
X84346Y205128D01*
X140642D01*
X141064Y205212D01*
X141422Y205452D01*
X145309Y209339D01*
X145549Y209697D01*
X145633Y210120D01*
Y212266D01*
X145634Y212267D01*
X146134Y212000D01*
Y208561D01*
X167709D01*
Y215136D01*
X168182Y215200D01*
X195476D01*
X205461Y205216D01*
X205819Y204976D01*
X206241Y204892D01*
X245818D01*
X246240Y204976D01*
X246598Y205216D01*
X249506Y208123D01*
X249745Y208481D01*
X249761Y208563D01*
X265807D01*
Y215138D01*
X266281Y215201D01*
X323185D01*
X325297Y213090D01*
D02*
G37*
G36*
X432283Y203134D02*
Y202807D01*
X432523Y202229D01*
X432603Y202149D01*
X432396Y201649D01*
X360420D01*
X359998Y201565D01*
X359640Y201326D01*
X326741Y168427D01*
X251049D01*
X250627Y168343D01*
X250269Y168103D01*
X246819Y164654D01*
X246319Y164861D01*
Y165138D01*
X230256D01*
Y158563D01*
X229782Y158500D01*
X209424D01*
X199820Y168103D01*
X199462Y168343D01*
X199039Y168427D01*
X145308D01*
X144886Y168343D01*
X144528Y168103D01*
X141830Y165405D01*
X141590Y165047D01*
X141506Y164625D01*
Y161415D01*
X141171Y161080D01*
X140709Y161271D01*
Y165136D01*
X119134D01*
Y158561D01*
X118660Y158498D01*
X117810D01*
X117810Y158498D01*
X95786D01*
X83284Y171001D01*
X82925Y171240D01*
X82503Y171324D01*
X65901D01*
X65798Y171706D01*
X65796Y171824D01*
X66556Y172584D01*
X67098Y173522D01*
X67378Y174569D01*
Y175652D01*
X67098Y176698D01*
X66556Y177636D01*
X66277Y177916D01*
X66484Y178416D01*
X76039D01*
X79003Y175452D01*
X79361Y175212D01*
X79783Y175128D01*
X140642D01*
X141064Y175212D01*
X141422Y175452D01*
X145309Y179339D01*
X145549Y179697D01*
X145633Y180120D01*
Y182266D01*
X145634Y182267D01*
X146134Y182000D01*
Y178561D01*
X167709D01*
Y185136D01*
X168182Y185200D01*
X203429D01*
X212941Y175688D01*
X213299Y175449D01*
X213721Y175365D01*
X246212D01*
X246634Y175449D01*
X246992Y175688D01*
X249506Y178202D01*
X249745Y178560D01*
X249746Y178563D01*
X265807D01*
Y185138D01*
X266281Y185201D01*
X338167D01*
X338589Y185285D01*
X338947Y185525D01*
X356666Y203243D01*
X432175D01*
X432283Y203134D01*
D02*
G37*
G36*
X618110Y174606D02*
X627383D01*
X627559Y174606D01*
X627882Y174240D01*
Y172216D01*
X627559Y171850D01*
X627383Y171850D01*
X618110D01*
Y171182D01*
X615453D01*
X615448Y171194D01*
X614895Y171747D01*
X614171Y172047D01*
X613388D01*
X612665Y171747D01*
X612111Y171194D01*
X612106Y171182D01*
X601305D01*
X601098Y171682D01*
X604481Y175065D01*
X618110D01*
Y174606D01*
D02*
G37*
G36*
Y165156D02*
X627383D01*
X627559Y165156D01*
X627882Y164790D01*
Y162767D01*
X627559Y162401D01*
X627383Y162401D01*
X618110D01*
Y161942D01*
X610251D01*
X609528Y162664D01*
X609103Y162949D01*
X608600Y163049D01*
X599841D01*
X599634Y163549D01*
X599760Y163675D01*
X600000Y164254D01*
Y164285D01*
X601330Y165616D01*
X618110D01*
Y165156D01*
D02*
G37*
G36*
Y155708D02*
X627383D01*
X627559Y155708D01*
X627882Y155341D01*
Y153318D01*
X627559Y152952D01*
X627383Y152952D01*
X618110D01*
Y151158D01*
X611751D01*
X611751Y151158D01*
X600208D01*
X600000Y151367D01*
Y151693D01*
X599760Y152272D01*
X599317Y152715D01*
X599198Y152765D01*
X599297Y153265D01*
X604577D01*
X605080Y153365D01*
X605506Y153649D01*
X608023Y156167D01*
X618110D01*
Y155708D01*
D02*
G37*
G36*
Y136811D02*
X627383D01*
X627559Y136811D01*
X627882Y136444D01*
Y134421D01*
X627559Y134055D01*
X627383Y134055D01*
X618110D01*
Y133596D01*
X603928D01*
X603624Y134060D01*
X603628Y134096D01*
X603950Y134311D01*
X606670Y137031D01*
X606670Y137031D01*
X608147Y138508D01*
X618110D01*
Y136811D01*
D02*
G37*
G36*
X319665Y75326D02*
X319774Y74779D01*
X308157Y63163D01*
X265807D01*
Y65138D01*
X249744D01*
Y60419D01*
X247724Y58399D01*
X246751D01*
X246319Y58563D01*
Y65138D01*
X246319Y65138D01*
X246175Y65638D01*
X248288Y67751D01*
X248528Y68109D01*
X248612Y68532D01*
Y73204D01*
X250682Y75274D01*
X319259D01*
X319636Y75349D01*
X319665Y75326D01*
D02*
G37*
G36*
X207110Y72070D02*
X207110Y72070D01*
X213655Y65525D01*
X214014Y65285D01*
X214436Y65201D01*
X229782D01*
X230256Y65138D01*
Y58563D01*
X229824Y58399D01*
X210386D01*
X206440Y62345D01*
X206014Y62630D01*
X205512Y62730D01*
X167709D01*
Y65136D01*
X146134D01*
Y63161D01*
X144526D01*
X144024Y63061D01*
X143598Y62777D01*
X141171Y60350D01*
X140709Y60541D01*
Y65136D01*
X140709Y65136D01*
X140565Y65636D01*
X144391Y69462D01*
X144630Y69820D01*
X144714Y70243D01*
Y73107D01*
X146488Y74880D01*
X204300D01*
X207110Y72070D01*
D02*
G37*
%LPC*%
G36*
X583562Y365984D02*
X582422D01*
X581320Y365689D01*
X580333Y365119D01*
X579527Y364313D01*
X578957Y363325D01*
X578661Y362224D01*
Y361083D01*
X578957Y359982D01*
X579527Y358994D01*
X580333Y358188D01*
X581320Y357618D01*
X582422Y357323D01*
X583562D01*
X584664Y357618D01*
X585651Y358188D01*
X586457Y358994D01*
X587028Y359982D01*
X587323Y361083D01*
Y362224D01*
X587028Y363325D01*
X586457Y364313D01*
X585651Y365119D01*
X584664Y365689D01*
X583562Y365984D01*
D02*
G37*
G36*
X543562D02*
X542422D01*
X541321Y365689D01*
X540333Y365119D01*
X539527Y364313D01*
X538957Y363325D01*
X538661Y362224D01*
Y361083D01*
X538957Y359982D01*
X539527Y358994D01*
X540333Y358188D01*
X541321Y357618D01*
X542422Y357323D01*
X543562D01*
X544664Y357618D01*
X545651Y358188D01*
X546457Y358994D01*
X547028Y359982D01*
X547323Y361083D01*
Y362224D01*
X547028Y363325D01*
X546457Y364313D01*
X545651Y365119D01*
X544664Y365689D01*
X543562Y365984D01*
D02*
G37*
G36*
X528444D02*
X527304D01*
X526202Y365689D01*
X525215Y365119D01*
X524409Y364313D01*
X523839Y363325D01*
X523543Y362224D01*
Y361083D01*
X523839Y359982D01*
X524409Y358994D01*
X525215Y358188D01*
X526202Y357618D01*
X527304Y357323D01*
X528444D01*
X529546Y357618D01*
X530533Y358188D01*
X531339Y358994D01*
X531910Y359982D01*
X532205Y361083D01*
Y362224D01*
X531910Y363325D01*
X531339Y364313D01*
X530533Y365119D01*
X529546Y365689D01*
X528444Y365984D01*
D02*
G37*
G36*
X488444D02*
X487304D01*
X486202Y365689D01*
X485215Y365119D01*
X484409Y364313D01*
X483839Y363325D01*
X483543Y362224D01*
Y361083D01*
X483839Y359982D01*
X484409Y358994D01*
X485215Y358188D01*
X486202Y357618D01*
X487304Y357323D01*
X488444D01*
X489546Y357618D01*
X490533Y358188D01*
X491339Y358994D01*
X491910Y359982D01*
X492205Y361083D01*
Y362224D01*
X491910Y363325D01*
X491339Y364313D01*
X490533Y365119D01*
X489546Y365689D01*
X488444Y365984D01*
D02*
G37*
G36*
X317099Y366587D02*
X316101D01*
X315138Y366329D01*
X314275Y365831D01*
X313569Y365125D01*
X313071Y364262D01*
X312813Y363299D01*
Y362301D01*
X313071Y361338D01*
X313569Y360474D01*
X314275Y359769D01*
X315138Y359271D01*
X316101Y359013D01*
X317099D01*
X318062Y359271D01*
X318196Y359348D01*
X320735Y356809D01*
Y353935D01*
X320235Y353869D01*
X320129Y354262D01*
X319631Y355125D01*
X318925Y355831D01*
X318062Y356329D01*
X317099Y356587D01*
X316101D01*
X315138Y356329D01*
X314275Y355831D01*
X313569Y355125D01*
X313071Y354262D01*
X312813Y353299D01*
Y352301D01*
X313071Y351338D01*
X313569Y350475D01*
X314275Y349769D01*
X315138Y349271D01*
X316101Y349013D01*
X317099D01*
X318062Y349271D01*
X318925Y349769D01*
X319631Y350475D01*
X320129Y351338D01*
X320235Y351731D01*
X320735Y351665D01*
Y348031D01*
X320834Y347529D01*
X321119Y347103D01*
X325844Y342379D01*
X326269Y342094D01*
X326772Y341995D01*
X337645D01*
X339730Y339910D01*
Y339162D01*
X339212Y338816D01*
X338651Y337976D01*
X338454Y336985D01*
Y328442D01*
X338651Y327451D01*
X339212Y326611D01*
X340052Y326050D01*
X341043Y325853D01*
X342034Y326050D01*
X342874Y326611D01*
X343435Y327451D01*
X343632Y328442D01*
Y336985D01*
X343435Y337976D01*
X342874Y338816D01*
X342355Y339162D01*
Y340453D01*
X342255Y340956D01*
X341971Y341382D01*
X339117Y344235D01*
X338691Y344520D01*
X338189Y344620D01*
X327315D01*
X323360Y348575D01*
Y357353D01*
X323260Y357855D01*
X322975Y358281D01*
X320052Y361204D01*
X320129Y361338D01*
X320387Y362301D01*
Y363299D01*
X320129Y364262D01*
X319631Y365125D01*
X318925Y365831D01*
X318062Y366329D01*
X317099Y366587D01*
D02*
G37*
G36*
X377499Y355587D02*
X376501D01*
X375538Y355329D01*
X374675Y354831D01*
X373969Y354125D01*
X373471Y353262D01*
X373213Y352299D01*
Y351301D01*
X373471Y350338D01*
X373969Y349475D01*
X374675Y348769D01*
X375538Y348271D01*
X376501Y348013D01*
X377499D01*
X378462Y348271D01*
X379326Y348769D01*
X380031Y349475D01*
X380529Y350338D01*
X380787Y351301D01*
Y352299D01*
X380529Y353262D01*
X380031Y354125D01*
X379326Y354831D01*
X378462Y355329D01*
X377499Y355587D01*
D02*
G37*
G36*
X265807Y345138D02*
X249744D01*
Y343657D01*
X246319D01*
Y345138D01*
X230256D01*
Y343656D01*
X167709D01*
Y345136D01*
X146134D01*
Y343655D01*
X140709D01*
Y345136D01*
X119134D01*
Y343655D01*
X104712D01*
X104020Y343518D01*
X103434Y343126D01*
X46433Y286124D01*
X44317D01*
X44194Y286337D01*
X43428Y287103D01*
X42490Y287645D01*
X41443Y287925D01*
X40360D01*
X39314Y287645D01*
X38375Y287103D01*
X37609Y286337D01*
X37068Y285399D01*
X36787Y284353D01*
Y283269D01*
X37068Y282223D01*
X37609Y281285D01*
X38375Y280519D01*
X39314Y279977D01*
X40360Y279697D01*
X41443D01*
X42490Y279977D01*
X43428Y280519D01*
X44194Y281285D01*
X44735Y282223D01*
X44813Y282512D01*
X47181D01*
X47872Y282649D01*
X48458Y283041D01*
X105460Y340042D01*
X119134D01*
Y338561D01*
X140709D01*
Y340042D01*
X146134D01*
Y338561D01*
X167709D01*
Y340043D01*
X230256D01*
Y338563D01*
X246319D01*
Y340044D01*
X249744D01*
Y338563D01*
X265807D01*
Y340044D01*
X277086D01*
X281240Y335891D01*
X281402Y335499D01*
X281956Y334945D01*
X282679Y334646D01*
X283462D01*
X284186Y334945D01*
X284740Y335499D01*
X285039Y336223D01*
Y337006D01*
X284740Y337729D01*
X284186Y338283D01*
X283794Y338445D01*
X279112Y343128D01*
X278526Y343519D01*
X277835Y343657D01*
X265807D01*
Y345138D01*
D02*
G37*
G36*
X444899Y348287D02*
X443901D01*
X442938Y348029D01*
X442074Y347531D01*
X441369Y346826D01*
X440871Y345962D01*
X440613Y344999D01*
Y344001D01*
X440871Y343038D01*
X441369Y342175D01*
X442074Y341469D01*
X442938Y340971D01*
X443901Y340713D01*
X444899D01*
X445862Y340971D01*
X446726Y341469D01*
X447431Y342175D01*
X447929Y343038D01*
X448187Y344001D01*
Y344999D01*
X447929Y345962D01*
X447431Y346826D01*
X446726Y347531D01*
X445862Y348029D01*
X444899Y348287D01*
D02*
G37*
G36*
X392933Y339686D02*
X384921D01*
X384614Y339625D01*
X384353Y339451D01*
X384179Y339190D01*
X384118Y338883D01*
Y331733D01*
X383618Y331399D01*
X383384Y331496D01*
X382989D01*
X382928Y331802D01*
X382682Y332170D01*
X382314Y332416D01*
X381880Y332502D01*
X380561D01*
X380127Y332416D01*
X379759Y332170D01*
X379513Y331802D01*
X379427Y331368D01*
Y328474D01*
X379513Y328041D01*
X379759Y327673D01*
X380127Y327427D01*
X380561Y327340D01*
X381880D01*
X382314Y327427D01*
X382682Y327673D01*
X382928Y328041D01*
X382989Y328346D01*
X383384D01*
X383618Y328443D01*
X384118Y328109D01*
Y320494D01*
X383618Y320271D01*
X383525Y320333D01*
X383218Y320394D01*
X374950D01*
X374643Y320333D01*
X374383Y320159D01*
X374209Y319899D01*
X374148Y319592D01*
Y312505D01*
X374209Y312198D01*
X374383Y311937D01*
X374643Y311763D01*
X374950Y311702D01*
X375575D01*
Y302269D01*
X375636Y301961D01*
X375810Y301701D01*
X376071Y301527D01*
X376378Y301466D01*
X383764Y301466D01*
X384118Y301112D01*
Y285812D01*
X384179Y285505D01*
X384353Y285244D01*
X384614Y285070D01*
X384921Y285009D01*
X392933D01*
X393240Y285070D01*
X393500Y285244D01*
X393674Y285505D01*
X393736Y285812D01*
Y338883D01*
X393674Y339190D01*
X393500Y339451D01*
X393240Y339625D01*
X392933Y339686D01*
D02*
G37*
G36*
X332933D02*
X324921D01*
X324614Y339625D01*
X324353Y339451D01*
X324179Y339190D01*
X324118Y338883D01*
Y330244D01*
X323622Y330235D01*
X323382Y330813D01*
X322939Y331256D01*
X322360Y331496D01*
X321734D01*
X321691Y331478D01*
X321120Y331783D01*
X321117Y331802D01*
X320871Y332170D01*
X320503Y332416D01*
X320069Y332502D01*
X318750D01*
X318316Y332416D01*
X317948Y332170D01*
X317702Y331802D01*
X317616Y331368D01*
Y328474D01*
X317702Y328041D01*
X317948Y327673D01*
X318316Y327427D01*
X318750Y327340D01*
X320069D01*
X320503Y327427D01*
X320871Y327673D01*
X321117Y328041D01*
X321120Y328059D01*
X321691Y328364D01*
X321734Y328346D01*
X322360D01*
X322939Y328586D01*
X323382Y329029D01*
X323622Y329608D01*
X324118Y329598D01*
Y320602D01*
X323618Y320372D01*
X323536Y320427D01*
X323228Y320488D01*
X314961D01*
X314653Y320427D01*
X314393Y320253D01*
X314219Y319992D01*
X314158Y319685D01*
Y312598D01*
X314219Y312291D01*
X314393Y312031D01*
X314653Y311857D01*
X314961Y311796D01*
X315669D01*
X315733Y311718D01*
Y302269D01*
X315794Y301961D01*
X315968Y301701D01*
X316228Y301527D01*
X316535Y301466D01*
X324118Y301466D01*
Y285812D01*
X324179Y285505D01*
X324353Y285244D01*
X324614Y285070D01*
X324921Y285009D01*
X332933D01*
X333240Y285070D01*
X333500Y285244D01*
X333674Y285505D01*
X333735Y285812D01*
Y338883D01*
X333674Y339190D01*
X333500Y339451D01*
X333240Y339625D01*
X332933Y339686D01*
D02*
G37*
G36*
X315354Y337402D02*
X310630D01*
Y332677D01*
X312124D01*
X312211Y332177D01*
X312200Y332170D01*
X311954Y331802D01*
X311868Y331368D01*
Y328474D01*
X311954Y328041D01*
X312200Y327673D01*
X312568Y327427D01*
X313002Y327340D01*
X314321D01*
X314755Y327427D01*
X315123Y327673D01*
X315369Y328041D01*
X315455Y328474D01*
Y331368D01*
X315369Y331802D01*
X315123Y332170D01*
X315112Y332177D01*
X315264Y332677D01*
X315354D01*
Y337402D01*
D02*
G37*
G36*
X377559D02*
X372835D01*
Y332677D01*
X373935D01*
X374022Y332177D01*
X374011Y332170D01*
X373765Y331802D01*
X373679Y331368D01*
Y328474D01*
X373765Y328041D01*
X374011Y327673D01*
X374379Y327427D01*
X374813Y327340D01*
X376132D01*
X376566Y327427D01*
X376934Y327673D01*
X377180Y328041D01*
X377266Y328474D01*
Y331368D01*
X377180Y331802D01*
X376934Y332170D01*
X376923Y332177D01*
X377075Y332677D01*
X377559D01*
Y337402D01*
D02*
G37*
G36*
X377499Y365587D02*
X376501D01*
X375538Y365329D01*
X374675Y364831D01*
X373969Y364125D01*
X373471Y363262D01*
X373213Y362299D01*
Y361301D01*
X373471Y360338D01*
X373969Y359474D01*
X374675Y358769D01*
X375538Y358271D01*
X376501Y358013D01*
X377499D01*
X378462Y358271D01*
X378708Y358413D01*
X381758Y355362D01*
Y348031D01*
X381858Y347529D01*
X382143Y347103D01*
X387261Y341985D01*
X387687Y341701D01*
X388189Y341601D01*
X397882D01*
X399730Y339752D01*
Y339162D01*
X399212Y338816D01*
X398651Y337976D01*
X398454Y336985D01*
Y328442D01*
X398651Y327451D01*
X399212Y326611D01*
X400052Y326050D01*
X401043Y325853D01*
X402034Y326050D01*
X402874Y326611D01*
X403435Y327451D01*
X403632Y328442D01*
Y336985D01*
X403435Y337976D01*
X402874Y338816D01*
X402355Y339162D01*
Y340296D01*
X402255Y340798D01*
X401971Y341224D01*
X399353Y343842D01*
X398927Y344126D01*
X398425Y344226D01*
X388733D01*
X384384Y348575D01*
Y355906D01*
X384284Y356408D01*
X383999Y356834D01*
X380517Y360316D01*
X380529Y360338D01*
X380787Y361301D01*
Y362299D01*
X380529Y363262D01*
X380031Y364125D01*
X379326Y364831D01*
X378462Y365329D01*
X377499Y365587D01*
D02*
G37*
G36*
X464899Y348287D02*
X463901D01*
X462938Y348029D01*
X462075Y347531D01*
X461369Y346826D01*
X460871Y345962D01*
X460613Y344999D01*
Y344001D01*
X460871Y343038D01*
X461369Y342175D01*
X461620Y341923D01*
Y328937D01*
X457350Y324667D01*
X456926Y324950D01*
X457085Y325334D01*
X457180Y326054D01*
Y341923D01*
X457431Y342175D01*
X457929Y343038D01*
X458187Y344001D01*
Y344999D01*
X457929Y345962D01*
X457431Y346826D01*
X456726Y347531D01*
X455862Y348029D01*
X454899Y348287D01*
X453901D01*
X452938Y348029D01*
X452074Y347531D01*
X451369Y346826D01*
X450871Y345962D01*
X450613Y344999D01*
Y344001D01*
X450871Y343038D01*
X451369Y342175D01*
X451620Y341923D01*
Y327205D01*
X432286Y307871D01*
X431845Y307295D01*
X431567Y306625D01*
X431472Y305906D01*
Y283041D01*
X426408Y277976D01*
X419859D01*
X419760Y278477D01*
X420288Y278695D01*
X420863Y279137D01*
X424013Y282286D01*
X424454Y282862D01*
X424529Y283041D01*
X428366Y283041D01*
X428673Y283102D01*
X428933Y283276D01*
X429107Y283536D01*
X429169Y283844D01*
X429169Y316892D01*
X429669Y317180D01*
X429798Y317106D01*
X430499Y316918D01*
X431224D01*
X431925Y317106D01*
X432554Y317469D01*
X433067Y317982D01*
X433429Y318610D01*
X433617Y319311D01*
Y320037D01*
X433429Y320738D01*
X433067Y321366D01*
X432554Y321879D01*
X431925Y322242D01*
X431224Y322430D01*
X430499D01*
X429798Y322242D01*
X429669Y322167D01*
X429169Y322456D01*
X429169Y328316D01*
X429214Y328346D01*
X429841D01*
X430420Y328586D01*
X430863Y329029D01*
X431102Y329608D01*
Y330235D01*
X430863Y330813D01*
X430420Y331256D01*
X429841Y331496D01*
X429669D01*
X429169Y331977D01*
X429169Y338883D01*
X429107Y339190D01*
X428933Y339451D01*
X428673Y339625D01*
X428366Y339686D01*
X419311D01*
X419003Y339625D01*
X418743Y339451D01*
X418569Y339190D01*
X418508Y338883D01*
Y338767D01*
X418008Y338615D01*
X417873Y338816D01*
X417034Y339377D01*
X416043Y339574D01*
X415052Y339377D01*
X414212Y338816D01*
X413843Y338264D01*
X413242D01*
X412874Y338816D01*
X412034Y339377D01*
X411043Y339574D01*
X410052Y339377D01*
X409212Y338816D01*
X408651Y337976D01*
X408454Y336985D01*
Y328442D01*
X408651Y327451D01*
X409212Y326611D01*
X409724Y326269D01*
X409722Y324301D01*
X409722Y324301D01*
X409722Y324300D01*
Y323775D01*
X409576D01*
X409142Y323688D01*
X408774Y323442D01*
X408673Y323291D01*
X407213D01*
X407114Y323439D01*
X406746Y323685D01*
X406312Y323771D01*
X403418D01*
X402984Y323685D01*
X402616Y323439D01*
X402370Y323071D01*
X402284Y322637D01*
Y321319D01*
X402370Y320884D01*
X402616Y320517D01*
X402984Y320271D01*
X403418Y320184D01*
X406256D01*
X406360Y320054D01*
X406488Y319710D01*
X404802Y318023D01*
X403418D01*
X402984Y317937D01*
X402616Y317691D01*
X402370Y317323D01*
X402284Y316889D01*
Y315570D01*
X402370Y315137D01*
X402616Y314769D01*
X402984Y314523D01*
X403418Y314437D01*
X406312D01*
X406746Y314523D01*
X407114Y314769D01*
X407359Y315137D01*
X407446Y315570D01*
Y316889D01*
X407435Y316944D01*
X408282Y317791D01*
X422445D01*
Y313308D01*
X419311D01*
X419003Y313247D01*
X418743Y313073D01*
X418569Y312812D01*
X418508Y312505D01*
Y292033D01*
X418508Y284644D01*
X417746Y283882D01*
X402212D01*
X401492Y283787D01*
X400822Y283510D01*
X400246Y283068D01*
X396163Y278984D01*
X395249D01*
X394286Y278726D01*
X393423Y278227D01*
X392717Y277522D01*
X392219Y276659D01*
X391961Y275695D01*
Y274698D01*
X392219Y273735D01*
X392717Y272871D01*
X393423Y272166D01*
X394085Y271784D01*
X393951Y271284D01*
X388947D01*
X383068Y277162D01*
X382492Y277604D01*
X381822Y277882D01*
X381102Y277976D01*
X359623D01*
X359524Y278477D01*
X360051Y278695D01*
X360627Y279137D01*
X363642Y282152D01*
X364084Y282728D01*
X364213Y283041D01*
X368366Y283041D01*
X368673Y283102D01*
X368933Y283276D01*
X369107Y283536D01*
X369168Y283844D01*
X369168Y316892D01*
X369669Y317180D01*
X369798Y317106D01*
X370499Y316918D01*
X371224D01*
X371925Y317106D01*
X372554Y317469D01*
X373067Y317982D01*
X373429Y318610D01*
X373617Y319311D01*
Y320037D01*
X373429Y320738D01*
X373067Y321366D01*
X372554Y321879D01*
X371925Y322242D01*
X371224Y322430D01*
X370499D01*
X369798Y322242D01*
X369669Y322167D01*
X369168Y322456D01*
X369168Y328211D01*
X369372Y328346D01*
X369998D01*
X370577Y328586D01*
X371020Y329029D01*
X371260Y329608D01*
Y330235D01*
X371020Y330813D01*
X370577Y331256D01*
X369998Y331496D01*
X369669D01*
X369168Y331912D01*
X369168Y338883D01*
X369107Y339190D01*
X368933Y339451D01*
X368673Y339625D01*
X368366Y339686D01*
X359311D01*
X359003Y339625D01*
X358743Y339451D01*
X358569Y339190D01*
X358508Y338883D01*
Y338767D01*
X358008Y338615D01*
X357874Y338816D01*
X357034Y339377D01*
X356043Y339574D01*
X355052Y339377D01*
X354212Y338816D01*
X353843Y338264D01*
X353242D01*
X352873Y338816D01*
X352034Y339377D01*
X351043Y339574D01*
X350052Y339377D01*
X349212Y338816D01*
X348651Y337976D01*
X348454Y336985D01*
Y328442D01*
X348651Y327451D01*
X349212Y326611D01*
X349724Y326269D01*
X349722Y324301D01*
X349525Y323869D01*
X349336D01*
X348902Y323783D01*
X348534Y323537D01*
X348369Y323291D01*
X347749D01*
X347524Y323627D01*
X347156Y323872D01*
X346722Y323959D01*
X343829D01*
X343395Y323872D01*
X343027Y323627D01*
X342781Y323259D01*
X342695Y322825D01*
Y321506D01*
X342781Y321072D01*
X343027Y320704D01*
X343395Y320458D01*
X343829Y320372D01*
X346667D01*
X346771Y320242D01*
X346899Y319897D01*
X345213Y318211D01*
X343829D01*
X343395Y318124D01*
X343027Y317879D01*
X342781Y317511D01*
X342695Y317077D01*
Y315758D01*
X342781Y315324D01*
X343027Y314956D01*
X343395Y314710D01*
X343829Y314624D01*
X346722D01*
X347156Y314710D01*
X347524Y314956D01*
X347770Y315324D01*
X347856Y315758D01*
Y317077D01*
X347846Y317131D01*
X348505Y317791D01*
X362445D01*
Y313308D01*
X359311D01*
X359003Y313247D01*
X358743Y313073D01*
X358569Y312812D01*
X358508Y312505D01*
Y292033D01*
X358508Y284880D01*
X357510Y283882D01*
X342369D01*
X341650Y283787D01*
X340979Y283510D01*
X340404Y283068D01*
X336320Y278984D01*
X335407D01*
X334444Y278726D01*
X333580Y278227D01*
X332875Y277522D01*
X332376Y276659D01*
X332118Y275695D01*
Y274698D01*
X332376Y273735D01*
X332875Y272871D01*
X333580Y272166D01*
X334444Y271668D01*
X335407Y271410D01*
X336404D01*
X337367Y271668D01*
X338231Y272166D01*
X338936Y272871D01*
X339435Y273735D01*
X339618Y274420D01*
X341859Y276661D01*
X342308Y276402D01*
X342118Y275695D01*
Y274698D01*
X342376Y273735D01*
X342875Y272871D01*
X343580Y272166D01*
X344444Y271668D01*
X345407Y271410D01*
X346404D01*
X347367Y271668D01*
X348231Y272166D01*
X348936Y272871D01*
X349435Y273735D01*
X349693Y274698D01*
Y275695D01*
X349435Y276659D01*
X348936Y277522D01*
X348636Y277823D01*
X348843Y278323D01*
X352968D01*
X353175Y277823D01*
X352875Y277522D01*
X352376Y276659D01*
X352118Y275695D01*
Y274698D01*
X352376Y273735D01*
X352875Y272871D01*
X353580Y272166D01*
X354444Y271668D01*
X355407Y271410D01*
X356404D01*
X357367Y271668D01*
X358231Y272166D01*
X358482Y272417D01*
X379951D01*
X385830Y266538D01*
X386405Y266097D01*
X387076Y265819D01*
X387795Y265724D01*
X432283D01*
X433003Y265819D01*
X433673Y266097D01*
X434249Y266538D01*
X442123Y274412D01*
X442565Y274988D01*
X442842Y275658D01*
X442937Y276378D01*
Y302392D01*
X466365Y325820D01*
X466807Y326396D01*
X467085Y327066D01*
X467180Y327786D01*
Y341923D01*
X467431Y342175D01*
X467929Y343038D01*
X468187Y344001D01*
Y344999D01*
X467929Y345962D01*
X467431Y346826D01*
X466725Y347531D01*
X465862Y348029D01*
X464899Y348287D01*
D02*
G37*
G36*
X265807Y325138D02*
X249744D01*
Y323657D01*
X246319D01*
Y325138D01*
X230256D01*
Y323656D01*
X167709D01*
Y325136D01*
X146134D01*
Y323655D01*
X140709D01*
Y325136D01*
X119134D01*
Y323655D01*
X91534D01*
X90843Y323518D01*
X90257Y323126D01*
X51266Y284136D01*
X50875Y283550D01*
X50737Y282859D01*
Y282275D01*
X50495Y282210D01*
X49557Y281668D01*
X48791Y280902D01*
X48249Y279964D01*
X47969Y278918D01*
Y277834D01*
X48249Y276788D01*
X48791Y275850D01*
X49393Y275247D01*
X49186Y274747D01*
X44609D01*
X44194Y275467D01*
X43428Y276233D01*
X42490Y276775D01*
X41443Y277055D01*
X40360D01*
X39314Y276775D01*
X38375Y276233D01*
X37609Y275467D01*
X37068Y274529D01*
X36787Y273482D01*
Y272399D01*
X37068Y271353D01*
X37609Y270415D01*
X38375Y269649D01*
X39314Y269107D01*
X40360Y268827D01*
X41443D01*
X42490Y269107D01*
X43428Y269649D01*
X44194Y270415D01*
X44609Y271134D01*
X55618D01*
X56309Y271272D01*
X56895Y271664D01*
X61465Y276233D01*
X78433D01*
X79124Y276370D01*
X79710Y276762D01*
X102991Y300043D01*
X119134D01*
Y298561D01*
X140709D01*
Y300043D01*
X146134D01*
Y298561D01*
X167709D01*
Y300043D01*
X230256D01*
Y298563D01*
X246319D01*
Y300044D01*
X249744D01*
Y298563D01*
X265807D01*
Y300044D01*
X294646D01*
X297382Y297308D01*
X297544Y296916D01*
X298097Y296363D01*
X298821Y296063D01*
X299604D01*
X300328Y296363D01*
X300881Y296916D01*
X301181Y297640D01*
Y298423D01*
X300881Y299147D01*
X300328Y299700D01*
X299936Y299863D01*
X296671Y303128D01*
X296085Y303519D01*
X295394Y303657D01*
X265807D01*
Y305138D01*
X249744D01*
Y303657D01*
X246319D01*
Y305138D01*
X230256D01*
Y303656D01*
X167709D01*
Y305136D01*
X146134D01*
Y303655D01*
X140709D01*
Y305136D01*
X119134D01*
Y303655D01*
X102243D01*
X101551Y303518D01*
X100965Y303126D01*
X77685Y279846D01*
X60716D01*
X60025Y279708D01*
X59439Y279317D01*
X55925Y275802D01*
X55524Y276109D01*
X55917Y276788D01*
X56197Y277834D01*
Y278918D01*
X55917Y279964D01*
X55375Y280902D01*
X54609Y281668D01*
X54559Y281697D01*
X54503Y282263D01*
X92282Y320042D01*
X119134D01*
Y318561D01*
X140709D01*
Y320042D01*
X146134D01*
Y318561D01*
X167709D01*
Y320043D01*
X230256D01*
Y318563D01*
X246319D01*
Y320044D01*
X249744D01*
Y318563D01*
X265807D01*
Y320044D01*
X285275D01*
X289114Y316206D01*
X289276Y315814D01*
X289830Y315260D01*
X290553Y314961D01*
X291336D01*
X292060Y315260D01*
X292614Y315814D01*
X292913Y316538D01*
Y317321D01*
X292614Y318044D01*
X292060Y318598D01*
X291669Y318760D01*
X287301Y323128D01*
X286715Y323519D01*
X286024Y323657D01*
X265807D01*
Y325138D01*
D02*
G37*
G36*
X583562Y325984D02*
X582422D01*
X581320Y325689D01*
X580333Y325119D01*
X579527Y324313D01*
X578957Y323325D01*
X578661Y322224D01*
Y321083D01*
X578957Y319982D01*
X579527Y318994D01*
X580333Y318188D01*
X581320Y317618D01*
X582422Y317323D01*
X583562D01*
X584664Y317618D01*
X585651Y318188D01*
X586457Y318994D01*
X587028Y319982D01*
X587323Y321083D01*
Y322224D01*
X587028Y323325D01*
X586457Y324313D01*
X585651Y325119D01*
X584664Y325689D01*
X583562Y325984D01*
D02*
G37*
G36*
X543562D02*
X542422D01*
X541321Y325689D01*
X540333Y325119D01*
X539527Y324313D01*
X538957Y323325D01*
X538661Y322224D01*
Y321083D01*
X538957Y319982D01*
X539527Y318994D01*
X540333Y318188D01*
X541321Y317618D01*
X542422Y317323D01*
X543562D01*
X544664Y317618D01*
X545651Y318188D01*
X546457Y318994D01*
X547028Y319982D01*
X547323Y321083D01*
Y322224D01*
X547028Y323325D01*
X546457Y324313D01*
X545651Y325119D01*
X544664Y325689D01*
X543562Y325984D01*
D02*
G37*
G36*
X528444D02*
X527304D01*
X526202Y325689D01*
X525215Y325119D01*
X524409Y324313D01*
X523839Y323325D01*
X523543Y322224D01*
Y321083D01*
X523839Y319982D01*
X524409Y318994D01*
X525215Y318188D01*
X526202Y317618D01*
X527304Y317323D01*
X528444D01*
X529546Y317618D01*
X530533Y318188D01*
X531339Y318994D01*
X531910Y319982D01*
X532205Y321083D01*
Y322224D01*
X531910Y323325D01*
X531339Y324313D01*
X530533Y325119D01*
X529546Y325689D01*
X528444Y325984D01*
D02*
G37*
G36*
X488444D02*
X487304D01*
X486202Y325689D01*
X485215Y325119D01*
X484409Y324313D01*
X483839Y323325D01*
X483543Y322224D01*
Y321083D01*
X483839Y319982D01*
X484409Y318994D01*
X485215Y318188D01*
X486202Y317618D01*
X487304Y317323D01*
X488444D01*
X489546Y317618D01*
X490533Y318188D01*
X491339Y318994D01*
X491910Y319982D01*
X492205Y321083D01*
Y322224D01*
X491910Y323325D01*
X491339Y324313D01*
X490533Y325119D01*
X489546Y325689D01*
X488444Y325984D01*
D02*
G37*
G36*
X563845Y345276D02*
X562139D01*
X560466Y344943D01*
X558889Y344290D01*
X557471Y343342D01*
X556264Y342136D01*
X555316Y340717D01*
X554664Y339141D01*
X554331Y337467D01*
Y335761D01*
X554664Y334088D01*
X555316Y332511D01*
X556264Y331093D01*
X557471Y329886D01*
X558889Y328939D01*
X560466Y328286D01*
X561186Y328142D01*
Y307441D01*
X542953Y289208D01*
X520023D01*
X519724Y289727D01*
X519018Y290432D01*
X518155Y290931D01*
X517192Y291189D01*
X516194D01*
X515231Y290931D01*
X514367Y290432D01*
X513662Y289727D01*
X513164Y288863D01*
X512906Y287900D01*
Y286903D01*
X513164Y285940D01*
X513662Y285076D01*
X514367Y284371D01*
X515231Y283872D01*
X516194Y283614D01*
X517192D01*
X518155Y283872D01*
X519018Y284371D01*
X519724Y285076D01*
X520023Y285595D01*
X543701D01*
X544392Y285733D01*
X544978Y286124D01*
X564269Y305416D01*
X564661Y306002D01*
X564798Y306693D01*
Y328142D01*
X565519Y328286D01*
X567095Y328939D01*
X568513Y329886D01*
X569720Y331093D01*
X570668Y332511D01*
X571321Y334088D01*
X571654Y335761D01*
Y337467D01*
X571321Y339141D01*
X570668Y340717D01*
X569720Y342136D01*
X568513Y343342D01*
X567095Y344290D01*
X565519Y344943D01*
X563845Y345276D01*
D02*
G37*
G36*
X497191Y291189D02*
X496194D01*
X495231Y290931D01*
X494367Y290432D01*
X493662Y289727D01*
X493164Y288863D01*
X492906Y287900D01*
Y286903D01*
X493164Y285940D01*
X493662Y285076D01*
X494367Y284371D01*
X495231Y283872D01*
X496194Y283614D01*
X497191D01*
X498155Y283872D01*
X499018Y284371D01*
X499724Y285076D01*
X500222Y285940D01*
X500480Y286903D01*
Y287900D01*
X500222Y288863D01*
X499724Y289727D01*
X499018Y290432D01*
X498155Y290931D01*
X497191Y291189D01*
D02*
G37*
G36*
X451736Y273760D02*
X450870D01*
X450034Y273536D01*
X449285Y273103D01*
X448673Y272491D01*
X448240Y271741D01*
X448016Y270905D01*
Y270040D01*
X448240Y269203D01*
X448673Y268454D01*
X449285Y267842D01*
X450034Y267409D01*
X450870Y267185D01*
X451736D01*
X452572Y267409D01*
X453322Y267842D01*
X453934Y268454D01*
X454366Y269203D01*
X454591Y270040D01*
Y270905D01*
X454366Y271741D01*
X453934Y272491D01*
X453322Y273103D01*
X452572Y273536D01*
X451736Y273760D01*
D02*
G37*
G36*
X517192Y274260D02*
X516194D01*
X515231Y274002D01*
X514367Y273503D01*
X513662Y272798D01*
X513164Y271934D01*
X512906Y270971D01*
Y269974D01*
X513164Y269011D01*
X513662Y268147D01*
X514367Y267442D01*
X515231Y266943D01*
X516194Y266685D01*
X517192D01*
X518155Y266943D01*
X519018Y267442D01*
X519724Y268147D01*
X520222Y269011D01*
X520480Y269974D01*
Y270971D01*
X520222Y271934D01*
X519724Y272798D01*
X519018Y273503D01*
X518155Y274002D01*
X517192Y274260D01*
D02*
G37*
G36*
Y257331D02*
X516194D01*
X515231Y257073D01*
X514367Y256574D01*
X513662Y255869D01*
X513164Y255005D01*
X512906Y254042D01*
Y253045D01*
X513164Y252081D01*
X513662Y251218D01*
X514367Y250513D01*
X515231Y250014D01*
X516194Y249756D01*
X517192D01*
X518155Y250014D01*
X519018Y250513D01*
X519724Y251218D01*
X520222Y252081D01*
X520480Y253045D01*
Y254042D01*
X520222Y255005D01*
X519724Y255869D01*
X519018Y256574D01*
X518155Y257073D01*
X517192Y257331D01*
D02*
G37*
G36*
X465969Y241163D02*
X461835D01*
X461412Y241079D01*
X461054Y240840D01*
X460815Y240481D01*
X460731Y240059D01*
Y239444D01*
X460202D01*
X459779Y239360D01*
X459421Y239121D01*
X456729Y236428D01*
X456654Y236503D01*
X456075Y236743D01*
X455449D01*
X454870Y236503D01*
X454427Y236060D01*
X454187Y235481D01*
Y234855D01*
X454427Y234276D01*
X454870Y233833D01*
X455449Y233593D01*
X456075D01*
X456616Y233817D01*
X456743Y233751D01*
X457024Y233496D01*
X456905Y233207D01*
Y232580D01*
X457144Y232002D01*
X457587Y231559D01*
X458166Y231319D01*
X458793D01*
X459372Y231559D01*
X459815Y232002D01*
X460054Y232580D01*
Y233207D01*
X459815Y233786D01*
X459473Y234128D01*
Y234508D01*
X460267Y235302D01*
X460809Y235137D01*
X460815Y235109D01*
X461054Y234751D01*
X461412Y234512D01*
X461835Y234428D01*
X465969D01*
X466391Y234512D01*
X466749Y234751D01*
X466988Y235109D01*
X467072Y235531D01*
Y236146D01*
X585511D01*
X587206Y234451D01*
X586823Y234068D01*
X586583Y233489D01*
Y232862D01*
X586823Y232284D01*
X587266Y231841D01*
X587845Y231601D01*
X588471D01*
X589050Y231841D01*
X589493Y232284D01*
X589733Y232862D01*
Y233489D01*
X589662Y233660D01*
X590086Y233943D01*
X590196Y233833D01*
X590775Y233593D01*
X591401D01*
X591980Y233833D01*
X592423Y234276D01*
X592663Y234855D01*
Y235481D01*
X592423Y236060D01*
X591980Y236503D01*
X591401Y236743D01*
X590775D01*
X590196Y236503D01*
X590142Y236449D01*
X589872D01*
X587200Y239121D01*
X586842Y239360D01*
X586420Y239444D01*
X467072D01*
Y240059D01*
X466988Y240481D01*
X466749Y240840D01*
X466391Y241079D01*
X465969Y241163D01*
D02*
G37*
G36*
Y231714D02*
X461835D01*
X461412Y231630D01*
X461054Y231391D01*
X460815Y231033D01*
X460731Y230610D01*
Y229996D01*
X460202D01*
X459779Y229912D01*
X459421Y229672D01*
X456729Y226980D01*
X456654Y227054D01*
X456075Y227294D01*
X455449D01*
X454870Y227054D01*
X454427Y226611D01*
X454187Y226032D01*
Y225406D01*
X454427Y224827D01*
X454870Y224384D01*
X455449Y224144D01*
X456075D01*
X456616Y224368D01*
X456743Y224303D01*
X457024Y224047D01*
X456905Y223758D01*
Y223132D01*
X457144Y222553D01*
X457587Y222110D01*
X458166Y221870D01*
X458793D01*
X459372Y222110D01*
X459815Y222553D01*
X460054Y223132D01*
Y223758D01*
X459815Y224337D01*
X459473Y224679D01*
Y225059D01*
X460267Y225853D01*
X460809Y225689D01*
X460815Y225660D01*
X461054Y225302D01*
X461412Y225063D01*
X461835Y224979D01*
X465969D01*
X466391Y225063D01*
X466749Y225302D01*
X466988Y225660D01*
X467072Y226083D01*
Y226210D01*
X467150Y226697D01*
X586342D01*
X587735Y225304D01*
X587400Y224970D01*
X587160Y224391D01*
Y223764D01*
X587400Y223186D01*
X587843Y222743D01*
X588422Y222503D01*
X589049D01*
X589627Y222743D01*
X590070Y223186D01*
X590310Y223764D01*
Y224021D01*
X590460Y224302D01*
X590983Y224384D01*
X591562Y224144D01*
X592189D01*
X592768Y224384D01*
X593211Y224827D01*
X593450Y225406D01*
Y226032D01*
X593211Y226611D01*
X592768Y227054D01*
X592189Y227294D01*
X591562D01*
X590983Y227054D01*
X590817Y226887D01*
X588032Y229672D01*
X587674Y229911D01*
X587251Y229995D01*
X467604D01*
X467601Y229996D01*
X467072D01*
Y230610D01*
X466988Y231033D01*
X466749Y231391D01*
X466391Y231630D01*
X465969Y231714D01*
D02*
G37*
G36*
X452583Y162423D02*
X448449D01*
X448026Y162339D01*
X447668Y162100D01*
X447429Y161741D01*
X447345Y161319D01*
Y159941D01*
X447429Y159519D01*
X447488Y159431D01*
X447629Y159055D01*
X447488Y158680D01*
X447429Y158592D01*
X447345Y158169D01*
Y156791D01*
X447429Y156369D01*
X447668Y156011D01*
X448026Y155772D01*
X448449Y155687D01*
X452583D01*
X453005Y155772D01*
X453363Y156011D01*
X453468Y156168D01*
X454204D01*
X454620Y155752D01*
X455199Y155512D01*
X455825D01*
X456404Y155752D01*
X456847Y156195D01*
X457087Y156773D01*
Y157400D01*
X456847Y157979D01*
X456404Y158422D01*
X455990Y158593D01*
Y159123D01*
X456404Y159295D01*
X456847Y159738D01*
X457087Y160317D01*
Y160943D01*
X456847Y161522D01*
X456404Y161965D01*
X455825Y162205D01*
X455199D01*
X454620Y161965D01*
X454597Y161943D01*
X453468D01*
X453363Y162100D01*
X453005Y162339D01*
X452583Y162423D01*
D02*
G37*
G36*
X592045Y153711D02*
X591419D01*
X590840Y153472D01*
X590397Y153029D01*
X590158Y152450D01*
Y152418D01*
X588998Y151259D01*
X467072D01*
Y151870D01*
X466988Y152293D01*
X466749Y152651D01*
X466391Y152890D01*
X465969Y152974D01*
X461835D01*
X461412Y152890D01*
X461054Y152651D01*
X460815Y152293D01*
X460731Y151870D01*
Y150492D01*
X460815Y150070D01*
X460874Y149982D01*
X461015Y149606D01*
X460874Y149231D01*
X460815Y149143D01*
X460731Y148721D01*
Y147343D01*
X460815Y146920D01*
X461054Y146562D01*
X461412Y146323D01*
X461835Y146239D01*
X465969D01*
X466391Y146323D01*
X466749Y146562D01*
X466854Y146719D01*
X472835D01*
X472835Y146719D01*
X590039D01*
X590158Y146600D01*
Y146568D01*
X590397Y145990D01*
X590840Y145546D01*
X591419Y145307D01*
X592045D01*
X592624Y145546D01*
X593067Y145990D01*
X593307Y146568D01*
Y147195D01*
X593067Y147774D01*
X592624Y148217D01*
X592045Y148456D01*
X592014D01*
X591510Y148960D01*
X591276Y149117D01*
X591153Y149701D01*
X592014Y150562D01*
X592045D01*
X592624Y150802D01*
X593067Y151244D01*
X593307Y151823D01*
Y152450D01*
X593067Y153029D01*
X592624Y153472D01*
X592045Y153711D01*
D02*
G37*
G36*
X41443Y157484D02*
X40360D01*
X39314Y157204D01*
X38375Y156662D01*
X37609Y155896D01*
X37068Y154958D01*
X36787Y153912D01*
Y152828D01*
X37068Y151782D01*
X37609Y150844D01*
X38375Y150078D01*
X39314Y149536D01*
X40360Y149256D01*
X41443D01*
X42490Y149536D01*
X43428Y150078D01*
X44194Y150844D01*
X44735Y151782D01*
X45016Y152828D01*
Y153912D01*
X44735Y154958D01*
X44194Y155896D01*
X43428Y156662D01*
X42490Y157204D01*
X41443Y157484D01*
D02*
G37*
G36*
X52624Y152049D02*
X51541D01*
X50495Y151769D01*
X49557Y151227D01*
X48791Y150461D01*
X48249Y149523D01*
X47969Y148477D01*
Y147393D01*
X48249Y146347D01*
X48791Y145409D01*
X49557Y144643D01*
X50495Y144101D01*
X51541Y143821D01*
X52624D01*
X53671Y144101D01*
X54609Y144643D01*
X55375Y145409D01*
X55917Y146347D01*
X56197Y147393D01*
Y148477D01*
X55917Y149523D01*
X55375Y150461D01*
X54609Y151227D01*
X53671Y151769D01*
X52624Y152049D01*
D02*
G37*
G36*
X41443Y146614D02*
X40360D01*
X39314Y146334D01*
X38375Y145792D01*
X37609Y145026D01*
X37068Y144088D01*
X36787Y143042D01*
Y141958D01*
X37068Y140912D01*
X37609Y139974D01*
X38375Y139208D01*
X39314Y138666D01*
X40360Y138386D01*
X41443D01*
X42490Y138666D01*
X43428Y139208D01*
X44194Y139974D01*
X44735Y140912D01*
X45016Y141958D01*
Y143042D01*
X44735Y144088D01*
X44194Y145026D01*
X43428Y145792D01*
X42490Y146334D01*
X41443Y146614D01*
D02*
G37*
G36*
X507075Y114798D02*
X479134D01*
X478443Y114661D01*
X477857Y114269D01*
X456732Y93145D01*
X377520D01*
X374105Y96560D01*
X374260Y97139D01*
Y98136D01*
X374002Y99100D01*
X373503Y99963D01*
X372798Y100669D01*
X371934Y101167D01*
X370971Y101425D01*
X369974D01*
X369011Y101167D01*
X368147Y100669D01*
X367442Y99963D01*
X366943Y99100D01*
X366685Y98136D01*
Y97139D01*
X366943Y96176D01*
X367442Y95312D01*
X368147Y94607D01*
X369011Y94108D01*
X369974Y93850D01*
X370971D01*
X371550Y94006D01*
X375494Y90061D01*
X376080Y89670D01*
X376772Y89532D01*
X376857D01*
X377009Y89202D01*
X377029Y89032D01*
X371550Y83553D01*
X370971Y83709D01*
X369974D01*
X369011Y83451D01*
X368147Y82952D01*
X367442Y82247D01*
X366943Y81383D01*
X366685Y80420D01*
Y79423D01*
X366943Y78459D01*
X367442Y77596D01*
X368147Y76891D01*
X369011Y76392D01*
X369974Y76134D01*
X370971D01*
X371934Y76392D01*
X372798Y76891D01*
X373503Y77596D01*
X374002Y78459D01*
X374260Y79423D01*
Y80420D01*
X374105Y80999D01*
X379095Y85989D01*
X459055D01*
X459746Y86126D01*
X460332Y86518D01*
X478977Y105162D01*
X498677D01*
X498977Y104643D01*
X499682Y103938D01*
X500546Y103439D01*
X501509Y103181D01*
X502506D01*
X503086Y103336D01*
X505204Y101218D01*
X505013Y100756D01*
X498220D01*
Y93181D01*
X500695D01*
Y53898D01*
X500795Y53395D01*
X501080Y52969D01*
X522018Y32031D01*
X522444Y31747D01*
X522946Y31647D01*
X523690D01*
X523885Y30918D01*
X524351Y30112D01*
X525009Y29453D01*
X525816Y28987D01*
X526715Y28746D01*
X527647D01*
X528546Y28987D01*
X529353Y29453D01*
X530012Y30112D01*
X530477Y30918D01*
X530719Y31818D01*
Y32749D01*
X530477Y33649D01*
X530012Y34455D01*
X529353Y35114D01*
X528546Y35580D01*
X527647Y35821D01*
X526715D01*
X525816Y35580D01*
X525009Y35114D01*
X524351Y34455D01*
X524244Y34272D01*
X523490D01*
X522467Y35295D01*
X522706Y35728D01*
X522723Y35746D01*
X523647D01*
X524546Y35987D01*
X525353Y36453D01*
X526012Y37111D01*
X526477Y37918D01*
X526719Y38818D01*
Y39749D01*
X526477Y40649D01*
X526012Y41456D01*
X525353Y42114D01*
X524546Y42580D01*
X523647Y42821D01*
X522715D01*
X521816Y42580D01*
X521009Y42114D01*
X520888Y41993D01*
X507998Y54882D01*
X508305Y55282D01*
X508816Y54987D01*
X509715Y54746D01*
X510647D01*
X511547Y54987D01*
X512353Y55453D01*
X513012Y56112D01*
X513477Y56918D01*
X513719Y57818D01*
Y58749D01*
X513477Y59649D01*
X513012Y60456D01*
X512353Y61114D01*
X511547Y61580D01*
X510647Y61821D01*
X509715D01*
X508816Y61580D01*
X508009Y61114D01*
X507350Y60456D01*
X506885Y59649D01*
X506644Y58749D01*
Y57818D01*
X506885Y56918D01*
X507180Y56407D01*
X506779Y56100D01*
X506037Y56843D01*
Y88039D01*
X511246Y93248D01*
X511248Y93251D01*
X511509Y93181D01*
X512506D01*
X513470Y93439D01*
X514333Y93938D01*
X515038Y94643D01*
X515537Y95507D01*
X515795Y96470D01*
Y97467D01*
X515537Y98430D01*
X515038Y99294D01*
X514670Y99662D01*
X514878Y100162D01*
X517008D01*
X517699Y100300D01*
X518285Y100691D01*
X520930Y103336D01*
X521509Y103181D01*
X522507D01*
X523085Y103336D01*
X525731Y100691D01*
X526317Y100300D01*
X527008Y100162D01*
X529138D01*
X529345Y99662D01*
X528977Y99294D01*
X528479Y98430D01*
X528221Y97467D01*
Y96470D01*
X528479Y95507D01*
X528977Y94643D01*
X529682Y93938D01*
X530282Y93592D01*
Y42705D01*
X529816Y42580D01*
X529009Y42114D01*
X528350Y41456D01*
X527885Y40649D01*
X527644Y39749D01*
Y38818D01*
X527885Y37918D01*
X528350Y37111D01*
X529009Y36453D01*
X529816Y35987D01*
X530715Y35746D01*
X531647D01*
X532547Y35987D01*
X533353Y36453D01*
X534012Y37111D01*
X534477Y37918D01*
X534719Y38818D01*
Y39749D01*
X534477Y40649D01*
X534012Y41456D01*
X533353Y42114D01*
X532907Y42372D01*
Y93288D01*
X533470Y93439D01*
X534333Y93938D01*
X535039Y94643D01*
X535537Y95507D01*
X535795Y96470D01*
Y97467D01*
X535537Y98430D01*
X535039Y99294D01*
X534670Y99662D01*
X534877Y100162D01*
X537008D01*
X537699Y100300D01*
X538285Y100691D01*
X540930Y103336D01*
X541509Y103181D01*
X542507D01*
X543085Y103336D01*
X545502Y100920D01*
X546088Y100528D01*
X546779Y100391D01*
X549420D01*
X549574Y99891D01*
X548977Y99294D01*
X548479Y98430D01*
X548220Y97467D01*
Y96470D01*
X548479Y95507D01*
X548556Y95373D01*
X538253Y85070D01*
X537968Y84644D01*
X537868Y84142D01*
Y42594D01*
X537816Y42580D01*
X537009Y42114D01*
X536350Y41456D01*
X535885Y40649D01*
X535644Y39749D01*
Y38818D01*
X535885Y37918D01*
X536350Y37111D01*
X537009Y36453D01*
X537816Y35987D01*
X538715Y35746D01*
X539647D01*
X540547Y35987D01*
X541353Y36453D01*
X542012Y37111D01*
X542477Y37918D01*
X542719Y38818D01*
Y39749D01*
X542477Y40649D01*
X542012Y41456D01*
X541353Y42114D01*
X540547Y42580D01*
X540494Y42594D01*
Y83598D01*
X550412Y93516D01*
X550546Y93439D01*
X551509Y93181D01*
X552506D01*
X553470Y93439D01*
X554333Y93938D01*
X555038Y94643D01*
X555537Y95507D01*
X555795Y96470D01*
Y97467D01*
X555537Y98430D01*
X555038Y99294D01*
X554442Y99891D01*
X554596Y100391D01*
X557236D01*
X557928Y100528D01*
X558513Y100920D01*
X560930Y103336D01*
X561509Y103181D01*
X562506D01*
X563470Y103439D01*
X564333Y103938D01*
X565038Y104643D01*
X565537Y105507D01*
X565795Y106470D01*
Y107467D01*
X565537Y108430D01*
X565038Y109294D01*
X564333Y109999D01*
X563826Y110292D01*
X563960Y110792D01*
X565630D01*
X568376Y108046D01*
X568221Y107467D01*
Y106470D01*
X568479Y105507D01*
X568977Y104643D01*
X569682Y103938D01*
X569954Y103781D01*
X569820Y103281D01*
X567008D01*
X566506Y103181D01*
X566080Y102897D01*
X563604Y100420D01*
X563470Y100498D01*
X562506Y100756D01*
X561509D01*
X560546Y100498D01*
X559682Y99999D01*
X558977Y99294D01*
X558479Y98430D01*
X558220Y97467D01*
Y96470D01*
X558479Y95507D01*
X558977Y94643D01*
X559682Y93938D01*
X560546Y93439D01*
X561509Y93181D01*
X562506D01*
X563470Y93439D01*
X564333Y93938D01*
X565038Y94643D01*
X565537Y95507D01*
X565795Y96470D01*
Y97467D01*
X565537Y98430D01*
X565460Y98564D01*
X567552Y100656D01*
X569820D01*
X569954Y100156D01*
X569682Y99999D01*
X568977Y99294D01*
X568479Y98430D01*
X568221Y97467D01*
Y96470D01*
X568479Y95507D01*
X568977Y94643D01*
X569682Y93938D01*
X570546Y93439D01*
X570695Y93399D01*
Y58378D01*
X552913Y40596D01*
X550492D01*
X550477Y40649D01*
X550012Y41456D01*
X549353Y42114D01*
X548547Y42580D01*
X547647Y42821D01*
X546715D01*
X545816Y42580D01*
X545009Y42114D01*
X544350Y41456D01*
X543885Y40649D01*
X543644Y39749D01*
Y38818D01*
X543885Y37918D01*
X544350Y37111D01*
X545009Y36453D01*
X545816Y35987D01*
X546715Y35746D01*
X547647D01*
X548547Y35987D01*
X549353Y36453D01*
X550012Y37111D01*
X550477Y37918D01*
X550492Y37971D01*
X553457D01*
X553959Y38071D01*
X554385Y38355D01*
X572936Y56906D01*
X573221Y57332D01*
X573320Y57835D01*
Y93399D01*
X573470Y93439D01*
X574333Y93938D01*
X575038Y94643D01*
X575537Y95507D01*
X575795Y96470D01*
Y97467D01*
X575593Y98221D01*
X576042Y98480D01*
X576640Y97882D01*
Y59599D01*
X552594Y35552D01*
X552547Y35580D01*
X551647Y35821D01*
X550715D01*
X549816Y35580D01*
X549009Y35114D01*
X548350Y34455D01*
X547885Y33649D01*
X547644Y32749D01*
Y31818D01*
X547885Y30918D01*
X548350Y30112D01*
X549009Y29453D01*
X549816Y28987D01*
X550715Y28746D01*
X551647D01*
X552547Y28987D01*
X553353Y29453D01*
X554012Y30112D01*
X554477Y30918D01*
X554718Y31818D01*
Y32749D01*
X554477Y33649D01*
X554450Y33696D01*
X578881Y58127D01*
X579166Y58553D01*
X579265Y59055D01*
Y98425D01*
X579166Y98927D01*
X578881Y99353D01*
X575338Y102897D01*
X574912Y103181D01*
X574409Y103281D01*
X574196D01*
X574062Y103781D01*
X574333Y103938D01*
X575038Y104643D01*
X575537Y105507D01*
X575795Y106470D01*
Y107467D01*
X575537Y108430D01*
X575038Y109294D01*
X574333Y109999D01*
X573470Y110498D01*
X572507Y110756D01*
X571509D01*
X570930Y110601D01*
X567655Y113876D01*
X567069Y114267D01*
X566378Y114405D01*
X557638D01*
X556947Y114267D01*
X556360Y113876D01*
X553086Y110601D01*
X552506Y110756D01*
X551509D01*
X550930Y110601D01*
X547655Y113876D01*
X547069Y114267D01*
X546378Y114405D01*
X537638D01*
X536946Y114267D01*
X536361Y113876D01*
X533085Y110601D01*
X532507Y110756D01*
X531509D01*
X530930Y110601D01*
X527655Y113876D01*
X527069Y114267D01*
X526378Y114405D01*
X517638D01*
X516947Y114267D01*
X516361Y113876D01*
X513086Y110601D01*
X512506Y110756D01*
X511866D01*
X508353Y114269D01*
X507766Y114661D01*
X507075Y114798D01*
D02*
G37*
G36*
X542507Y100756D02*
X541509D01*
X540546Y100498D01*
X539682Y99999D01*
X538977Y99294D01*
X538479Y98430D01*
X538221Y97467D01*
Y96470D01*
X538479Y95507D01*
X538977Y94643D01*
X539682Y93938D01*
X540546Y93439D01*
X541509Y93181D01*
X542507D01*
X543470Y93439D01*
X544333Y93938D01*
X545039Y94643D01*
X545537Y95507D01*
X545795Y96470D01*
Y97467D01*
X545537Y98430D01*
X545039Y99294D01*
X544333Y99999D01*
X543470Y100498D01*
X542507Y100756D01*
D02*
G37*
G36*
X522507D02*
X521509D01*
X520546Y100498D01*
X519682Y99999D01*
X518977Y99294D01*
X518479Y98430D01*
X518221Y97467D01*
Y96470D01*
X518479Y95507D01*
X518977Y94643D01*
X519682Y93938D01*
X520546Y93439D01*
X521509Y93181D01*
X522507D01*
X523470Y93439D01*
X524333Y93938D01*
X525038Y94643D01*
X525537Y95507D01*
X525795Y96470D01*
Y97467D01*
X525537Y98430D01*
X525038Y99294D01*
X524333Y99999D01*
X523470Y100498D01*
X522507Y100756D01*
D02*
G37*
G36*
X360971Y83709D02*
X359974D01*
X359011Y83451D01*
X358147Y82952D01*
X357442Y82247D01*
X356943Y81383D01*
X356685Y80420D01*
Y79423D01*
X356840Y78844D01*
X353053Y75057D01*
X352662Y74471D01*
X352524Y73779D01*
Y39338D01*
X351490Y38741D01*
X350629Y37880D01*
X350020Y36825D01*
X349705Y35648D01*
Y34430D01*
X350020Y33254D01*
X350629Y32199D01*
X351490Y31338D01*
X352545Y30729D01*
X353722Y30413D01*
X354940D01*
X356116Y30729D01*
X357171Y31338D01*
X358032Y32199D01*
X358641Y33254D01*
X358957Y34430D01*
Y35648D01*
X358641Y36825D01*
X358032Y37880D01*
X357171Y38741D01*
X356137Y39338D01*
Y73031D01*
X359395Y76289D01*
X359974Y76134D01*
X360971D01*
X361934Y76392D01*
X362798Y76891D01*
X363503Y77596D01*
X364002Y78459D01*
X364260Y79423D01*
Y80420D01*
X364002Y81383D01*
X363503Y82247D01*
X362798Y82952D01*
X361934Y83451D01*
X360971Y83709D01*
D02*
G37*
G36*
X564647Y61821D02*
X563715D01*
X562816Y61580D01*
X562009Y61114D01*
X561350Y60456D01*
X560885Y59649D01*
X560644Y58749D01*
Y57818D01*
X560885Y56918D01*
X561350Y56112D01*
X562009Y55453D01*
X562816Y54987D01*
X563715Y54746D01*
X564647D01*
X565547Y54987D01*
X566353Y55453D01*
X567012Y56112D01*
X567477Y56918D01*
X567719Y57818D01*
Y58749D01*
X567477Y59649D01*
X567012Y60456D01*
X566353Y61114D01*
X565547Y61580D01*
X564647Y61821D01*
D02*
G37*
G36*
X555647D02*
X554715D01*
X553816Y61580D01*
X553009Y61114D01*
X552351Y60456D01*
X551885Y59649D01*
X551644Y58749D01*
Y57818D01*
X551885Y56918D01*
X552351Y56112D01*
X553009Y55453D01*
X553816Y54987D01*
X554715Y54746D01*
X555647D01*
X556546Y54987D01*
X557353Y55453D01*
X558012Y56112D01*
X558477Y56918D01*
X558718Y57818D01*
Y58749D01*
X558477Y59649D01*
X558012Y60456D01*
X557353Y61114D01*
X556546Y61580D01*
X555647Y61821D01*
D02*
G37*
G36*
X519647D02*
X518715D01*
X517816Y61580D01*
X517009Y61114D01*
X516351Y60456D01*
X515885Y59649D01*
X515644Y58749D01*
Y57818D01*
X515885Y56918D01*
X516351Y56112D01*
X517009Y55453D01*
X517816Y54987D01*
X518715Y54746D01*
X519647D01*
X520546Y54987D01*
X521353Y55453D01*
X522012Y56112D01*
X522477Y56918D01*
X522718Y57818D01*
Y58749D01*
X522477Y59649D01*
X522012Y60456D01*
X521353Y61114D01*
X520546Y61580D01*
X519647Y61821D01*
D02*
G37*
G36*
X569838Y40771D02*
X568525D01*
X567256Y40431D01*
X566119Y39774D01*
X565190Y38846D01*
X564534Y37709D01*
X564194Y36440D01*
Y35127D01*
X564534Y33858D01*
X565190Y32721D01*
X566119Y31793D01*
X567256Y31136D01*
X568525Y30796D01*
X569838D01*
X571106Y31136D01*
X572243Y31793D01*
X573172Y32721D01*
X573829Y33858D01*
X574168Y35127D01*
Y36440D01*
X573829Y37709D01*
X573172Y38846D01*
X572243Y39774D01*
X571106Y40431D01*
X569838Y40771D01*
D02*
G37*
G36*
X505838D02*
X504525D01*
X503256Y40431D01*
X502119Y39774D01*
X501190Y38846D01*
X500534Y37709D01*
X500194Y36440D01*
Y35127D01*
X500534Y33858D01*
X501190Y32721D01*
X502119Y31793D01*
X503256Y31136D01*
X504525Y30796D01*
X505838D01*
X507106Y31136D01*
X508243Y31793D01*
X509172Y32721D01*
X509829Y33858D01*
X510169Y35127D01*
Y36440D01*
X509829Y37709D01*
X509172Y38846D01*
X508243Y39774D01*
X507106Y40431D01*
X505838Y40771D01*
D02*
G37*
G36*
X543647Y35821D02*
X542715D01*
X541816Y35580D01*
X541009Y35114D01*
X540350Y34455D01*
X539885Y33649D01*
X539644Y32749D01*
Y31818D01*
X539885Y30918D01*
X540350Y30112D01*
X541009Y29453D01*
X541816Y28987D01*
X542715Y28746D01*
X543647D01*
X544547Y28987D01*
X545353Y29453D01*
X546012Y30112D01*
X546477Y30918D01*
X546719Y31818D01*
Y32749D01*
X546477Y33649D01*
X546012Y34455D01*
X545353Y35114D01*
X544547Y35580D01*
X543647Y35821D01*
D02*
G37*
G36*
X535647D02*
X534715D01*
X533816Y35580D01*
X533009Y35114D01*
X532350Y34455D01*
X531885Y33649D01*
X531644Y32749D01*
Y31818D01*
X531885Y30918D01*
X532350Y30112D01*
X533009Y29453D01*
X533816Y28987D01*
X534715Y28746D01*
X535647D01*
X536547Y28987D01*
X537353Y29453D01*
X538012Y30112D01*
X538477Y30918D01*
X538719Y31818D01*
Y32749D01*
X538477Y33649D01*
X538012Y34455D01*
X537353Y35114D01*
X536547Y35580D01*
X535647Y35821D01*
D02*
G37*
G36*
X380971Y83709D02*
X379974D01*
X379011Y83451D01*
X378147Y82952D01*
X377442Y82247D01*
X376943Y81383D01*
X376685Y80420D01*
Y79423D01*
X376943Y78459D01*
X377442Y77596D01*
X378147Y76891D01*
X379011Y76392D01*
X379974Y76134D01*
X380971D01*
X381550Y76289D01*
X398587Y59252D01*
Y41693D01*
X398725Y41002D01*
X399116Y40416D01*
X409672Y29860D01*
X409508Y29245D01*
Y28235D01*
X409769Y27259D01*
X410275Y26383D01*
X410990Y25668D01*
X411865Y25163D01*
X412841Y24902D01*
X413852D01*
X414828Y25163D01*
X415703Y25668D01*
X416418Y26383D01*
X416923Y27259D01*
X417185Y28235D01*
Y29245D01*
X416923Y30222D01*
X416418Y31097D01*
X415703Y31812D01*
X414828Y32317D01*
X413852Y32579D01*
X412841D01*
X412227Y32414D01*
X402200Y42441D01*
Y60000D01*
X402063Y60691D01*
X401671Y61277D01*
X384105Y78844D01*
X384260Y79423D01*
Y80420D01*
X384002Y81383D01*
X383503Y82247D01*
X382798Y82952D01*
X381934Y83451D01*
X380971Y83709D01*
D02*
G37*
G36*
X562889Y29471D02*
X561473D01*
X560085Y29195D01*
X558777Y28653D01*
X557599Y27866D01*
X556598Y26865D01*
X555812Y25688D01*
X555270Y24380D01*
X554994Y22991D01*
Y21576D01*
X555270Y20187D01*
X555812Y18879D01*
X556598Y17702D01*
X557599Y16701D01*
X558777Y15914D01*
X560085Y15372D01*
X561473Y15096D01*
X562889D01*
X564278Y15372D01*
X565586Y15914D01*
X566763Y16701D01*
X567764Y17702D01*
X568550Y18879D01*
X569092Y20187D01*
X569369Y21576D01*
Y22991D01*
X569092Y24380D01*
X568550Y25688D01*
X567764Y26865D01*
X566763Y27866D01*
X565586Y28653D01*
X564278Y29195D01*
X562889Y29471D01*
D02*
G37*
G36*
X512889D02*
X511473D01*
X510085Y29195D01*
X508777Y28653D01*
X507599Y27866D01*
X506598Y26865D01*
X505812Y25688D01*
X505270Y24380D01*
X504994Y22991D01*
Y21576D01*
X505270Y20187D01*
X505812Y18879D01*
X506598Y17702D01*
X507599Y16701D01*
X508777Y15914D01*
X510085Y15372D01*
X511473Y15096D01*
X512889D01*
X514278Y15372D01*
X515586Y15914D01*
X516763Y16701D01*
X517764Y17702D01*
X518550Y18879D01*
X519092Y20187D01*
X519369Y21576D01*
Y22991D01*
X519092Y24380D01*
X518550Y25688D01*
X517764Y26865D01*
X516763Y27866D01*
X515586Y28653D01*
X514278Y29195D01*
X512889Y29471D01*
D02*
G37*
G36*
X417185Y22579D02*
X409508D01*
Y14902D01*
X417185D01*
Y22579D01*
D02*
G37*
%LPD*%
G36*
X383218Y312520D02*
X376378Y312520D01*
X376301Y312505D01*
X374950D01*
Y319592D01*
X383218D01*
Y312520D01*
D02*
G37*
G36*
X392933Y285812D02*
X384921D01*
Y302269D01*
X376378Y302269D01*
Y311718D01*
X383877Y311718D01*
X384921Y312761D01*
Y338883D01*
X392933D01*
Y285812D01*
D02*
G37*
G36*
X323228Y312598D02*
X314961D01*
Y319685D01*
X323228D01*
Y312598D01*
D02*
G37*
G36*
X332933Y285812D02*
X324921D01*
Y302269D01*
X316535Y302269D01*
Y311718D01*
X323878Y311718D01*
X324921Y312761D01*
Y338883D01*
X332933D01*
Y285812D01*
D02*
G37*
G36*
X428366Y283844D02*
X419311Y283844D01*
X419311Y292033D01*
Y312505D01*
X423248D01*
Y325497D01*
X419704D01*
X419311Y325891D01*
Y338883D01*
X428366D01*
X428366Y283844D01*
D02*
G37*
G36*
X368366D02*
X359311Y283844D01*
X359311Y292033D01*
Y312505D01*
X363248D01*
Y325497D01*
X359704D01*
X359311Y325891D01*
Y338883D01*
X368366D01*
X368366Y283844D01*
D02*
G37*
D10*
X348033Y313779D02*
X349645Y315392D01*
X348031Y313779D02*
X348033D01*
X349645Y315642D02*
X350275Y316273D01*
X349645Y315392D02*
Y315642D01*
X408044Y314042D02*
X410275Y316273D01*
X408021Y314042D02*
X408044D01*
X410275Y316273D02*
X410793D01*
X350275D02*
X350794D01*
X351194D01*
D13*
X612598Y245668D02*
X622835D01*
X514568D02*
X612598D01*
Y251968D02*
X622835D01*
X587008D02*
X612598D01*
X612992D01*
X612795Y258267D02*
X622835D01*
X602756D02*
X612795D01*
X613779D01*
X91534Y321849D02*
X129921D01*
X52544Y282859D02*
X91534Y321849D01*
X52083Y278376D02*
X52544Y278837D01*
Y282859D01*
X41409Y284318D02*
X47181D01*
X40901Y283811D02*
X41409Y284318D01*
X47181D02*
X104712Y341849D01*
X129921D01*
X78433Y278039D02*
X102243Y301849D01*
X129921D01*
X60716Y278039D02*
X78433D01*
X55618Y272941D02*
X60716Y278039D01*
X40901Y272941D02*
X55618D01*
X129921Y301849D02*
X156921D01*
X156922Y301850D01*
X238287D02*
X238287Y301850D01*
X156922Y301850D02*
X238287D01*
X156922Y321850D02*
X238287D01*
X238287Y321850D01*
X156921Y321849D02*
X156922Y321850D01*
X129921Y321849D02*
X156921D01*
X129921Y341849D02*
X156921D01*
X156922Y341850D02*
X238287D01*
X156921Y341849D02*
X156922Y341850D01*
X238287D02*
X238287Y341850D01*
X512008Y106968D02*
X512553Y107514D01*
X457480Y91339D02*
X479134Y112992D01*
X507075D02*
X512008Y108059D01*
X479134Y112992D02*
X507075D01*
X512553Y107514D02*
X517638Y112598D01*
X459055Y87795D02*
X478228Y106968D01*
X502008D01*
X378346Y87795D02*
X459055D01*
X370472Y79921D02*
X378346Y87795D01*
X566378Y112598D02*
X572008Y106968D01*
X557638Y112598D02*
X566378D01*
X552008Y106968D02*
X557638Y112598D01*
X537638D02*
X546378D01*
X552008Y106968D01*
X532008D02*
X537638Y112598D01*
X526378D02*
X532008Y106968D01*
X517638Y112598D02*
X526378D01*
X546779Y102197D02*
X557236D01*
X562008Y106968D01*
X542008D02*
X546779Y102197D01*
X527008Y101969D02*
X537008D01*
X542008Y106968D01*
X522008D02*
X527008Y101969D01*
X517008D02*
X522008Y106968D01*
X507008Y101969D02*
X517008D01*
X502008Y106968D02*
X507008Y101969D01*
X512008Y106968D02*
Y108059D01*
X376772Y91339D02*
X457480D01*
X370472Y97638D02*
X376772Y91339D01*
X335236Y54134D02*
X335490Y54387D01*
Y64795D01*
X360472Y89778D01*
Y97638D01*
X373425Y15945D02*
Y54134D01*
X335236Y15945D02*
X373425D01*
X335236D02*
Y54134D01*
X354331Y35039D02*
Y73779D01*
X360472Y79921D01*
X400394Y41693D02*
Y60000D01*
Y41693D02*
X413346Y28740D01*
X380472Y79921D02*
X400394Y60000D01*
X238287Y301850D02*
X257776D01*
X295394D02*
X299213Y298031D01*
X257776Y301850D02*
X295394D01*
X238287Y321850D02*
X257776D01*
X286024D01*
X290945Y316929D01*
X238287Y341850D02*
X257776D01*
X277835D01*
X283071Y336614D01*
X513779Y263386D02*
X575591D01*
X506693Y270472D02*
X513779Y263386D01*
X575591D02*
X587008Y251968D01*
X583071Y277953D02*
X602756Y258267D01*
X516142Y277953D02*
X583071D01*
X506693Y287402D02*
X516142Y277953D01*
X506693Y253543D02*
X514568Y245668D01*
X505905Y287402D02*
X506693D01*
X476772Y258268D02*
X505905Y287402D01*
X463902Y258268D02*
X476772D01*
X450516D02*
X463902D01*
Y251969D02*
X488189D01*
X506693Y270472D01*
X450516Y251969D02*
X463902D01*
Y245669D02*
X498819D01*
X506693Y253543D01*
X450516Y245669D02*
X463902D01*
X543701Y287402D02*
X562992Y306693D01*
Y336614D01*
X516693Y287402D02*
X543701D01*
D17*
X613779Y170078D02*
X622835D01*
X592519D02*
X613779D01*
X614567D01*
X382041Y140703D02*
X438537D01*
X439764Y141929D01*
X382493Y139612D02*
X439113D01*
X439575Y138574D02*
X439764Y138386D01*
X439113Y139612D02*
X439575Y139150D01*
Y138574D02*
Y139150D01*
X63264Y142500D02*
X71280D01*
X101931Y111849D01*
X129921D01*
Y61849D02*
X131072D01*
X129921Y71849D02*
X131072D01*
X40901Y127086D02*
X41247Y126740D01*
X40901Y127086D02*
Y131630D01*
X41247Y126740D02*
X45302D01*
X53400Y121785D02*
X58835Y116350D01*
X50256Y121785D02*
X53400D01*
X45302Y126740D02*
X50256Y121785D01*
X58835Y116350D02*
X66530D01*
X40901Y120760D02*
Y125304D01*
X115486Y67394D02*
X117810D01*
X66530Y116350D02*
X115486Y67394D01*
X66078Y115260D02*
X115034Y66303D01*
X58384Y115260D02*
X66078D01*
X115034Y66303D02*
X118262D01*
X41247Y125650D02*
X44850D01*
X40901Y125304D02*
X41247Y125650D01*
X52949Y120695D02*
X58384Y115260D01*
X49805Y120695D02*
X52949D01*
X44850Y125650D02*
X49805Y120695D01*
X65460Y126063D02*
X114200Y77323D01*
X140190D01*
X65009Y124972D02*
X113749Y76232D01*
X140642D01*
X57752Y121595D02*
X61129Y124972D01*
X57752Y121106D02*
X58098Y120760D01*
X63264D01*
X61129Y124972D02*
X65009D01*
X60678Y126063D02*
X65460D01*
X56691Y122076D02*
X60678Y126063D01*
X56202Y122076D02*
X56691D01*
X52083Y126195D02*
X56202Y122076D01*
X57752Y121106D02*
Y121595D01*
X129921Y81849D02*
X130864D01*
X131072D01*
X130864Y91849D02*
X131072D01*
X129921D02*
X130864D01*
X114548Y86304D02*
X118262D01*
X65009Y135843D02*
X114548Y86304D01*
X61129Y135843D02*
X65009D01*
X57752Y132465D02*
X61129Y135843D01*
X57752Y131976D02*
Y132465D01*
Y131976D02*
X58098Y131630D01*
X63264D01*
X114999Y87394D02*
X117810D01*
X65460Y136933D02*
X114999Y87394D01*
X60678Y136933D02*
X65460D01*
X56691Y132946D02*
X60678Y136933D01*
X56202Y132946D02*
X56691D01*
X52083Y137065D02*
X56202Y132946D01*
X56936Y151331D02*
Y153951D01*
Y151331D02*
X60630Y147638D01*
X52083Y158805D02*
X56936Y153951D01*
X74016Y147638D02*
X94488Y127165D01*
X60630Y147638D02*
X74016D01*
X94488Y127165D02*
X139764D01*
X144447Y131849D02*
X156921D01*
X139764Y127165D02*
X144447Y131849D01*
X63264Y153370D02*
X77732D01*
X99253Y131849D01*
X129921D01*
X53909Y250175D02*
X58384Y245701D01*
X50765Y250175D02*
X53909D01*
X44850Y256091D02*
X50765Y250175D01*
X41247Y256091D02*
X44850D01*
X40901Y255745D02*
X41247Y256091D01*
X40901Y251201D02*
Y255745D01*
X58835Y246791D02*
X84135D01*
X54361Y251266D02*
X58835Y246791D01*
X51217Y251266D02*
X54361D01*
X45302Y257181D02*
X51217Y251266D01*
X41247Y257181D02*
X45302D01*
X40901Y257527D02*
X41247Y257181D01*
X84587Y245701D02*
X105118Y266232D01*
X40901Y257527D02*
Y262071D01*
X58384Y245701D02*
X84587D01*
X84135Y246791D02*
X104666Y267323D01*
X63610Y257181D02*
X73736D01*
X63264Y257527D02*
Y262071D01*
X73736Y257181D02*
X93949Y277394D01*
X63264Y257527D02*
X63610Y257181D01*
X63264Y255745D02*
X63610Y256091D01*
X63264Y251201D02*
Y255745D01*
X63610Y256091D02*
X74188D01*
X94401Y276304D01*
X92847Y223961D02*
X105118Y236232D01*
X58384Y223961D02*
X92847D01*
X53909Y228435D02*
X58384Y223961D01*
X50765Y228435D02*
X53909D01*
X44850Y234350D02*
X50765Y228435D01*
X41247Y234350D02*
X44850D01*
X40901Y235787D02*
X41247Y235441D01*
X58835Y225051D02*
X92395D01*
X40901Y235787D02*
Y240331D01*
X51217Y229526D02*
X54361D01*
X40901Y229461D02*
Y234004D01*
X41247Y235441D02*
X45302D01*
X92395Y225051D02*
X104666Y237323D01*
X45302Y235441D02*
X51217Y229526D01*
X104666Y237323D02*
X140190D01*
X54361Y229526D02*
X58835Y225051D01*
X40901Y234004D02*
X41247Y234350D01*
X63264Y235787D02*
X63610Y235441D01*
X63264Y234004D02*
X63610Y234350D01*
X78318D01*
X90271Y246304D01*
X63264Y235787D02*
Y240331D01*
X63610Y235441D02*
X77866D01*
X89819Y247394D01*
X63264Y229461D02*
Y234004D01*
X86141Y216303D02*
X118262D01*
X85689Y217394D02*
X117810D01*
X63610Y212610D02*
X82448D01*
X63264Y207720D02*
Y212264D01*
X82448Y212610D02*
X86141Y216303D01*
X63264Y214047D02*
Y218590D01*
Y214047D02*
X63610Y213701D01*
X81996D01*
X85689Y217394D01*
X63264Y212264D02*
X63610Y212610D01*
X58384Y202221D02*
X79877D01*
X53909Y206695D02*
X58384Y202221D01*
X50765Y206695D02*
X53909D01*
X44850Y212610D02*
X50765Y206695D01*
X41247Y212610D02*
X44850D01*
X40901Y212264D02*
X41247Y212610D01*
X40901Y207720D02*
Y212264D01*
X79426Y203311D02*
X83437Y207323D01*
X58835Y203311D02*
X79426D01*
X54361Y207785D02*
X58835Y203311D01*
X51217Y207785D02*
X54361D01*
X45302Y213701D02*
X51217Y207785D01*
X41247Y213701D02*
X45302D01*
X40901Y214047D02*
X41247Y213701D01*
X40901Y214047D02*
Y218590D01*
X79877Y202221D02*
X83889Y206232D01*
X129921Y181849D02*
X131095D01*
X129921Y191849D02*
X131095D01*
X69350Y187394D02*
X117810D01*
X64331Y190870D02*
X68898Y186303D01*
X63264Y192307D02*
Y196851D01*
Y192307D02*
X63610Y191961D01*
X64783D01*
X69350Y187394D01*
X63264Y190524D02*
X63610Y190870D01*
X64331D01*
X63264Y185980D02*
Y190524D01*
X79783Y176232D02*
X140642D01*
X56511Y184955D02*
X61946Y179520D01*
X76496D01*
X79783Y176232D01*
X44850Y190870D02*
X50765Y184955D01*
X40901Y185980D02*
Y190524D01*
X76948Y180610D02*
X80235Y177323D01*
X51217Y186045D02*
X56963D01*
X45301Y191961D02*
X51217Y186045D01*
X40901Y190524D02*
X41247Y190870D01*
X40901Y192307D02*
X41247Y191961D01*
X56963Y186045D02*
X62398Y180610D01*
X76948D01*
X40901Y192307D02*
Y196851D01*
X41247Y190870D02*
X44850D01*
X41247Y191961D02*
X45301D01*
X50765Y184955D02*
X56511D01*
X94410Y147323D02*
X140190D01*
X81832Y158358D02*
X93958Y146232D01*
X60178Y158358D02*
X81832D01*
X93958Y146232D02*
X140642D01*
X82284Y159449D02*
X94410Y147323D01*
X60630Y159449D02*
X82284D01*
X94878Y156304D02*
X118262D01*
X82051Y169130D02*
X94878Y156304D01*
X95329Y157394D02*
X117810D01*
X63610Y170220D02*
X82503D01*
X63610Y169130D02*
X82051D01*
X82503Y170220D02*
X95329Y157394D01*
X55118Y164961D02*
X60630Y159449D01*
X54666Y163870D02*
X60178Y158358D01*
X50110Y163870D02*
X54666D01*
X50561Y164961D02*
X55118D01*
X44850Y169130D02*
X50110Y163870D01*
X45302Y170220D02*
X50561Y164961D01*
X40901Y164240D02*
Y168784D01*
X41247Y169130D01*
X40901Y170566D02*
Y175110D01*
Y170566D02*
X41247Y170220D01*
X45302D01*
X41247Y169130D02*
X44850D01*
X129921Y151849D02*
X131072D01*
X129921Y161849D02*
X131072D01*
X63264Y170566D02*
X63610Y170220D01*
X63264Y164240D02*
Y168784D01*
X63610Y169130D01*
X63264Y170566D02*
Y175110D01*
X117810Y67394D02*
X129575D01*
X129921Y67740D01*
Y71849D01*
X118262Y66303D02*
X129575D01*
X118262Y66303D02*
X118262Y66303D01*
X117810Y67394D02*
X117810Y67394D01*
X129575Y66303D02*
X129921Y65958D01*
Y61849D02*
Y65958D01*
X117810Y87394D02*
X129575D01*
X129921Y87740D01*
Y91849D01*
X118262Y86304D02*
X129575D01*
X118262Y86304D02*
X118262Y86304D01*
X117810Y87394D02*
X117810Y87394D01*
X129575Y86304D02*
X129921Y85958D01*
Y81849D02*
Y85958D01*
X154717Y84053D02*
Y85958D01*
X154371Y86304D02*
X154717Y85958D01*
X147171Y87394D02*
X154371D01*
X154717Y87740D01*
X144529Y83209D02*
X147623Y86304D01*
X154717Y87740D02*
Y89644D01*
X140642Y76232D02*
X144529Y80120D01*
Y83209D01*
X143438Y80571D02*
Y83661D01*
X140190Y77323D02*
X143438Y80571D01*
Y83661D02*
X147171Y87394D01*
X147623Y86304D02*
X154371D01*
X147623Y156304D02*
X154371D01*
X143438Y153661D02*
X147171Y157394D01*
X140190Y147323D02*
X143438Y150571D01*
Y153661D01*
X144529Y150119D02*
Y153209D01*
X140642Y146232D02*
X144529Y150119D01*
X154717Y157740D02*
Y159644D01*
X144529Y153209D02*
X147623Y156304D01*
X154371Y157394D02*
X154717Y157740D01*
X147171Y157394D02*
X154371D01*
Y156304D02*
X154717Y155958D01*
Y154053D02*
Y155958D01*
X147623Y186303D02*
X154371D01*
X143438Y183661D02*
X147171Y187394D01*
X140190Y177323D02*
X143438Y180571D01*
Y183661D01*
X144529Y180120D02*
Y183209D01*
X140642Y176232D02*
X144529Y180120D01*
X154717Y187740D02*
Y189644D01*
X144529Y183209D02*
X147623Y186303D01*
X154371Y187394D02*
X154717Y187740D01*
X147171Y187394D02*
X154371D01*
Y186303D02*
X154717Y185958D01*
Y184054D02*
Y185958D01*
X80235Y177323D02*
X140190D01*
X147623Y216303D02*
X154371D01*
X143438Y213661D02*
X147171Y217394D01*
X140190Y207323D02*
X143438Y210571D01*
Y213661D01*
X144529Y210120D02*
Y213209D01*
X140642Y206232D02*
X144529Y210120D01*
X154717Y217740D02*
Y219644D01*
X144529Y213209D02*
X147623Y216303D01*
X154371Y217394D02*
X154717Y217740D01*
X147171Y217394D02*
X154371D01*
Y216303D02*
X154717Y215958D01*
Y214054D02*
Y215958D01*
X83889Y206232D02*
X140642D01*
X83437Y207323D02*
X140190D01*
X147623Y246304D02*
X154371D01*
X143438Y243661D02*
X147171Y247394D01*
X140190Y237323D02*
X143438Y240571D01*
Y243661D01*
X144529Y240120D02*
Y243209D01*
X140642Y236232D02*
X144529Y240120D01*
X154717Y247740D02*
Y249644D01*
X144529Y243209D02*
X147623Y246304D01*
X154371Y247394D02*
X154717Y247740D01*
X147171Y247394D02*
X154371D01*
Y246304D02*
X154717Y245958D01*
Y244054D02*
Y245958D01*
X105118Y236232D02*
X140642D01*
X129921Y151849D02*
Y155958D01*
X129575Y156304D02*
X129921Y155958D01*
X117810Y157394D02*
X117810Y157394D01*
X118262Y156304D02*
X118262Y156304D01*
X129575D01*
X129921Y157740D02*
Y161849D01*
X129575Y157394D02*
X129921Y157740D01*
X117810Y157394D02*
X129575D01*
X129921Y181849D02*
Y185958D01*
X129575Y186303D02*
X129921Y185958D01*
X117810Y187394D02*
X117810Y187394D01*
X118262Y186303D02*
X118262Y186303D01*
X129575D01*
X68898Y186303D02*
X118262D01*
X129921Y187740D02*
Y191849D01*
X129575Y187394D02*
X129921Y187740D01*
X117810Y187394D02*
X129575D01*
X129921Y211849D02*
X130646D01*
X129921D02*
Y215958D01*
X129575Y216303D02*
X129921Y215958D01*
X117810Y217394D02*
X117810Y217394D01*
X118262Y216303D02*
X118262Y216303D01*
X129575D01*
X129921Y217740D02*
Y221849D01*
X129575Y217394D02*
X129921Y217740D01*
X117810Y217394D02*
X129575D01*
X129921Y251849D02*
X130646D01*
X129921Y241849D02*
X130646D01*
X129575Y246304D02*
X129921Y245958D01*
X117810Y247394D02*
X117810Y247394D01*
X118262Y246304D02*
X118262Y246304D01*
X129575D01*
X90271Y246304D02*
X118262D01*
X129921Y247740D02*
Y251849D01*
X129575Y247394D02*
X129921Y247740D01*
X117810Y247394D02*
X129575D01*
X89819Y247394D02*
X117810D01*
X93949Y277394D02*
X117810D01*
X337586Y227801D02*
X440506D01*
X309539Y257390D02*
X338037Y228892D01*
X440506D01*
X251568Y256299D02*
X309088D01*
X337586Y227801D01*
X251116Y257390D02*
X309539D01*
X343560Y232850D02*
X432632D01*
X300105Y276305D02*
X343560Y232850D01*
X258121Y276305D02*
X300105D01*
X344012Y233941D02*
X432632D01*
X300557Y277396D02*
X344012Y233941D01*
X258121Y277396D02*
X300557D01*
X302001Y286221D02*
X350972Y237250D01*
X440506D01*
X250394Y286221D02*
X302001D01*
X351423Y238341D02*
X440506D01*
X302453Y287311D02*
X351423Y238341D01*
X249942Y287311D02*
X302453D01*
X259822Y247396D02*
X308477D01*
X331086Y223245D02*
X432632D01*
X331538Y224335D02*
X432632D01*
X308477Y247396D02*
X331538Y224335D01*
X259822Y246305D02*
X308026D01*
X331086Y223245D01*
X329679Y218352D02*
X440506D01*
X330131Y219443D02*
X440506D01*
X322499Y227075D02*
X330131Y219443D01*
X250801Y227075D02*
X322499D01*
X322047Y225984D02*
X329679Y218352D01*
X251253Y225984D02*
X322047D01*
X603169Y135091D02*
X605889Y137812D01*
X595946Y135091D02*
X603169D01*
X595946Y136182D02*
X602717D01*
X604799Y138263D01*
X594882Y137246D02*
Y137402D01*
X594571Y133872D02*
X594726D01*
X595946Y135091D01*
X594882Y137246D02*
X595946Y136182D01*
X590945Y168504D02*
X592519Y170078D01*
X468105Y168504D02*
X590945D01*
X594488Y180429D02*
X618980D01*
X619193Y180217D02*
X622145D01*
X618980Y180429D02*
X619193Y180217D01*
X622145D02*
X622835Y179527D01*
X467711Y178347D02*
X598425D01*
X467150Y169459D02*
X468105Y168504D01*
X463902Y170079D02*
X464521Y169459D01*
X467150D01*
X450516Y170079D02*
X463902D01*
X450516Y179528D02*
X450573Y179585D01*
X455061D01*
X455118Y179642D01*
X463902Y179528D02*
X464521Y178908D01*
X467150D01*
X467711Y178347D01*
X618853Y140702D02*
X619882Y141731D01*
X607238Y140702D02*
X618853D01*
X619882Y138582D02*
X622835D01*
X618853Y139612D02*
X619882Y138582D01*
X607689Y139612D02*
X618853D01*
X605889Y137812D02*
X607689Y139612D01*
X619882Y141731D02*
X622835D01*
X604799Y138263D02*
X607238Y140702D01*
X604799Y138263D02*
Y138263D01*
X605889Y137812D02*
Y137812D01*
X439764Y141929D02*
X440990Y140703D01*
X448108D01*
X449138Y141732D01*
X440990Y139612D02*
X448108D01*
X449138Y138583D01*
X439764Y138386D02*
X440990Y139612D01*
X598237Y141740D02*
X598425Y141929D01*
X598237Y138574D02*
Y139348D01*
Y140966D02*
Y141740D01*
X597973Y140702D02*
X598237Y140966D01*
Y138574D02*
X598425Y138385D01*
X597973Y139612D02*
X598237Y139348D01*
X467150Y139612D02*
X597973D01*
X467602Y140702D02*
X597973D01*
X467150Y139612D02*
X467150Y139612D01*
X466309Y139612D02*
X467150D01*
X463902Y138583D02*
X465279D01*
X466309Y139612D01*
Y140703D02*
X467601D01*
X463902Y141732D02*
X465279D01*
X466309Y140703D01*
X467601D02*
X467602Y140702D01*
X612203Y148964D02*
X618950D01*
X599751Y150054D02*
X611751D01*
X618756Y150054D02*
X619882Y151180D01*
X611751Y150054D02*
X611751Y150054D01*
X599751Y148964D02*
X612203D01*
X611751Y150054D02*
X618756D01*
X612203Y148964D02*
X612203Y148964D01*
X618950D02*
X619882Y148031D01*
X598425Y147638D02*
Y147638D01*
X598425Y151380D02*
X598425D01*
X599751Y150054D01*
X598425Y147638D02*
X599751Y148964D01*
X619882Y148031D02*
X622835D01*
X619882Y151180D02*
X622835D01*
X454215Y149061D02*
X455467D01*
X456693Y147835D01*
X454215Y149061D02*
X454215Y149061D01*
X451894Y148031D02*
X452923Y149061D01*
X450516Y151181D02*
X451894D01*
X452923Y150152D02*
X453764D01*
X453764Y150152D01*
X451894Y151181D02*
X452923Y150152D01*
X455467Y150152D02*
X456693Y151378D01*
X450516Y148031D02*
X451894D01*
X452923Y149061D02*
X454215D01*
X453764Y150152D02*
X455467D01*
X459818Y139612D02*
X461494D01*
X458661Y138455D02*
X459818Y139612D01*
X459500Y140703D02*
X461494D01*
X458661Y141541D02*
Y141732D01*
Y141541D02*
X459500Y140703D01*
X322041Y87396D02*
X379748Y145102D01*
X380200Y144012D02*
X432238D01*
X379748Y145102D02*
X432238D01*
X322493Y86305D02*
X380200Y144012D01*
X461494Y139612D02*
X462524Y138583D01*
X463902D01*
X458661Y138189D02*
Y138455D01*
X462524Y141732D02*
X463902D01*
X461494Y140703D02*
X462524Y141732D01*
X432238Y145102D02*
X433465Y146329D01*
X432238Y144012D02*
X433465Y142785D01*
X319259Y76378D02*
X382493Y139612D01*
X318807Y77469D02*
X382041Y140703D01*
X449138Y138583D02*
X450516D01*
X449138Y141732D02*
X450516D01*
X325558Y96457D02*
X378162Y149061D01*
X325106Y97547D02*
X377711Y150152D01*
X378162Y149061D02*
X448108D01*
X377711Y150152D02*
X448108D01*
X449138Y148031D02*
X450516D01*
X448108Y150152D02*
X449138Y151181D01*
X448108Y149061D02*
X449138Y148031D01*
Y151181D02*
X450516D01*
X447848Y169501D02*
X449938D01*
X383071Y166142D02*
X444488D01*
X449938Y169501D02*
X450516Y170079D01*
X444488Y166142D02*
X447848Y169501D01*
X333465Y116535D02*
X383071Y166142D01*
X329095Y131850D02*
X373114Y175870D01*
X433465D01*
X459055Y179528D02*
X463902D01*
X250224Y76378D02*
X319259D01*
X249773Y77469D02*
X318807D01*
X246417Y74113D02*
X249773Y77469D01*
X247508Y73661D02*
X250224Y76378D01*
X241216Y65959D02*
X241562Y66305D01*
X241216Y67742D02*
X241562Y67396D01*
Y66305D02*
X245281D01*
X241216Y67742D02*
Y69646D01*
X241562Y67396D02*
X244830D01*
X245281Y66305D02*
X247508Y68532D01*
X244830Y67396D02*
X246417Y68984D01*
Y74113D01*
X241216Y64055D02*
Y65959D01*
X247508Y68532D02*
Y73661D01*
X278401Y87396D02*
X322041D01*
X277949Y86305D02*
X322493D01*
X257776Y87742D02*
X258121Y87396D01*
X257776Y87742D02*
Y91850D01*
X258121Y87396D02*
X278401D01*
X278401Y87396D01*
X257776Y81850D02*
Y85959D01*
X258121Y86305D01*
X277949D01*
X277949Y86305D01*
X250303Y96457D02*
X325558D01*
X246417Y94113D02*
X249851Y97547D01*
X325106D01*
X247508Y93661D02*
X250303Y96457D01*
X247508Y88532D02*
Y93661D01*
X241216Y84055D02*
Y85959D01*
X246417Y88984D02*
Y94113D01*
X244830Y87396D02*
X246417Y88984D01*
X245281Y86305D02*
X247508Y88532D01*
X241562Y87396D02*
X244830D01*
X239012Y81850D02*
X241216Y84055D01*
X239012Y91850D02*
X241216Y89646D01*
X238287Y91850D02*
X239012D01*
X238287Y81850D02*
X239012D01*
X241216Y87742D02*
Y89646D01*
X241562Y86305D02*
X245281D01*
X241216Y87742D02*
X241562Y87396D01*
X241216Y85959D02*
X241562Y86305D01*
X246417Y111850D02*
X251102Y116535D01*
X238287Y111850D02*
X246417D01*
X251102Y116535D02*
X333465D01*
X257776Y131850D02*
X329095D01*
X447563Y177953D02*
X449138Y179528D01*
X450516D01*
X327953Y136614D02*
X369291Y177953D01*
X447563D01*
X247795Y136614D02*
X327953D01*
X238287Y131850D02*
X243032D01*
X247795Y136614D01*
X104666Y267323D02*
X140190D01*
X105118Y266232D02*
X140642D01*
X154717Y274054D02*
Y275958D01*
X154371Y276304D02*
X154717Y275958D01*
X147171Y277394D02*
X154371D01*
X154717Y277740D01*
X144529Y273209D02*
X147623Y276304D01*
X154717Y277740D02*
Y279644D01*
X156921Y281849D01*
X140642Y266232D02*
X144529Y270120D01*
Y273209D01*
X154717Y274054D02*
X156921Y271849D01*
X143438Y270571D02*
Y273661D01*
X140190Y267323D02*
X143438Y270571D01*
Y273661D02*
X147171Y277394D01*
X147623Y276304D02*
X154371D01*
X117810Y277394D02*
X129575D01*
X129921Y277740D01*
Y281849D01*
X94401Y276304D02*
X118262D01*
X118262Y276304D02*
X129575D01*
X118262Y276304D02*
X118262Y276304D01*
X117810Y277394D02*
X117810Y277394D01*
X129575Y276304D02*
X129921Y275958D01*
Y271849D02*
Y275958D01*
X142520Y74016D02*
X145579Y77075D01*
X143610Y73564D02*
X146030Y75984D01*
X143610Y70243D02*
Y73564D01*
X139219Y67394D02*
X142520Y70695D01*
Y74016D01*
X139671Y66303D02*
X143610Y70243D01*
X146030Y75984D02*
X204757D01*
X145579Y77075D02*
X205209D01*
X132472Y67394D02*
X139219D01*
X132472Y66303D02*
X139671D01*
X132126Y65958D02*
X132472Y66303D01*
X132126Y67740D02*
X132472Y67394D01*
X129921Y71849D02*
X132126Y69644D01*
X129921Y61849D02*
X132126Y64053D01*
Y65958D01*
Y67740D02*
Y69644D01*
X205209Y77075D02*
X208981Y73303D01*
X204757Y75984D02*
X207890Y72851D01*
X208981Y73303D02*
Y73303D01*
X214436Y66305D02*
X237942D01*
X238287Y67742D02*
Y71850D01*
X208981Y73303D02*
X214888Y67396D01*
X237942D01*
X238287Y61850D02*
Y65959D01*
X237942Y66305D02*
X238287Y65959D01*
X207890Y72851D02*
Y72851D01*
Y72851D02*
X214436Y66305D01*
X237942Y67396D02*
X238287Y67742D01*
X209859Y83087D02*
X209859D01*
X206642Y86304D02*
X208795Y84151D01*
Y84151D02*
Y84151D01*
X158160Y85958D02*
X158505Y86304D01*
X206642D01*
X156921Y91849D02*
X158160Y90610D01*
Y87740D02*
X158505Y87394D01*
X207094D01*
X210630Y83858D01*
X156921Y81849D02*
X158160Y83087D01*
X210630Y83858D02*
Y83858D01*
X158160Y87740D02*
Y90610D01*
X208795Y84151D02*
X209859Y83087D01*
X158160D02*
Y85958D01*
X210630Y83858D02*
X216929Y77559D01*
X209859Y83087D02*
X216477Y76468D01*
X216929Y77559D02*
X246153D01*
X216477Y76468D02*
X246605D01*
X249119Y78982D01*
X255225Y86305D02*
X255571Y85959D01*
Y84055D02*
Y85959D01*
X251234Y86305D02*
X255225D01*
X248028Y79434D02*
Y84642D01*
X255571Y87742D02*
Y89646D01*
X249119Y84191D02*
X251234Y86305D01*
X255571Y84055D02*
X257776Y81850D01*
X255571Y89646D02*
X257776Y91850D01*
X250782Y87396D02*
X255225D01*
X249119Y78982D02*
Y84191D01*
X255225Y87396D02*
X255571Y87742D01*
X248028Y84642D02*
X250782Y87396D01*
X246153Y77559D02*
X248028Y79434D01*
X145669Y96850D02*
X212992D01*
X142371Y90719D02*
Y93552D01*
X143462Y90267D02*
Y93100D01*
X142371Y93552D02*
X145669Y96850D01*
X146121Y95760D02*
X212540D01*
X143462Y93100D02*
X146121Y95760D01*
X212992Y96850D02*
X217323Y92520D01*
X212540Y95760D02*
X216871Y91429D01*
X139498Y86304D02*
X143462Y90267D01*
X133414Y86304D02*
X139498D01*
X133069Y85958D02*
X133414Y86304D01*
X133069Y84053D02*
Y85958D01*
X130864Y81849D02*
X133069Y84053D01*
Y87740D02*
X133414Y87394D01*
X133069Y87740D02*
Y89644D01*
X130864Y91849D02*
X133069Y89644D01*
X133414Y87394D02*
X139046D01*
X142371Y90719D01*
X238287Y81850D02*
Y85959D01*
X221995Y86305D02*
X237942D01*
X222447Y87396D02*
X237942D01*
Y86305D02*
X238287Y85959D01*
X216871Y91429D02*
X216871D01*
X217323Y92520D02*
X217323D01*
X222447Y87396D01*
X237942D02*
X238287Y87742D01*
Y91850D01*
X216871Y91429D02*
X221995Y86305D01*
X137421Y111849D02*
X141714Y116142D01*
X180709D01*
X129921Y111849D02*
X137421D01*
X180709Y116142D02*
X185000Y111850D01*
X238287D01*
X156921Y131849D02*
X190592D01*
X195669Y126772D02*
X244567D01*
X190592Y131849D02*
X195669Y126772D01*
X249646Y131850D02*
X257776D01*
X244567Y126772D02*
X249646Y131850D01*
X142187Y136614D02*
X193602D01*
X129921Y131849D02*
X137421D01*
X142187Y136614D01*
X193602D02*
X198366Y131850D01*
X238287D01*
X196485Y156304D02*
X206635Y146153D01*
X157267Y156304D02*
X196485D01*
X157267Y157394D02*
X196937D01*
X207087Y147244D01*
X156921Y157740D02*
X157267Y157394D01*
X156921Y157740D02*
Y161849D01*
Y151849D02*
Y155958D01*
X157267Y156304D01*
X206635Y146153D02*
X245424D01*
X207087Y147244D02*
X244972D01*
X255571Y154055D02*
X257776Y151850D01*
X251234Y156305D02*
X255225D01*
X255571Y159646D02*
X257776Y161850D01*
X255571Y157742D02*
Y159646D01*
X255225Y157396D02*
X255571Y157742D01*
X248528Y153600D02*
X251234Y156305D01*
X250782Y157396D02*
X255225D01*
Y156305D02*
X255571Y155959D01*
X245424Y146153D02*
X248528Y149258D01*
X247438Y154052D02*
X250782Y157396D01*
X255571Y154055D02*
Y155959D01*
X247438Y149709D02*
Y154052D01*
X244972Y147244D02*
X247438Y149709D01*
X248528Y149258D02*
Y153600D01*
X143701Y160506D02*
Y164173D01*
X139498Y156304D02*
X143701Y160506D01*
X133276Y154053D02*
Y155958D01*
X133622Y156304D01*
X139498D01*
X131072Y151849D02*
X133276Y154053D01*
X142610Y160958D02*
Y164625D01*
X139046Y157394D02*
X142610Y160958D01*
X131072Y161849D02*
X133276Y159644D01*
Y157740D02*
X133622Y157394D01*
X133276Y157740D02*
Y159644D01*
X133622Y157394D02*
X139046D01*
X145308Y167323D02*
X199039D01*
X143701Y164173D02*
X145760Y166232D01*
X142610Y164625D02*
X145308Y167323D01*
X235359Y154055D02*
X237563Y151850D01*
X238287D01*
X235359Y154055D02*
Y155959D01*
X235013Y156305D02*
X235359Y155959D01*
X208515Y156305D02*
X235013D01*
X198588Y166232D02*
X208515Y156305D01*
X145760Y166232D02*
X198588D01*
X235359Y159646D02*
X237563Y161850D01*
X235359Y157742D02*
Y159646D01*
X237563Y161850D02*
X238287D01*
X199039Y167323D02*
X208967Y157396D01*
X235013D02*
X235359Y157742D01*
X208967Y157396D02*
X235013D01*
X157267Y186303D02*
X203887D01*
X213721Y176469D01*
X157267Y187394D02*
X204338D01*
X214173Y177559D01*
X156921Y181849D02*
Y185958D01*
Y187740D02*
Y191849D01*
Y187740D02*
X157267Y187394D01*
X156921Y185958D02*
X157267Y186303D01*
X214173Y177559D02*
X245760D01*
X213721Y176469D02*
X246212D01*
X255571Y184055D02*
X257776Y181850D01*
X246212Y176469D02*
X248725Y178982D01*
X255571Y184055D02*
Y185959D01*
X255225Y186305D02*
X255571Y185959D01*
X248725Y183797D02*
X251234Y186305D01*
X255225D01*
X255571Y189646D02*
X257776Y191850D01*
X255571Y187742D02*
Y189646D01*
X255225Y187396D02*
X255571Y187742D01*
X248725Y178982D02*
Y183797D01*
X250782Y187396D02*
X255225D01*
X247635Y184249D02*
X250782Y187396D01*
X247635Y179434D02*
Y184249D01*
X245760Y177559D02*
X247635Y179434D01*
X139498Y186303D02*
X143701Y190506D01*
X131095Y181849D02*
X133300Y184054D01*
Y185958D01*
X139046Y187394D02*
X142610Y190958D01*
X133645Y187394D02*
X139046D01*
X143701Y190506D02*
Y194095D01*
X131095Y191849D02*
X133300Y189644D01*
X133645Y186303D02*
X139498D01*
X133300Y187740D02*
Y189644D01*
Y185958D02*
X133645Y186303D01*
X133300Y187740D02*
X133645Y187394D01*
X142610Y190958D02*
Y194546D01*
X143701Y194095D02*
X145760Y196153D01*
X142610Y194546D02*
X145308Y197244D01*
X145760Y196153D02*
X210635D01*
X237563Y181850D02*
X238287D01*
X235359Y184055D02*
X237563Y181850D01*
X235359Y184055D02*
Y185959D01*
X235013Y186305D02*
X235359Y185959D01*
X220483Y186305D02*
X235013D01*
X237563Y191850D02*
X238287D01*
X235359Y189646D02*
X237563Y191850D01*
X235013Y187396D02*
X235359Y187742D01*
Y189646D01*
X145308Y197244D02*
X211087D01*
X220935Y187396D01*
X235013D01*
X210635Y196153D02*
X220483Y186305D01*
X195934Y216303D02*
X206241Y205996D01*
X157267Y216303D02*
X195934D01*
X196385Y217394D02*
X206693Y207087D01*
X157267Y217394D02*
X196385D01*
X156921Y217740D02*
X157267Y217394D01*
X156921Y211849D02*
Y215958D01*
X157267Y216303D01*
X156921Y217740D02*
Y221849D01*
X206693Y207087D02*
X245366D01*
X206241Y205996D02*
X245818D01*
X248725Y208903D01*
X251234Y216305D02*
X255225D01*
X255571Y217742D02*
Y219646D01*
X255225Y217396D02*
X255571Y217742D01*
X248725Y213797D02*
X251234Y216305D01*
X250782Y217396D02*
X255225D01*
X255571Y214055D02*
X257776Y211850D01*
X247635Y214249D02*
X250782Y217396D01*
X247635Y209355D02*
Y214249D01*
X255225Y216305D02*
X255571Y215959D01*
Y214055D02*
Y215959D01*
X245366Y207087D02*
X247635Y209355D01*
X255571Y219646D02*
X257776Y221850D01*
X248725Y208903D02*
Y213797D01*
X142371Y223441D02*
X145611Y226681D01*
X211508D01*
X142371Y220719D02*
Y223441D01*
X143462Y220267D02*
Y222989D01*
X146063Y225590D02*
X211056D01*
X143462Y222989D02*
X146063Y225590D01*
X211508Y226681D02*
X216142Y222047D01*
X211056Y225590D02*
X215690Y220957D01*
X139498Y216303D02*
X143462Y220267D01*
X132850Y214054D02*
Y215958D01*
X130646Y211849D02*
X132850Y214054D01*
X139046Y217394D02*
X142371Y220719D01*
X132850Y217740D02*
X133196Y217394D01*
X139046D01*
X132850Y217740D02*
Y219644D01*
X130646Y221849D02*
X132850Y219644D01*
X129921Y221849D02*
X130646D01*
X132850Y215958D02*
X133196Y216303D01*
X139498D01*
X216142Y222047D02*
X220793Y217396D01*
X216142Y222047D02*
X216142D01*
X215690Y220957D02*
X220342Y216305D01*
X215690Y220957D02*
X215690D01*
X220342Y216305D02*
X237942D01*
X238287Y215959D01*
X237942Y217396D02*
X238287Y217742D01*
Y211850D02*
Y215959D01*
Y217742D02*
Y221850D01*
X220793Y217396D02*
X237942D01*
X157906Y247740D02*
X158252Y247394D01*
X157906Y247740D02*
Y250864D01*
X158252Y247394D02*
X186464D01*
X157906Y242834D02*
Y245958D01*
X158252Y246304D01*
X186012D01*
X156921Y251849D02*
X157906Y250864D01*
X186464Y247394D02*
X196063Y237795D01*
X186012Y246304D02*
X195611Y236705D01*
X246515D01*
X196063Y237795D02*
X246063D01*
X246515Y236705D02*
X248593Y238783D01*
Y243665D01*
X247503Y239235D02*
Y244116D01*
X246063Y237795D02*
X247503Y239235D01*
X251234Y246305D02*
X257430D01*
X257776Y245959D01*
Y241850D02*
Y245959D01*
X248593Y243665D02*
X251234Y246305D01*
X247503Y244116D02*
X250782Y247396D01*
X257430D01*
X257776Y247742D01*
Y251850D01*
X156921Y241849D02*
X157906Y242834D01*
X142325Y253743D02*
X145669Y257087D01*
X143416Y250048D02*
Y253291D01*
X146121Y255996D01*
X186992D01*
X142325Y250500D02*
Y253743D01*
X145669Y257087D02*
X187444D01*
X186992Y255996D02*
X196683Y246305D01*
X187444Y257087D02*
X197135Y247396D01*
X130267Y246304D02*
X139671D01*
X237942Y247396D02*
X238287Y247742D01*
Y241850D02*
Y245959D01*
X139219Y247394D02*
X142325Y250500D01*
X197135Y247396D02*
X237942D01*
X129921Y241849D02*
Y245958D01*
X196683Y246305D02*
X237942D01*
X129921Y247740D02*
X130267Y247394D01*
X139671Y246304D02*
X143416Y250048D01*
X238287Y247742D02*
Y251850D01*
X237942Y246305D02*
X238287Y245959D01*
X130267Y247394D02*
X139219D01*
X129921Y245958D02*
X130267Y246304D01*
X156921Y281849D02*
X159126Y279644D01*
X156487Y282283D02*
X156921Y281849D01*
X195000Y276304D02*
X204768Y266535D01*
X195451Y277394D02*
X205220Y267626D01*
X156921Y271849D02*
X159126Y274054D01*
Y275958D01*
X159472Y276304D01*
X195000D01*
X159126Y277740D02*
X159472Y277394D01*
X195451D01*
X159126Y277740D02*
Y279644D01*
X155905Y282283D02*
X156487D01*
X245171Y266535D02*
X248054Y269418D01*
X204768Y266535D02*
X245171D01*
X251234Y276305D02*
X255225D01*
X255571Y277742D02*
Y279646D01*
X246963Y269869D02*
Y273577D01*
X255571Y274055D02*
Y275959D01*
X205220Y267626D02*
X244720D01*
X246963Y269869D01*
X250782Y277396D02*
X255225D01*
Y276305D02*
X255571Y275959D01*
X255225Y277396D02*
X255571Y277742D01*
X248054Y269418D02*
Y273125D01*
X251234Y276305D01*
X255571Y279646D02*
X257776Y281850D01*
X246963Y273577D02*
X250782Y277396D01*
X255571Y274055D02*
X257776Y271850D01*
X143462Y280267D02*
Y284439D01*
X145334Y286311D02*
X218052D01*
X144882Y287402D02*
X218504D01*
X143462Y284439D02*
X145334Y286311D01*
X142371Y284891D02*
X144882Y287402D01*
X142371Y280719D02*
Y284891D01*
X218504Y287402D02*
X220472Y285433D01*
X218052Y286311D02*
X220021Y284343D01*
X132850Y274054D02*
Y275958D01*
X133196Y276304D01*
X139498D02*
X143462Y280267D01*
X130646Y271849D02*
X132850Y274054D01*
X133196Y276304D02*
X139498D01*
X129921Y271849D02*
X130646D01*
X132850Y277740D02*
Y279644D01*
X139046Y277394D02*
X142371Y280719D01*
X129921Y281849D02*
X130646D01*
X132850Y277740D02*
X133196Y277394D01*
X139046D01*
X130646Y281849D02*
X132850Y279644D01*
X238287Y271850D02*
Y275959D01*
X237942Y276305D02*
X238287Y275959D01*
X228058Y276305D02*
X237942D01*
X220473Y285433D02*
X228510Y277396D01*
X238287Y277742D02*
Y281850D01*
X228510Y277396D02*
X237942D01*
X220021Y284343D02*
X228058Y276305D01*
X220021Y284343D02*
X220021D01*
X220472Y285433D02*
X220473D01*
X237942Y277396D02*
X238287Y277742D01*
X440506Y199455D02*
X441732Y198228D01*
X360872Y199455D02*
X440506D01*
X440506Y200545D02*
X441732Y201772D01*
X360420Y200545D02*
X440506D01*
X455873Y235279D02*
X457140D01*
X458369Y233004D02*
Y234965D01*
X457140Y235279D02*
X460202Y238340D01*
X458369Y234965D02*
X460653Y237250D01*
X458369Y225516D02*
X460653Y227801D01*
X455873Y225830D02*
X457140D01*
X458369Y223556D02*
Y225516D01*
X457140Y225830D02*
X460202Y228892D01*
X440506Y218352D02*
X441732Y217126D01*
X440506Y219443D02*
X441732Y220669D01*
X440506Y227801D02*
X441732Y226575D01*
X440506Y228892D02*
X441732Y230118D01*
X440506Y237250D02*
X441732Y236024D01*
X440506Y238341D02*
X441732Y239567D01*
X441082Y209994D02*
X441544Y210456D01*
X285224Y209994D02*
X441082D01*
X440394Y208904D02*
X441620Y207677D01*
X285675Y208904D02*
X440394D01*
X441544Y211032D02*
X441732Y211221D01*
X441544Y210456D02*
Y211032D01*
X458844Y200545D02*
X461494D01*
X453238Y193398D02*
X459295Y199455D01*
X461494D01*
X462524Y198425D01*
X371292Y194488D02*
X452786D01*
X458844Y200545D01*
X461494D02*
X462524Y201575D01*
X371744Y193398D02*
X453238D01*
X588735Y195998D02*
X589195Y196458D01*
X588735Y195731D02*
Y195998D01*
X591742Y197239D02*
X591876Y197372D01*
X467602Y200545D02*
X587251D01*
X590557Y197239D01*
X591742D01*
X467150Y199454D02*
X586799D01*
X589195Y197058D01*
Y196458D02*
Y197058D01*
X467150Y199455D02*
X467150Y199454D01*
X466309Y199455D02*
X467150D01*
X463902Y198425D02*
X465279D01*
X466309Y199455D01*
X467601Y200545D02*
X467602Y200545D01*
X466309Y200545D02*
X467601D01*
X465279Y201575D02*
X466309Y200545D01*
X463902Y201575D02*
X465279D01*
X588703Y205605D02*
X589541Y206443D01*
X588548Y205605D02*
X588703D01*
X588263Y208903D02*
X589541Y207625D01*
Y206443D02*
Y207625D01*
X590632Y207455D02*
Y208077D01*
X588715Y209994D02*
X590632Y208077D01*
Y207455D02*
X591077Y207010D01*
X591687D01*
X591876Y206821D01*
X467150Y208903D02*
X588263D01*
X466309Y208904D02*
X467150D01*
X465279Y207874D02*
X466309Y208904D01*
X463902Y207874D02*
X465279D01*
X467150Y208904D02*
X467150Y208903D01*
X467602Y209994D02*
X588715D01*
X466309Y209994D02*
X467601D01*
X465279Y211024D02*
X466309Y209994D01*
X463902Y211024D02*
X465279D01*
X467601Y209994D02*
X467602Y209994D01*
X588548Y215054D02*
X588703D01*
X589541Y215892D01*
Y217074D01*
X588263Y218352D02*
X589541Y217074D01*
X588715Y219443D02*
X590632Y217525D01*
Y216904D02*
Y217525D01*
Y216904D02*
X591077Y216459D01*
X591687D01*
X591876Y216270D01*
X467602Y219443D02*
X588715D01*
X467150Y218352D02*
X588263D01*
X466309Y218352D02*
X467150D01*
X465279Y217323D02*
X466309Y218352D01*
X463902Y217323D02*
X465279D01*
X467150Y218352D02*
X467150Y218352D01*
X466309Y219443D02*
X467601D01*
X467602Y219443D01*
X463902Y220472D02*
X465279D01*
X466309Y219443D01*
X588735Y224078D02*
Y224344D01*
X591742Y225586D02*
X591876Y225719D01*
X590557Y225586D02*
X591742D01*
X589195Y224804D02*
Y225405D01*
X586799Y227801D02*
X589195Y225405D01*
X467602Y228891D02*
X587251D01*
X590557Y225586D01*
X467150Y227801D02*
X586799D01*
X588735Y224344D02*
X589195Y224804D01*
X467150Y227801D02*
X467150Y227801D01*
X466309Y227801D02*
X467150D01*
X465279Y226772D02*
X466309Y227801D01*
X463902Y226772D02*
X465279D01*
X467601Y228892D02*
X467602Y228891D01*
X466309Y228892D02*
X467601D01*
X465279Y229921D02*
X466309Y228892D01*
X463902Y229921D02*
X465279D01*
X588346Y233364D02*
Y234290D01*
X588392Y234336D02*
Y234826D01*
X585968Y237250D02*
X588392Y234826D01*
X465279Y236221D02*
X466309Y237250D01*
X585968D01*
X463902Y236221D02*
X465279D01*
X588346Y234290D02*
X588392Y234336D01*
X466309Y238340D02*
X586420D01*
X465279Y239370D02*
X466309Y238340D01*
X463902Y239370D02*
X465279D01*
X586420Y238340D02*
X589415Y235345D01*
X590911D01*
X591088Y235168D01*
X588158Y233176D02*
X588346Y233364D01*
X334200Y157396D02*
X371292Y194488D01*
X334651Y156305D02*
X371744Y193398D01*
X258121Y156305D02*
X334651D01*
X258121Y157396D02*
X334200D01*
X257776Y151850D02*
Y155959D01*
X258121Y156305D01*
X257776Y157742D02*
X258121Y157396D01*
X257776Y157742D02*
Y161850D01*
X462524Y198425D02*
X463902D01*
X462524Y201575D02*
X463902D01*
X248344Y159541D02*
Y163076D01*
X251501Y166232D01*
X241562Y156305D02*
X245108D01*
X248344Y159541D01*
X239012Y151850D02*
X241216Y154055D01*
Y155959D01*
X241562Y156305D01*
X238287Y151850D02*
X239012D01*
X247254Y163528D02*
X251049Y167323D01*
X239012Y161850D02*
X241216Y159646D01*
Y157742D02*
Y159646D01*
Y157742D02*
X241562Y157396D01*
X238287Y161850D02*
X239012D01*
X244657Y157396D02*
X247254Y159993D01*
Y163528D01*
X241562Y157396D02*
X244657D01*
X251049Y167323D02*
X327198D01*
X251501Y166232D02*
X327650D01*
X327198Y167323D02*
X360420Y200545D01*
X327650Y166232D02*
X360872Y199455D01*
X245281Y186305D02*
X247508Y188532D01*
X240129Y183692D02*
Y185959D01*
X240475Y186305D01*
X245281D01*
X238287Y181850D02*
X240129Y183692D01*
X247508Y188532D02*
Y194784D01*
X244830Y187396D02*
X246417Y188984D01*
Y195236D01*
X238287Y191850D02*
X240129Y190009D01*
Y187742D02*
X240475Y187396D01*
X244830D01*
X240129Y187742D02*
Y190009D01*
X248303Y197122D02*
X272351D01*
X247508Y194784D02*
X248755Y196031D01*
X246417Y195236D02*
X248303Y197122D01*
X248755Y196031D02*
X272803D01*
X285675Y208904D01*
X272351Y197122D02*
X285224Y209994D01*
X441620Y207677D02*
X441732D01*
X432632Y205438D02*
X433858Y206664D01*
X432632Y204347D02*
X433858Y203121D01*
X356209Y204347D02*
X432632D01*
X355757Y205438D02*
X432632D01*
X338167Y186305D02*
X356209Y204347D01*
X337715Y187396D02*
X355757Y205438D01*
X261051Y186305D02*
X338167D01*
X260704Y185959D02*
X261051Y186305D01*
X258500Y181850D02*
X260704Y184055D01*
X257776Y181850D02*
X258500D01*
X261051Y187396D02*
X337715D01*
X260704Y184055D02*
Y185959D01*
Y187742D02*
X261051Y187396D01*
X260704Y187742D02*
Y189646D01*
X258500Y191850D02*
X260704Y189646D01*
X257776Y191850D02*
X258500D01*
X461494Y208904D02*
X462524Y207874D01*
X460445Y208904D02*
X461494D01*
X458049Y206507D02*
X460445Y208904D01*
X458049Y205906D02*
Y206507D01*
Y205906D02*
X458509Y205446D01*
X455502Y206688D02*
X456687D01*
X455369Y206821D02*
X455502Y206688D01*
X462524Y207874D02*
X463902D01*
X459993Y209994D02*
X461494D01*
X456687Y206688D02*
X459993Y209994D01*
X461494D02*
X462524Y211024D01*
X458509Y205180D02*
Y205446D01*
X462524Y211024D02*
X463902D01*
X323643Y216305D02*
X326077Y213870D01*
X258685Y217742D02*
X259031Y217396D01*
X324094D01*
X326529Y214961D01*
X257776Y211850D02*
X258685Y212759D01*
Y215959D01*
X259031Y216305D02*
X323643D01*
X257776Y221850D02*
X258685Y220941D01*
Y217742D02*
Y220941D01*
Y215959D02*
X259031Y216305D01*
X413086Y214961D02*
X413086Y214961D01*
X432632D02*
X433858Y216187D01*
X432632Y213870D02*
X433858Y212644D01*
X326529Y214961D02*
X413086D01*
X413086Y214961D02*
X432632D01*
X326077Y213870D02*
X413537D01*
X413537Y213870D01*
X432632D01*
X462524Y217323D02*
X463902D01*
X460445Y218352D02*
X461494D01*
X458049Y215956D02*
X460445Y218352D01*
X461494D02*
X462524Y217323D01*
X458049Y215355D02*
Y215956D01*
X458509Y214629D02*
Y214895D01*
X458049Y215355D02*
X458509Y214895D01*
X462524Y220472D02*
X463902D01*
X455369Y216270D02*
X455502Y216137D01*
X459993Y219443D02*
X461494D01*
X456687Y216137D02*
X459993Y219443D01*
X455502Y216137D02*
X456687D01*
X461494Y219443D02*
X462524Y220472D01*
X432632Y223245D02*
X433858Y222018D01*
X259476Y243551D02*
Y245959D01*
X259822Y246305D01*
X257776Y241850D02*
X259476Y243551D01*
X257776Y251850D02*
X259476Y250150D01*
Y247742D02*
Y250150D01*
Y247742D02*
X259822Y247396D01*
X432632Y224335D02*
X433858Y225562D01*
X462524Y226772D02*
X463902D01*
X460653Y227801D02*
X461494D01*
X462524Y226772D01*
Y229921D02*
X463902D01*
X461494Y228892D02*
X462524Y229921D01*
X460202Y228892D02*
X461494D01*
X458369Y223556D02*
X458479Y223445D01*
X455762Y225719D02*
X455873Y225830D01*
X257776Y271850D02*
Y275959D01*
X258121Y276305D01*
X257776Y277742D02*
Y281850D01*
Y277742D02*
X258121Y277396D01*
X432632Y232850D02*
X433858Y231624D01*
X432632Y233941D02*
X433858Y235167D01*
X461494Y237250D02*
X462524Y236221D01*
X460653Y237250D02*
X461494D01*
X462524Y236221D02*
X463902D01*
X458369Y233004D02*
X458479Y232894D01*
X461494Y238340D02*
X462524Y239370D01*
X463902D01*
X460202Y238340D02*
X461494D01*
X455762Y235168D02*
X455873Y235279D01*
X248319Y223050D02*
X251253Y225984D01*
X248319Y219516D02*
Y223050D01*
X245108Y216305D02*
X248319Y219516D01*
X241562Y216305D02*
X245108D01*
X241216Y215959D02*
X241562Y216305D01*
X239012Y211850D02*
X241216Y214055D01*
Y215959D01*
Y217742D02*
Y219646D01*
Y217742D02*
X241562Y217396D01*
X239012Y221850D02*
X241216Y219646D01*
X238287Y221850D02*
X239012D01*
X247228Y223502D02*
X250801Y227075D01*
X241562Y217396D02*
X244657D01*
X247228Y219968D01*
Y223502D01*
X238287Y211850D02*
X239012D01*
X248344Y249541D02*
Y253076D01*
X251568Y256299D01*
X241216Y245959D02*
X241562Y246305D01*
X245108D02*
X248344Y249541D01*
X239012Y241850D02*
X241216Y244055D01*
X244657Y247396D02*
X247254Y249993D01*
Y253528D01*
X251116Y257390D01*
X239012Y251850D02*
X241216Y249646D01*
Y247742D02*
Y249646D01*
X238287Y251850D02*
X239012D01*
X241216Y244055D02*
Y245959D01*
X241562Y246305D02*
X245108D01*
X241216Y247742D02*
X241562Y247396D01*
X244657D01*
X238287Y241850D02*
X239012D01*
X240553Y275959D02*
X240899Y276305D01*
X240553Y274055D02*
Y275959D01*
X247508Y278532D02*
Y283335D01*
X238349Y271850D02*
X240553Y274055D01*
X240899Y276305D02*
X245281D01*
X238287Y271850D02*
X238349D01*
X246417Y278983D02*
Y283786D01*
X240899Y277396D02*
X244830D01*
X245281Y276305D02*
X247508Y278532D01*
X238287Y281850D02*
X238349D01*
X244830Y277396D02*
X246417Y278983D01*
X240553Y277742D02*
X240899Y277396D01*
X238349Y281850D02*
X240553Y279646D01*
Y277742D02*
Y279646D01*
X246417Y283786D02*
X249942Y287311D01*
X247508Y283335D02*
X250394Y286221D01*
X618012Y200545D02*
X618852D01*
X617061Y199455D02*
X617062Y199454D01*
X618852D01*
X607387Y200545D02*
X618011D01*
X618012Y200545D01*
X619882Y198424D02*
X622835D01*
X618852Y200545D02*
X619882Y201574D01*
X622835D01*
X618852Y199454D02*
X619882Y198424D01*
X606935Y199455D02*
X617061D01*
X607387Y200545D02*
X607387Y200545D01*
X599652Y199455D02*
X606935D01*
X598425Y201772D02*
X599652Y200545D01*
X607387D01*
X598425Y198228D02*
X599652Y199455D01*
X606935D02*
X606935Y199455D01*
X441732Y201772D02*
X442959Y200545D01*
X449138Y198425D02*
X450516D01*
X446218Y199455D02*
X448108D01*
X441732Y198228D02*
X442959Y199455D01*
X442959Y200545D02*
X446669D01*
X446218Y199455D02*
X446218Y199455D01*
X448108D02*
X449138Y198425D01*
X446669Y200545D02*
X446669Y200545D01*
X448108D01*
X449138Y201575D01*
X450516D01*
X442959Y199455D02*
X446218D01*
X618852Y209994D02*
X619882Y211023D01*
X604573Y208904D02*
X617455D01*
X619882Y207873D02*
X622835D01*
X617455Y208904D02*
X617456Y208903D01*
X618852D01*
X619882Y211023D02*
X622835D01*
X618852Y208903D02*
X619882Y207873D01*
X618011Y209994D02*
X618012Y209994D01*
X605025Y209994D02*
X618011D01*
X618012Y209994D02*
X618852D01*
X598425Y207677D02*
X599652Y208904D01*
X599652Y209994D02*
X605025D01*
X441732Y207677D02*
X442959Y208904D01*
X598425Y211221D02*
X599652Y209994D01*
X442959D02*
X446669D01*
X446669Y209994D01*
X599652Y208904D02*
X604573D01*
X604573Y208904D01*
X441732Y211221D02*
X442959Y209994D01*
X605025D02*
X605025Y209994D01*
X446218Y208904D02*
X446218Y208904D01*
X442959Y208904D02*
X446218D01*
X446218Y208904D02*
X448108D01*
Y209994D02*
X449138Y211024D01*
X446669Y209994D02*
X448108D01*
Y208904D02*
X449138Y207874D01*
X450516D01*
X449138Y211024D02*
X450516D01*
X610724Y218352D02*
X618852D01*
X611175Y219443D02*
X618852D01*
X619882Y220472D01*
X599652Y218352D02*
X610723D01*
X598425Y220669D02*
X599652Y219443D01*
X618852Y218352D02*
X619882Y217322D01*
X599652Y219443D02*
X611175D01*
X619882Y217322D02*
X622835D01*
X611175Y219443D02*
X611175Y219443D01*
X619882Y220472D02*
X622835D01*
X610723Y218352D02*
X610724Y218352D01*
X598425Y217126D02*
X599652Y218352D01*
X449138Y217323D02*
X450516D01*
X448108Y218352D02*
X449138Y217323D01*
X442959Y219443D02*
X446669D01*
X446669Y219443D01*
X448108D02*
X449138Y220472D01*
X446218Y218352D02*
X446218Y218352D01*
X446669Y219443D02*
X448108D01*
X441732Y220669D02*
X442959Y219443D01*
X449138Y220472D02*
X450516D01*
X441732Y217126D02*
X442959Y218352D01*
X446218D01*
X446218Y218352D02*
X448108D01*
X619882Y226771D02*
X622835D01*
X610724Y227801D02*
X618853D01*
X599652Y228892D02*
X611175D01*
X611175Y228891D01*
X599652Y227801D02*
X610723D01*
X598425Y230118D02*
X599652Y228892D01*
X611175Y228891D02*
X618853D01*
X618853Y227801D02*
X619882Y226771D01*
X618853Y228891D02*
X619882Y229920D01*
X622835D01*
X598425Y226575D02*
X599652Y227801D01*
X610723D02*
X610724Y227801D01*
X449138Y226772D02*
X450516D01*
X448108Y227801D02*
X449138Y226772D01*
X446669Y228892D02*
X448108D01*
X449138Y229921D01*
X450516D01*
X441732Y226575D02*
X442959Y227801D01*
X446218D02*
X446218Y227801D01*
X448108D01*
X441732Y230118D02*
X442959Y228892D01*
X446669D01*
X446669Y228892D01*
X442959Y227801D02*
X446218D01*
X610724Y237250D02*
X618853D01*
X611175Y238341D02*
X611175Y238340D01*
X618853D01*
X610723Y237250D02*
X610724Y237250D01*
X619882Y236220D02*
X622835D01*
X598425Y239567D02*
X599652Y238341D01*
X618853Y237250D02*
X619882Y236220D01*
X618853Y238340D02*
X619882Y239369D01*
X598425Y236024D02*
X599652Y237250D01*
X599652Y238341D02*
X611175D01*
X599652Y237250D02*
X610723D01*
X619882Y239369D02*
X622835D01*
X448108Y237250D02*
X449138Y236221D01*
X450516D01*
X446218Y237250D02*
X448108D01*
Y238340D02*
X449138Y239370D01*
X450516D01*
X441732Y236024D02*
X442959Y237250D01*
X446218D02*
X446218Y237250D01*
X442959Y237250D02*
X446218D01*
X441732Y239567D02*
X442959Y238341D01*
X446669D02*
X446669Y238340D01*
X448108D01*
X442959Y238341D02*
X446669D01*
X404862Y321975D02*
X404865D01*
X344862D02*
X345276D01*
X409861Y321978D02*
X409865Y321981D01*
X349861Y321978D02*
X349865Y321981D01*
D18*
X156921Y71849D02*
X157274Y71496D01*
X170472D01*
X143623Y121849D02*
X156921D01*
X139097Y117323D02*
X143623Y121849D01*
X110236Y117323D02*
X139097D01*
X109843Y107087D02*
X141732D01*
X144494Y109849D02*
X154921D01*
X141732Y107087D02*
X144494Y109849D01*
X154921D02*
X156921Y111849D01*
X110236Y122047D02*
X129723D01*
X129921Y121849D01*
X66142Y73228D02*
X94488Y44882D01*
X142454D02*
X149421Y51849D01*
X94488Y44882D02*
X142454D01*
X149421Y51849D02*
X156921D01*
X40901Y109890D02*
X98942Y51849D01*
X129921D01*
X56284Y108395D02*
X107199Y57480D01*
X140157D01*
X52083Y115325D02*
X56284Y111124D01*
Y108395D02*
Y111124D01*
X144526Y61849D02*
X156921D01*
X140157Y57480D02*
X144526Y61849D01*
X257953Y71673D02*
X267146D01*
X257598Y72027D02*
X257953Y71673D01*
X237933Y101496D02*
X238287Y101850D01*
X228740Y101496D02*
X237933D01*
X257776Y101850D02*
X258130Y101496D01*
X267323D01*
X237933Y141496D02*
X238287Y141850D01*
X228740Y141496D02*
X237933D01*
X257776Y141850D02*
X258130Y141496D01*
X267323D01*
X237933Y171496D02*
X238287Y171850D01*
X228740Y171496D02*
X237933D01*
X257776Y171850D02*
X258130Y171496D01*
X267323D01*
X237933Y201496D02*
X238287Y201850D01*
X228740Y201496D02*
X237933D01*
X257776Y201850D02*
X258130Y201496D01*
X267323D01*
X237933Y231496D02*
X238287Y231850D01*
X228740Y231496D02*
X237933D01*
X257776Y231850D02*
X258130Y231496D01*
X267323D01*
X237933Y261496D02*
X238287Y261850D01*
X228740Y261496D02*
X237933D01*
X257776Y261850D02*
X258130Y261496D01*
X267323D01*
X237933Y291496D02*
X238287Y291850D01*
X228740Y291496D02*
X237933D01*
X257776Y291850D02*
X258130Y291496D01*
X267323D01*
X237933Y311496D02*
X238287Y311850D01*
X228740Y311496D02*
X237933D01*
X257776Y311850D02*
X258130Y311496D01*
X267323D01*
X258130Y331496D02*
X267323D01*
X257776Y331850D02*
X258130Y331496D01*
X228740D02*
X237933D01*
X238287Y331850D01*
X129569Y101496D02*
X129921Y101849D01*
X116535Y101496D02*
X129569D01*
X157274D02*
X170472D01*
X156921Y101849D02*
X157274Y101496D01*
X129569Y141496D02*
X129921Y141849D01*
X116535Y141496D02*
X129569D01*
X157274D02*
X170472D01*
X156921Y141849D02*
X157274Y141496D01*
X129569Y171496D02*
X129921Y171849D01*
X116535Y171496D02*
X129569D01*
X157274D02*
X170472D01*
X156921Y171849D02*
X157274Y171496D01*
X129569Y201496D02*
X129921Y201849D01*
X116535Y201496D02*
X129569D01*
X157274D02*
X170472D01*
X156921Y201849D02*
X157274Y201496D01*
X129569Y231496D02*
X129921Y231849D01*
X116535Y231496D02*
X129569D01*
X157274D02*
X170472D01*
X156921Y231849D02*
X157274Y231496D01*
X129569Y261496D02*
X129921Y261849D01*
X116535Y261496D02*
X129569D01*
X157274D02*
X170472D01*
X156921Y261849D02*
X157274Y261496D01*
X129569Y291496D02*
X129921Y291849D01*
X116535Y291496D02*
X129569D01*
X157274D02*
X170472D01*
X156921Y291849D02*
X157274Y291496D01*
X129569Y311496D02*
X129921Y311849D01*
X116535Y311496D02*
X129569D01*
X157274D02*
X170472D01*
X156921Y311849D02*
X157274Y311496D01*
X156921Y331849D02*
X157274Y331496D01*
X170472D01*
X116535D02*
X129569D01*
X129921Y331849D01*
X547181Y39283D02*
X553457D01*
X572008Y57835D02*
Y96969D01*
X553457Y39283D02*
X572008Y57835D01*
X577953Y59055D02*
Y98425D01*
X551181Y32283D02*
X577953Y59055D01*
X574409Y101969D02*
X577953Y98425D01*
X567008Y101969D02*
X574409D01*
X562008Y96969D02*
X567008Y101969D01*
X539181Y39283D02*
Y84142D01*
X552008Y96969D01*
X531595Y39697D02*
Y96555D01*
X531181Y39283D02*
X531595Y39697D01*
Y96555D02*
X532008Y96969D01*
X510318Y94188D02*
X512008Y95878D01*
X504724Y88583D02*
X510318Y94177D01*
X512008Y95878D02*
Y96969D01*
X504724Y56299D02*
Y88583D01*
X510318Y94177D02*
Y94188D01*
X520882Y40627D02*
X522226Y39283D01*
X520397Y40627D02*
X520882D01*
X522226Y39283D02*
X523181D01*
X504724Y56299D02*
X520397Y40627D01*
X522946Y32959D02*
X526505D01*
X502008Y53898D02*
X522946Y32959D01*
X526505D02*
X527181Y32283D01*
X502008Y53898D02*
Y96969D01*
X598425Y129996D02*
X600399Y131970D01*
Y132283D01*
X622835D01*
X466854Y130709D02*
X588658D01*
X590945Y132996D01*
X465279Y132283D02*
X466854Y130709D01*
X463902Y132283D02*
X465279D01*
X616535Y264567D02*
X616536Y264567D01*
X622834D02*
X622835Y264566D01*
X616536Y264567D02*
X622834D01*
X616535Y261417D02*
X616536Y261417D01*
X622834D02*
X622835Y261416D01*
X616536Y261417D02*
X622834D01*
X616535Y255118D02*
X616536Y255118D01*
X622834D02*
X622835Y255117D01*
X616536Y255118D02*
X622834D01*
X616535Y248819D02*
X616536Y248819D01*
X622834D02*
X622835Y248818D01*
X616536Y248819D02*
X622834D01*
X616535Y242520D02*
X616536Y242520D01*
X622834D02*
X622835Y242519D01*
X616536Y242520D02*
X622834D01*
X616535Y233071D02*
X616536Y233071D01*
X622834D02*
X622835Y233070D01*
X616536Y233071D02*
X622834D01*
X616535Y223622D02*
X616536Y223622D01*
X622834D02*
X622835Y223621D01*
X616536Y223622D02*
X622834D01*
X616535Y214173D02*
X616536Y214173D01*
X622834D02*
X622835Y214172D01*
X616536Y214173D02*
X622834D01*
X616535Y204724D02*
X616536Y204724D01*
X622834D02*
X622835Y204723D01*
X616536Y204724D02*
X622834D01*
X616535Y135433D02*
X616536Y135433D01*
X622834D02*
X622835Y135432D01*
X616536Y135433D02*
X622834D01*
X616535Y144882D02*
X616536Y144882D01*
X622834D02*
X622835Y144881D01*
X616536Y144882D02*
X622834D01*
X616535Y154331D02*
X616536Y154331D01*
X622834D02*
X622835Y154330D01*
X616536Y154331D02*
X622834D01*
X616535Y163780D02*
X616536Y163780D01*
X622834D02*
X622835Y163779D01*
X616536Y163780D02*
X622834D01*
X616535Y182677D02*
X616536Y182677D01*
X622834D02*
X622835Y182676D01*
X616536Y182677D02*
X622834D01*
X616536Y173228D02*
X622834D01*
X622835Y173227D01*
X616535Y173228D02*
X616536Y173228D01*
X602755Y129133D02*
X622835D01*
X594488Y127559D02*
X601181D01*
X602755Y129133D01*
X463902Y129134D02*
X587083D01*
X590945Y125272D01*
X450048Y128740D02*
X450122D01*
X379921D02*
X450048D01*
X450442Y129134D01*
X449957Y128650D02*
X450048Y128740D01*
X450442Y129134D02*
X450516D01*
X449957Y126421D02*
Y128650D01*
X379134Y123622D02*
X450394D01*
X307362Y51850D02*
X379134Y123622D01*
X450394D02*
X454331Y127559D01*
X462524Y132283D02*
X463902D01*
X460271Y130031D02*
X462524Y132283D01*
X458378Y130031D02*
X460271D01*
X458268Y129921D02*
X458378Y130031D01*
X461454Y127559D02*
X462039Y128145D01*
X454331Y127559D02*
X461454D01*
X462524Y129134D02*
X463902D01*
X462039Y128650D02*
X462524Y129134D01*
X462039Y128145D02*
Y128650D01*
X450516Y132283D02*
X455118D01*
X590582Y148031D02*
X591732Y146881D01*
X472835Y148031D02*
X590582D01*
X463902Y148031D02*
X472835D01*
X472835Y148031D01*
X465279Y151181D02*
X466514Y149946D01*
X589542D02*
X591732Y152137D01*
X466514Y149946D02*
X589542D01*
X463902Y151181D02*
X465279D01*
X608600Y161736D02*
X609707Y160629D01*
X594488Y161736D02*
X608600D01*
X594488Y155193D02*
X594644D01*
X595259Y154577D02*
X604577D01*
X594644Y155193D02*
X595259Y154577D01*
X604577D02*
X607479Y157479D01*
X622835D01*
X596765Y157480D02*
X597302Y156943D01*
X600931D01*
X463902Y157480D02*
X596765D01*
X454963D02*
X455356Y157087D01*
X450516Y157480D02*
X454963D01*
X455356Y157087D02*
X455512D01*
X609707Y160629D02*
X622835D01*
X450516Y160630D02*
X455512D01*
X465279D02*
X466514Y159395D01*
X469587Y159449D02*
X598425D01*
X466514Y159395D02*
X469533D01*
X469587Y159449D01*
X463902Y160630D02*
X465279D01*
X593939Y166929D02*
X594333Y167323D01*
X463902Y166929D02*
X593939D01*
X594333Y167323D02*
X594488D01*
X600787Y166928D02*
X622835D01*
X598425Y164567D02*
X600787Y166928D01*
X450516Y166929D02*
X453937D01*
X455402Y165464D01*
Y164752D02*
Y165464D01*
Y164752D02*
X455512Y164642D01*
X622834Y176378D02*
X622835Y176377D01*
X603937Y176378D02*
X622834D01*
X596138Y172441D02*
X600000D01*
X603937Y176378D01*
X594488Y174091D02*
X596138Y172441D01*
X598340Y174803D02*
X598425D01*
X596765Y176378D02*
X598340Y174803D01*
X453315Y175894D02*
X455512Y173697D01*
X450516Y176378D02*
X451000Y175894D01*
X453315D01*
X463902Y176378D02*
X596765D01*
X379134Y132283D02*
X433465D01*
X450122Y128740D02*
X450516Y129134D01*
X307480Y56299D02*
X379921Y128740D01*
X308701Y61850D02*
X379134Y132283D01*
X459055Y166929D02*
X463902D01*
X385827Y162992D02*
X433465D01*
X334685Y111850D02*
X385827Y162992D01*
X330512Y121850D02*
X378740Y170079D01*
X433465D01*
X375590Y172835D02*
X438583D01*
X442126Y176378D01*
X329528Y126772D02*
X375590Y172835D01*
X459604Y176378D02*
X463902D01*
X459211Y175984D02*
X459604Y176378D01*
X459055Y175984D02*
X459211D01*
X442126Y176378D02*
X450516D01*
X257776Y51850D02*
X307362D01*
X248339Y53850D02*
X250787Y56299D01*
X307480D01*
X238287Y51850D02*
X240287Y53850D01*
X248339D01*
X257776Y61850D02*
X308701D01*
X257776Y111850D02*
X334685D01*
X257776Y121850D02*
X330512D01*
X247953Y126772D02*
X329528D01*
X238287Y121850D02*
X243032D01*
X247953Y126772D01*
X164421Y51849D02*
X169813Y46457D01*
X156921Y51849D02*
X164421D01*
X169813Y46457D02*
X247638D01*
X253031Y51850D01*
X257776D01*
X137421Y51849D02*
X142265Y56693D01*
X192520D01*
X129921Y51849D02*
X137421D01*
X192520Y56693D02*
X197362Y51850D01*
X238287D01*
X156921Y61849D02*
X157353Y61417D01*
X205512D01*
X209842Y57087D01*
X248268D01*
X253031Y61850D01*
X257776D01*
X156921Y111849D02*
X175159D01*
X179921Y107087D01*
X248268D01*
X253031Y111850D01*
X257776D01*
X185238Y121849D02*
X189764Y117323D01*
X156921Y121849D02*
X185238D01*
X189764Y117323D02*
X248504D01*
X253031Y121850D01*
X257776D01*
X141557Y125984D02*
X189764D01*
X193898Y121850D02*
X238287D01*
X189764Y125984D02*
X193898Y121850D01*
X129921Y121849D02*
X137421D01*
X141557Y125984D01*
X450145Y135062D02*
X450516Y135433D01*
X446063Y133534D02*
X447592Y135062D01*
X450145D01*
X466900Y135137D02*
X468504Y133533D01*
X464198Y135137D02*
X466900D01*
X463902Y135433D02*
X464198Y135137D01*
X450145Y144511D02*
X450516Y144882D01*
X446063Y142982D02*
X447592Y144511D01*
X450145D01*
X466900Y144586D02*
X468504Y142982D01*
X464198Y144586D02*
X466900D01*
X463902Y144882D02*
X464198Y144586D01*
X450145Y153960D02*
X450516Y154331D01*
X446063Y152431D02*
X447592Y153960D01*
X450145D01*
X466900Y154034D02*
X468504Y152431D01*
X464198Y154034D02*
X466900D01*
X463902Y154331D02*
X464198Y154034D01*
X450145Y163409D02*
X450516Y163779D01*
X446063Y161880D02*
X447592Y163409D01*
X450145D01*
X466900Y163483D02*
X468504Y161880D01*
X464198Y163483D02*
X466900D01*
X463902Y163779D02*
X464198Y163483D01*
X450145Y172857D02*
X450516Y173228D01*
X446063Y171329D02*
X447592Y172857D01*
X450145D01*
X466900Y172932D02*
X468504Y171328D01*
X464198Y172932D02*
X466900D01*
X463902Y173228D02*
X464198Y172932D01*
X450145Y182306D02*
X450516Y182677D01*
X446063Y180778D02*
X447592Y182306D01*
X450145D01*
X466900Y182381D02*
X468504Y180777D01*
X464198Y182381D02*
X466900D01*
X463902Y182677D02*
X464198Y182381D01*
X450145Y204354D02*
X450516Y204724D01*
X446063Y202825D02*
X447592Y204354D01*
X450145D01*
X466900Y204428D02*
X468504Y202824D01*
X464198Y204428D02*
X466900D01*
X463902Y204724D02*
X464198Y204428D01*
X450145Y213802D02*
X450516Y214173D01*
X446063Y212274D02*
X447592Y213802D01*
X450145D01*
X466900Y213877D02*
X468504Y212273D01*
X464198Y213877D02*
X466900D01*
X463902Y214173D02*
X464198Y213877D01*
X450145Y223251D02*
X450516Y223622D01*
X446063Y221722D02*
X447592Y223251D01*
X450145D01*
X466900Y223326D02*
X468504Y221722D01*
X464198Y223326D02*
X466900D01*
X463902Y223622D02*
X464198Y223326D01*
X463902Y233071D02*
X464198Y232775D01*
X466900D01*
X468504Y231171D01*
X447592Y232700D02*
X450145D01*
X446063Y231171D02*
X447592Y232700D01*
X450145D02*
X450516Y233071D01*
X446063Y242520D02*
X450516D01*
X463902D02*
X468110D01*
X463902Y248819D02*
X468110D01*
X446063D02*
X450516D01*
X463902Y255118D02*
X468110D01*
X446063D02*
X450516D01*
X463902Y261417D02*
X468110D01*
X463902Y264567D02*
X468110D01*
X446063Y261417D02*
X450516D01*
X446063Y264567D02*
X450516D01*
X381221Y329921D02*
X383071D01*
Y348031D02*
X388189Y342913D01*
X398425D01*
X383071Y348031D02*
Y355906D01*
X410793Y316446D02*
X420653D01*
X507874Y336614D02*
X508957Y335531D01*
X426378Y329921D02*
X429528D01*
X367323D02*
X369685D01*
X319409D02*
X322047D01*
X319409Y329921D02*
X319409Y329921D01*
X326772Y343307D02*
X338189D01*
X322047Y348031D02*
X326772Y343307D01*
X322047Y348031D02*
Y357353D01*
X316600Y362800D02*
X322047Y357353D01*
X404865Y321975D02*
X404868Y321978D01*
X409861D01*
X351034Y321992D02*
Y324300D01*
X345276Y321975D02*
X345279Y321978D01*
X349861D01*
X345276Y316417D02*
X347961Y319103D01*
X404865Y316230D02*
X407738Y319103D01*
X338189Y343307D02*
X341043Y340453D01*
Y332713D02*
Y340453D01*
X377176Y361800D02*
X383071Y355906D01*
X377000Y361800D02*
X377176D01*
X398425Y342913D02*
X401043Y340296D01*
Y332713D02*
Y340296D01*
X426378Y319685D02*
X426389Y319674D01*
X430861D01*
X366142Y319685D02*
X366153Y319674D01*
X370861D01*
X382677Y337640D02*
Y337795D01*
X382374Y337337D02*
X382677Y337640D01*
X382374Y336114D02*
Y337337D01*
X381299Y335039D02*
X382374Y336114D01*
X375433Y329961D02*
X375472Y329921D01*
X375433Y329961D02*
Y335000D01*
X375394Y335039D02*
X375433Y335000D01*
X313622Y329961D02*
X313661Y329921D01*
X313622Y329961D02*
Y335000D01*
X313583Y335039D02*
X313622Y335000D01*
X319094Y335039D02*
X319291Y335236D01*
Y337795D01*
X562992Y336614D02*
X564075Y335531D01*
X410793Y316273D02*
Y316446D01*
Y311230D02*
Y316273D01*
X420653Y321957D02*
X424235D01*
X396964Y317304D02*
X399523D01*
X410412Y310849D02*
X410793Y311230D01*
X410313Y310750D02*
X410412Y310849D01*
X410707Y310554D01*
X410313Y310947D02*
X410412Y310849D01*
X410707Y308388D02*
Y310554D01*
X396043Y323351D02*
X396460Y322934D01*
X411034Y321992D02*
Y324300D01*
X411023Y321981D02*
X411034Y321992D01*
Y324300D02*
X411043Y332713D01*
X396043Y323351D02*
Y332713D01*
X407738Y319103D02*
X423940D01*
X410313Y310750D02*
Y310947D01*
X401499Y325402D02*
X403468D01*
X406043Y327977D01*
Y332713D01*
X415862Y321957D02*
X416043Y322139D01*
Y332713D01*
X396460Y317808D02*
Y322934D01*
Y317808D02*
X396964Y317304D01*
X399924Y318316D02*
Y323828D01*
X401499Y325402D01*
X424235Y321957D02*
X424334Y321859D01*
X364235Y321957D02*
X364334Y321859D01*
X339925Y323828D02*
X341499Y325402D01*
X339925Y318316D02*
Y323828D01*
X336460Y317808D02*
X336964Y317304D01*
X336460Y317808D02*
Y322934D01*
X356043Y322139D02*
Y332713D01*
X355862Y321957D02*
X356043Y322139D01*
X346043Y327977D02*
Y332713D01*
X343468Y325402D02*
X346043Y327977D01*
X341499Y325402D02*
X343468D01*
X350313Y310750D02*
Y310947D01*
X347961Y319103D02*
X363940D01*
X336043Y323351D02*
Y332713D01*
X351034Y324300D02*
X351043Y332713D01*
X351023Y321981D02*
X351034Y321992D01*
X336043Y323351D02*
X336460Y322934D01*
X350707Y308388D02*
Y310554D01*
X350313Y310947D02*
X350412Y310849D01*
X350707Y310554D01*
X350313Y310750D02*
X350412Y310849D01*
X350794Y311230D01*
X336964Y317304D02*
X339523D01*
X360653Y321957D02*
X364235D01*
X350794Y311230D02*
Y316273D01*
Y316446D01*
X360653D01*
D21*
X622835Y264566D02*
D03*
Y261416D02*
D03*
Y258267D02*
D03*
Y255117D02*
D03*
Y251968D02*
D03*
Y248818D02*
D03*
Y245668D02*
D03*
Y242519D02*
D03*
Y239369D02*
D03*
Y236220D02*
D03*
Y233070D02*
D03*
Y229920D02*
D03*
Y226771D02*
D03*
Y223621D02*
D03*
Y220472D02*
D03*
Y217322D02*
D03*
Y214172D02*
D03*
Y211023D02*
D03*
Y207873D02*
D03*
Y204723D02*
D03*
Y201574D02*
D03*
Y198424D02*
D03*
Y182676D02*
D03*
Y179527D02*
D03*
Y176377D02*
D03*
Y173227D02*
D03*
Y170078D02*
D03*
Y166928D02*
D03*
Y163779D02*
D03*
Y160629D02*
D03*
Y157479D02*
D03*
Y154330D02*
D03*
Y151180D02*
D03*
Y148031D02*
D03*
Y144881D02*
D03*
Y141731D02*
D03*
Y138582D02*
D03*
Y135432D02*
D03*
Y132283D02*
D03*
Y129133D02*
D03*
D22*
X620079Y289172D02*
D03*
Y104527D02*
D03*
D23*
X381496Y335039D02*
D03*
X375197D02*
D03*
X319291D02*
D03*
X312992D02*
D03*
D24*
X463902Y129134D02*
D03*
X450516D02*
D03*
X463902Y132283D02*
D03*
X450516D02*
D03*
X463902Y135433D02*
D03*
X450516D02*
D03*
X463902Y138583D02*
D03*
X450516D02*
D03*
X463902Y141732D02*
D03*
X450516D02*
D03*
X463902Y144882D02*
D03*
X450516D02*
D03*
X463902Y148031D02*
D03*
X450516D02*
D03*
X463902Y151181D02*
D03*
X450516D02*
D03*
X463902Y154331D02*
D03*
X450516D02*
D03*
X463902Y157480D02*
D03*
X450516D02*
D03*
X463902Y160630D02*
D03*
X450516D02*
D03*
X463902Y163779D02*
D03*
X450516D02*
D03*
X463902Y166929D02*
D03*
X450516D02*
D03*
X463902Y170079D02*
D03*
X450516D02*
D03*
X463902Y173228D02*
D03*
X450516D02*
D03*
X463902Y176378D02*
D03*
X450516D02*
D03*
X463902Y179528D02*
D03*
X450516D02*
D03*
X463902Y182677D02*
D03*
X450516D02*
D03*
X463902Y198425D02*
D03*
X450516D02*
D03*
X463902Y201575D02*
D03*
X450516D02*
D03*
X463902Y204724D02*
D03*
X450516D02*
D03*
X463902Y207874D02*
D03*
X450516D02*
D03*
X463902Y211024D02*
D03*
X450516D02*
D03*
X463902Y214173D02*
D03*
X450516D02*
D03*
X463902Y217323D02*
D03*
X450516D02*
D03*
X463902Y220472D02*
D03*
X450516D02*
D03*
X463902Y223622D02*
D03*
X450516D02*
D03*
X463902Y226772D02*
D03*
X450516D02*
D03*
X463902Y229921D02*
D03*
X450516D02*
D03*
X463902Y233071D02*
D03*
X450516D02*
D03*
X463902Y236221D02*
D03*
X450516D02*
D03*
X463902Y239370D02*
D03*
X450516D02*
D03*
X463902Y242520D02*
D03*
X450516D02*
D03*
X463902Y245669D02*
D03*
X450516D02*
D03*
X463902Y248819D02*
D03*
X450516D02*
D03*
X463902Y251969D02*
D03*
X450516D02*
D03*
X463902Y255118D02*
D03*
X450516D02*
D03*
X463902Y258268D02*
D03*
X450516D02*
D03*
X463902Y261417D02*
D03*
X450516D02*
D03*
X463902Y264567D02*
D03*
X450516D02*
D03*
D25*
X404865Y316230D02*
D03*
Y321978D02*
D03*
X345276Y316417D02*
D03*
Y322165D02*
D03*
X350783Y322076D02*
D03*
Y316328D02*
D03*
X411023Y316233D02*
D03*
Y321981D02*
D03*
D26*
X331043Y332713D02*
D03*
X336043D02*
D03*
X341043D02*
D03*
X346043D02*
D03*
X351043D02*
D03*
X356043D02*
D03*
X361043D02*
D03*
X391043D02*
D03*
X396043D02*
D03*
X401043D02*
D03*
X406043D02*
D03*
X411043D02*
D03*
X416043D02*
D03*
X421043D02*
D03*
D27*
X346043Y361473D02*
D03*
X406043D02*
D03*
D28*
X410672Y308387D02*
D03*
X422090D02*
D03*
X350672Y290048D02*
D03*
X362090D02*
D03*
X350672Y299320D02*
D03*
X362090D02*
D03*
X350672Y308387D02*
D03*
X362090D02*
D03*
X338735Y316485D02*
D03*
X327318D02*
D03*
X338735Y307623D02*
D03*
X327318D02*
D03*
X338739Y298761D02*
D03*
X327322D02*
D03*
X338763Y289934D02*
D03*
X327346D02*
D03*
X410672Y290048D02*
D03*
X422090D02*
D03*
X410672Y299320D02*
D03*
X422090D02*
D03*
X398735Y316485D02*
D03*
X387318D02*
D03*
X398735Y307623D02*
D03*
X387318D02*
D03*
X398739Y298761D02*
D03*
X387322D02*
D03*
X398763Y289934D02*
D03*
X387346D02*
D03*
D29*
X319313Y307515D02*
D03*
Y314602D02*
D03*
X379302Y307422D02*
D03*
Y314509D02*
D03*
D30*
X319409Y329921D02*
D03*
X313661D02*
D03*
X381221Y329921D02*
D03*
X375472D02*
D03*
D31*
X360653Y316170D02*
D03*
Y322233D02*
D03*
X355861Y316170D02*
D03*
Y322233D02*
D03*
X420653Y316076D02*
D03*
Y322139D02*
D03*
X415862Y316076D02*
D03*
Y322139D02*
D03*
D32*
X330456Y323119D02*
D03*
X336519D02*
D03*
X390456D02*
D03*
X396519D02*
D03*
D33*
X238287Y341850D02*
D03*
X257776D02*
D03*
X238287Y331850D02*
D03*
X257776D02*
D03*
X238287Y321850D02*
D03*
X257776D02*
D03*
X238287Y311850D02*
D03*
X257776D02*
D03*
X238287Y301850D02*
D03*
X257776D02*
D03*
X238287Y291850D02*
D03*
X257776D02*
D03*
X238287Y281850D02*
D03*
X257776D02*
D03*
X238287Y271850D02*
D03*
X257776D02*
D03*
X238287Y261850D02*
D03*
X257776D02*
D03*
X238287Y251850D02*
D03*
X257776D02*
D03*
X238287Y241850D02*
D03*
X257776D02*
D03*
X238287Y231850D02*
D03*
X257776D02*
D03*
X238287Y221850D02*
D03*
X257776D02*
D03*
X238287Y211850D02*
D03*
X257776D02*
D03*
X238287Y201850D02*
D03*
X257776D02*
D03*
X238287Y191850D02*
D03*
X257776D02*
D03*
X238287Y181850D02*
D03*
X257776D02*
D03*
X238287Y171850D02*
D03*
X257776D02*
D03*
X238287Y161850D02*
D03*
X257776D02*
D03*
X238287Y151850D02*
D03*
X257776D02*
D03*
X238287Y141850D02*
D03*
X257776D02*
D03*
X238287Y131850D02*
D03*
X257776D02*
D03*
X238287Y121850D02*
D03*
X257776D02*
D03*
X238287Y111850D02*
D03*
X257776D02*
D03*
X238287Y101850D02*
D03*
X257776D02*
D03*
X238287Y91850D02*
D03*
X257776D02*
D03*
X238287Y81850D02*
D03*
X257776D02*
D03*
X238287Y71850D02*
D03*
X257776D02*
D03*
X238287Y61850D02*
D03*
X257776D02*
D03*
X238287Y51850D02*
D03*
X257776D02*
D03*
D34*
X129921Y341849D02*
D03*
X156921D02*
D03*
X129921Y331849D02*
D03*
X156921D02*
D03*
X129921Y321849D02*
D03*
X156921D02*
D03*
X129921Y311849D02*
D03*
X156921D02*
D03*
X129921Y301849D02*
D03*
X156921D02*
D03*
X129921Y291849D02*
D03*
X156921D02*
D03*
X129921Y281849D02*
D03*
X156921D02*
D03*
X129921Y271849D02*
D03*
X156921D02*
D03*
X129921Y261849D02*
D03*
X156921D02*
D03*
X129921Y251849D02*
D03*
X156921D02*
D03*
X129921Y241849D02*
D03*
X156921D02*
D03*
X129921Y231849D02*
D03*
X156921D02*
D03*
X129921Y221849D02*
D03*
X156921D02*
D03*
X129921Y211849D02*
D03*
X156921D02*
D03*
X129921Y201849D02*
D03*
X156921D02*
D03*
X129921Y191849D02*
D03*
X156921D02*
D03*
X129921Y181849D02*
D03*
X156921D02*
D03*
X129921Y171849D02*
D03*
X156921D02*
D03*
X129921Y161849D02*
D03*
X156921D02*
D03*
X129921Y151849D02*
D03*
X156921D02*
D03*
X129921Y141849D02*
D03*
X156921D02*
D03*
X129921Y131849D02*
D03*
X156921D02*
D03*
X129921Y121849D02*
D03*
X156921D02*
D03*
X129921Y111849D02*
D03*
X156921D02*
D03*
X129921Y101849D02*
D03*
X156921D02*
D03*
X129921Y91849D02*
D03*
X156921D02*
D03*
X129921Y81849D02*
D03*
X156921D02*
D03*
X129921Y71849D02*
D03*
X156921D02*
D03*
X129921Y61849D02*
D03*
X156921D02*
D03*
X129921Y51849D02*
D03*
X156921D02*
D03*
D35*
X346042Y376316D02*
D03*
X406042D02*
D03*
D36*
X346043Y346632D02*
D03*
X406043Y346632D02*
D03*
D70*
X430861Y319674D02*
D03*
X370861D02*
D03*
D71*
X361676Y289635D02*
X362090Y290048D01*
X361676Y284117D02*
Y289635D01*
X358661Y281102D02*
X361676Y284117D01*
X342369Y281102D02*
X358661D01*
X336464Y275197D02*
X342369Y281102D01*
X440158Y303543D02*
X464400Y327786D01*
Y344500D01*
X440158Y276378D02*
Y303543D01*
X432283Y268504D02*
X440158Y276378D01*
X387795Y268504D02*
X432283D01*
X381102Y275197D02*
X387795Y268504D01*
X355906Y275197D02*
X381102D01*
X434252Y305906D02*
X454400Y326054D01*
Y344500D01*
X434252Y281890D02*
Y305906D01*
X427559Y275197D02*
X434252Y281890D01*
X415748Y275197D02*
X427559D01*
X422047Y284252D02*
Y290005D01*
X422090Y290048D01*
X418898Y281102D02*
X422047Y284252D01*
X402212Y281102D02*
X418898D01*
X396306Y275197D02*
X402212Y281102D01*
X395748Y275197D02*
X396306D01*
X335906D02*
X336464D01*
D72*
X40901Y283811D02*
D03*
Y272941D02*
D03*
Y262071D02*
D03*
Y251201D02*
D03*
Y240331D02*
D03*
Y229461D02*
D03*
Y218590D02*
D03*
Y207720D02*
D03*
Y196851D02*
D03*
Y185980D02*
D03*
Y175110D02*
D03*
Y164240D02*
D03*
Y153370D02*
D03*
Y142500D02*
D03*
Y131630D02*
D03*
Y120760D02*
D03*
Y109890D02*
D03*
X52083Y278376D02*
D03*
Y267506D02*
D03*
Y256636D02*
D03*
Y245766D02*
D03*
Y234896D02*
D03*
Y224026D02*
D03*
Y213156D02*
D03*
Y202285D02*
D03*
Y191415D02*
D03*
Y180545D02*
D03*
Y169675D02*
D03*
Y158805D02*
D03*
Y147935D02*
D03*
Y137065D02*
D03*
Y126195D02*
D03*
Y115325D02*
D03*
X63264Y283811D02*
D03*
Y272941D02*
D03*
Y262071D02*
D03*
Y251201D02*
D03*
Y240331D02*
D03*
Y120760D02*
D03*
Y131630D02*
D03*
Y142500D02*
D03*
Y153370D02*
D03*
Y164240D02*
D03*
Y175110D02*
D03*
Y185980D02*
D03*
Y196851D02*
D03*
Y207720D02*
D03*
Y218590D02*
D03*
Y229461D02*
D03*
D73*
X52083Y76555D02*
D03*
Y317146D02*
D03*
D74*
X63264Y109890D02*
D03*
D75*
X335236Y15945D02*
D03*
Y54134D02*
D03*
X373425D02*
D03*
Y15945D02*
D03*
D76*
X354331Y35039D02*
D03*
D77*
X360472Y79921D02*
D03*
X380472D02*
D03*
X370472D02*
D03*
X360472Y97638D02*
D03*
X380472D02*
D03*
X370472D02*
D03*
X572008Y106968D02*
D03*
Y96969D02*
D03*
X562008Y106968D02*
D03*
Y96969D02*
D03*
X552008Y106968D02*
D03*
Y96969D02*
D03*
X542008Y106968D02*
D03*
Y96969D02*
D03*
X532008Y106968D02*
D03*
Y96969D02*
D03*
X522008Y106968D02*
D03*
Y96969D02*
D03*
X512008Y106968D02*
D03*
Y96969D02*
D03*
X502008Y106968D02*
D03*
X516693Y270472D02*
D03*
X496693D02*
D03*
X506693D02*
D03*
X516693Y287402D02*
D03*
X496693D02*
D03*
X506693D02*
D03*
X405748Y275197D02*
D03*
X415748D02*
D03*
X395748D02*
D03*
X345905D02*
D03*
X355906D02*
D03*
X335906D02*
D03*
X506693Y253543D02*
D03*
X496693D02*
D03*
X516693D02*
D03*
X377000Y361800D02*
D03*
Y351800D02*
D03*
Y371800D02*
D03*
X316600Y362800D02*
D03*
Y352800D02*
D03*
Y372800D02*
D03*
X444400Y354500D02*
D03*
X454400D02*
D03*
X464400D02*
D03*
X444400Y344500D02*
D03*
X454400D02*
D03*
X464400D02*
D03*
D78*
X502008Y96969D02*
D03*
D79*
X562181Y22284D02*
D03*
X512181D02*
D03*
D80*
X569181Y35783D02*
D03*
X505181D02*
D03*
D81*
X510181Y58284D02*
D03*
X519181D02*
D03*
X555181D02*
D03*
X564181D02*
D03*
X523181Y39283D02*
D03*
X527181Y32283D02*
D03*
X531181Y39283D02*
D03*
X535181Y32283D02*
D03*
X539181Y39283D02*
D03*
X543181Y32283D02*
D03*
X547181Y39283D02*
D03*
X551181Y32283D02*
D03*
D82*
X487874Y361653D02*
D03*
X527874D02*
D03*
X487874Y321654D02*
D03*
X527874D02*
D03*
X542992Y361653D02*
D03*
X582992D02*
D03*
X542992Y321654D02*
D03*
X582992D02*
D03*
D83*
X507874Y336614D02*
D03*
X562992D02*
D03*
D84*
X413346Y18740D02*
D03*
D85*
Y28740D02*
D03*
Y38740D02*
D03*
D86*
X19685Y19685D02*
D03*
X610236D02*
D03*
Y374016D02*
D03*
X19685D02*
D03*
D87*
X612598Y245668D02*
D03*
Y251968D02*
D03*
X612795Y258267D02*
D03*
X613779Y170078D02*
D03*
X170472Y71496D02*
D03*
X110236Y117323D02*
D03*
X109843Y107087D02*
D03*
X110236Y122047D02*
D03*
X66142Y73228D02*
D03*
X267146Y71673D02*
D03*
X228740Y101496D02*
D03*
X267323D02*
D03*
X228740Y141496D02*
D03*
X267323D02*
D03*
X228740Y171496D02*
D03*
X267323D02*
D03*
X228740Y201496D02*
D03*
X267323D02*
D03*
X228740Y231496D02*
D03*
X267323D02*
D03*
X228740Y261496D02*
D03*
X267323D02*
D03*
X228740Y291496D02*
D03*
X267323D02*
D03*
X228740Y311496D02*
D03*
X267323D02*
D03*
Y331496D02*
D03*
X228740D02*
D03*
X116535Y101496D02*
D03*
X170472D02*
D03*
X116535Y141496D02*
D03*
X170472D02*
D03*
X116535Y171496D02*
D03*
X170472D02*
D03*
X116535Y201496D02*
D03*
X170472D02*
D03*
X116535Y231496D02*
D03*
X170472D02*
D03*
X116535Y261496D02*
D03*
X170472D02*
D03*
X116535Y291496D02*
D03*
X170472D02*
D03*
X116535Y311496D02*
D03*
X170472D02*
D03*
Y331496D02*
D03*
X116535D02*
D03*
X299213Y298031D02*
D03*
X290945Y316929D02*
D03*
X283071Y336614D02*
D03*
X348031Y313779D02*
D03*
X408021Y314042D02*
D03*
X343202Y310799D02*
D03*
X346702Y305799D02*
D03*
X343202Y307549D02*
D03*
X346702Y302299D02*
D03*
X343202Y304299D02*
D03*
X391102Y377165D02*
D03*
X388740Y374803D02*
D03*
X386378Y377165D02*
D03*
X388740Y379528D02*
D03*
X386378Y372441D02*
D03*
X388740Y370079D02*
D03*
X391102Y372441D02*
D03*
X386378Y367717D02*
D03*
X388740Y365354D02*
D03*
X391102Y367717D02*
D03*
X386378Y362992D02*
D03*
X388740Y360630D02*
D03*
X391102Y362992D02*
D03*
X386378Y358268D02*
D03*
X388740Y355906D02*
D03*
X391102Y358268D02*
D03*
X388740Y351181D02*
D03*
X391102Y353543D02*
D03*
X386378D02*
D03*
Y348819D02*
D03*
X388740Y346457D02*
D03*
X391102Y348819D02*
D03*
X421003Y377221D02*
D03*
X423366Y379584D02*
D03*
X425728Y377221D02*
D03*
Y372497D02*
D03*
X421003D02*
D03*
X423366Y374859D02*
D03*
X421003Y367772D02*
D03*
X423366Y370135D02*
D03*
X425728Y367772D02*
D03*
X421003Y363048D02*
D03*
X423366Y365410D02*
D03*
X425728Y363048D02*
D03*
X421003Y358324D02*
D03*
X423366Y360686D02*
D03*
X425728Y358324D02*
D03*
X421003Y353599D02*
D03*
X423366Y355961D02*
D03*
X425728Y353599D02*
D03*
X423366Y346513D02*
D03*
X425728Y348875D02*
D03*
X423366Y351237D02*
D03*
X421003Y348875D02*
D03*
X361003D02*
D03*
X363366Y351237D02*
D03*
X365728Y348875D02*
D03*
X363366Y346513D02*
D03*
X365728Y353599D02*
D03*
X363366Y355961D02*
D03*
X361003Y353599D02*
D03*
X365728Y358324D02*
D03*
X363366Y360686D02*
D03*
X361003Y358324D02*
D03*
X365728Y363048D02*
D03*
X363366Y365410D02*
D03*
X361003Y363048D02*
D03*
X365728Y367772D02*
D03*
X363366Y370135D02*
D03*
X361003Y367772D02*
D03*
X363366Y374859D02*
D03*
X361003Y372497D02*
D03*
X365728D02*
D03*
Y377221D02*
D03*
X363366Y379584D02*
D03*
X361003Y377221D02*
D03*
X331102Y348819D02*
D03*
X328740Y346457D02*
D03*
X326378Y348819D02*
D03*
Y353543D02*
D03*
X331102D02*
D03*
X328740Y351181D02*
D03*
X331102Y358268D02*
D03*
X328740Y355906D02*
D03*
X326378Y358268D02*
D03*
X331102Y362992D02*
D03*
X328740Y360630D02*
D03*
X326378Y362992D02*
D03*
X331102Y367717D02*
D03*
X328740Y365354D02*
D03*
X326378Y367717D02*
D03*
X331102Y372441D02*
D03*
X328740Y370079D02*
D03*
X326378Y372441D02*
D03*
X328740Y379528D02*
D03*
X326378Y377165D02*
D03*
X328740Y374803D02*
D03*
X331102Y377165D02*
D03*
X321900Y318204D02*
D03*
X319144D02*
D03*
X316388D02*
D03*
X376378Y318110D02*
D03*
X379134D02*
D03*
X381890D02*
D03*
X343202Y301049D02*
D03*
Y297799D02*
D03*
X346702Y308799D02*
D03*
Y298799D02*
D03*
X403202Y310799D02*
D03*
Y307549D02*
D03*
Y304299D02*
D03*
Y301049D02*
D03*
Y297799D02*
D03*
X406702Y308799D02*
D03*
Y305799D02*
D03*
Y302299D02*
D03*
Y298799D02*
D03*
D88*
X598425Y129996D02*
D03*
X594571Y133872D02*
D03*
X594882Y137402D02*
D03*
X590945Y132996D02*
D03*
X616535Y264567D02*
D03*
Y261417D02*
D03*
Y255118D02*
D03*
Y248819D02*
D03*
Y242520D02*
D03*
Y233071D02*
D03*
Y223622D02*
D03*
Y214173D02*
D03*
Y204724D02*
D03*
Y135433D02*
D03*
Y144882D02*
D03*
Y154331D02*
D03*
Y163780D02*
D03*
Y182677D02*
D03*
Y173228D02*
D03*
X590945Y125272D02*
D03*
X594488Y127559D02*
D03*
X449957Y126421D02*
D03*
X458268Y129921D02*
D03*
X455118Y132283D02*
D03*
X591732Y146881D02*
D03*
Y152137D02*
D03*
X600931Y156943D02*
D03*
X594488Y155193D02*
D03*
X455512Y157087D02*
D03*
X594488Y161736D02*
D03*
X455512Y160630D02*
D03*
X598425Y159449D02*
D03*
X594488Y167323D02*
D03*
X598425Y164567D02*
D03*
X455512Y164642D02*
D03*
X594488Y174091D02*
D03*
Y180429D02*
D03*
X598425Y174803D02*
D03*
Y178347D02*
D03*
X455512Y173697D02*
D03*
X455118Y179642D02*
D03*
X439764Y141929D02*
D03*
Y138386D02*
D03*
X598425Y141929D02*
D03*
Y138385D02*
D03*
Y147638D02*
D03*
X598425Y151380D02*
D03*
X456693Y151378D02*
D03*
Y147835D02*
D03*
X433465Y132283D02*
D03*
X458661Y138189D02*
D03*
Y141732D02*
D03*
X433465Y142785D02*
D03*
Y146329D02*
D03*
X459055Y166929D02*
D03*
X433465Y162992D02*
D03*
Y170079D02*
D03*
Y175870D02*
D03*
X459055Y175984D02*
D03*
Y179528D02*
D03*
X591876Y197372D02*
D03*
X588735Y195731D02*
D03*
X591876Y206821D02*
D03*
X588548Y205605D02*
D03*
X591876Y216270D02*
D03*
X588548Y215054D02*
D03*
X591876Y225719D02*
D03*
X588735Y224078D02*
D03*
X591088Y235168D02*
D03*
X588158Y233176D02*
D03*
X433858Y203121D02*
D03*
Y206664D02*
D03*
X455369Y206821D02*
D03*
X458509Y205180D02*
D03*
X433858Y216187D02*
D03*
Y212644D02*
D03*
X455369Y216270D02*
D03*
X458509Y214629D02*
D03*
X433858Y225562D02*
D03*
Y222018D02*
D03*
X455762Y225719D02*
D03*
X458479Y223445D02*
D03*
X433858Y235167D02*
D03*
Y231624D02*
D03*
X455762Y235168D02*
D03*
X458479Y232894D02*
D03*
X598425Y201772D02*
D03*
X441732Y198228D02*
D03*
X598425D02*
D03*
X441732Y201772D02*
D03*
Y211221D02*
D03*
X598425Y207677D02*
D03*
Y211221D02*
D03*
X441732Y207677D02*
D03*
X598425Y220669D02*
D03*
Y217126D02*
D03*
X441732Y220669D02*
D03*
Y217126D02*
D03*
X598425Y230118D02*
D03*
Y226575D02*
D03*
X441732Y230118D02*
D03*
Y226575D02*
D03*
X598425Y239567D02*
D03*
Y236024D02*
D03*
X441732Y239567D02*
D03*
Y236024D02*
D03*
X383071Y329921D02*
D03*
X429528D02*
D03*
X369685D02*
D03*
X322047D02*
D03*
X382677Y337795D02*
D03*
X319291Y337795D02*
D03*
D89*
X446063Y133534D02*
D03*
X468504Y133533D02*
D03*
X446063Y142982D02*
D03*
X468504Y142982D02*
D03*
X446063Y152431D02*
D03*
X468504Y152431D02*
D03*
X446063Y161880D02*
D03*
X468504Y161880D02*
D03*
X446063Y171329D02*
D03*
X468504Y171328D02*
D03*
X446063Y180778D02*
D03*
X468504Y180777D02*
D03*
X446063Y202825D02*
D03*
X468504Y202824D02*
D03*
X446063Y212274D02*
D03*
X468504Y212273D02*
D03*
X446063Y221722D02*
D03*
X468504Y221722D02*
D03*
Y231171D02*
D03*
X446063Y231171D02*
D03*
Y242520D02*
D03*
X468110D02*
D03*
Y248819D02*
D03*
X446063D02*
D03*
X468110Y255118D02*
D03*
X446063D02*
D03*
X468110Y261417D02*
D03*
Y264567D02*
D03*
X446063Y261417D02*
D03*
Y264567D02*
D03*
M02*
