G04*
G04 #@! TF.GenerationSoftware,Altium Limited,Altium Designer,22.7.1 (60)*
G04*
G04 Layer_Physical_Order=4*
G04 Layer_Color=16711680*
%FSLAX25Y25*%
%MOIN*%
G70*
G04*
G04 #@! TF.SameCoordinates,94073C5C-6B49-494D-9988-DEB99AEB3CDA*
G04*
G04*
G04 #@! TF.FilePolarity,Positive*
G04*
G01*
G75*
%ADD13C,0.01968*%
%ADD17C,0.00591*%
%ADD18C,0.01000*%
%ADD21R,0.07874X0.01969*%
%ADD22R,0.07874X0.03937*%
%ADD72C,0.06653*%
%ADD73C,0.18740*%
%ADD74R,0.06653X0.06653*%
%ADD75C,0.15417*%
%ADD76C,0.07677*%
%ADD77C,0.06000*%
%ADD78R,0.06000X0.06000*%
%ADD79C,0.12800*%
%ADD80C,0.08400*%
%ADD81C,0.05500*%
%ADD82C,0.07087*%
%ADD83C,0.15748*%
%ADD84R,0.06102X0.06102*%
%ADD85C,0.06102*%
%ADD86C,0.21654*%
%ADD87C,0.02362*%
%ADD88C,0.01575*%
%ADD89C,0.01968*%
%ADD90C,0.00590*%
G36*
X627882Y306050D02*
X627882Y284803D01*
X627529Y284450D01*
X615752D01*
X615685Y284436D01*
X615618Y284445D01*
X615214Y284419D01*
X615020Y284367D01*
X614819Y284353D01*
X614038Y284144D01*
X613798Y284026D01*
X613546Y283940D01*
X612845Y283536D01*
X612644Y283360D01*
X612423Y283212D01*
X611850Y282639D01*
X611702Y282418D01*
X611526Y282217D01*
X611122Y281516D01*
X611036Y281264D01*
X610918Y281025D01*
X610709Y280243D01*
X610691Y279977D01*
X610639Y279715D01*
Y278906D01*
X610691Y278644D01*
X610709Y278378D01*
X610918Y277596D01*
X611036Y277357D01*
X611122Y277104D01*
X611526Y276404D01*
X611702Y276203D01*
X611850Y275981D01*
X612423Y275409D01*
X612644Y275261D01*
X612845Y275085D01*
X613546Y274680D01*
X613798Y274595D01*
X614038Y274477D01*
X614819Y274267D01*
X615020Y274254D01*
X615214Y274202D01*
X615618Y274176D01*
X615685Y274184D01*
X615752Y274171D01*
X627882D01*
Y260405D01*
X627559Y260039D01*
X627383Y260039D01*
X623008D01*
X622835Y260074D01*
X613578D01*
X613187Y260236D01*
X612404D01*
X611680Y259936D01*
X611127Y259383D01*
X610827Y258659D01*
Y257876D01*
X611127Y257152D01*
X611680Y256599D01*
X612404Y256299D01*
X613187D01*
X613578Y256461D01*
X622835D01*
X623008Y256495D01*
X627383D01*
X627559Y256495D01*
X627882Y256130D01*
Y254106D01*
X627559Y253740D01*
X627383Y253740D01*
X623008D01*
X622835Y253775D01*
X613381D01*
X612990Y253937D01*
X612207D01*
X611483Y253637D01*
X610930Y253083D01*
X610630Y252360D01*
Y251577D01*
X610930Y250853D01*
X611483Y250300D01*
X612207Y250000D01*
X612990D01*
X613381Y250162D01*
X622835D01*
X623008Y250197D01*
X627383D01*
X627559Y250197D01*
X627882Y249831D01*
Y247806D01*
X627559Y247440D01*
X627383Y247440D01*
X623008D01*
X622835Y247475D01*
X613381D01*
X612990Y247637D01*
X612207D01*
X611483Y247337D01*
X610930Y246783D01*
X610630Y246060D01*
Y245277D01*
X610930Y244553D01*
X611483Y244000D01*
X612207Y243700D01*
X612990D01*
X613381Y243862D01*
X622835D01*
X623008Y243897D01*
X627383D01*
X627559Y243897D01*
X627882Y243531D01*
Y241507D01*
X627559Y241141D01*
X627383Y241141D01*
X618110D01*
Y239444D01*
X609555D01*
X609555Y239444D01*
X609133Y239360D01*
X608775Y239120D01*
X608775Y239120D01*
X604699Y235045D01*
X600266D01*
X599931Y235545D01*
X600000Y235710D01*
Y236337D01*
X599760Y236916D01*
X599317Y237359D01*
X598903Y237530D01*
Y238060D01*
X599317Y238232D01*
X599760Y238675D01*
X600000Y239254D01*
Y239880D01*
X599760Y240459D01*
X599317Y240902D01*
X598738Y241142D01*
X598112D01*
X597533Y240902D01*
X597090Y240459D01*
X596850Y239880D01*
Y239553D01*
X596741Y239444D01*
X443416D01*
X443307Y239553D01*
Y239880D01*
X443067Y240459D01*
X442624Y240902D01*
X442045Y241142D01*
X441419D01*
X440840Y240902D01*
X440397Y240459D01*
X440158Y239880D01*
Y239254D01*
X440397Y238675D01*
X440840Y238232D01*
X441254Y238060D01*
Y237530D01*
X440840Y237359D01*
X440397Y236916D01*
X440158Y236337D01*
Y235710D01*
X440226Y235545D01*
X439892Y235045D01*
X436626D01*
X436626Y235045D01*
X436624Y235044D01*
X435542D01*
X435433Y235153D01*
Y235481D01*
X435193Y236059D01*
X434750Y236502D01*
X434171Y236742D01*
X433545D01*
X432966Y236502D01*
X432523Y236059D01*
X432283Y235481D01*
Y234854D01*
X432523Y234275D01*
X432966Y233832D01*
X433380Y233661D01*
Y233131D01*
X432966Y232959D01*
X432523Y232516D01*
X432283Y231937D01*
Y231311D01*
X432523Y230732D01*
X432966Y230289D01*
X433545Y230049D01*
X434171D01*
X434750Y230289D01*
X435193Y230732D01*
X435433Y231311D01*
Y231638D01*
X435542Y231747D01*
X437153D01*
X437153Y231747D01*
X437155Y231747D01*
X440427D01*
X440634Y231247D01*
X440397Y231010D01*
X440158Y230431D01*
Y229805D01*
X440397Y229226D01*
X440840Y228783D01*
X441254Y228611D01*
Y228081D01*
X440840Y227910D01*
X440397Y227467D01*
X440158Y226888D01*
Y226262D01*
X440291Y225939D01*
X439988Y225439D01*
X435542D01*
X435433Y225548D01*
Y225875D01*
X435193Y226454D01*
X434750Y226897D01*
X434171Y227136D01*
X433545D01*
X432966Y226897D01*
X432523Y226454D01*
X432283Y225875D01*
Y225248D01*
X432523Y224670D01*
X432966Y224227D01*
X433380Y224055D01*
Y223525D01*
X432966Y223353D01*
X432523Y222910D01*
X432283Y222332D01*
Y221705D01*
X432523Y221126D01*
X432966Y220683D01*
X433545Y220444D01*
X434171D01*
X434750Y220683D01*
X435193Y221126D01*
X435433Y221705D01*
Y222032D01*
X435542Y222141D01*
X440270D01*
X440477Y221641D01*
X440397Y221561D01*
X440158Y220983D01*
Y220356D01*
X440397Y219777D01*
X440840Y219334D01*
X441254Y219163D01*
Y218633D01*
X440840Y218461D01*
X440397Y218018D01*
X440158Y217439D01*
Y216813D01*
X440260Y216564D01*
X439926Y216064D01*
X435542D01*
X435433Y216173D01*
Y216500D01*
X435193Y217079D01*
X434750Y217522D01*
X434171Y217762D01*
X433545D01*
X432966Y217522D01*
X432523Y217079D01*
X432283Y216500D01*
Y215874D01*
X432523Y215295D01*
X432966Y214852D01*
X433380Y214681D01*
Y214151D01*
X432966Y213979D01*
X432523Y213536D01*
X432283Y212957D01*
Y212331D01*
X432523Y211752D01*
X432966Y211309D01*
X433545Y211069D01*
X434171D01*
X434750Y211309D01*
X435193Y211752D01*
X435433Y212331D01*
Y212658D01*
X435542Y212767D01*
X440344D01*
X440552Y212267D01*
X440397Y212112D01*
X440158Y211534D01*
Y210907D01*
X440397Y210328D01*
X440840Y209885D01*
X441254Y209714D01*
Y209184D01*
X440840Y209012D01*
X440397Y208569D01*
X440158Y207990D01*
Y207364D01*
X440291Y207041D01*
X439988Y206541D01*
X435542D01*
X435433Y206650D01*
Y206977D01*
X435193Y207556D01*
X434750Y207999D01*
X434171Y208239D01*
X433545D01*
X432966Y207999D01*
X432523Y207556D01*
X432283Y206977D01*
Y206351D01*
X432523Y205772D01*
X432966Y205329D01*
X433380Y205157D01*
Y204627D01*
X432966Y204456D01*
X432523Y204013D01*
X432283Y203434D01*
Y202807D01*
X432523Y202229D01*
X432966Y201786D01*
X433545Y201546D01*
X434171D01*
X434750Y201786D01*
X435193Y202229D01*
X435433Y202807D01*
Y203135D01*
X435542Y203244D01*
X440270D01*
X440477Y202744D01*
X440397Y202664D01*
X440158Y202085D01*
Y201458D01*
X440397Y200880D01*
X440840Y200437D01*
X441254Y200265D01*
Y199735D01*
X440840Y199563D01*
X440397Y199120D01*
X440158Y198542D01*
Y197915D01*
X440397Y197336D01*
X440840Y196893D01*
X441419Y196653D01*
X442045D01*
X442624Y196893D01*
X443067Y197336D01*
X443307Y197915D01*
Y198242D01*
X443416Y198351D01*
X590035D01*
X590369Y197851D01*
X590301Y197686D01*
Y197399D01*
X590160Y197162D01*
X589627Y197066D01*
X589049Y197306D01*
X588422D01*
X587843Y197066D01*
X587400Y196623D01*
X587160Y196045D01*
Y195418D01*
X587400Y194839D01*
X587843Y194396D01*
X588422Y194156D01*
X589049D01*
X589627Y194396D01*
X589769Y194538D01*
X590478Y193830D01*
X590478Y193829D01*
X590836Y193590D01*
X591258Y193506D01*
X591258Y193506D01*
X604756D01*
X604756Y193506D01*
X605179Y193590D01*
X605537Y193829D01*
X610058Y198351D01*
X618110D01*
Y196652D01*
X627383D01*
X627559Y196652D01*
X627882Y196286D01*
Y181665D01*
X627559Y181299D01*
X627383Y181299D01*
X618110D01*
Y180631D01*
X599611D01*
X599188Y180547D01*
X598830Y180308D01*
X598443Y179921D01*
X598112D01*
X597533Y179682D01*
X597090Y179238D01*
X596850Y178660D01*
Y178033D01*
X597090Y177454D01*
X597533Y177011D01*
X597947Y176840D01*
Y176310D01*
X597533Y176138D01*
X597090Y175695D01*
X596850Y175116D01*
Y174490D01*
X597090Y173911D01*
X597533Y173468D01*
X598112Y173228D01*
X598738D01*
X599317Y173468D01*
X599760Y173911D01*
X599962Y174399D01*
X600629Y175065D01*
X618110D01*
Y174606D01*
X627383D01*
X627559Y174606D01*
X627882Y174240D01*
Y172216D01*
X627559Y171850D01*
X627383Y171850D01*
X618110D01*
Y171182D01*
X615453D01*
X615448Y171194D01*
X614895Y171747D01*
X614171Y172047D01*
X613388D01*
X612665Y171747D01*
X612111Y171194D01*
X611811Y170470D01*
Y169687D01*
X612085Y169026D01*
X611895Y168526D01*
X595513D01*
X595380Y168658D01*
X594801Y168898D01*
X594175D01*
X593596Y168658D01*
X593153Y168215D01*
X592913Y167636D01*
Y167010D01*
X593153Y166431D01*
X593204Y166379D01*
X592997Y165879D01*
X471955D01*
X471579Y165954D01*
X460897D01*
X460563Y166454D01*
X460630Y166616D01*
Y167242D01*
X460390Y167821D01*
X459947Y168264D01*
X459368Y168504D01*
X458742D01*
X458163Y168264D01*
X458141Y168242D01*
X437402D01*
X436899Y168142D01*
X436473Y167857D01*
X433183Y164567D01*
X433151D01*
X432573Y164327D01*
X432129Y163884D01*
X431890Y163305D01*
Y162679D01*
X432129Y162100D01*
X432573Y161657D01*
X433151Y161417D01*
X433778D01*
X434357Y161657D01*
X434800Y162100D01*
X435039Y162679D01*
Y162711D01*
X437945Y165617D01*
X453670D01*
X454004Y165117D01*
X453937Y164955D01*
Y164329D01*
X454177Y163750D01*
X454620Y163307D01*
X455199Y163067D01*
X455825D01*
X456404Y163307D01*
X456426Y163329D01*
X471278D01*
X471654Y163254D01*
X593072D01*
X593279Y162754D01*
X593153Y162628D01*
X592913Y162049D01*
Y162018D01*
X591657Y160761D01*
X475984D01*
X475715Y160708D01*
X467691D01*
X467421Y160761D01*
X467079D01*
X466283Y161558D01*
X465857Y161843D01*
X465354Y161943D01*
X456426D01*
X456404Y161965D01*
X455825Y162205D01*
X455199D01*
X454620Y161965D01*
X454177Y161522D01*
X453937Y160943D01*
Y160317D01*
X454177Y159738D01*
X454620Y159295D01*
X455034Y159123D01*
Y158593D01*
X454620Y158422D01*
X454177Y157979D01*
X453937Y157400D01*
Y156773D01*
X454177Y156195D01*
X454620Y155752D01*
X455199Y155512D01*
X455825D01*
X456404Y155752D01*
X456426Y155774D01*
X473228D01*
X473731Y155874D01*
X474157Y156158D01*
X474166Y156168D01*
X591657D01*
X592913Y154911D01*
Y154880D01*
X593153Y154301D01*
X593505Y153949D01*
X593394Y153520D01*
X593352Y153449D01*
X592647D01*
X592624Y153472D01*
X592045Y153711D01*
X591419D01*
X590840Y153472D01*
X590397Y153029D01*
X590158Y152450D01*
Y151823D01*
X590226Y151658D01*
X589892Y151158D01*
X458474D01*
X458268Y151364D01*
Y151691D01*
X458028Y152270D01*
X457585Y152713D01*
X457006Y152953D01*
X456380D01*
X455801Y152713D01*
X455358Y152270D01*
X455118Y151691D01*
Y151065D01*
X455358Y150486D01*
X455801Y150043D01*
X456215Y149871D01*
Y149341D01*
X455801Y149170D01*
X455358Y148727D01*
X455118Y148148D01*
Y147521D01*
X455358Y146943D01*
X455801Y146500D01*
X456380Y146260D01*
X457006D01*
X457585Y146500D01*
X458028Y146943D01*
X458268Y147521D01*
Y147849D01*
X458279Y147860D01*
X589892D01*
X590226Y147360D01*
X590158Y147195D01*
Y146568D01*
X590397Y145990D01*
X590840Y145546D01*
X591419Y145307D01*
X591451D01*
X592335Y144422D01*
X592761Y144138D01*
X593263Y144038D01*
X600075D01*
X600577Y144138D01*
X601003Y144422D01*
X603300Y146719D01*
X618110D01*
Y146259D01*
X627383D01*
X627559Y146259D01*
X627882Y145894D01*
Y143869D01*
X627559Y143503D01*
X627383Y143503D01*
X618110D01*
Y141806D01*
X611176D01*
X611175Y141806D01*
X611175Y141806D01*
X600109D01*
X600000Y141915D01*
Y142242D01*
X599760Y142821D01*
X599317Y143264D01*
X598738Y143503D01*
X598112D01*
X597533Y143264D01*
X597090Y142821D01*
X596850Y142242D01*
Y141615D01*
X597090Y141037D01*
X597533Y140594D01*
X597947Y140422D01*
Y139892D01*
X597533Y139720D01*
X597090Y139277D01*
X596850Y138699D01*
Y138072D01*
X597090Y137493D01*
X597533Y137050D01*
X598112Y136811D01*
X598738D01*
X599317Y137050D01*
X599760Y137493D01*
X600000Y138072D01*
Y138399D01*
X600109Y138508D01*
X610723D01*
X610723Y138508D01*
X618110D01*
Y136811D01*
X627383D01*
X627559Y136811D01*
X627882Y136444D01*
Y134421D01*
X627559Y134055D01*
X627383Y134055D01*
X618110D01*
Y133596D01*
X596850D01*
X596644Y133555D01*
X596153Y133911D01*
X596145Y133927D01*
Y134185D01*
X595906Y134764D01*
X595463Y135207D01*
X595174Y135327D01*
X595190Y135704D01*
X595234Y135843D01*
X595774Y136066D01*
X596217Y136510D01*
X596457Y137088D01*
Y137715D01*
X596217Y138294D01*
X595774Y138737D01*
X595195Y138976D01*
X594569D01*
X593990Y138737D01*
X593547Y138294D01*
X593307Y137715D01*
Y137543D01*
X593049Y137285D01*
X531292D01*
X530093Y138485D01*
X529735Y138724D01*
X529313Y138808D01*
X529313Y138808D01*
X465945D01*
X465945Y138808D01*
X465522Y138724D01*
X465165Y138485D01*
X465164Y138485D01*
X463519Y136839D01*
X460246D01*
X460091Y137124D01*
X460014Y137339D01*
X460236Y137876D01*
Y138502D01*
X459997Y139081D01*
X459553Y139524D01*
X459333Y139615D01*
X459253Y139734D01*
X459253Y139734D01*
X459373Y140322D01*
X459553Y140397D01*
X459997Y140840D01*
X460236Y141419D01*
Y142045D01*
X459997Y142624D01*
X459553Y143067D01*
X458975Y143307D01*
X458348D01*
X457769Y143067D01*
X457524Y142822D01*
X453557Y146790D01*
X453557Y146790D01*
X453215Y147132D01*
X452856Y147371D01*
X452434Y147455D01*
X452434Y147455D01*
X435160D01*
X434738Y147371D01*
X434685Y147336D01*
X434357Y147664D01*
X433778Y147904D01*
X433151D01*
X432573Y147664D01*
X432129Y147221D01*
X431890Y146642D01*
Y146016D01*
X432129Y145437D01*
X432573Y144994D01*
X432928Y144846D01*
X432987Y144771D01*
Y144292D01*
X432573Y144121D01*
X432129Y143677D01*
X431890Y143099D01*
Y142472D01*
X432129Y141893D01*
X432573Y141450D01*
X433151Y141211D01*
X433778D01*
X434357Y141450D01*
X434800Y141893D01*
X435039Y142472D01*
Y143099D01*
X435031Y143120D01*
X436069Y144158D01*
X451525D01*
X453901Y141782D01*
X453901Y141782D01*
X453901Y141782D01*
X456103Y139581D01*
X456103Y139581D01*
X456461Y139341D01*
X456541Y139325D01*
X457168Y138698D01*
X457087Y138502D01*
Y137876D01*
X457309Y137339D01*
X457232Y137124D01*
X457077Y136839D01*
X452256D01*
X447613Y141483D01*
X447255Y141722D01*
X446833Y141806D01*
X446833Y141806D01*
X441447D01*
X441339Y141915D01*
Y142242D01*
X441099Y142821D01*
X440656Y143264D01*
X440077Y143504D01*
X439451D01*
X438872Y143264D01*
X438429Y142821D01*
X438189Y142242D01*
Y141616D01*
X438429Y141037D01*
X438872Y140594D01*
X439286Y140423D01*
Y139892D01*
X438872Y139721D01*
X438429Y139278D01*
X438189Y138699D01*
Y138073D01*
X438429Y137494D01*
X438872Y137051D01*
X439451Y136811D01*
X440077D01*
X440656Y137051D01*
X441099Y137494D01*
X441339Y138073D01*
Y138400D01*
X441447Y138509D01*
X445924D01*
X450567Y133865D01*
X450567Y133865D01*
X450925Y133626D01*
X451348Y133542D01*
X451348Y133542D01*
X453496D01*
X453728Y133042D01*
X453543Y132597D01*
Y131970D01*
X453641Y131734D01*
X453307Y131234D01*
X436371D01*
X435039Y132565D01*
Y132597D01*
X434800Y133176D01*
X434357Y133618D01*
X433778Y133858D01*
X433151D01*
X432573Y133618D01*
X432129Y133176D01*
X431890Y132597D01*
Y131970D01*
X432129Y131391D01*
X432573Y130948D01*
X433151Y130709D01*
X433183D01*
X434899Y128993D01*
X435324Y128709D01*
X435827Y128609D01*
X452458D01*
X452665Y128109D01*
X452290Y127733D01*
X450872D01*
X450849Y127756D01*
X450271Y127995D01*
X449644D01*
X449065Y127756D01*
X448622Y127313D01*
X448383Y126734D01*
Y126107D01*
X448622Y125529D01*
X449065Y125085D01*
X449644Y124846D01*
X450271D01*
X450849Y125085D01*
X450872Y125108D01*
X452834D01*
X453336Y125208D01*
X453762Y125492D01*
X454449Y126180D01*
X454806Y126134D01*
X454968Y125637D01*
X454578Y125247D01*
X454145Y124497D01*
X453921Y123661D01*
Y122796D01*
X454145Y121959D01*
X454578Y121210D01*
X455190Y120598D01*
X455940Y120165D01*
X456776Y119941D01*
X457642D01*
X458478Y120165D01*
X459227Y120598D01*
X459839Y121210D01*
X460272Y121959D01*
X460496Y122796D01*
Y123661D01*
X460272Y124497D01*
X459839Y125247D01*
X459340Y125746D01*
X459499Y126246D01*
X589103D01*
X589437Y125746D01*
X589370Y125585D01*
Y124958D01*
X589610Y124380D01*
X590053Y123937D01*
X590632Y123697D01*
X591258D01*
X591837Y123937D01*
X591859Y123959D01*
X598894D01*
X599396Y124059D01*
X599822Y124344D01*
X603299Y127821D01*
X618110D01*
Y127362D01*
X627383D01*
X627559Y127362D01*
X627882Y126996D01*
Y87650D01*
X627882Y2039D01*
X2039D01*
Y391662D01*
X627882D01*
Y306050D01*
D02*
G37*
G36*
X589582Y235647D02*
X589513Y235481D01*
Y234855D01*
X589584Y234684D01*
X589160Y234400D01*
X589050Y234511D01*
X588471Y234751D01*
X587845D01*
X587266Y234511D01*
X586823Y234068D01*
X586583Y233489D01*
Y232862D01*
X586823Y232284D01*
X587266Y231841D01*
X587845Y231601D01*
X588471D01*
X589050Y231841D01*
X589105Y231896D01*
X589460D01*
X589556Y231831D01*
X589979Y231747D01*
X597120D01*
X597327Y231247D01*
X597090Y231010D01*
X596850Y230431D01*
Y230104D01*
X596741Y229995D01*
X443416D01*
X443307Y230104D01*
Y230431D01*
X443067Y231010D01*
X442830Y231247D01*
X443037Y231747D01*
X444519D01*
X444519Y231747D01*
X444942Y231831D01*
X445300Y232071D01*
X445576Y232347D01*
X449355D01*
X450077Y231625D01*
X450435Y231385D01*
X450857Y231301D01*
X450857Y231301D01*
X456266D01*
X456266Y231301D01*
X456688Y231385D01*
X457047Y231625D01*
X457284Y231862D01*
X457587Y231559D01*
X458166Y231319D01*
X458793D01*
X459372Y231559D01*
X459815Y232002D01*
X460054Y232580D01*
Y233207D01*
X459815Y233786D01*
X459372Y234229D01*
X458793Y234469D01*
X458166D01*
X457777Y234307D01*
X457593Y234390D01*
X457337Y234855D01*
Y235481D01*
X457268Y235647D01*
X457603Y236147D01*
X589248D01*
X589582Y235647D01*
D02*
G37*
G36*
X618110Y234449D02*
X627383D01*
X627559Y234449D01*
X627882Y234083D01*
Y232058D01*
X627559Y231692D01*
X627383Y231692D01*
X618110D01*
Y229995D01*
X616331D01*
X616331Y229995D01*
X615908Y229911D01*
X615550Y229671D01*
X615550Y229671D01*
X610948Y225069D01*
X599854D01*
X599646Y225569D01*
X599760Y225683D01*
X600000Y226262D01*
Y226888D01*
X599760Y227467D01*
X599317Y227910D01*
X598903Y228081D01*
Y228611D01*
X599317Y228783D01*
X599760Y229226D01*
X600000Y229805D01*
Y230431D01*
X599760Y231010D01*
X599523Y231247D01*
X599730Y231747D01*
X605608D01*
X605608Y231747D01*
X606031Y231831D01*
X606389Y232071D01*
X610464Y236146D01*
X618110D01*
Y234449D01*
D02*
G37*
G36*
X590369Y226198D02*
X590301Y226032D01*
Y225745D01*
X590160Y225509D01*
X589627Y225413D01*
X589049Y225653D01*
X588422D01*
X587843Y225413D01*
X587400Y224970D01*
X587160Y224391D01*
Y223764D01*
X587400Y223186D01*
X587843Y222743D01*
X588422Y222503D01*
X589049D01*
X589627Y222743D01*
X589769Y222884D01*
X590559Y222095D01*
X590917Y221855D01*
X591339Y221772D01*
X591339Y221772D01*
X596647D01*
X596970Y221271D01*
X596850Y220983D01*
Y220655D01*
X596741Y220546D01*
X443416D01*
X443307Y220655D01*
Y220983D01*
X443067Y221561D01*
X442976Y221653D01*
X443144Y222192D01*
X443311Y222225D01*
X443670Y222464D01*
X444103Y222898D01*
X448618D01*
X449340Y222176D01*
X449698Y221937D01*
X450121Y221853D01*
X450121Y221853D01*
X456266D01*
X456266Y221853D01*
X456688Y221937D01*
X457047Y222176D01*
X457284Y222413D01*
X457587Y222110D01*
X458166Y221870D01*
X458793D01*
X459372Y222110D01*
X459815Y222553D01*
X460054Y223132D01*
Y223758D01*
X459815Y224337D01*
X459372Y224780D01*
X458793Y225020D01*
X458166D01*
X457777Y224858D01*
X457593Y224941D01*
X457337Y225406D01*
Y226032D01*
X457268Y226198D01*
X457603Y226698D01*
X590035D01*
X590369Y226198D01*
D02*
G37*
G36*
X618110Y224999D02*
X627383D01*
X627559Y224999D01*
X627882Y224634D01*
Y222610D01*
X627559Y222244D01*
X627383Y222244D01*
X618110D01*
Y220546D01*
X615421D01*
X615421Y220546D01*
X614999Y220462D01*
X614641Y220223D01*
X614641Y220223D01*
X610408Y215990D01*
X600170D01*
X599866Y216490D01*
X600000Y216813D01*
Y217439D01*
X599760Y218018D01*
X599317Y218461D01*
X598903Y218633D01*
Y219163D01*
X599317Y219334D01*
X599760Y219777D01*
X600000Y220356D01*
Y220983D01*
X599880Y221271D01*
X600203Y221772D01*
X611857D01*
X611857Y221772D01*
X612279Y221855D01*
X612637Y222095D01*
X617239Y226697D01*
X618110D01*
Y224999D01*
D02*
G37*
G36*
X590369Y216749D02*
X590301Y216583D01*
Y216575D01*
X589837Y216157D01*
X589837Y216157D01*
X589671D01*
X589440Y216389D01*
X588861Y216629D01*
X588234D01*
X587656Y216389D01*
X587213Y215946D01*
X586973Y215367D01*
Y214740D01*
X587213Y214162D01*
X587656Y213719D01*
X588234Y213479D01*
X588861D01*
X589440Y213719D01*
X589526Y213805D01*
X590314Y213016D01*
X590314Y213016D01*
X590672Y212776D01*
X591095Y212692D01*
X591095Y212692D01*
X596963D01*
X597170Y212193D01*
X597090Y212112D01*
X596850Y211534D01*
Y211207D01*
X596741Y211098D01*
X443416D01*
X443307Y211207D01*
Y211534D01*
X443067Y212112D01*
X442913Y212267D01*
X443120Y212767D01*
X443373D01*
X443373Y212767D01*
X443796Y212851D01*
X444154Y213090D01*
X444513Y213449D01*
X448683D01*
X449405Y212727D01*
X449763Y212488D01*
X450185Y212404D01*
X450185Y212404D01*
X455986D01*
X455986Y212404D01*
X456408Y212488D01*
X456766Y212727D01*
X457475Y213436D01*
X457617Y213294D01*
X458195Y213054D01*
X458822D01*
X459401Y213294D01*
X459844Y213737D01*
X460084Y214316D01*
Y214942D01*
X459844Y215521D01*
X459401Y215964D01*
X458822Y216204D01*
X458195D01*
X457617Y215964D01*
X457084Y216060D01*
X456943Y216296D01*
Y216583D01*
X456875Y216749D01*
X457209Y217249D01*
X590035D01*
X590369Y216749D01*
D02*
G37*
G36*
X618110Y215550D02*
X627383D01*
X627559Y215550D01*
X627882Y215184D01*
Y213161D01*
X627559Y212795D01*
X627383Y212795D01*
X618110D01*
Y211097D01*
X615375D01*
X614953Y211013D01*
X614595Y210774D01*
X614595Y210774D01*
X610043Y206222D01*
X599904D01*
X599697Y206722D01*
X599760Y206785D01*
X600000Y207364D01*
Y207990D01*
X599760Y208569D01*
X599317Y209012D01*
X598903Y209184D01*
Y209714D01*
X599317Y209885D01*
X599760Y210328D01*
X600000Y210907D01*
Y211534D01*
X599760Y212112D01*
X599680Y212193D01*
X599887Y212692D01*
X611316D01*
X611316Y212692D01*
X611739Y212776D01*
X612097Y213016D01*
X616330Y217249D01*
X618110D01*
Y215550D01*
D02*
G37*
G36*
X590369Y207300D02*
X590301Y207135D01*
Y207126D01*
X589837Y206709D01*
X589837Y206709D01*
X589671D01*
X589440Y206940D01*
X588861Y207180D01*
X588234D01*
X587656Y206940D01*
X587213Y206497D01*
X586973Y205918D01*
Y205292D01*
X587213Y204713D01*
X587656Y204270D01*
X588234Y204030D01*
X588861D01*
X589440Y204270D01*
X589526Y204356D01*
X590634Y203248D01*
X590634Y203248D01*
X590992Y203008D01*
X591414Y202924D01*
X591414Y202924D01*
X596698D01*
X596991Y202424D01*
X596850Y202085D01*
Y201758D01*
X596741Y201649D01*
X443416D01*
X443307Y201758D01*
Y202085D01*
X443067Y202664D01*
X442976Y202755D01*
X443144Y203294D01*
X443311Y203328D01*
X443670Y203567D01*
X444103Y204000D01*
X448478D01*
X449200Y203278D01*
X449200Y203278D01*
X449558Y203039D01*
X449981Y202955D01*
X455986D01*
X455986Y202955D01*
X456408Y203039D01*
X456766Y203278D01*
X457475Y203987D01*
X457617Y203845D01*
X458195Y203605D01*
X458822D01*
X459401Y203845D01*
X459844Y204288D01*
X460084Y204867D01*
Y205493D01*
X459844Y206072D01*
X459401Y206515D01*
X458822Y206755D01*
X458195D01*
X457617Y206515D01*
X457084Y206611D01*
X456943Y206848D01*
Y207135D01*
X456875Y207300D01*
X457209Y207800D01*
X590035D01*
X590369Y207300D01*
D02*
G37*
G36*
X618110Y206101D02*
X627383D01*
X627559Y206101D01*
X627882Y205735D01*
Y203712D01*
X627559Y203346D01*
X627383Y203346D01*
X618110D01*
Y201648D01*
X609150D01*
X609149Y201648D01*
X608727Y201564D01*
X608369Y201325D01*
X608369Y201325D01*
X603848Y196804D01*
X599935D01*
X599727Y197304D01*
X599760Y197336D01*
X600000Y197915D01*
Y198542D01*
X599760Y199120D01*
X599317Y199563D01*
X598903Y199735D01*
Y200265D01*
X599317Y200437D01*
X599760Y200880D01*
X600000Y201458D01*
Y202085D01*
X599859Y202424D01*
X600153Y202924D01*
X610952D01*
X610952Y202924D01*
X611374Y203008D01*
X611732Y203248D01*
X616284Y207800D01*
X618110D01*
Y206101D01*
D02*
G37*
G36*
Y165156D02*
X627383D01*
X627559Y165156D01*
X627882Y164790D01*
Y162767D01*
X627559Y162401D01*
X627383Y162401D01*
X618110D01*
Y161942D01*
X599761D01*
X599259Y161842D01*
X598833Y161557D01*
X598299Y161024D01*
X598112D01*
X597533Y160784D01*
X597090Y160341D01*
X596850Y159762D01*
Y159136D01*
X597090Y158557D01*
X597533Y158114D01*
X598112Y157874D01*
X598738D01*
X599153Y158045D01*
X599527Y157671D01*
X599356Y157257D01*
Y156630D01*
X599596Y156051D01*
X599897Y155750D01*
X599697Y155250D01*
X596850D01*
X596563Y155192D01*
X596091Y155489D01*
X596045Y155549D01*
X595823Y156085D01*
X595380Y156528D01*
X594801Y156768D01*
X594770D01*
X593417Y158120D01*
X593169Y158465D01*
X593417Y158809D01*
X594770Y160161D01*
X594801D01*
X595380Y160401D01*
X595823Y160844D01*
X596063Y161423D01*
Y162049D01*
X595823Y162628D01*
X595697Y162754D01*
X595904Y163254D01*
X597511D01*
X597533Y163232D01*
X598112Y162992D01*
X598738D01*
X599317Y163232D01*
X599760Y163675D01*
X600000Y164254D01*
Y164880D01*
X599785Y165400D01*
X599972Y165900D01*
X618110D01*
Y165156D01*
D02*
G37*
G36*
Y155708D02*
X627383D01*
X627559Y155708D01*
X627882Y155341D01*
Y153318D01*
X627559Y152952D01*
X627383Y152952D01*
X618110D01*
Y152493D01*
X603300D01*
X600928Y154865D01*
X600923Y154868D01*
X601075Y155368D01*
X601244D01*
X601823Y155608D01*
X602266Y156051D01*
X602314Y156167D01*
X618110D01*
Y155708D01*
D02*
G37*
G36*
X529603Y134311D02*
X529603Y134311D01*
X529961Y134072D01*
X530384Y133988D01*
X589110D01*
X589444Y133488D01*
X589370Y133309D01*
Y132683D01*
X589610Y132104D01*
X589905Y131809D01*
X589698Y131309D01*
X468186D01*
X466283Y133212D01*
X465857Y133496D01*
X465598Y133548D01*
X465424Y134081D01*
X466854Y135511D01*
X528404D01*
X529603Y134311D01*
D02*
G37*
%LPC*%
G36*
X317099Y366587D02*
X316101D01*
X315138Y366329D01*
X314275Y365831D01*
X313569Y365125D01*
X313071Y364262D01*
X312813Y363299D01*
Y362301D01*
X313071Y361338D01*
X313569Y360474D01*
X314275Y359769D01*
X315138Y359271D01*
X316101Y359013D01*
X317099D01*
X318062Y359271D01*
X318925Y359769D01*
X319631Y360474D01*
X320129Y361338D01*
X320387Y362301D01*
Y363299D01*
X320129Y364262D01*
X319631Y365125D01*
X318925Y365831D01*
X318062Y366329D01*
X317099Y366587D01*
D02*
G37*
G36*
X377499Y365587D02*
X376501D01*
X375538Y365329D01*
X374675Y364831D01*
X373969Y364125D01*
X373471Y363262D01*
X373213Y362299D01*
Y361301D01*
X373471Y360338D01*
X373969Y359474D01*
X374675Y358769D01*
X375538Y358271D01*
X376501Y358013D01*
X377499D01*
X378462Y358271D01*
X379326Y358769D01*
X380031Y359474D01*
X380529Y360338D01*
X380787Y361301D01*
Y362299D01*
X380529Y363262D01*
X380031Y364125D01*
X379326Y364831D01*
X378462Y365329D01*
X377499Y365587D01*
D02*
G37*
G36*
X583562Y365984D02*
X582422D01*
X581320Y365689D01*
X580333Y365119D01*
X579527Y364313D01*
X578957Y363325D01*
X578661Y362224D01*
Y361083D01*
X578957Y359982D01*
X579527Y358994D01*
X580333Y358188D01*
X581320Y357618D01*
X582422Y357323D01*
X583562D01*
X584664Y357618D01*
X585651Y358188D01*
X586457Y358994D01*
X587028Y359982D01*
X587323Y361083D01*
Y362224D01*
X587028Y363325D01*
X586457Y364313D01*
X585651Y365119D01*
X584664Y365689D01*
X583562Y365984D01*
D02*
G37*
G36*
X543562D02*
X542422D01*
X541321Y365689D01*
X540333Y365119D01*
X539527Y364313D01*
X538957Y363325D01*
X538661Y362224D01*
Y361083D01*
X538957Y359982D01*
X539527Y358994D01*
X540333Y358188D01*
X541321Y357618D01*
X542422Y357323D01*
X543562D01*
X544664Y357618D01*
X545651Y358188D01*
X546457Y358994D01*
X547028Y359982D01*
X547323Y361083D01*
Y362224D01*
X547028Y363325D01*
X546457Y364313D01*
X545651Y365119D01*
X544664Y365689D01*
X543562Y365984D01*
D02*
G37*
G36*
X528444D02*
X527304D01*
X526202Y365689D01*
X525215Y365119D01*
X524409Y364313D01*
X523839Y363325D01*
X523543Y362224D01*
Y361083D01*
X523839Y359982D01*
X524409Y358994D01*
X525215Y358188D01*
X526202Y357618D01*
X527304Y357323D01*
X528444D01*
X529546Y357618D01*
X530533Y358188D01*
X531339Y358994D01*
X531910Y359982D01*
X532205Y361083D01*
Y362224D01*
X531910Y363325D01*
X531339Y364313D01*
X530533Y365119D01*
X529546Y365689D01*
X528444Y365984D01*
D02*
G37*
G36*
X488444D02*
X487304D01*
X486202Y365689D01*
X485215Y365119D01*
X484409Y364313D01*
X483839Y363325D01*
X483543Y362224D01*
Y361083D01*
X483839Y359982D01*
X484409Y358994D01*
X485215Y358188D01*
X486202Y357618D01*
X487304Y357323D01*
X488444D01*
X489546Y357618D01*
X490533Y358188D01*
X491339Y358994D01*
X491910Y359982D01*
X492205Y361083D01*
Y362224D01*
X491910Y363325D01*
X491339Y364313D01*
X490533Y365119D01*
X489546Y365689D01*
X488444Y365984D01*
D02*
G37*
G36*
X317099Y356587D02*
X316101D01*
X315138Y356329D01*
X314275Y355831D01*
X313569Y355125D01*
X313071Y354262D01*
X312813Y353299D01*
Y352301D01*
X313071Y351338D01*
X313569Y350475D01*
X314275Y349769D01*
X315138Y349271D01*
X316101Y349013D01*
X317099D01*
X318062Y349271D01*
X318925Y349769D01*
X319631Y350475D01*
X320129Y351338D01*
X320387Y352301D01*
Y353299D01*
X320129Y354262D01*
X319631Y355125D01*
X318925Y355831D01*
X318062Y356329D01*
X317099Y356587D01*
D02*
G37*
G36*
X377499Y355587D02*
X376501D01*
X375538Y355329D01*
X374675Y354831D01*
X373969Y354125D01*
X373471Y353262D01*
X373213Y352299D01*
Y351301D01*
X373471Y350338D01*
X373969Y349475D01*
X374675Y348769D01*
X375538Y348271D01*
X376501Y348013D01*
X377499D01*
X378462Y348271D01*
X379326Y348769D01*
X380031Y349475D01*
X380529Y350338D01*
X380787Y351301D01*
Y352299D01*
X380529Y353262D01*
X380031Y354125D01*
X379326Y354831D01*
X378462Y355329D01*
X377499Y355587D01*
D02*
G37*
G36*
X464899Y348287D02*
X463901D01*
X462938Y348029D01*
X462075Y347531D01*
X461369Y346826D01*
X460871Y345962D01*
X460613Y344999D01*
Y344001D01*
X460871Y343038D01*
X461369Y342175D01*
X462075Y341469D01*
X462938Y340971D01*
X463901Y340713D01*
X464899D01*
X465862Y340971D01*
X466725Y341469D01*
X467431Y342175D01*
X467929Y343038D01*
X468187Y344001D01*
Y344999D01*
X467929Y345962D01*
X467431Y346826D01*
X466725Y347531D01*
X465862Y348029D01*
X464899Y348287D01*
D02*
G37*
G36*
X454899D02*
X453901D01*
X452938Y348029D01*
X452074Y347531D01*
X451369Y346826D01*
X450871Y345962D01*
X450613Y344999D01*
Y344001D01*
X450871Y343038D01*
X451369Y342175D01*
X452074Y341469D01*
X452938Y340971D01*
X453901Y340713D01*
X454899D01*
X455862Y340971D01*
X456726Y341469D01*
X457431Y342175D01*
X457929Y343038D01*
X458187Y344001D01*
Y344999D01*
X457929Y345962D01*
X457431Y346826D01*
X456726Y347531D01*
X455862Y348029D01*
X454899Y348287D01*
D02*
G37*
G36*
X444899D02*
X443901D01*
X442938Y348029D01*
X442074Y347531D01*
X441369Y346826D01*
X440871Y345962D01*
X440613Y344999D01*
Y344001D01*
X440871Y343038D01*
X441369Y342175D01*
X442074Y341469D01*
X442938Y340971D01*
X443901Y340713D01*
X444899D01*
X445862Y340971D01*
X446726Y341469D01*
X447431Y342175D01*
X447929Y343038D01*
X448187Y344001D01*
Y344999D01*
X447929Y345962D01*
X447431Y346826D01*
X446726Y347531D01*
X445862Y348029D01*
X444899Y348287D01*
D02*
G37*
G36*
X429841Y331496D02*
X429214D01*
X428636Y331256D01*
X428613Y331234D01*
X383985D01*
X383963Y331256D01*
X383384Y331496D01*
X382758D01*
X382179Y331256D01*
X381736Y330813D01*
X381496Y330235D01*
Y329608D01*
X381736Y329029D01*
X382179Y328586D01*
X382758Y328346D01*
X383384D01*
X383963Y328586D01*
X383985Y328609D01*
X428613D01*
X428636Y328586D01*
X429214Y328346D01*
X429841D01*
X430420Y328586D01*
X430863Y329029D01*
X431102Y329608D01*
Y330235D01*
X430863Y330813D01*
X430420Y331256D01*
X429841Y331496D01*
D02*
G37*
G36*
X369998D02*
X369372D01*
X368793Y331256D01*
X368771Y331234D01*
X322962D01*
X322939Y331256D01*
X322360Y331496D01*
X321734D01*
X321155Y331256D01*
X320712Y330813D01*
X320472Y330235D01*
Y329608D01*
X320712Y329029D01*
X321155Y328586D01*
X321734Y328346D01*
X322360D01*
X322939Y328586D01*
X322962Y328609D01*
X368771D01*
X368793Y328586D01*
X369372Y328346D01*
X369998D01*
X370577Y328586D01*
X371020Y329029D01*
X371260Y329608D01*
Y330235D01*
X371020Y330813D01*
X370577Y331256D01*
X369998Y331496D01*
D02*
G37*
G36*
X563845Y345276D02*
X562139D01*
X560466Y344943D01*
X558889Y344290D01*
X557471Y343342D01*
X556264Y342136D01*
X555316Y340717D01*
X554664Y339141D01*
X554331Y337467D01*
Y335761D01*
X554664Y334088D01*
X555316Y332511D01*
X556264Y331093D01*
X557471Y329886D01*
X558889Y328939D01*
X560466Y328286D01*
X562139Y327953D01*
X563845D01*
X565519Y328286D01*
X567095Y328939D01*
X568513Y329886D01*
X569720Y331093D01*
X570668Y332511D01*
X571321Y334088D01*
X571654Y335761D01*
Y337467D01*
X571321Y339141D01*
X570668Y340717D01*
X569720Y342136D01*
X568513Y343342D01*
X567095Y344290D01*
X565519Y344943D01*
X563845Y345276D01*
D02*
G37*
G36*
X322292Y320172D02*
X321509D01*
X320785Y319872D01*
X320522Y319610D01*
X320259Y319872D01*
X319536Y320172D01*
X318753D01*
X318029Y319872D01*
X317766Y319610D01*
X317503Y319872D01*
X316780Y320172D01*
X315997D01*
X315273Y319872D01*
X314719Y319319D01*
X314420Y318595D01*
Y317812D01*
X314719Y317089D01*
X315273Y316535D01*
X315997Y316235D01*
X316780D01*
X317503Y316535D01*
X317766Y316798D01*
X318029Y316535D01*
X318753Y316235D01*
X319536D01*
X320259Y316535D01*
X320522Y316798D01*
X320785Y316535D01*
X321509Y316235D01*
X322292D01*
X323015Y316535D01*
X323569Y317089D01*
X323869Y317812D01*
Y318595D01*
X323569Y319319D01*
X323015Y319872D01*
X322292Y320172D01*
D02*
G37*
G36*
X382281Y320079D02*
X381498D01*
X380775Y319779D01*
X380512Y319516D01*
X380249Y319779D01*
X379525Y320079D01*
X378742D01*
X378019Y319779D01*
X377756Y319516D01*
X377493Y319779D01*
X376769Y320079D01*
X375986D01*
X375263Y319779D01*
X374709Y319225D01*
X374410Y318502D01*
Y317719D01*
X374709Y316995D01*
X375263Y316441D01*
X375986Y316142D01*
X376769D01*
X377493Y316441D01*
X377756Y316704D01*
X378019Y316441D01*
X378742Y316142D01*
X379525D01*
X380249Y316441D01*
X380512Y316704D01*
X380775Y316441D01*
X381498Y316142D01*
X382281D01*
X383005Y316441D01*
X383559Y316995D01*
X383858Y317719D01*
Y318502D01*
X383559Y319225D01*
X383005Y319779D01*
X382281Y320079D01*
D02*
G37*
G36*
X583562Y325984D02*
X582422D01*
X581320Y325689D01*
X580333Y325119D01*
X579527Y324313D01*
X578957Y323325D01*
X578661Y322224D01*
Y321083D01*
X578957Y319982D01*
X579527Y318994D01*
X580333Y318188D01*
X581320Y317618D01*
X582422Y317323D01*
X583562D01*
X584664Y317618D01*
X585651Y318188D01*
X586457Y318994D01*
X587028Y319982D01*
X587323Y321083D01*
Y322224D01*
X587028Y323325D01*
X586457Y324313D01*
X585651Y325119D01*
X584664Y325689D01*
X583562Y325984D01*
D02*
G37*
G36*
X543562D02*
X542422D01*
X541321Y325689D01*
X540333Y325119D01*
X539527Y324313D01*
X538957Y323325D01*
X538661Y322224D01*
Y321083D01*
X538957Y319982D01*
X539527Y318994D01*
X540333Y318188D01*
X541321Y317618D01*
X542422Y317323D01*
X543562D01*
X544664Y317618D01*
X545651Y318188D01*
X546457Y318994D01*
X547028Y319982D01*
X547323Y321083D01*
Y322224D01*
X547028Y323325D01*
X546457Y324313D01*
X545651Y325119D01*
X544664Y325689D01*
X543562Y325984D01*
D02*
G37*
G36*
X528444D02*
X527304D01*
X526202Y325689D01*
X525215Y325119D01*
X524409Y324313D01*
X523839Y323325D01*
X523543Y322224D01*
Y321083D01*
X523839Y319982D01*
X524409Y318994D01*
X525215Y318188D01*
X526202Y317618D01*
X527304Y317323D01*
X528444D01*
X529546Y317618D01*
X530533Y318188D01*
X531339Y318994D01*
X531910Y319982D01*
X532205Y321083D01*
Y322224D01*
X531910Y323325D01*
X531339Y324313D01*
X530533Y325119D01*
X529546Y325689D01*
X528444Y325984D01*
D02*
G37*
G36*
X488444D02*
X487304D01*
X486202Y325689D01*
X485215Y325119D01*
X484409Y324313D01*
X483839Y323325D01*
X483543Y322224D01*
Y321083D01*
X483839Y319982D01*
X484409Y318994D01*
X485215Y318188D01*
X486202Y317618D01*
X487304Y317323D01*
X488444D01*
X489546Y317618D01*
X490533Y318188D01*
X491339Y318994D01*
X491910Y319982D01*
X492205Y321083D01*
Y322224D01*
X491910Y323325D01*
X491339Y324313D01*
X490533Y325119D01*
X489546Y325689D01*
X488444Y325984D01*
D02*
G37*
G36*
X517192Y291189D02*
X516194D01*
X515231Y290931D01*
X514367Y290432D01*
X513662Y289727D01*
X513164Y288863D01*
X512906Y287900D01*
Y286903D01*
X513164Y285940D01*
X513662Y285076D01*
X514367Y284371D01*
X515231Y283872D01*
X516194Y283614D01*
X517192D01*
X518155Y283872D01*
X519018Y284371D01*
X519724Y285076D01*
X520222Y285940D01*
X520480Y286903D01*
Y287900D01*
X520222Y288863D01*
X519724Y289727D01*
X519018Y290432D01*
X518155Y290931D01*
X517192Y291189D01*
D02*
G37*
G36*
X507192D02*
X506194D01*
X505231Y290931D01*
X504367Y290432D01*
X503662Y289727D01*
X503164Y288863D01*
X502906Y287900D01*
Y286903D01*
X503164Y285940D01*
X503662Y285076D01*
X504367Y284371D01*
X505231Y283872D01*
X506194Y283614D01*
X507192D01*
X508155Y283872D01*
X509018Y284371D01*
X509724Y285076D01*
X510222Y285940D01*
X510480Y286903D01*
Y287900D01*
X510222Y288863D01*
X509724Y289727D01*
X509018Y290432D01*
X508155Y290931D01*
X507192Y291189D01*
D02*
G37*
G36*
X283462Y338583D02*
X282679D01*
X281956Y338283D01*
X281402Y337729D01*
X281102Y337006D01*
Y336223D01*
X281402Y335499D01*
X281956Y334945D01*
X282347Y334783D01*
X331006Y286124D01*
X331592Y285733D01*
X332283Y285595D01*
X493363D01*
X493662Y285076D01*
X494367Y284371D01*
X495231Y283872D01*
X496194Y283614D01*
X497191D01*
X498155Y283872D01*
X499018Y284371D01*
X499724Y285076D01*
X500222Y285940D01*
X500480Y286903D01*
Y287900D01*
X500222Y288863D01*
X499724Y289727D01*
X499018Y290432D01*
X498155Y290931D01*
X497191Y291189D01*
X496194D01*
X495231Y290931D01*
X494367Y290432D01*
X493662Y289727D01*
X493363Y289208D01*
X333032D01*
X284902Y337338D01*
X284740Y337729D01*
X284186Y338283D01*
X283462Y338583D01*
D02*
G37*
G36*
X41443Y287925D02*
X40360D01*
X39314Y287645D01*
X38375Y287103D01*
X37609Y286337D01*
X37068Y285399D01*
X36787Y284353D01*
Y283269D01*
X37068Y282223D01*
X37609Y281285D01*
X38375Y280519D01*
X39314Y279977D01*
X40360Y279697D01*
X41443D01*
X42490Y279977D01*
X43428Y280519D01*
X44194Y281285D01*
X44735Y282223D01*
X45016Y283269D01*
Y284353D01*
X44735Y285399D01*
X44194Y286337D01*
X43428Y287103D01*
X42490Y287645D01*
X41443Y287925D01*
D02*
G37*
G36*
X52624Y282490D02*
X51541D01*
X50495Y282210D01*
X49557Y281668D01*
X48791Y280902D01*
X48249Y279964D01*
X47969Y278918D01*
Y277834D01*
X48249Y276788D01*
X48791Y275850D01*
X49557Y275084D01*
X50495Y274542D01*
X51541Y274262D01*
X52624D01*
X53671Y274542D01*
X54609Y275084D01*
X55375Y275850D01*
X55917Y276788D01*
X56197Y277834D01*
Y278918D01*
X55917Y279964D01*
X55375Y280902D01*
X54609Y281668D01*
X53671Y282210D01*
X52624Y282490D01*
D02*
G37*
G36*
X416247Y278984D02*
X415249D01*
X414286Y278726D01*
X413422Y278227D01*
X412717Y277522D01*
X412219Y276659D01*
X411961Y275695D01*
Y274698D01*
X412219Y273735D01*
X412717Y272871D01*
X413422Y272166D01*
X414286Y271668D01*
X415249Y271410D01*
X416247D01*
X417210Y271668D01*
X418074Y272166D01*
X418779Y272871D01*
X419277Y273735D01*
X419535Y274698D01*
Y275695D01*
X419277Y276659D01*
X418779Y277522D01*
X418074Y278227D01*
X417210Y278726D01*
X416247Y278984D01*
D02*
G37*
G36*
X406247D02*
X405249D01*
X404286Y278726D01*
X403422Y278227D01*
X402717Y277522D01*
X402219Y276659D01*
X401961Y275695D01*
Y274698D01*
X402219Y273735D01*
X402717Y272871D01*
X403422Y272166D01*
X404286Y271668D01*
X405249Y271410D01*
X406247D01*
X407210Y271668D01*
X408074Y272166D01*
X408779Y272871D01*
X409277Y273735D01*
X409535Y274698D01*
Y275695D01*
X409277Y276659D01*
X408779Y277522D01*
X408074Y278227D01*
X407210Y278726D01*
X406247Y278984D01*
D02*
G37*
G36*
X396247D02*
X395249D01*
X394286Y278726D01*
X393423Y278227D01*
X392717Y277522D01*
X392219Y276659D01*
X391961Y275695D01*
Y274698D01*
X392219Y273735D01*
X392717Y272871D01*
X393423Y272166D01*
X394286Y271668D01*
X395249Y271410D01*
X396247D01*
X397210Y271668D01*
X398074Y272166D01*
X398779Y272871D01*
X399277Y273735D01*
X399535Y274698D01*
Y275695D01*
X399277Y276659D01*
X398779Y277522D01*
X398074Y278227D01*
X397210Y278726D01*
X396247Y278984D01*
D02*
G37*
G36*
X356404D02*
X355407D01*
X354444Y278726D01*
X353580Y278227D01*
X352875Y277522D01*
X352376Y276659D01*
X352118Y275695D01*
Y274698D01*
X352376Y273735D01*
X352875Y272871D01*
X353580Y272166D01*
X354444Y271668D01*
X355407Y271410D01*
X356404D01*
X357367Y271668D01*
X358231Y272166D01*
X358936Y272871D01*
X359435Y273735D01*
X359693Y274698D01*
Y275695D01*
X359435Y276659D01*
X358936Y277522D01*
X358231Y278227D01*
X357367Y278726D01*
X356404Y278984D01*
D02*
G37*
G36*
X346404D02*
X345407D01*
X344444Y278726D01*
X343580Y278227D01*
X342875Y277522D01*
X342376Y276659D01*
X342118Y275695D01*
Y274698D01*
X342376Y273735D01*
X342875Y272871D01*
X343580Y272166D01*
X344444Y271668D01*
X345407Y271410D01*
X346404D01*
X347367Y271668D01*
X348231Y272166D01*
X348936Y272871D01*
X349435Y273735D01*
X349693Y274698D01*
Y275695D01*
X349435Y276659D01*
X348936Y277522D01*
X348231Y278227D01*
X347367Y278726D01*
X346404Y278984D01*
D02*
G37*
G36*
X336404D02*
X335407D01*
X334444Y278726D01*
X333580Y278227D01*
X332875Y277522D01*
X332376Y276659D01*
X332118Y275695D01*
Y274698D01*
X332376Y273735D01*
X332875Y272871D01*
X333580Y272166D01*
X334444Y271668D01*
X335407Y271410D01*
X336404D01*
X337367Y271668D01*
X338231Y272166D01*
X338936Y272871D01*
X339435Y273735D01*
X339693Y274698D01*
Y275695D01*
X339435Y276659D01*
X338936Y277522D01*
X338231Y278227D01*
X337367Y278726D01*
X336404Y278984D01*
D02*
G37*
G36*
X41443Y277055D02*
X40360D01*
X39314Y276775D01*
X38375Y276233D01*
X37609Y275467D01*
X37068Y274529D01*
X36787Y273482D01*
Y272399D01*
X37068Y271353D01*
X37609Y270415D01*
X38375Y269649D01*
X39314Y269107D01*
X40360Y268827D01*
X41443D01*
X42490Y269107D01*
X43428Y269649D01*
X44194Y270415D01*
X44735Y271353D01*
X45016Y272399D01*
Y273482D01*
X44735Y274529D01*
X44194Y275467D01*
X43428Y276233D01*
X42490Y276775D01*
X41443Y277055D01*
D02*
G37*
G36*
X517192Y274260D02*
X516194D01*
X515231Y274002D01*
X514367Y273503D01*
X513662Y272798D01*
X513164Y271934D01*
X512906Y270971D01*
Y269974D01*
X513164Y269011D01*
X513662Y268147D01*
X514367Y267442D01*
X515231Y266943D01*
X516194Y266685D01*
X517192D01*
X518155Y266943D01*
X519018Y267442D01*
X519724Y268147D01*
X520222Y269011D01*
X520480Y269974D01*
Y270971D01*
X520222Y271934D01*
X519724Y272798D01*
X519018Y273503D01*
X518155Y274002D01*
X517192Y274260D01*
D02*
G37*
G36*
X507192D02*
X506194D01*
X505231Y274002D01*
X504367Y273503D01*
X503662Y272798D01*
X503164Y271934D01*
X502906Y270971D01*
Y269974D01*
X503164Y269011D01*
X503662Y268147D01*
X504367Y267442D01*
X505231Y266943D01*
X506194Y266685D01*
X507192D01*
X508155Y266943D01*
X509018Y267442D01*
X509724Y268147D01*
X510222Y269011D01*
X510480Y269974D01*
Y270971D01*
X510222Y271934D01*
X509724Y272798D01*
X509018Y273503D01*
X508155Y274002D01*
X507192Y274260D01*
D02*
G37*
G36*
X291336Y318898D02*
X290553D01*
X289830Y318598D01*
X289276Y318044D01*
X288976Y317321D01*
Y316538D01*
X289276Y315814D01*
X289830Y315260D01*
X290221Y315098D01*
X323526Y281794D01*
X324112Y281402D01*
X324803Y281264D01*
X443997D01*
X451055Y274207D01*
X451027Y274137D01*
X450811Y273744D01*
X450034Y273536D01*
X449285Y273103D01*
X448673Y272491D01*
X448240Y271741D01*
X448016Y270905D01*
Y270040D01*
X448240Y269203D01*
X448673Y268454D01*
X449285Y267842D01*
X450034Y267409D01*
X450870Y267185D01*
X451736D01*
X452572Y267409D01*
X453322Y267842D01*
X453934Y268454D01*
X454366Y269203D01*
X454575Y269980D01*
X454968Y270196D01*
X455037Y270225D01*
X456067Y269195D01*
X456653Y268804D01*
X457344Y268666D01*
X493363D01*
X493662Y268147D01*
X494367Y267442D01*
X495231Y266943D01*
X496194Y266685D01*
X497191D01*
X498155Y266943D01*
X499018Y267442D01*
X499724Y268147D01*
X500222Y269011D01*
X500480Y269974D01*
Y270971D01*
X500222Y271934D01*
X499724Y272798D01*
X499018Y273503D01*
X498155Y274002D01*
X497191Y274260D01*
X496194D01*
X495231Y274002D01*
X494367Y273503D01*
X493662Y272798D01*
X493363Y272279D01*
X458092D01*
X446023Y284348D01*
X445437Y284740D01*
X444746Y284877D01*
X325551D01*
X292776Y317653D01*
X292614Y318044D01*
X292060Y318598D01*
X291336Y318898D01*
D02*
G37*
G36*
X63805Y266185D02*
X62722D01*
X61676Y265905D01*
X60738Y265363D01*
X59972Y264597D01*
X59430Y263659D01*
X59150Y262613D01*
Y261529D01*
X59430Y260483D01*
X59972Y259545D01*
X60738Y258779D01*
X61676Y258237D01*
X62722Y257957D01*
X63805D01*
X64852Y258237D01*
X65790Y258779D01*
X66556Y259545D01*
X67098Y260483D01*
X67378Y261529D01*
Y262613D01*
X67098Y263659D01*
X66556Y264597D01*
X65790Y265363D01*
X64852Y265905D01*
X63805Y266185D01*
D02*
G37*
G36*
X41443D02*
X40360D01*
X39314Y265905D01*
X38375Y265363D01*
X37609Y264597D01*
X37068Y263659D01*
X36787Y262613D01*
Y261529D01*
X37068Y260483D01*
X37609Y259545D01*
X38375Y258779D01*
X39314Y258237D01*
X40360Y257957D01*
X41443D01*
X42490Y258237D01*
X43428Y258779D01*
X44194Y259545D01*
X44735Y260483D01*
X45016Y261529D01*
Y262613D01*
X44735Y263659D01*
X44194Y264597D01*
X43428Y265363D01*
X42490Y265905D01*
X41443Y266185D01*
D02*
G37*
G36*
X517192Y257331D02*
X516194D01*
X515231Y257073D01*
X514367Y256574D01*
X513662Y255869D01*
X513164Y255005D01*
X512906Y254042D01*
Y253045D01*
X513164Y252081D01*
X513662Y251218D01*
X514367Y250513D01*
X515231Y250014D01*
X516194Y249756D01*
X517192D01*
X518155Y250014D01*
X519018Y250513D01*
X519724Y251218D01*
X520222Y252081D01*
X520480Y253045D01*
Y254042D01*
X520222Y255005D01*
X519724Y255869D01*
X519018Y256574D01*
X518155Y257073D01*
X517192Y257331D01*
D02*
G37*
G36*
X507192D02*
X506194D01*
X505231Y257073D01*
X504367Y256574D01*
X503662Y255869D01*
X503164Y255005D01*
X502906Y254042D01*
Y253045D01*
X503164Y252081D01*
X503662Y251218D01*
X504367Y250513D01*
X505231Y250014D01*
X506194Y249756D01*
X507192D01*
X508155Y250014D01*
X509018Y250513D01*
X509724Y251218D01*
X510222Y252081D01*
X510480Y253045D01*
Y254042D01*
X510222Y255005D01*
X509724Y255869D01*
X509018Y256574D01*
X508155Y257073D01*
X507192Y257331D01*
D02*
G37*
G36*
X299604Y300000D02*
X298821D01*
X298097Y299700D01*
X297544Y299147D01*
X297244Y298423D01*
Y297640D01*
X297544Y296916D01*
X298097Y296363D01*
X298489Y296201D01*
X350297Y244392D01*
X350884Y244000D01*
X351575Y243863D01*
X477328D01*
X478020Y244000D01*
X478606Y244392D01*
X485951Y251737D01*
X493363D01*
X493662Y251218D01*
X494367Y250513D01*
X495231Y250014D01*
X496194Y249756D01*
X497191D01*
X498155Y250014D01*
X499018Y250513D01*
X499724Y251218D01*
X500222Y252081D01*
X500480Y253045D01*
Y254042D01*
X500222Y255005D01*
X499724Y255869D01*
X499018Y256574D01*
X498155Y257073D01*
X497191Y257331D01*
X496194D01*
X495231Y257073D01*
X494367Y256574D01*
X493662Y255869D01*
X493363Y255350D01*
X485203D01*
X484511Y255212D01*
X483925Y254821D01*
X476580Y247476D01*
X352323D01*
X301044Y298755D01*
X300881Y299147D01*
X300328Y299700D01*
X299604Y300000D01*
D02*
G37*
G36*
X63805Y255315D02*
X62722D01*
X61676Y255035D01*
X60738Y254493D01*
X59972Y253727D01*
X59430Y252789D01*
X59150Y251743D01*
Y250659D01*
X59430Y249613D01*
X59972Y248675D01*
X60738Y247909D01*
X61676Y247367D01*
X62722Y247087D01*
X63805D01*
X64852Y247367D01*
X65790Y247909D01*
X66556Y248675D01*
X67098Y249613D01*
X67378Y250659D01*
Y251743D01*
X67098Y252789D01*
X66556Y253727D01*
X65790Y254493D01*
X64852Y255035D01*
X63805Y255315D01*
D02*
G37*
G36*
X41443D02*
X40360D01*
X39314Y255035D01*
X38375Y254493D01*
X37609Y253727D01*
X37068Y252789D01*
X36787Y251743D01*
Y250659D01*
X37068Y249613D01*
X37609Y248675D01*
X38375Y247909D01*
X39314Y247367D01*
X40360Y247087D01*
X41443D01*
X42490Y247367D01*
X43428Y247909D01*
X44194Y248675D01*
X44735Y249613D01*
X45016Y250659D01*
Y251743D01*
X44735Y252789D01*
X44194Y253727D01*
X43428Y254493D01*
X42490Y255035D01*
X41443Y255315D01*
D02*
G37*
G36*
X63805Y244445D02*
X62722D01*
X61676Y244164D01*
X60738Y243623D01*
X59972Y242857D01*
X59430Y241919D01*
X59150Y240872D01*
Y239789D01*
X59430Y238743D01*
X59972Y237805D01*
X60738Y237038D01*
X61676Y236497D01*
X62722Y236216D01*
X63805D01*
X64852Y236497D01*
X65790Y237038D01*
X66556Y237805D01*
X67098Y238743D01*
X67378Y239789D01*
Y240872D01*
X67098Y241919D01*
X66556Y242857D01*
X65790Y243623D01*
X64852Y244164D01*
X63805Y244445D01*
D02*
G37*
G36*
X41443D02*
X40360D01*
X39314Y244164D01*
X38375Y243623D01*
X37609Y242857D01*
X37068Y241919D01*
X36787Y240872D01*
Y239789D01*
X37068Y238743D01*
X37609Y237805D01*
X38375Y237038D01*
X39314Y236497D01*
X40360Y236216D01*
X41443D01*
X42490Y236497D01*
X43428Y237038D01*
X44194Y237805D01*
X44735Y238743D01*
X45016Y239789D01*
Y240872D01*
X44735Y241919D01*
X44194Y242857D01*
X43428Y243623D01*
X42490Y244164D01*
X41443Y244445D01*
D02*
G37*
G36*
X63805Y233575D02*
X62722D01*
X61676Y233295D01*
X60738Y232753D01*
X59972Y231987D01*
X59430Y231049D01*
X59150Y230002D01*
Y228919D01*
X59430Y227873D01*
X59972Y226935D01*
X60738Y226168D01*
X61676Y225627D01*
X62722Y225346D01*
X63805D01*
X64852Y225627D01*
X65790Y226168D01*
X66556Y226935D01*
X67098Y227873D01*
X67378Y228919D01*
Y230002D01*
X67098Y231049D01*
X66556Y231987D01*
X65790Y232753D01*
X64852Y233295D01*
X63805Y233575D01*
D02*
G37*
G36*
X41443D02*
X40360D01*
X39314Y233295D01*
X38375Y232753D01*
X37609Y231987D01*
X37068Y231049D01*
X36787Y230002D01*
Y228919D01*
X37068Y227873D01*
X37609Y226935D01*
X38375Y226168D01*
X39314Y225627D01*
X40360Y225346D01*
X41443D01*
X42490Y225627D01*
X43428Y226168D01*
X44194Y226935D01*
X44735Y227873D01*
X45016Y228919D01*
Y230002D01*
X44735Y231049D01*
X44194Y231987D01*
X43428Y232753D01*
X42490Y233295D01*
X41443Y233575D01*
D02*
G37*
G36*
X63805Y222705D02*
X62722D01*
X61676Y222424D01*
X60738Y221883D01*
X59972Y221117D01*
X59430Y220179D01*
X59150Y219132D01*
Y218049D01*
X59430Y217002D01*
X59972Y216064D01*
X60738Y215298D01*
X61676Y214757D01*
X62722Y214476D01*
X63805D01*
X64852Y214757D01*
X65790Y215298D01*
X66556Y216064D01*
X67098Y217002D01*
X67378Y218049D01*
Y219132D01*
X67098Y220179D01*
X66556Y221117D01*
X65790Y221883D01*
X64852Y222424D01*
X63805Y222705D01*
D02*
G37*
G36*
X41443D02*
X40360D01*
X39314Y222424D01*
X38375Y221883D01*
X37609Y221117D01*
X37068Y220179D01*
X36787Y219132D01*
Y218049D01*
X37068Y217002D01*
X37609Y216064D01*
X38375Y215298D01*
X39314Y214757D01*
X40360Y214476D01*
X41443D01*
X42490Y214757D01*
X43428Y215298D01*
X44194Y216064D01*
X44735Y217002D01*
X45016Y218049D01*
Y219132D01*
X44735Y220179D01*
X44194Y221117D01*
X43428Y221883D01*
X42490Y222424D01*
X41443Y222705D01*
D02*
G37*
G36*
X63805Y211835D02*
X62722D01*
X61676Y211554D01*
X60738Y211013D01*
X59972Y210247D01*
X59430Y209309D01*
X59150Y208262D01*
Y207179D01*
X59430Y206132D01*
X59972Y205194D01*
X60738Y204428D01*
X61676Y203887D01*
X62722Y203606D01*
X63805D01*
X64852Y203887D01*
X65790Y204428D01*
X66556Y205194D01*
X67098Y206132D01*
X67378Y207179D01*
Y208262D01*
X67098Y209309D01*
X66556Y210247D01*
X65790Y211013D01*
X64852Y211554D01*
X63805Y211835D01*
D02*
G37*
G36*
X41443D02*
X40360D01*
X39314Y211554D01*
X38375Y211013D01*
X37609Y210247D01*
X37068Y209309D01*
X36787Y208262D01*
Y207179D01*
X37068Y206132D01*
X37609Y205194D01*
X38375Y204428D01*
X39314Y203887D01*
X40360Y203606D01*
X41443D01*
X42490Y203887D01*
X43428Y204428D01*
X44194Y205194D01*
X44735Y206132D01*
X45016Y207179D01*
Y208262D01*
X44735Y209309D01*
X44194Y210247D01*
X43428Y211013D01*
X42490Y211554D01*
X41443Y211835D01*
D02*
G37*
G36*
X63805Y200965D02*
X62722D01*
X61676Y200684D01*
X60738Y200143D01*
X59972Y199377D01*
X59430Y198439D01*
X59150Y197392D01*
Y196309D01*
X59430Y195262D01*
X59972Y194324D01*
X60738Y193558D01*
X61676Y193017D01*
X62722Y192736D01*
X63805D01*
X64852Y193017D01*
X65790Y193558D01*
X66556Y194324D01*
X67098Y195262D01*
X67378Y196309D01*
Y197392D01*
X67098Y198439D01*
X66556Y199377D01*
X65790Y200143D01*
X64852Y200684D01*
X63805Y200965D01*
D02*
G37*
G36*
X41443D02*
X40360D01*
X39314Y200684D01*
X38375Y200143D01*
X37609Y199377D01*
X37068Y198439D01*
X36787Y197392D01*
Y196309D01*
X37068Y195262D01*
X37609Y194324D01*
X38375Y193558D01*
X39314Y193017D01*
X40360Y192736D01*
X41443D01*
X42490Y193017D01*
X43428Y193558D01*
X44194Y194324D01*
X44735Y195262D01*
X45016Y196309D01*
Y197392D01*
X44735Y198439D01*
X44194Y199377D01*
X43428Y200143D01*
X42490Y200684D01*
X41443Y200965D01*
D02*
G37*
G36*
X63805Y190094D02*
X62722D01*
X61676Y189814D01*
X60738Y189272D01*
X59972Y188506D01*
X59430Y187568D01*
X59150Y186522D01*
Y185439D01*
X59430Y184392D01*
X59972Y183454D01*
X60738Y182688D01*
X61676Y182147D01*
X62722Y181866D01*
X63805D01*
X64852Y182147D01*
X65790Y182688D01*
X66556Y183454D01*
X67098Y184392D01*
X67378Y185439D01*
Y186522D01*
X67098Y187568D01*
X66556Y188506D01*
X65790Y189272D01*
X64852Y189814D01*
X63805Y190094D01*
D02*
G37*
G36*
X41443D02*
X40360D01*
X39314Y189814D01*
X38375Y189272D01*
X37609Y188506D01*
X37068Y187568D01*
X36787Y186522D01*
Y185439D01*
X37068Y184392D01*
X37609Y183454D01*
X38375Y182688D01*
X39314Y182147D01*
X40360Y181866D01*
X41443D01*
X42490Y182147D01*
X43428Y182688D01*
X44194Y183454D01*
X44735Y184392D01*
X45016Y185439D01*
Y186522D01*
X44735Y187568D01*
X44194Y188506D01*
X43428Y189272D01*
X42490Y189814D01*
X41443Y190094D01*
D02*
G37*
G36*
X462598Y182994D02*
X457366D01*
X456944Y182910D01*
X456586Y182670D01*
X455132Y181217D01*
X454805D01*
X454226Y180977D01*
X453783Y180534D01*
X453543Y179955D01*
Y179329D01*
X453612Y179163D01*
X453278Y178663D01*
X435153D01*
X434731Y178579D01*
X434373Y178340D01*
X433478Y177445D01*
X433151D01*
X432573Y177205D01*
X432129Y176762D01*
X431890Y176183D01*
Y175557D01*
X432129Y174978D01*
X432573Y174535D01*
X433151Y174295D01*
X433778D01*
X434357Y174535D01*
X434800Y174978D01*
X435039Y175557D01*
Y175884D01*
X435611Y176455D01*
X437331D01*
X437523Y175993D01*
X433183Y171653D01*
X433151D01*
X432573Y171414D01*
X432129Y170971D01*
X431890Y170392D01*
Y169765D01*
X432129Y169187D01*
X432573Y168744D01*
X433151Y168504D01*
X433778D01*
X434357Y168744D01*
X434800Y169187D01*
X435039Y169765D01*
Y169797D01*
X439914Y174672D01*
X453670D01*
X454004Y174172D01*
X453937Y174010D01*
Y173384D01*
X454177Y172805D01*
X454620Y172362D01*
X455199Y172122D01*
X455825D01*
X456404Y172362D01*
X456426Y172384D01*
X463854D01*
X464357Y172484D01*
X464782Y172769D01*
X467079Y175065D01*
X591657D01*
X592913Y173809D01*
Y173777D01*
X593153Y173198D01*
X593596Y172756D01*
X594175Y172516D01*
X594801D01*
X595380Y172756D01*
X595823Y173198D01*
X596063Y173777D01*
Y174404D01*
X595823Y174983D01*
X595380Y175426D01*
X594801Y175665D01*
X594770D01*
X593357Y177078D01*
X593219Y177472D01*
X593368Y177748D01*
X594475Y178854D01*
X594801D01*
X595380Y179094D01*
X595823Y179537D01*
X596063Y180116D01*
Y180742D01*
X595823Y181321D01*
X595380Y181764D01*
X594801Y182004D01*
X594175D01*
X593596Y181764D01*
X593153Y181321D01*
X592913Y180742D01*
Y180415D01*
X591948Y179450D01*
X466599D01*
X463379Y182670D01*
X463021Y182910D01*
X462598Y182994D01*
D02*
G37*
G36*
X63805Y179224D02*
X62722D01*
X61676Y178944D01*
X60738Y178402D01*
X59972Y177636D01*
X59430Y176698D01*
X59150Y175652D01*
Y174569D01*
X59430Y173522D01*
X59972Y172584D01*
X60738Y171818D01*
X61676Y171276D01*
X62722Y170996D01*
X63805D01*
X64852Y171276D01*
X65790Y171818D01*
X66556Y172584D01*
X67098Y173522D01*
X67378Y174569D01*
Y175652D01*
X67098Y176698D01*
X66556Y177636D01*
X65790Y178402D01*
X64852Y178944D01*
X63805Y179224D01*
D02*
G37*
G36*
X41443D02*
X40360D01*
X39314Y178944D01*
X38375Y178402D01*
X37609Y177636D01*
X37068Y176698D01*
X36787Y175652D01*
Y174569D01*
X37068Y173522D01*
X37609Y172584D01*
X38375Y171818D01*
X39314Y171276D01*
X40360Y170996D01*
X41443D01*
X42490Y171276D01*
X43428Y171818D01*
X44194Y172584D01*
X44735Y173522D01*
X45016Y174569D01*
Y175652D01*
X44735Y176698D01*
X44194Y177636D01*
X43428Y178402D01*
X42490Y178944D01*
X41443Y179224D01*
D02*
G37*
G36*
X63805Y168354D02*
X62722D01*
X61676Y168074D01*
X60738Y167532D01*
X59972Y166766D01*
X59430Y165828D01*
X59150Y164782D01*
Y163698D01*
X59430Y162652D01*
X59972Y161714D01*
X60738Y160948D01*
X61676Y160406D01*
X62722Y160126D01*
X63805D01*
X64852Y160406D01*
X65790Y160948D01*
X66556Y161714D01*
X67098Y162652D01*
X67378Y163698D01*
Y164782D01*
X67098Y165828D01*
X66556Y166766D01*
X65790Y167532D01*
X64852Y168074D01*
X63805Y168354D01*
D02*
G37*
G36*
X41443D02*
X40360D01*
X39314Y168074D01*
X38375Y167532D01*
X37609Y166766D01*
X37068Y165828D01*
X36787Y164782D01*
Y163698D01*
X37068Y162652D01*
X37609Y161714D01*
X38375Y160948D01*
X39314Y160406D01*
X40360Y160126D01*
X41443D01*
X42490Y160406D01*
X43428Y160948D01*
X44194Y161714D01*
X44735Y162652D01*
X45016Y163698D01*
Y164782D01*
X44735Y165828D01*
X44194Y166766D01*
X43428Y167532D01*
X42490Y168074D01*
X41443Y168354D01*
D02*
G37*
G36*
X52624Y162919D02*
X51541D01*
X50495Y162639D01*
X49557Y162097D01*
X48791Y161331D01*
X48249Y160393D01*
X47969Y159347D01*
Y158263D01*
X48249Y157217D01*
X48791Y156279D01*
X49557Y155513D01*
X50129Y155183D01*
X49995Y154683D01*
X44809D01*
X44735Y154958D01*
X44194Y155896D01*
X43428Y156662D01*
X42490Y157204D01*
X41443Y157484D01*
X40360D01*
X39314Y157204D01*
X38375Y156662D01*
X37609Y155896D01*
X37068Y154958D01*
X36787Y153912D01*
Y152828D01*
X37068Y151782D01*
X37609Y150844D01*
X38375Y150078D01*
X39314Y149536D01*
X40360Y149256D01*
X41443D01*
X42490Y149536D01*
X43428Y150078D01*
X44194Y150844D01*
X44735Y151782D01*
X44809Y152057D01*
X49995D01*
X50129Y151557D01*
X49557Y151227D01*
X48791Y150461D01*
X48249Y149523D01*
X47969Y148477D01*
Y147393D01*
X48249Y146347D01*
X48791Y145409D01*
X49557Y144643D01*
X50495Y144101D01*
X51541Y143821D01*
X52624D01*
X53671Y144101D01*
X53918Y144244D01*
X55774Y142387D01*
Y140157D01*
X55852Y139764D01*
X55378Y139586D01*
X55375Y139591D01*
X54609Y140357D01*
X53671Y140899D01*
X52624Y141179D01*
X51541D01*
X50495Y140899D01*
X49557Y140357D01*
X48791Y139591D01*
X48249Y138653D01*
X47969Y137607D01*
Y136523D01*
X48249Y135477D01*
X48791Y134539D01*
X49557Y133773D01*
X50360Y133309D01*
X50226Y132809D01*
X48575D01*
X43167Y138217D01*
Y139057D01*
X43428Y139208D01*
X44194Y139974D01*
X44735Y140912D01*
X45016Y141958D01*
Y143042D01*
X44735Y144088D01*
X44194Y145026D01*
X43428Y145792D01*
X42490Y146334D01*
X41443Y146614D01*
X40360D01*
X39314Y146334D01*
X38375Y145792D01*
X37609Y145026D01*
X37068Y144088D01*
X36787Y143042D01*
Y141958D01*
X37068Y140912D01*
X37609Y139974D01*
X38375Y139208D01*
X39314Y138666D01*
X40360Y138386D01*
X40542D01*
Y137673D01*
X40642Y137171D01*
X40926Y136745D01*
X41427Y136244D01*
X41220Y135744D01*
X40360D01*
X39314Y135464D01*
X38375Y134922D01*
X37609Y134156D01*
X37068Y133218D01*
X36787Y132171D01*
Y131088D01*
X37068Y130042D01*
X37609Y129104D01*
X38375Y128338D01*
X39314Y127796D01*
X40360Y127516D01*
X41443D01*
X42490Y127796D01*
X43428Y128338D01*
X44194Y129104D01*
X44735Y130042D01*
X45016Y131088D01*
Y131948D01*
X45516Y132156D01*
X47103Y130568D01*
X47529Y130283D01*
X48031Y130183D01*
X49763D01*
X49897Y129683D01*
X49557Y129487D01*
X48791Y128721D01*
X48249Y127783D01*
X47969Y126736D01*
Y125653D01*
X48249Y124607D01*
X48791Y123669D01*
X49557Y122903D01*
X50495Y122361D01*
X51541Y122081D01*
X52624D01*
X53671Y122361D01*
X54609Y122903D01*
X55375Y123669D01*
X55917Y124607D01*
X56197Y125653D01*
Y126736D01*
X56076Y127187D01*
X56524Y127446D01*
X58521Y125450D01*
X58947Y125165D01*
X59449Y125065D01*
X61346D01*
X61387Y125000D01*
X61224Y124333D01*
X60738Y124052D01*
X59972Y123286D01*
X59430Y122348D01*
X59150Y121301D01*
Y120218D01*
X59430Y119172D01*
X59972Y118234D01*
X60738Y117468D01*
X61676Y116926D01*
X62722Y116646D01*
X63805D01*
X64852Y116926D01*
X65790Y117468D01*
X66556Y118234D01*
X67098Y119172D01*
X67378Y120218D01*
Y121301D01*
X67098Y122348D01*
X66556Y123286D01*
X65790Y124052D01*
X65304Y124333D01*
X65140Y125000D01*
X65181Y125065D01*
X66779D01*
X85686Y106158D01*
X86112Y105874D01*
X86614Y105774D01*
X108371D01*
X108727Y105418D01*
X109451Y105118D01*
X110234D01*
X110958Y105418D01*
X111511Y105972D01*
X111811Y106695D01*
Y107478D01*
X111511Y108202D01*
X110958Y108755D01*
X110234Y109055D01*
X109451D01*
X108727Y108755D01*
X108371Y108399D01*
X87158D01*
X68251Y127306D01*
X67825Y127591D01*
X67323Y127691D01*
X65669D01*
X65535Y128191D01*
X65790Y128338D01*
X66556Y129104D01*
X67098Y130042D01*
X67378Y131088D01*
Y132171D01*
X67098Y133218D01*
X66556Y134156D01*
X65790Y134922D01*
X65317Y135195D01*
X65451Y135695D01*
X66385D01*
X85686Y116395D01*
X86112Y116110D01*
X86614Y116010D01*
X108765D01*
X109121Y115654D01*
X109845Y115354D01*
X110628D01*
X111351Y115654D01*
X111905Y116208D01*
X112205Y116931D01*
Y117714D01*
X111905Y118438D01*
X111351Y118992D01*
X110628Y119291D01*
X109845D01*
X109121Y118992D01*
X108765Y118635D01*
X87158D01*
X67857Y137936D01*
X67431Y138221D01*
X66929Y138321D01*
X65253D01*
X65119Y138821D01*
X65790Y139208D01*
X66556Y139974D01*
X67098Y140912D01*
X67378Y141958D01*
Y143042D01*
X67098Y144088D01*
X66556Y145026D01*
X65790Y145792D01*
X65703Y145842D01*
X65833Y146325D01*
X69535D01*
X94741Y121119D01*
X95167Y120835D01*
X95669Y120735D01*
X108765D01*
X109121Y120378D01*
X109845Y120079D01*
X110628D01*
X111351Y120378D01*
X111905Y120932D01*
X112205Y121656D01*
Y122439D01*
X111905Y123162D01*
X111351Y123716D01*
X110628Y124016D01*
X109845D01*
X109121Y123716D01*
X108765Y123360D01*
X96213D01*
X71007Y148566D01*
X70581Y148851D01*
X70079Y148950D01*
X64597D01*
X64531Y149450D01*
X64852Y149536D01*
X65790Y150078D01*
X66556Y150844D01*
X67098Y151782D01*
X67378Y152828D01*
Y153912D01*
X67098Y154958D01*
X66556Y155896D01*
X65790Y156662D01*
X64852Y157204D01*
X63805Y157484D01*
X62722D01*
X61676Y157204D01*
X60738Y156662D01*
X59972Y155896D01*
X59430Y154958D01*
X59150Y153912D01*
Y152828D01*
X59281Y152337D01*
X58833Y152079D01*
X56613Y154298D01*
X56187Y154583D01*
X55685Y154683D01*
X54171D01*
X54037Y155183D01*
X54609Y155513D01*
X55375Y156279D01*
X55917Y157217D01*
X56197Y158263D01*
Y159347D01*
X55917Y160393D01*
X55375Y161331D01*
X54609Y162097D01*
X53671Y162639D01*
X52624Y162919D01*
D02*
G37*
G36*
X41443Y124874D02*
X40360D01*
X39314Y124594D01*
X38375Y124052D01*
X37609Y123286D01*
X37068Y122348D01*
X36787Y121301D01*
Y120218D01*
X37068Y119172D01*
X37609Y118234D01*
X38375Y117468D01*
X39314Y116926D01*
X40360Y116646D01*
X41443D01*
X42490Y116926D01*
X43428Y117468D01*
X44194Y118234D01*
X44735Y119172D01*
X45016Y120218D01*
Y121301D01*
X44735Y122348D01*
X44194Y123286D01*
X43428Y124052D01*
X42490Y124594D01*
X41443Y124874D01*
D02*
G37*
G36*
X52624Y119439D02*
X51541D01*
X50495Y119159D01*
X49557Y118617D01*
X48791Y117851D01*
X48249Y116913D01*
X47969Y115866D01*
Y114783D01*
X48249Y113737D01*
X48791Y112799D01*
X49557Y112033D01*
X50495Y111491D01*
X51541Y111211D01*
X52624D01*
X53671Y111491D01*
X54609Y112033D01*
X55375Y112799D01*
X55917Y113737D01*
X56197Y114783D01*
Y115866D01*
X55917Y116913D01*
X55375Y117851D01*
X54609Y118617D01*
X53671Y119159D01*
X52624Y119439D01*
D02*
G37*
G36*
X41443Y114004D02*
X40360D01*
X39314Y113724D01*
X38375Y113182D01*
X37609Y112416D01*
X37068Y111478D01*
X36787Y110431D01*
Y109348D01*
X37068Y108302D01*
X37609Y107363D01*
X38375Y106597D01*
X39314Y106056D01*
X40360Y105775D01*
X41443D01*
X42490Y106056D01*
X43428Y106597D01*
X44194Y107363D01*
X44735Y108302D01*
X45016Y109348D01*
Y110431D01*
X44735Y111478D01*
X44194Y112416D01*
X43428Y113182D01*
X42490Y113724D01*
X41443Y114004D01*
D02*
G37*
G36*
X572507Y110756D02*
X571509D01*
X570546Y110498D01*
X569682Y109999D01*
X568977Y109294D01*
X568479Y108430D01*
X568221Y107467D01*
Y106470D01*
X568479Y105507D01*
X568977Y104643D01*
X569682Y103938D01*
X570546Y103439D01*
X571509Y103181D01*
X572507D01*
X573470Y103439D01*
X574333Y103938D01*
X575038Y104643D01*
X575537Y105507D01*
X575795Y106470D01*
Y107467D01*
X575537Y108430D01*
X575038Y109294D01*
X574333Y109999D01*
X573470Y110498D01*
X572507Y110756D01*
D02*
G37*
G36*
X562506D02*
X561509D01*
X560546Y110498D01*
X559682Y109999D01*
X558977Y109294D01*
X558479Y108430D01*
X558220Y107467D01*
Y106470D01*
X558479Y105507D01*
X558977Y104643D01*
X559682Y103938D01*
X560546Y103439D01*
X561509Y103181D01*
X562506D01*
X563470Y103439D01*
X564333Y103938D01*
X565038Y104643D01*
X565537Y105507D01*
X565795Y106470D01*
Y107467D01*
X565537Y108430D01*
X565038Y109294D01*
X564333Y109999D01*
X563470Y110498D01*
X562506Y110756D01*
D02*
G37*
G36*
X552506D02*
X551509D01*
X550546Y110498D01*
X549682Y109999D01*
X548977Y109294D01*
X548479Y108430D01*
X548220Y107467D01*
Y106470D01*
X548479Y105507D01*
X548977Y104643D01*
X549682Y103938D01*
X550546Y103439D01*
X551509Y103181D01*
X552506D01*
X553470Y103439D01*
X554333Y103938D01*
X555038Y104643D01*
X555537Y105507D01*
X555795Y106470D01*
Y107467D01*
X555537Y108430D01*
X555038Y109294D01*
X554333Y109999D01*
X553470Y110498D01*
X552506Y110756D01*
D02*
G37*
G36*
X542507D02*
X541509D01*
X540546Y110498D01*
X539682Y109999D01*
X538977Y109294D01*
X538479Y108430D01*
X538221Y107467D01*
Y106470D01*
X538479Y105507D01*
X538977Y104643D01*
X539682Y103938D01*
X540546Y103439D01*
X541509Y103181D01*
X542507D01*
X543470Y103439D01*
X544333Y103938D01*
X545039Y104643D01*
X545537Y105507D01*
X545795Y106470D01*
Y107467D01*
X545537Y108430D01*
X545039Y109294D01*
X544333Y109999D01*
X543470Y110498D01*
X542507Y110756D01*
D02*
G37*
G36*
X532507D02*
X531509D01*
X530546Y110498D01*
X529682Y109999D01*
X528977Y109294D01*
X528479Y108430D01*
X528221Y107467D01*
Y106470D01*
X528479Y105507D01*
X528977Y104643D01*
X529682Y103938D01*
X530546Y103439D01*
X531509Y103181D01*
X532507D01*
X533470Y103439D01*
X534333Y103938D01*
X535039Y104643D01*
X535537Y105507D01*
X535795Y106470D01*
Y107467D01*
X535537Y108430D01*
X535039Y109294D01*
X534333Y109999D01*
X533470Y110498D01*
X532507Y110756D01*
D02*
G37*
G36*
X522507D02*
X521509D01*
X520546Y110498D01*
X519682Y109999D01*
X518977Y109294D01*
X518479Y108430D01*
X518221Y107467D01*
Y106470D01*
X518479Y105507D01*
X518977Y104643D01*
X519682Y103938D01*
X520546Y103439D01*
X521509Y103181D01*
X522507D01*
X523470Y103439D01*
X524333Y103938D01*
X525038Y104643D01*
X525537Y105507D01*
X525795Y106470D01*
Y107467D01*
X525537Y108430D01*
X525038Y109294D01*
X524333Y109999D01*
X523470Y110498D01*
X522507Y110756D01*
D02*
G37*
G36*
X512506D02*
X511509D01*
X510546Y110498D01*
X509682Y109999D01*
X508977Y109294D01*
X508479Y108430D01*
X508220Y107467D01*
Y106470D01*
X508479Y105507D01*
X508977Y104643D01*
X509682Y103938D01*
X510546Y103439D01*
X511509Y103181D01*
X512506D01*
X513470Y103439D01*
X514333Y103938D01*
X515038Y104643D01*
X515537Y105507D01*
X515795Y106470D01*
Y107467D01*
X515537Y108430D01*
X515038Y109294D01*
X514333Y109999D01*
X513470Y110498D01*
X512506Y110756D01*
D02*
G37*
G36*
X502506D02*
X501509D01*
X500546Y110498D01*
X499682Y109999D01*
X498977Y109294D01*
X498479Y108430D01*
X498220Y107467D01*
Y106470D01*
X498479Y105507D01*
X498977Y104643D01*
X499682Y103938D01*
X500546Y103439D01*
X501509Y103181D01*
X502506D01*
X503470Y103439D01*
X504333Y103938D01*
X505038Y104643D01*
X505537Y105507D01*
X505795Y106470D01*
Y107467D01*
X505537Y108430D01*
X505038Y109294D01*
X504333Y109999D01*
X503470Y110498D01*
X502506Y110756D01*
D02*
G37*
G36*
X370971Y101425D02*
X369974D01*
X369011Y101167D01*
X368147Y100669D01*
X367442Y99963D01*
X366943Y99100D01*
X366685Y98136D01*
Y97139D01*
X366943Y96176D01*
X367442Y95312D01*
X368147Y94607D01*
X369011Y94108D01*
X369974Y93850D01*
X370971D01*
X371934Y94108D01*
X372798Y94607D01*
X373503Y95312D01*
X374002Y96176D01*
X374260Y97139D01*
Y98136D01*
X374002Y99100D01*
X373503Y99963D01*
X372798Y100669D01*
X371934Y101167D01*
X370971Y101425D01*
D02*
G37*
G36*
X360971D02*
X359974D01*
X359011Y101167D01*
X358147Y100669D01*
X357442Y99963D01*
X356943Y99100D01*
X356685Y98136D01*
Y97139D01*
X356943Y96176D01*
X357442Y95312D01*
X358147Y94607D01*
X359011Y94108D01*
X359974Y93850D01*
X360971D01*
X361934Y94108D01*
X362798Y94607D01*
X363503Y95312D01*
X364002Y96176D01*
X364260Y97139D01*
Y98136D01*
X364002Y99100D01*
X363503Y99963D01*
X362798Y100669D01*
X361934Y101167D01*
X360971Y101425D01*
D02*
G37*
G36*
X572507Y100756D02*
X571509D01*
X570546Y100498D01*
X569682Y99999D01*
X568977Y99294D01*
X568479Y98430D01*
X568221Y97467D01*
Y96470D01*
X568479Y95507D01*
X568977Y94643D01*
X569682Y93938D01*
X570546Y93439D01*
X571509Y93181D01*
X572507D01*
X573470Y93439D01*
X574333Y93938D01*
X575038Y94643D01*
X575537Y95507D01*
X575795Y96470D01*
Y97467D01*
X575537Y98430D01*
X575038Y99294D01*
X574333Y99999D01*
X573470Y100498D01*
X572507Y100756D01*
D02*
G37*
G36*
X562506D02*
X561509D01*
X560546Y100498D01*
X559682Y99999D01*
X558977Y99294D01*
X558479Y98430D01*
X558220Y97467D01*
Y96470D01*
X558479Y95507D01*
X558977Y94643D01*
X559682Y93938D01*
X560546Y93439D01*
X561509Y93181D01*
X562506D01*
X563470Y93439D01*
X564333Y93938D01*
X565038Y94643D01*
X565537Y95507D01*
X565795Y96470D01*
Y97467D01*
X565537Y98430D01*
X565038Y99294D01*
X564333Y99999D01*
X563470Y100498D01*
X562506Y100756D01*
D02*
G37*
G36*
X552506D02*
X551509D01*
X550546Y100498D01*
X549682Y99999D01*
X548977Y99294D01*
X548479Y98430D01*
X548220Y97467D01*
Y96470D01*
X548479Y95507D01*
X548977Y94643D01*
X549682Y93938D01*
X550546Y93439D01*
X551509Y93181D01*
X552506D01*
X553470Y93439D01*
X554333Y93938D01*
X555038Y94643D01*
X555537Y95507D01*
X555795Y96470D01*
Y97467D01*
X555537Y98430D01*
X555038Y99294D01*
X554333Y99999D01*
X553470Y100498D01*
X552506Y100756D01*
D02*
G37*
G36*
X532507D02*
X531509D01*
X530546Y100498D01*
X529682Y99999D01*
X528977Y99294D01*
X528479Y98430D01*
X528221Y97467D01*
Y96470D01*
X528479Y95507D01*
X528977Y94643D01*
X529682Y93938D01*
X530546Y93439D01*
X531509Y93181D01*
X532507D01*
X533470Y93439D01*
X534333Y93938D01*
X535039Y94643D01*
X535537Y95507D01*
X535795Y96470D01*
Y97467D01*
X535537Y98430D01*
X535039Y99294D01*
X534333Y99999D01*
X533470Y100498D01*
X532507Y100756D01*
D02*
G37*
G36*
X512506D02*
X511509D01*
X510546Y100498D01*
X509682Y99999D01*
X508977Y99294D01*
X508479Y98430D01*
X508220Y97467D01*
Y96470D01*
X508479Y95507D01*
X508977Y94643D01*
X509682Y93938D01*
X510546Y93439D01*
X511509Y93181D01*
X512506D01*
X513470Y93439D01*
X514333Y93938D01*
X515038Y94643D01*
X515537Y95507D01*
X515795Y96470D01*
Y97467D01*
X515537Y98430D01*
X515038Y99294D01*
X514333Y99999D01*
X513470Y100498D01*
X512506Y100756D01*
D02*
G37*
G36*
X505795D02*
X498220D01*
Y93181D01*
X505795D01*
Y100756D01*
D02*
G37*
G36*
X380971Y83709D02*
X379974D01*
X379011Y83451D01*
X378147Y82952D01*
X377442Y82247D01*
X376943Y81383D01*
X376685Y80420D01*
Y79423D01*
X376943Y78459D01*
X377442Y77596D01*
X378147Y76891D01*
X379011Y76392D01*
X379974Y76134D01*
X380971D01*
X381934Y76392D01*
X382798Y76891D01*
X383503Y77596D01*
X384002Y78459D01*
X384260Y79423D01*
Y80420D01*
X384002Y81383D01*
X383503Y82247D01*
X382798Y82952D01*
X381934Y83451D01*
X380971Y83709D01*
D02*
G37*
G36*
X370971D02*
X369974D01*
X369011Y83451D01*
X368147Y82952D01*
X367442Y82247D01*
X366943Y81383D01*
X366685Y80420D01*
Y79423D01*
X366943Y78459D01*
X367442Y77596D01*
X368147Y76891D01*
X369011Y76392D01*
X369974Y76134D01*
X370971D01*
X371934Y76392D01*
X372798Y76891D01*
X373503Y77596D01*
X374002Y78459D01*
X374260Y79423D01*
Y80420D01*
X374002Y81383D01*
X373503Y82247D01*
X372798Y82952D01*
X371934Y83451D01*
X370971Y83709D01*
D02*
G37*
G36*
X360971D02*
X359974D01*
X359011Y83451D01*
X358147Y82952D01*
X357442Y82247D01*
X356943Y81383D01*
X356685Y80420D01*
Y79423D01*
X356943Y78459D01*
X357442Y77596D01*
X358147Y76891D01*
X359011Y76392D01*
X359974Y76134D01*
X360971D01*
X361934Y76392D01*
X362798Y76891D01*
X363503Y77596D01*
X364002Y78459D01*
X364260Y79423D01*
Y80420D01*
X364002Y81383D01*
X363503Y82247D01*
X362798Y82952D01*
X361934Y83451D01*
X360971Y83709D01*
D02*
G37*
G36*
X67378Y114004D02*
X59150D01*
Y105775D01*
X64778D01*
Y90486D01*
X64829Y90228D01*
Y74700D01*
X64473Y74343D01*
X64173Y73620D01*
Y72837D01*
X64473Y72113D01*
X65027Y71560D01*
X65750Y71260D01*
X66533D01*
X67257Y71560D01*
X67811Y72113D01*
X68110Y72837D01*
Y73620D01*
X67811Y74343D01*
X67454Y74700D01*
Y90435D01*
X67403Y90692D01*
Y107063D01*
X67378Y107190D01*
Y114004D01*
D02*
G37*
G36*
X522507Y100756D02*
X521509D01*
X520546Y100498D01*
X519682Y99999D01*
X518977Y99294D01*
X518479Y98430D01*
X518221Y97467D01*
Y96470D01*
X518479Y95507D01*
X518977Y94643D01*
X519682Y93938D01*
X520546Y93439D01*
X521509Y93181D01*
X522507D01*
X522569Y93198D01*
X523097Y92670D01*
Y59269D01*
X522597Y59203D01*
X522477Y59649D01*
X522012Y60456D01*
X521353Y61114D01*
X520546Y61580D01*
X519647Y61821D01*
X518715D01*
X517816Y61580D01*
X517009Y61114D01*
X516351Y60456D01*
X515885Y59649D01*
X515644Y58749D01*
Y57818D01*
X515885Y56918D01*
X516351Y56112D01*
X517009Y55453D01*
X517816Y54987D01*
X518715Y54746D01*
X519647D01*
X520546Y54987D01*
X521353Y55453D01*
X522012Y56112D01*
X522477Y56918D01*
X522597Y57364D01*
X523097Y57298D01*
Y50544D01*
X516395Y43841D01*
X516110Y43416D01*
X516010Y42913D01*
Y35433D01*
X516110Y34931D01*
X516395Y34505D01*
X524269Y26631D01*
X524694Y26346D01*
X525197Y26246D01*
X530457D01*
X530959Y26346D01*
X531385Y26631D01*
X533768Y29014D01*
X533816Y28987D01*
X534715Y28746D01*
X535647D01*
X536547Y28987D01*
X537353Y29453D01*
X538012Y30112D01*
X538477Y30918D01*
X538719Y31818D01*
Y32749D01*
X538477Y33649D01*
X538012Y34455D01*
X537353Y35114D01*
X536547Y35580D01*
X535647Y35821D01*
X534715D01*
X533816Y35580D01*
X533009Y35114D01*
X532350Y34455D01*
X531885Y33649D01*
X531644Y32749D01*
Y31818D01*
X531885Y30918D01*
X531912Y30871D01*
X529913Y28872D01*
X529347D01*
X529213Y29372D01*
X529353Y29453D01*
X530012Y30112D01*
X530477Y30918D01*
X530719Y31818D01*
Y32749D01*
X530477Y33649D01*
X530012Y34455D01*
X529353Y35114D01*
X528546Y35580D01*
X527647Y35821D01*
X526715D01*
X525816Y35580D01*
X525009Y35114D01*
X524351Y34455D01*
X523885Y33649D01*
X523644Y32749D01*
Y31818D01*
X523696Y31624D01*
X523247Y31365D01*
X518636Y35977D01*
Y42370D01*
X525338Y49072D01*
X525622Y49498D01*
X525722Y50000D01*
Y93214D01*
X525622Y93716D01*
X525338Y94142D01*
X524938Y94542D01*
X525038Y94643D01*
X525537Y95507D01*
X525795Y96470D01*
Y97467D01*
X525537Y98430D01*
X525038Y99294D01*
X524333Y99999D01*
X523470Y100498D01*
X522507Y100756D01*
D02*
G37*
G36*
X564647Y61821D02*
X563715D01*
X562816Y61580D01*
X562009Y61114D01*
X561350Y60456D01*
X560885Y59649D01*
X560644Y58749D01*
Y57818D01*
X560885Y56918D01*
X561350Y56112D01*
X562009Y55453D01*
X562816Y54987D01*
X563715Y54746D01*
X564647D01*
X565547Y54987D01*
X566353Y55453D01*
X567012Y56112D01*
X567477Y56918D01*
X567719Y57818D01*
Y58749D01*
X567477Y59649D01*
X567012Y60456D01*
X566353Y61114D01*
X565547Y61580D01*
X564647Y61821D01*
D02*
G37*
G36*
X555647D02*
X554715D01*
X553816Y61580D01*
X553009Y61114D01*
X552351Y60456D01*
X551885Y59649D01*
X551644Y58749D01*
Y57818D01*
X551885Y56918D01*
X552351Y56112D01*
X553009Y55453D01*
X553816Y54987D01*
X554715Y54746D01*
X555647D01*
X556546Y54987D01*
X557353Y55453D01*
X558012Y56112D01*
X558477Y56918D01*
X558718Y57818D01*
Y58749D01*
X558477Y59649D01*
X558012Y60456D01*
X557353Y61114D01*
X556546Y61580D01*
X555647Y61821D01*
D02*
G37*
G36*
X510647D02*
X509715D01*
X508816Y61580D01*
X508009Y61114D01*
X507350Y60456D01*
X506885Y59649D01*
X506644Y58749D01*
Y57818D01*
X506885Y56918D01*
X507350Y56112D01*
X508009Y55453D01*
X508816Y54987D01*
X509715Y54746D01*
X510647D01*
X511547Y54987D01*
X512353Y55453D01*
X513012Y56112D01*
X513477Y56918D01*
X513719Y57818D01*
Y58749D01*
X513477Y59649D01*
X513012Y60456D01*
X512353Y61114D01*
X511547Y61580D01*
X510647Y61821D01*
D02*
G37*
G36*
X374262Y62630D02*
X372588D01*
X370947Y62303D01*
X369401Y61663D01*
X368009Y60733D01*
X366826Y59550D01*
X365896Y58158D01*
X365256Y56612D01*
X364929Y54971D01*
Y53297D01*
X365256Y51656D01*
X365896Y50109D01*
X366826Y48718D01*
X368009Y47534D01*
X369401Y46605D01*
X370947Y45964D01*
X372588Y45638D01*
X374262D01*
X375903Y45964D01*
X377450Y46605D01*
X378841Y47534D01*
X380025Y48718D01*
X380954Y50109D01*
X381595Y51656D01*
X381921Y53297D01*
Y54971D01*
X381595Y56612D01*
X380954Y58158D01*
X380025Y59550D01*
X378841Y60733D01*
X377450Y61663D01*
X375903Y62303D01*
X374262Y62630D01*
D02*
G37*
G36*
X336073D02*
X334399D01*
X332758Y62303D01*
X331212Y61663D01*
X329820Y60733D01*
X328637Y59550D01*
X327707Y58158D01*
X327067Y56612D01*
X326740Y54971D01*
Y53297D01*
X327067Y51656D01*
X327707Y50109D01*
X328637Y48718D01*
X329820Y47534D01*
X331212Y46605D01*
X332758Y45964D01*
X334399Y45638D01*
X336073D01*
X337714Y45964D01*
X339261Y46605D01*
X340652Y47534D01*
X341835Y48718D01*
X342765Y50109D01*
X343406Y51656D01*
X343732Y53297D01*
Y54971D01*
X343406Y56612D01*
X342765Y58158D01*
X341835Y59550D01*
X340652Y60733D01*
X339261Y61663D01*
X337714Y62303D01*
X336073Y62630D01*
D02*
G37*
G36*
X547647Y42821D02*
X546715D01*
X545816Y42580D01*
X545009Y42114D01*
X544350Y41456D01*
X543885Y40649D01*
X543644Y39749D01*
Y38818D01*
X543885Y37918D01*
X544350Y37111D01*
X545009Y36453D01*
X545816Y35987D01*
X546715Y35746D01*
X547647D01*
X548547Y35987D01*
X549353Y36453D01*
X550012Y37111D01*
X550477Y37918D01*
X550718Y38818D01*
Y39749D01*
X550477Y40649D01*
X550012Y41456D01*
X549353Y42114D01*
X548547Y42580D01*
X547647Y42821D01*
D02*
G37*
G36*
X539647D02*
X538715D01*
X537816Y42580D01*
X537009Y42114D01*
X536350Y41456D01*
X535885Y40649D01*
X535644Y39749D01*
Y38818D01*
X535885Y37918D01*
X536350Y37111D01*
X537009Y36453D01*
X537816Y35987D01*
X538715Y35746D01*
X539647D01*
X540547Y35987D01*
X541353Y36453D01*
X542012Y37111D01*
X542477Y37918D01*
X542719Y38818D01*
Y39749D01*
X542477Y40649D01*
X542012Y41456D01*
X541353Y42114D01*
X540547Y42580D01*
X539647Y42821D01*
D02*
G37*
G36*
X531647D02*
X530715D01*
X529816Y42580D01*
X529009Y42114D01*
X528350Y41456D01*
X527885Y40649D01*
X527644Y39749D01*
Y38818D01*
X527885Y37918D01*
X528350Y37111D01*
X529009Y36453D01*
X529816Y35987D01*
X530715Y35746D01*
X531647D01*
X532547Y35987D01*
X533353Y36453D01*
X534012Y37111D01*
X534477Y37918D01*
X534719Y38818D01*
Y39749D01*
X534477Y40649D01*
X534012Y41456D01*
X533353Y42114D01*
X532547Y42580D01*
X531647Y42821D01*
D02*
G37*
G36*
X523647D02*
X522715D01*
X521816Y42580D01*
X521009Y42114D01*
X520351Y41456D01*
X519885Y40649D01*
X519644Y39749D01*
Y38818D01*
X519885Y37918D01*
X520351Y37111D01*
X521009Y36453D01*
X521816Y35987D01*
X522715Y35746D01*
X523647D01*
X524546Y35987D01*
X525353Y36453D01*
X526012Y37111D01*
X526477Y37918D01*
X526719Y38818D01*
Y39749D01*
X526477Y40649D01*
X526012Y41456D01*
X525353Y42114D01*
X524546Y42580D01*
X523647Y42821D01*
D02*
G37*
G36*
X542507Y100756D02*
X541509D01*
X540546Y100498D01*
X539682Y99999D01*
X538977Y99294D01*
X538479Y98430D01*
X538221Y97467D01*
Y96470D01*
X538479Y95507D01*
X538977Y94643D01*
X539682Y93938D01*
X540546Y93439D01*
X540695Y93399D01*
Y52874D01*
X540795Y52372D01*
X541080Y51946D01*
X554987Y38039D01*
Y33680D01*
X554487Y33615D01*
X554477Y33649D01*
X554012Y34455D01*
X553353Y35114D01*
X552547Y35580D01*
X551647Y35821D01*
X550715D01*
X549816Y35580D01*
X549009Y35114D01*
X548350Y34455D01*
X547885Y33649D01*
X547644Y32749D01*
Y31818D01*
X547885Y30918D01*
X548350Y30112D01*
X549009Y29453D01*
X549150Y29372D01*
X549016Y28872D01*
X548449D01*
X546450Y30871D01*
X546477Y30918D01*
X546719Y31818D01*
Y32749D01*
X546477Y33649D01*
X546012Y34455D01*
X545353Y35114D01*
X544547Y35580D01*
X543647Y35821D01*
X542715D01*
X541816Y35580D01*
X541009Y35114D01*
X540350Y34455D01*
X539885Y33649D01*
X539644Y32749D01*
Y31818D01*
X539885Y30918D01*
X540350Y30112D01*
X541009Y29453D01*
X541816Y28987D01*
X542715Y28746D01*
X543647D01*
X544547Y28987D01*
X544594Y29014D01*
X546977Y26631D01*
X547403Y26346D01*
X547905Y26246D01*
X553543D01*
X554046Y26346D01*
X554471Y26631D01*
X557227Y29387D01*
X557512Y29813D01*
X557612Y30315D01*
Y38583D01*
X557512Y39085D01*
X557227Y39511D01*
X543321Y53418D01*
Y93399D01*
X543470Y93439D01*
X544333Y93938D01*
X545039Y94643D01*
X545537Y95507D01*
X545795Y96470D01*
Y97467D01*
X545537Y98430D01*
X545039Y99294D01*
X544333Y99999D01*
X543470Y100498D01*
X542507Y100756D01*
D02*
G37*
G36*
X569838Y40771D02*
X568525D01*
X567256Y40431D01*
X566119Y39774D01*
X565190Y38846D01*
X564534Y37709D01*
X564194Y36440D01*
Y35127D01*
X564534Y33858D01*
X565190Y32721D01*
X566119Y31793D01*
X567256Y31136D01*
X568525Y30796D01*
X569838D01*
X571106Y31136D01*
X572243Y31793D01*
X573172Y32721D01*
X573829Y33858D01*
X574168Y35127D01*
Y36440D01*
X573829Y37709D01*
X573172Y38846D01*
X572243Y39774D01*
X571106Y40431D01*
X569838Y40771D01*
D02*
G37*
G36*
X505838D02*
X504525D01*
X503256Y40431D01*
X502119Y39774D01*
X501190Y38846D01*
X500534Y37709D01*
X500194Y36440D01*
Y35127D01*
X500534Y33858D01*
X501190Y32721D01*
X502119Y31793D01*
X503256Y31136D01*
X504525Y30796D01*
X505838D01*
X507106Y31136D01*
X508243Y31793D01*
X509172Y32721D01*
X509829Y33858D01*
X510169Y35127D01*
Y36440D01*
X509829Y37709D01*
X509172Y38846D01*
X508243Y39774D01*
X507106Y40431D01*
X505838Y40771D01*
D02*
G37*
G36*
X354940Y39665D02*
X353722D01*
X352545Y39350D01*
X351490Y38741D01*
X350629Y37880D01*
X350020Y36825D01*
X349705Y35648D01*
Y34430D01*
X350020Y33254D01*
X350629Y32199D01*
X351490Y31338D01*
X352545Y30729D01*
X353722Y30413D01*
X354940D01*
X356116Y30729D01*
X357171Y31338D01*
X358032Y32199D01*
X358641Y33254D01*
X358957Y34430D01*
Y35648D01*
X358641Y36825D01*
X358032Y37880D01*
X357171Y38741D01*
X356116Y39350D01*
X354940Y39665D01*
D02*
G37*
G36*
X413852Y32579D02*
X412841D01*
X411865Y32317D01*
X410990Y31812D01*
X410275Y31097D01*
X409769Y30222D01*
X409508Y29245D01*
Y28235D01*
X409769Y27259D01*
X410275Y26383D01*
X410990Y25668D01*
X411865Y25163D01*
X412841Y24902D01*
X413852D01*
X414828Y25163D01*
X415703Y25668D01*
X416418Y26383D01*
X416923Y27259D01*
X417185Y28235D01*
Y29245D01*
X416923Y30222D01*
X416418Y31097D01*
X415703Y31812D01*
X414828Y32317D01*
X413852Y32579D01*
D02*
G37*
G36*
X562889Y29471D02*
X561473D01*
X560085Y29195D01*
X558777Y28653D01*
X557599Y27866D01*
X556598Y26865D01*
X555812Y25688D01*
X555270Y24380D01*
X554994Y22991D01*
Y21576D01*
X555270Y20187D01*
X555812Y18879D01*
X556598Y17702D01*
X557599Y16701D01*
X558777Y15914D01*
X560085Y15372D01*
X561473Y15096D01*
X562889D01*
X564278Y15372D01*
X565586Y15914D01*
X566763Y16701D01*
X567764Y17702D01*
X568550Y18879D01*
X569092Y20187D01*
X569369Y21576D01*
Y22991D01*
X569092Y24380D01*
X568550Y25688D01*
X567764Y26865D01*
X566763Y27866D01*
X565586Y28653D01*
X564278Y29195D01*
X562889Y29471D01*
D02*
G37*
G36*
X512889D02*
X511473D01*
X510085Y29195D01*
X508777Y28653D01*
X507599Y27866D01*
X506598Y26865D01*
X505812Y25688D01*
X505270Y24380D01*
X504994Y22991D01*
Y21576D01*
X505270Y20187D01*
X505812Y18879D01*
X506598Y17702D01*
X507599Y16701D01*
X508777Y15914D01*
X510085Y15372D01*
X511473Y15096D01*
X512889D01*
X514278Y15372D01*
X515586Y15914D01*
X516763Y16701D01*
X517764Y17702D01*
X518550Y18879D01*
X519092Y20187D01*
X519369Y21576D01*
Y22991D01*
X519092Y24380D01*
X518550Y25688D01*
X517764Y26865D01*
X516763Y27866D01*
X515586Y28653D01*
X514278Y29195D01*
X512889Y29471D01*
D02*
G37*
G36*
X417185Y22579D02*
X409508D01*
Y14902D01*
X417185D01*
Y22579D01*
D02*
G37*
G36*
X374262Y24441D02*
X372588D01*
X370947Y24114D01*
X369401Y23474D01*
X368009Y22544D01*
X366826Y21361D01*
X365896Y19969D01*
X365256Y18423D01*
X364929Y16782D01*
Y15108D01*
X365256Y13467D01*
X365896Y11920D01*
X366826Y10529D01*
X368009Y9346D01*
X369401Y8416D01*
X370947Y7775D01*
X372588Y7449D01*
X374262D01*
X375903Y7775D01*
X377450Y8416D01*
X378841Y9346D01*
X380025Y10529D01*
X380954Y11920D01*
X381595Y13467D01*
X381921Y15108D01*
Y16782D01*
X381595Y18423D01*
X380954Y19969D01*
X380025Y21361D01*
X378841Y22544D01*
X377450Y23474D01*
X375903Y24114D01*
X374262Y24441D01*
D02*
G37*
G36*
X336073D02*
X334399D01*
X332758Y24114D01*
X331212Y23474D01*
X329820Y22544D01*
X328637Y21361D01*
X327707Y19969D01*
X327067Y18423D01*
X326740Y16782D01*
Y15108D01*
X327067Y13467D01*
X327707Y11920D01*
X328637Y10529D01*
X329820Y9346D01*
X331212Y8416D01*
X332758Y7775D01*
X334399Y7449D01*
X336073D01*
X337714Y7775D01*
X339261Y8416D01*
X340652Y9346D01*
X341835Y10529D01*
X342765Y11920D01*
X343406Y13467D01*
X343732Y15108D01*
Y16782D01*
X343406Y18423D01*
X342765Y19969D01*
X341835Y21361D01*
X340652Y22544D01*
X339261Y23474D01*
X337714Y24114D01*
X336073Y24441D01*
D02*
G37*
%LPD*%
D13*
X612598Y245668D02*
X622835D01*
X612598Y251968D02*
X622835D01*
X612795Y258267D02*
X622835D01*
X299213Y298031D02*
X351575Y245669D01*
X299213Y298031D02*
Y298031D01*
X290945Y316929D02*
X324803Y283071D01*
X290945Y316929D02*
X290945D01*
X283071Y336614D02*
X332283Y287402D01*
X496693D01*
X324803Y283071D02*
X444746D01*
X457344Y270472D01*
X496693D01*
X351575Y245669D02*
X477328D01*
X485203Y253543D01*
X496693D01*
D17*
X613779Y170078D02*
X622835D01*
X592406Y178347D02*
X594488Y180429D01*
X466142Y178347D02*
X592406D01*
X598430D02*
X599611Y179527D01*
X598425Y178347D02*
X598430D01*
X599611Y179527D02*
X622835D01*
X462598Y181890D02*
X466142Y178347D01*
X455118Y179642D02*
X457366Y181890D01*
X462598D01*
X435153Y177559D02*
X457087D01*
X433465Y175870D02*
X435153Y177559D01*
X457087D02*
X459055Y179528D01*
X459055D01*
D18*
X57087Y140157D02*
Y142931D01*
X52083Y147935D02*
X57087Y142931D01*
Y140157D02*
X60236Y137008D01*
X66929D01*
X86614Y117323D01*
X110236D01*
X40901Y142500D02*
X41854Y141547D01*
Y137673D02*
Y141547D01*
Y137673D02*
X48031Y131496D01*
X54331D02*
X59449Y126378D01*
X48031Y131496D02*
X54331D01*
X59449Y126378D02*
X67323D01*
X86614Y107087D01*
X109843D01*
X55685Y153370D02*
X61417Y147638D01*
X40901Y153370D02*
X55685D01*
X61417Y147638D02*
X70079D01*
X95669Y122047D01*
X110236D01*
X66091Y90486D02*
Y107063D01*
X66142Y73228D02*
Y90435D01*
X63264Y109890D02*
X66091Y107063D01*
Y90486D02*
X66142Y90435D01*
X524409Y50000D02*
Y93214D01*
X517323Y42913D02*
X524409Y50000D01*
X517323Y35433D02*
Y42913D01*
X556299Y30315D02*
Y38583D01*
X542008Y52874D02*
Y96969D01*
Y52874D02*
X556299Y38583D01*
X553543Y27559D02*
X556299Y30315D01*
X547905Y27559D02*
X553543D01*
X543181Y32283D02*
X547905Y27559D01*
X522008Y95616D02*
X524409Y93214D01*
X522008Y95616D02*
Y96969D01*
X517323Y35433D02*
X525197Y27559D01*
X530457D01*
X535181Y32283D01*
X467642Y129996D02*
X598425D01*
X465354Y132283D02*
X467642Y129996D01*
X596850Y132283D02*
X622835D01*
X596063Y131496D02*
X596850Y132283D01*
X592601Y131496D02*
X596063D01*
X591101Y132996D02*
X592601Y131496D01*
X590945Y132996D02*
X591101D01*
X616536Y135433D02*
X622834D01*
X616535Y135433D02*
X616536Y135433D01*
X622834D02*
X622835Y135432D01*
X616536Y144882D02*
X622834D01*
X616535Y144882D02*
X616536Y144882D01*
X622834D02*
X622835Y144881D01*
X616535Y154331D02*
X616536Y154331D01*
X622834D02*
X622835Y154330D01*
X616536Y154331D02*
X622834D01*
X616536Y163780D02*
X622834D01*
X616535Y163780D02*
X616536Y163780D01*
X622834D02*
X622835Y163779D01*
X616536Y182677D02*
X622834D01*
X616535Y182677D02*
X616536Y182677D01*
X622834D02*
X622835Y182676D01*
X616536Y204724D02*
X622834D01*
X622835Y204723D01*
X616535Y204724D02*
X616536Y204724D01*
Y214173D02*
X622834D01*
X616535Y214173D02*
X616536Y214173D01*
X622834D02*
X622835Y214172D01*
X622834Y223622D02*
X622835Y223621D01*
X616536Y223622D02*
X622834D01*
X616535Y223622D02*
X616536Y223622D01*
Y233071D02*
X622834D01*
X616535Y233071D02*
X616536Y233071D01*
X622834D02*
X622835Y233070D01*
X622834Y242520D02*
X622835Y242519D01*
X616536Y242520D02*
X622834D01*
X616535Y242520D02*
X616536Y242520D01*
X616535Y248819D02*
X616536Y248819D01*
X622834D02*
X622835Y248818D01*
X616536Y248819D02*
X622834D01*
Y255118D02*
X622835Y255117D01*
X616536Y255118D02*
X622834D01*
X616535Y255118D02*
X616536Y255118D01*
Y261417D02*
X622834D01*
X622835Y261416D01*
X616535Y261417D02*
X616536Y261417D01*
X616535Y264567D02*
X616536Y264567D01*
X622834D02*
X622835Y264566D01*
X616536Y264567D02*
X622834D01*
X590945Y125272D02*
X598894D01*
X602755Y129133D02*
X622835D01*
X598894Y125272D02*
X602755Y129133D01*
X452834Y126421D02*
X453972Y127559D01*
X449957Y126421D02*
X452834D01*
X453972Y127559D02*
X594488D01*
X455118Y132283D02*
X465354D01*
X435827Y129921D02*
X458268D01*
X593263Y145350D02*
X600075D01*
X591732Y146881D02*
X593263Y145350D01*
X602756Y148031D02*
X622835D01*
X600075Y145350D02*
X602756Y148031D01*
X600000Y153937D02*
X602757Y151180D01*
X622835D01*
X596850Y153937D02*
X600000D01*
X595050Y152137D02*
X596850Y153937D01*
X591732Y152137D02*
X595050D01*
X600931Y156943D02*
X601086D01*
X601622Y157479D01*
X622835D01*
X592201Y157480D02*
X594488Y155193D01*
X473622Y157480D02*
X592201D01*
X473228Y157087D02*
X473622Y157480D01*
X455512Y157087D02*
X473228D01*
X592201Y159449D02*
X594488Y161736D01*
X475984Y159449D02*
X592201D01*
X475931Y159395D02*
X475984Y159449D01*
X467475Y159395D02*
X475931D01*
X467421Y159449D02*
X467475Y159395D01*
X466535Y159449D02*
X467421D01*
X465354Y160630D02*
X466535Y159449D01*
X455512Y160630D02*
X465354D01*
X599761Y160629D02*
X622835D01*
X598581Y159449D02*
X599761Y160629D01*
X598425Y159449D02*
X598581D01*
X594598Y167213D02*
X622550D01*
X622835Y166928D01*
X594488Y167323D02*
X594598Y167213D01*
X471654Y164567D02*
X598425D01*
X471579Y164642D02*
X471654Y164567D01*
X455512Y164642D02*
X471579D01*
X592201Y176378D02*
X594488Y174091D01*
X622834Y176378D02*
X622835Y176377D01*
X600085Y176378D02*
X622834D01*
X598511Y174803D02*
X600085Y176378D01*
X598425Y174803D02*
X598511D01*
X466535Y176378D02*
X592201D01*
X463854Y173697D02*
X466535Y176378D01*
X455512Y173697D02*
X463854D01*
X433465Y132283D02*
X435827Y129921D01*
X433465Y162992D02*
X437402Y166929D01*
X459055D01*
X433465Y170079D02*
X439370Y175984D01*
X459055D01*
X383071Y329921D02*
X429528D01*
X322047D02*
X369685D01*
D21*
X622835Y264566D02*
D03*
Y261416D02*
D03*
Y258267D02*
D03*
Y255117D02*
D03*
Y251968D02*
D03*
Y248818D02*
D03*
Y245668D02*
D03*
Y242519D02*
D03*
Y239369D02*
D03*
Y236220D02*
D03*
Y233070D02*
D03*
Y229920D02*
D03*
Y226771D02*
D03*
Y223621D02*
D03*
Y220472D02*
D03*
Y217322D02*
D03*
Y214172D02*
D03*
Y211023D02*
D03*
Y207873D02*
D03*
Y204723D02*
D03*
Y201574D02*
D03*
Y198424D02*
D03*
Y182676D02*
D03*
Y179527D02*
D03*
Y176377D02*
D03*
Y173227D02*
D03*
Y170078D02*
D03*
Y166928D02*
D03*
Y163779D02*
D03*
Y160629D02*
D03*
Y157479D02*
D03*
Y154330D02*
D03*
Y151180D02*
D03*
Y148031D02*
D03*
Y144881D02*
D03*
Y141731D02*
D03*
Y138582D02*
D03*
Y135432D02*
D03*
Y132283D02*
D03*
Y129133D02*
D03*
D22*
X620079Y289172D02*
D03*
Y104527D02*
D03*
D72*
X40901Y283811D02*
D03*
Y272941D02*
D03*
Y262071D02*
D03*
Y251201D02*
D03*
Y240331D02*
D03*
Y229461D02*
D03*
Y218590D02*
D03*
Y207720D02*
D03*
Y196851D02*
D03*
Y185980D02*
D03*
Y175110D02*
D03*
Y164240D02*
D03*
Y153370D02*
D03*
Y142500D02*
D03*
Y131630D02*
D03*
Y120760D02*
D03*
Y109890D02*
D03*
X52083Y278376D02*
D03*
Y267506D02*
D03*
Y256636D02*
D03*
Y245766D02*
D03*
Y234896D02*
D03*
Y224026D02*
D03*
Y213156D02*
D03*
Y202285D02*
D03*
Y191415D02*
D03*
Y180545D02*
D03*
Y169675D02*
D03*
Y158805D02*
D03*
Y147935D02*
D03*
Y137065D02*
D03*
Y126195D02*
D03*
Y115325D02*
D03*
X63264Y283811D02*
D03*
Y272941D02*
D03*
Y262071D02*
D03*
Y251201D02*
D03*
Y240331D02*
D03*
Y120760D02*
D03*
Y131630D02*
D03*
Y142500D02*
D03*
Y153370D02*
D03*
Y164240D02*
D03*
Y175110D02*
D03*
Y185980D02*
D03*
Y196851D02*
D03*
Y207720D02*
D03*
Y218590D02*
D03*
Y229461D02*
D03*
D73*
X52083Y76555D02*
D03*
Y317146D02*
D03*
D74*
X63264Y109890D02*
D03*
D75*
X335236Y15945D02*
D03*
Y54134D02*
D03*
X373425D02*
D03*
Y15945D02*
D03*
D76*
X354331Y35039D02*
D03*
D77*
X360472Y79921D02*
D03*
X380472D02*
D03*
X370472D02*
D03*
X360472Y97638D02*
D03*
X380472D02*
D03*
X370472D02*
D03*
X572008Y106968D02*
D03*
Y96969D02*
D03*
X562008Y106968D02*
D03*
Y96969D02*
D03*
X552008Y106968D02*
D03*
Y96969D02*
D03*
X542008Y106968D02*
D03*
Y96969D02*
D03*
X532008Y106968D02*
D03*
Y96969D02*
D03*
X522008Y106968D02*
D03*
Y96969D02*
D03*
X512008Y106968D02*
D03*
Y96969D02*
D03*
X502008Y106968D02*
D03*
X516693Y270472D02*
D03*
X496693D02*
D03*
X506693D02*
D03*
X516693Y287402D02*
D03*
X496693D02*
D03*
X506693D02*
D03*
X405748Y275197D02*
D03*
X415748D02*
D03*
X395748D02*
D03*
X345905D02*
D03*
X355906D02*
D03*
X335906D02*
D03*
X506693Y253543D02*
D03*
X496693D02*
D03*
X516693D02*
D03*
X377000Y361800D02*
D03*
Y351800D02*
D03*
Y371800D02*
D03*
X316600Y362800D02*
D03*
Y352800D02*
D03*
Y372800D02*
D03*
X444400Y354500D02*
D03*
X454400D02*
D03*
X464400D02*
D03*
X444400Y344500D02*
D03*
X454400D02*
D03*
X464400D02*
D03*
D78*
X502008Y96969D02*
D03*
D79*
X562181Y22284D02*
D03*
X512181D02*
D03*
D80*
X569181Y35783D02*
D03*
X505181D02*
D03*
D81*
X510181Y58284D02*
D03*
X519181D02*
D03*
X555181D02*
D03*
X564181D02*
D03*
X523181Y39283D02*
D03*
X527181Y32283D02*
D03*
X531181Y39283D02*
D03*
X535181Y32283D02*
D03*
X539181Y39283D02*
D03*
X543181Y32283D02*
D03*
X547181Y39283D02*
D03*
X551181Y32283D02*
D03*
D82*
X487874Y361653D02*
D03*
X527874D02*
D03*
X487874Y321654D02*
D03*
X527874D02*
D03*
X542992Y361653D02*
D03*
X582992D02*
D03*
X542992Y321654D02*
D03*
X582992D02*
D03*
D83*
X507874Y336614D02*
D03*
X562992D02*
D03*
D84*
X413346Y18740D02*
D03*
D85*
Y28740D02*
D03*
Y38740D02*
D03*
D86*
X19685Y19685D02*
D03*
X610236D02*
D03*
Y374016D02*
D03*
X19685D02*
D03*
D87*
X612598Y245668D02*
D03*
Y251968D02*
D03*
X612795Y258267D02*
D03*
X613779Y170078D02*
D03*
X170472Y71496D02*
D03*
X110236Y117323D02*
D03*
X109843Y107087D02*
D03*
X110236Y122047D02*
D03*
X66142Y73228D02*
D03*
X267146Y71673D02*
D03*
X228740Y101496D02*
D03*
X267323D02*
D03*
X228740Y141496D02*
D03*
X267323D02*
D03*
X228740Y171496D02*
D03*
X267323D02*
D03*
X228740Y201496D02*
D03*
X267323D02*
D03*
X228740Y231496D02*
D03*
X267323D02*
D03*
X228740Y261496D02*
D03*
X267323D02*
D03*
X228740Y291496D02*
D03*
X267323D02*
D03*
X228740Y311496D02*
D03*
X267323D02*
D03*
Y331496D02*
D03*
X228740D02*
D03*
X116535Y101496D02*
D03*
X170472D02*
D03*
X116535Y141496D02*
D03*
X170472D02*
D03*
X116535Y171496D02*
D03*
X170472D02*
D03*
X116535Y201496D02*
D03*
X170472D02*
D03*
X116535Y231496D02*
D03*
X170472D02*
D03*
X116535Y261496D02*
D03*
X170472D02*
D03*
X116535Y291496D02*
D03*
X170472D02*
D03*
X116535Y311496D02*
D03*
X170472D02*
D03*
Y331496D02*
D03*
X116535D02*
D03*
X299213Y298031D02*
D03*
X290945Y316929D02*
D03*
X283071Y336614D02*
D03*
X348031Y313779D02*
D03*
X408021Y314042D02*
D03*
X343202Y310799D02*
D03*
X346702Y305799D02*
D03*
X343202Y307549D02*
D03*
X346702Y302299D02*
D03*
X343202Y304299D02*
D03*
X391102Y377165D02*
D03*
X388740Y374803D02*
D03*
X386378Y377165D02*
D03*
X388740Y379528D02*
D03*
X386378Y372441D02*
D03*
X388740Y370079D02*
D03*
X391102Y372441D02*
D03*
X386378Y367717D02*
D03*
X388740Y365354D02*
D03*
X391102Y367717D02*
D03*
X386378Y362992D02*
D03*
X388740Y360630D02*
D03*
X391102Y362992D02*
D03*
X386378Y358268D02*
D03*
X388740Y355906D02*
D03*
X391102Y358268D02*
D03*
X388740Y351181D02*
D03*
X391102Y353543D02*
D03*
X386378D02*
D03*
Y348819D02*
D03*
X388740Y346457D02*
D03*
X391102Y348819D02*
D03*
X421003Y377221D02*
D03*
X423366Y379584D02*
D03*
X425728Y377221D02*
D03*
Y372497D02*
D03*
X421003D02*
D03*
X423366Y374859D02*
D03*
X421003Y367772D02*
D03*
X423366Y370135D02*
D03*
X425728Y367772D02*
D03*
X421003Y363048D02*
D03*
X423366Y365410D02*
D03*
X425728Y363048D02*
D03*
X421003Y358324D02*
D03*
X423366Y360686D02*
D03*
X425728Y358324D02*
D03*
X421003Y353599D02*
D03*
X423366Y355961D02*
D03*
X425728Y353599D02*
D03*
X423366Y346513D02*
D03*
X425728Y348875D02*
D03*
X423366Y351237D02*
D03*
X421003Y348875D02*
D03*
X361003D02*
D03*
X363366Y351237D02*
D03*
X365728Y348875D02*
D03*
X363366Y346513D02*
D03*
X365728Y353599D02*
D03*
X363366Y355961D02*
D03*
X361003Y353599D02*
D03*
X365728Y358324D02*
D03*
X363366Y360686D02*
D03*
X361003Y358324D02*
D03*
X365728Y363048D02*
D03*
X363366Y365410D02*
D03*
X361003Y363048D02*
D03*
X365728Y367772D02*
D03*
X363366Y370135D02*
D03*
X361003Y367772D02*
D03*
X363366Y374859D02*
D03*
X361003Y372497D02*
D03*
X365728D02*
D03*
Y377221D02*
D03*
X363366Y379584D02*
D03*
X361003Y377221D02*
D03*
X331102Y348819D02*
D03*
X328740Y346457D02*
D03*
X326378Y348819D02*
D03*
Y353543D02*
D03*
X331102D02*
D03*
X328740Y351181D02*
D03*
X331102Y358268D02*
D03*
X328740Y355906D02*
D03*
X326378Y358268D02*
D03*
X331102Y362992D02*
D03*
X328740Y360630D02*
D03*
X326378Y362992D02*
D03*
X331102Y367717D02*
D03*
X328740Y365354D02*
D03*
X326378Y367717D02*
D03*
X331102Y372441D02*
D03*
X328740Y370079D02*
D03*
X326378Y372441D02*
D03*
X328740Y379528D02*
D03*
X326378Y377165D02*
D03*
X328740Y374803D02*
D03*
X331102Y377165D02*
D03*
X321900Y318204D02*
D03*
X319144D02*
D03*
X316388D02*
D03*
X376378Y318110D02*
D03*
X379134D02*
D03*
X381890D02*
D03*
X343202Y301049D02*
D03*
Y297799D02*
D03*
X346702Y308799D02*
D03*
Y298799D02*
D03*
X403202Y310799D02*
D03*
Y307549D02*
D03*
Y304299D02*
D03*
Y301049D02*
D03*
Y297799D02*
D03*
X406702Y308799D02*
D03*
Y305799D02*
D03*
Y302299D02*
D03*
Y298799D02*
D03*
D88*
X598425Y129996D02*
D03*
X594571Y133872D02*
D03*
X594882Y137402D02*
D03*
X590945Y132996D02*
D03*
X616535Y264567D02*
D03*
Y261417D02*
D03*
Y255118D02*
D03*
Y248819D02*
D03*
Y242520D02*
D03*
Y233071D02*
D03*
Y223622D02*
D03*
Y214173D02*
D03*
Y204724D02*
D03*
Y135433D02*
D03*
Y144882D02*
D03*
Y154331D02*
D03*
Y163780D02*
D03*
Y182677D02*
D03*
Y173228D02*
D03*
X590945Y125272D02*
D03*
X594488Y127559D02*
D03*
X449957Y126421D02*
D03*
X458268Y129921D02*
D03*
X455118Y132283D02*
D03*
X591732Y146881D02*
D03*
Y152137D02*
D03*
X600931Y156943D02*
D03*
X594488Y155193D02*
D03*
X455512Y157087D02*
D03*
X594488Y161736D02*
D03*
X455512Y160630D02*
D03*
X598425Y159449D02*
D03*
X594488Y167323D02*
D03*
X598425Y164567D02*
D03*
X455512Y164642D02*
D03*
X594488Y174091D02*
D03*
Y180429D02*
D03*
X598425Y174803D02*
D03*
Y178347D02*
D03*
X455512Y173697D02*
D03*
X455118Y179642D02*
D03*
X439764Y141929D02*
D03*
Y138386D02*
D03*
X598425Y141929D02*
D03*
Y138385D02*
D03*
Y147638D02*
D03*
X598425Y151380D02*
D03*
X456693Y151378D02*
D03*
Y147835D02*
D03*
X433465Y132283D02*
D03*
X458661Y138189D02*
D03*
Y141732D02*
D03*
X433465Y142785D02*
D03*
Y146329D02*
D03*
X459055Y166929D02*
D03*
X433465Y162992D02*
D03*
Y170079D02*
D03*
Y175870D02*
D03*
X459055Y175984D02*
D03*
Y179528D02*
D03*
X591876Y197372D02*
D03*
X588735Y195731D02*
D03*
X591876Y206821D02*
D03*
X588548Y205605D02*
D03*
X591876Y216270D02*
D03*
X588548Y215054D02*
D03*
X591876Y225719D02*
D03*
X588735Y224078D02*
D03*
X591088Y235168D02*
D03*
X588158Y233176D02*
D03*
X433858Y203121D02*
D03*
Y206664D02*
D03*
X455369Y206821D02*
D03*
X458509Y205180D02*
D03*
X433858Y216187D02*
D03*
Y212644D02*
D03*
X455369Y216270D02*
D03*
X458509Y214629D02*
D03*
X433858Y225562D02*
D03*
Y222018D02*
D03*
X455762Y225719D02*
D03*
X458479Y223445D02*
D03*
X433858Y235167D02*
D03*
Y231624D02*
D03*
X455762Y235168D02*
D03*
X458479Y232894D02*
D03*
X598425Y201772D02*
D03*
X441732Y198228D02*
D03*
X598425D02*
D03*
X441732Y201772D02*
D03*
Y211221D02*
D03*
X598425Y207677D02*
D03*
Y211221D02*
D03*
X441732Y207677D02*
D03*
X598425Y220669D02*
D03*
Y217126D02*
D03*
X441732Y220669D02*
D03*
Y217126D02*
D03*
X598425Y230118D02*
D03*
Y226575D02*
D03*
X441732Y230118D02*
D03*
Y226575D02*
D03*
X598425Y239567D02*
D03*
Y236024D02*
D03*
X441732Y239567D02*
D03*
Y236024D02*
D03*
X383071Y329921D02*
D03*
X429528D02*
D03*
X369685D02*
D03*
X322047D02*
D03*
X382677Y337795D02*
D03*
X319291Y337795D02*
D03*
D89*
X446063Y133534D02*
D03*
X468504Y133533D02*
D03*
X446063Y142982D02*
D03*
X468504Y142982D02*
D03*
X446063Y152431D02*
D03*
X468504Y152431D02*
D03*
X446063Y161880D02*
D03*
X468504Y161880D02*
D03*
X446063Y171329D02*
D03*
X468504Y171328D02*
D03*
X446063Y180778D02*
D03*
X468504Y180777D02*
D03*
X446063Y202825D02*
D03*
X468504Y202824D02*
D03*
X446063Y212274D02*
D03*
X468504Y212273D02*
D03*
X446063Y221722D02*
D03*
X468504Y221722D02*
D03*
Y231171D02*
D03*
X446063Y231171D02*
D03*
Y242520D02*
D03*
X468110D02*
D03*
Y248819D02*
D03*
X446063D02*
D03*
X468110Y255118D02*
D03*
X446063D02*
D03*
X468110Y261417D02*
D03*
Y264567D02*
D03*
X446063Y261417D02*
D03*
Y264567D02*
D03*
D90*
X465945Y137704D02*
X529313D01*
X530835Y136182D01*
X466396Y136614D02*
X528861D01*
X464428Y134646D02*
X466396Y136614D01*
X463976Y135736D02*
X465945Y137704D01*
X528861Y136614D02*
X530384Y135092D01*
X594571Y133872D02*
Y134028D01*
X593506Y136182D02*
X594726Y137402D01*
X594882D01*
X530835Y136182D02*
X593506D01*
X530384Y135092D02*
X593506D01*
X594571Y134028D01*
X456693Y151378D02*
X458017Y150054D01*
X457822Y148964D02*
X597099D01*
X458017Y150054D02*
X597099D01*
X456693Y147835D02*
X457822Y148964D01*
X451799Y135736D02*
X463976D01*
X451348Y134646D02*
X464428D01*
X439764Y141929D02*
X440990Y140702D01*
X446833D01*
X439764Y138386D02*
X440990Y139612D01*
X446833Y140702D02*
X451799Y135736D01*
X440990Y139612D02*
X446381D01*
X451348Y134646D01*
X599652Y140702D02*
X611175D01*
X611175Y140702D02*
X618853D01*
X599652Y139612D02*
X610723D01*
X618853Y139612D02*
X619882Y138582D01*
X610723Y139612D02*
X610723Y139612D01*
X618853D01*
X598425Y141929D02*
X599652Y140702D01*
X619882Y138582D02*
X622835D01*
X611175Y140702D02*
X611175Y140702D01*
X619882Y141731D02*
X622835D01*
X598425Y138385D02*
X599652Y139612D01*
X618853Y140702D02*
X619882Y141731D01*
X598425Y147638D02*
X598425D01*
X598425Y151380D02*
Y151380D01*
X597099Y150054D02*
X598425Y151380D01*
X597099Y148964D02*
X598425Y147638D01*
X434791Y145983D02*
X435160Y146352D01*
X434303Y145983D02*
X434791D01*
X451982Y145262D02*
X454681Y142563D01*
X434145Y146140D02*
X434303Y145983D01*
X433465Y146329D02*
X433653Y146140D01*
X435611Y145262D02*
X451982D01*
X434016Y143666D02*
X435611Y145262D01*
X435160Y146352D02*
X452434D01*
X433653Y146140D02*
X434145D01*
X452776Y146009D02*
X452776D01*
X457335Y141451D01*
X452434Y146352D02*
X452776Y146009D01*
X434016Y143604D02*
Y143666D01*
X433465Y143052D02*
X434016Y143604D01*
X433465Y142785D02*
Y143052D01*
X454681Y142563D02*
X456883Y140361D01*
X457066D01*
X458473Y138954D01*
X457916Y141544D02*
X458473D01*
X457335Y141451D02*
X457823D01*
X457916Y141544D01*
X458473Y138377D02*
X458661Y138189D01*
X458473Y138377D02*
Y138954D01*
X454681Y142563D02*
X454681D01*
X458473Y141544D02*
X458661Y141732D01*
X619882Y198424D02*
X622835D01*
X618852Y199454D02*
X619882Y198424D01*
X609601Y199454D02*
X618852D01*
X590029Y195840D02*
X591258Y194610D01*
X588735Y195731D02*
X588843Y195840D01*
X618852Y200544D02*
X619882Y201574D01*
X591258Y194610D02*
X604756D01*
X591364Y196046D02*
X591710Y195700D01*
X604756Y194610D02*
X609601Y199454D01*
X591364Y196046D02*
Y196595D01*
X591710Y195700D02*
X604305D01*
X609149Y200544D01*
X588843Y195840D02*
X590029D01*
X609149Y200544D02*
X618852D01*
X591876Y197106D02*
Y197372D01*
X591364Y196595D02*
X591876Y197106D01*
X619882Y201574D02*
X622835D01*
X591414Y204028D02*
X610952D01*
X589837Y205605D02*
X591414Y204028D01*
X591865Y205118D02*
X610500D01*
X591489Y205494D02*
X591865Y205118D01*
X591489Y205494D02*
Y206169D01*
X591876Y206555D01*
Y206821D01*
X610952Y204028D02*
X615827Y208903D01*
X610500Y205118D02*
X615375Y209993D01*
X618852Y208903D02*
X619882Y207873D01*
X615827Y208903D02*
X618852D01*
X615375Y209993D02*
X618852D01*
X619882Y207873D02*
X622835D01*
X619882Y211023D02*
X622835D01*
X618852Y209993D02*
X619882Y211023D01*
X588548Y205605D02*
X589837D01*
X591095Y213796D02*
X611316D01*
X591876Y216004D02*
X592368Y215511D01*
X592714Y214886D02*
X610865D01*
X589837Y215054D02*
X591095Y213796D01*
X592368Y215232D02*
Y215511D01*
Y215232D02*
X592714Y214886D01*
X619882Y217322D02*
X622835D01*
X618852Y218352D02*
X619882Y217322D01*
X615873Y218352D02*
X618852D01*
X611316Y213796D02*
X615873Y218352D01*
X619882Y220472D02*
X622835D01*
X615421Y219442D02*
X618852D01*
X619882Y220472D01*
X610865Y214886D02*
X615421Y219442D01*
X588548Y215054D02*
X589837D01*
X591876Y216004D02*
Y216270D01*
X591277Y234403D02*
Y234979D01*
X589830Y232999D02*
X589979Y232851D01*
X605608D01*
X591088Y235168D02*
X591277Y234979D01*
Y234403D02*
X591738Y233941D01*
X605157D01*
X588334Y232999D02*
X589830D01*
X611857Y222875D02*
X616782Y227801D01*
X611405Y223965D02*
X616331Y228891D01*
X591339Y222875D02*
X611857D01*
X591791Y223965D02*
X611405D01*
X618853Y227801D02*
X619882Y226771D01*
X622835D01*
X616782Y227801D02*
X618853D01*
X616331Y228891D02*
X618853D01*
X619882Y229920D02*
X622835D01*
X618853Y228891D02*
X619882Y229920D01*
X590029Y224186D02*
X591339Y222875D01*
X588843Y224186D02*
X590029D01*
X588735Y224078D02*
X588843Y224186D01*
X591364Y224392D02*
Y224941D01*
Y224392D02*
X591791Y223965D01*
X591876Y225452D02*
Y225719D01*
X591364Y224941D02*
X591876Y225452D01*
X619882Y236220D02*
X622835D01*
X610007Y237250D02*
X618853D01*
X605608Y232851D02*
X610007Y237250D01*
X588158Y233176D02*
X588334Y232999D01*
X605157Y233941D02*
X609555Y238340D01*
X618853Y237250D02*
X619882Y236220D01*
Y239369D02*
X622835D01*
X609555Y238340D02*
X618853D01*
X619882Y239369D01*
X433858Y206664D02*
X435085Y205437D01*
Y204347D02*
X442889D01*
X433858Y203121D02*
X435085Y204347D01*
Y205437D02*
X442438D01*
X442889Y204347D02*
X443646Y205104D01*
X455986Y204059D02*
X457215Y205288D01*
X458401D01*
X448935Y205104D02*
X449981Y204059D01*
X443646Y205104D02*
X448935D01*
X449981Y204059D02*
X455986D01*
X455369Y206555D02*
Y206821D01*
X455880Y205494D02*
Y206043D01*
X455534Y205149D02*
X455880Y205494D01*
X455369Y206555D02*
X455880Y206043D01*
X458401Y205288D02*
X458509Y205180D01*
X450432Y205149D02*
X455534D01*
X443194Y206194D02*
X449387D01*
X450432Y205149D01*
X442438Y205437D02*
X443194Y206194D01*
X433858Y212644D02*
X435085Y213871D01*
X433858Y216187D02*
X435085Y214961D01*
X458401Y214737D02*
X458509Y214629D01*
X450185Y213508D02*
X455986D01*
X443373Y213871D02*
X444056Y214553D01*
X455369Y216004D02*
X455880Y215492D01*
Y214943D02*
Y215492D01*
X435085Y213871D02*
X443373D01*
X455534Y214598D02*
X455880Y214943D01*
X442922Y214961D02*
X443604Y215643D01*
X444056Y214553D02*
X449140D01*
X435085Y214961D02*
X442922D01*
X449592Y215643D02*
X450637Y214598D01*
X455534D01*
X443604Y215643D02*
X449592D01*
X455986Y213508D02*
X457215Y214737D01*
X458401D01*
X455369Y216004D02*
Y216270D01*
X449140Y214553D02*
X450185Y213508D01*
X435085Y223245D02*
X442889D01*
X433858Y225562D02*
X435085Y224335D01*
X433858Y222018D02*
X435085Y223245D01*
Y224335D02*
X442438D01*
X449075Y224002D02*
X450121Y222956D01*
X443646Y224002D02*
X449075D01*
X450121Y222956D02*
X456266D01*
X442889Y223245D02*
X443646Y224002D01*
X458303Y223621D02*
X458479Y223445D01*
X455762Y225452D02*
Y225719D01*
X450572Y224046D02*
X455815D01*
X456160Y224392D01*
Y225055D01*
X443194Y225092D02*
X449527D01*
X442438Y224335D02*
X443194Y225092D01*
X456931Y223621D02*
X458303D01*
X456266Y222956D02*
X456931Y223621D01*
X449527Y225092D02*
X450572Y224046D01*
X455762Y225452D02*
X456160Y225055D01*
X433858Y235167D02*
X435085Y233941D01*
X433858Y231624D02*
X435085Y232851D01*
Y233941D02*
X436626D01*
X436626Y233941D01*
X444068D01*
X435085Y232851D02*
X437153D01*
X437153Y232851D02*
X444519D01*
X437153Y232851D02*
X437153Y232851D01*
X456266Y232405D02*
X456931Y233070D01*
X450857Y232405D02*
X456266D01*
X449812Y233451D02*
X450857Y232405D01*
X456931Y233070D02*
X458303D01*
X458479Y232894D01*
X445119Y233451D02*
X449812D01*
X444519Y232851D02*
X445119Y233451D01*
X455762Y234901D02*
Y235168D01*
Y234901D02*
X456160Y234503D01*
X444667Y234541D02*
X450263D01*
X451309Y233495D01*
X455815D02*
X456160Y233841D01*
X444068Y233941D02*
X444667Y234541D01*
X451309Y233495D02*
X455815D01*
X456160Y233841D02*
Y234503D01*
X597199Y200545D02*
X598425Y201772D01*
X442959Y200545D02*
X597199D01*
Y199455D02*
X598425Y198228D01*
X442959Y199455D02*
X597199D01*
X441732Y201772D02*
X442959Y200545D01*
X441732Y198228D02*
X442959Y199455D01*
X441732Y211221D02*
X442959Y209994D01*
Y208904D02*
X597199D01*
X598425Y207677D01*
X441732D02*
X442959Y208904D01*
Y209994D02*
X597199D01*
X598425Y211221D01*
X597199Y218353D02*
X598425Y217126D01*
X441732Y220669D02*
X442959Y219443D01*
X597199D01*
X598425Y220669D01*
X441732Y217126D02*
X442959Y218353D01*
X597199D01*
Y228891D02*
X598425Y230118D01*
X442959Y227801D02*
X597199D01*
X598425Y226575D01*
X441732Y230118D02*
X442959Y228891D01*
X597199D01*
X441732Y226575D02*
X442959Y227801D01*
Y237250D02*
X597199D01*
X441732Y239567D02*
X442959Y238340D01*
X597199D01*
X598425Y239567D01*
X441732Y236024D02*
X442959Y237250D01*
X597199D02*
X598425Y236024D01*
M02*
