G04*
G04 #@! TF.GenerationSoftware,Altium Limited,Altium Designer,22.7.1 (60)*
G04*
G04 Layer_Physical_Order=3*
G04 Layer_Color=16440176*
%FSLAX25Y25*%
%MOIN*%
G70*
G04*
G04 #@! TF.SameCoordinates,2DED55E5-687B-4796-A7DD-68A5C89E5390*
G04*
G04*
G04 #@! TF.FilePolarity,Positive*
G04*
G01*
G75*
%ADD13C,0.01968*%
%ADD72C,0.06653*%
%ADD73C,0.18740*%
%ADD77C,0.06000*%
%ADD83C,0.15748*%
%ADD84R,0.06102X0.06102*%
%ADD85C,0.06102*%
%ADD86C,0.21654*%
%ADD87C,0.01968*%
%ADD88C,0.02362*%
G36*
X627882Y306050D02*
X627882Y284803D01*
X627529Y284450D01*
X615752D01*
X615685Y284436D01*
X615618Y284445D01*
X615214Y284419D01*
X615020Y284367D01*
X614819Y284353D01*
X614038Y284144D01*
X613798Y284026D01*
X613546Y283940D01*
X612845Y283536D01*
X612644Y283360D01*
X612423Y283212D01*
X611850Y282639D01*
X611702Y282418D01*
X611526Y282217D01*
X611122Y281516D01*
X611036Y281264D01*
X610918Y281025D01*
X610709Y280243D01*
X610691Y279977D01*
X610639Y279715D01*
Y278906D01*
X610691Y278644D01*
X610709Y278378D01*
X610918Y277596D01*
X611036Y277357D01*
X611122Y277104D01*
X611526Y276404D01*
X611702Y276203D01*
X611850Y275981D01*
X612423Y275409D01*
X612644Y275261D01*
X612845Y275085D01*
X613546Y274680D01*
X613798Y274595D01*
X614038Y274477D01*
X614819Y274267D01*
X615020Y274254D01*
X615214Y274202D01*
X615618Y274176D01*
X615685Y274184D01*
X615752Y274171D01*
X627882D01*
Y87650D01*
X627882Y2039D01*
X2039D01*
Y391662D01*
X627882D01*
Y306050D01*
D02*
G37*
%LPC*%
G36*
X317099Y366587D02*
X316101D01*
X315138Y366329D01*
X314275Y365831D01*
X313569Y365125D01*
X313071Y364262D01*
X312813Y363299D01*
Y362301D01*
X313071Y361338D01*
X313569Y360474D01*
X314275Y359769D01*
X315138Y359271D01*
X316101Y359013D01*
X317099D01*
X318062Y359271D01*
X318925Y359769D01*
X319631Y360474D01*
X320129Y361338D01*
X320387Y362301D01*
Y363299D01*
X320129Y364262D01*
X319631Y365125D01*
X318925Y365831D01*
X318062Y366329D01*
X317099Y366587D01*
D02*
G37*
G36*
X377499Y365587D02*
X376501D01*
X375538Y365329D01*
X374675Y364831D01*
X373969Y364125D01*
X373471Y363262D01*
X373213Y362299D01*
Y361301D01*
X373471Y360338D01*
X373969Y359474D01*
X374675Y358769D01*
X375538Y358271D01*
X376501Y358013D01*
X377499D01*
X378462Y358271D01*
X379326Y358769D01*
X380031Y359474D01*
X380529Y360338D01*
X380787Y361301D01*
Y362299D01*
X380529Y363262D01*
X380031Y364125D01*
X379326Y364831D01*
X378462Y365329D01*
X377499Y365587D01*
D02*
G37*
G36*
X583562Y365984D02*
X582422D01*
X581320Y365689D01*
X580333Y365119D01*
X579527Y364313D01*
X578957Y363325D01*
X578661Y362224D01*
Y361083D01*
X578957Y359982D01*
X579527Y358994D01*
X580333Y358188D01*
X581320Y357618D01*
X582422Y357323D01*
X583562D01*
X584664Y357618D01*
X585651Y358188D01*
X586457Y358994D01*
X587028Y359982D01*
X587323Y361083D01*
Y362224D01*
X587028Y363325D01*
X586457Y364313D01*
X585651Y365119D01*
X584664Y365689D01*
X583562Y365984D01*
D02*
G37*
G36*
X543562D02*
X542422D01*
X541321Y365689D01*
X540333Y365119D01*
X539527Y364313D01*
X538957Y363325D01*
X538661Y362224D01*
Y361083D01*
X538957Y359982D01*
X539527Y358994D01*
X540333Y358188D01*
X541321Y357618D01*
X542422Y357323D01*
X543562D01*
X544664Y357618D01*
X545651Y358188D01*
X546457Y358994D01*
X547028Y359982D01*
X547323Y361083D01*
Y362224D01*
X547028Y363325D01*
X546457Y364313D01*
X545651Y365119D01*
X544664Y365689D01*
X543562Y365984D01*
D02*
G37*
G36*
X528444D02*
X527304D01*
X526202Y365689D01*
X525215Y365119D01*
X524409Y364313D01*
X523839Y363325D01*
X523543Y362224D01*
Y361083D01*
X523839Y359982D01*
X524409Y358994D01*
X525215Y358188D01*
X526202Y357618D01*
X527304Y357323D01*
X528444D01*
X529546Y357618D01*
X530533Y358188D01*
X531339Y358994D01*
X531910Y359982D01*
X532205Y361083D01*
Y362224D01*
X531910Y363325D01*
X531339Y364313D01*
X530533Y365119D01*
X529546Y365689D01*
X528444Y365984D01*
D02*
G37*
G36*
X488444D02*
X487304D01*
X486202Y365689D01*
X485215Y365119D01*
X484409Y364313D01*
X483839Y363325D01*
X483543Y362224D01*
Y361083D01*
X483839Y359982D01*
X484409Y358994D01*
X485215Y358188D01*
X486202Y357618D01*
X487304Y357323D01*
X488444D01*
X489546Y357618D01*
X490533Y358188D01*
X491339Y358994D01*
X491910Y359982D01*
X492205Y361083D01*
Y362224D01*
X491910Y363325D01*
X491339Y364313D01*
X490533Y365119D01*
X489546Y365689D01*
X488444Y365984D01*
D02*
G37*
G36*
X317099Y356587D02*
X316101D01*
X315138Y356329D01*
X314275Y355831D01*
X313569Y355125D01*
X313071Y354262D01*
X312813Y353299D01*
Y352301D01*
X313071Y351338D01*
X313569Y350475D01*
X314275Y349769D01*
X315138Y349271D01*
X316101Y349013D01*
X317099D01*
X318062Y349271D01*
X318925Y349769D01*
X319631Y350475D01*
X320129Y351338D01*
X320387Y352301D01*
Y353299D01*
X320129Y354262D01*
X319631Y355125D01*
X318925Y355831D01*
X318062Y356329D01*
X317099Y356587D01*
D02*
G37*
G36*
X377499Y355587D02*
X376501D01*
X375538Y355329D01*
X374675Y354831D01*
X373969Y354125D01*
X373471Y353262D01*
X373213Y352299D01*
Y351301D01*
X373471Y350338D01*
X373969Y349475D01*
X374675Y348769D01*
X375538Y348271D01*
X376501Y348013D01*
X377499D01*
X378462Y348271D01*
X379326Y348769D01*
X380031Y349475D01*
X380529Y350338D01*
X380787Y351301D01*
Y352299D01*
X380529Y353262D01*
X380031Y354125D01*
X379326Y354831D01*
X378462Y355329D01*
X377499Y355587D01*
D02*
G37*
G36*
X560630Y355134D02*
X494095Y355134D01*
X493787Y355072D01*
X493527Y354898D01*
X493527Y354898D01*
X479589Y340960D01*
X466844D01*
X466710Y341460D01*
X466725Y341469D01*
X467431Y342175D01*
X467929Y343038D01*
X468187Y344001D01*
Y344999D01*
X467929Y345962D01*
X467431Y346826D01*
X466725Y347531D01*
X465862Y348029D01*
X464899Y348287D01*
X463901D01*
X462938Y348029D01*
X462075Y347531D01*
X461369Y346826D01*
X460871Y345962D01*
X460613Y344999D01*
Y344001D01*
X460871Y343038D01*
X461369Y342175D01*
X462075Y341469D01*
X462090Y341460D01*
X461956Y340960D01*
X456844D01*
X456710Y341460D01*
X456726Y341469D01*
X457431Y342175D01*
X457929Y343038D01*
X458187Y344001D01*
Y344999D01*
X457929Y345962D01*
X457431Y346826D01*
X456726Y347531D01*
X455862Y348029D01*
X454899Y348287D01*
X453901D01*
X452938Y348029D01*
X452074Y347531D01*
X451369Y346826D01*
X451148Y346443D01*
X450496Y346313D01*
X450409Y346380D01*
Y346457D01*
X450348Y346764D01*
X450174Y347024D01*
X450174Y347024D01*
X447024Y350174D01*
X447024Y350174D01*
X446764Y350348D01*
X446457Y350409D01*
X442126Y350409D01*
X442126Y350409D01*
X441819Y350348D01*
X441558Y350174D01*
X441558Y350174D01*
X438409Y347024D01*
X438235Y346764D01*
X438174Y346457D01*
X438173Y342459D01*
X436675Y340960D01*
X402362D01*
X402055Y340899D01*
X401794Y340725D01*
X384707Y323638D01*
X316142D01*
X316086Y323626D01*
X316028Y323629D01*
X315933Y323596D01*
X315834Y323576D01*
X315787Y323545D01*
X315733Y323526D01*
X315658Y323458D01*
X315574Y323402D01*
X315542Y323355D01*
X315499Y323316D01*
X314318Y321742D01*
X314275Y321651D01*
X314219Y321567D01*
X314208Y321511D01*
X314183Y321459D01*
X314177Y321359D01*
X314158Y321260D01*
Y318110D01*
X314177Y318011D01*
X314183Y317911D01*
X314208Y317859D01*
X314219Y317803D01*
X314275Y317719D01*
X314318Y317629D01*
X314715Y317100D01*
X314719Y317089D01*
X314735Y317073D01*
X315499Y316054D01*
X315542Y316016D01*
X315574Y315968D01*
X315658Y315912D01*
X315733Y315845D01*
X315787Y315826D01*
X315834Y315794D01*
X315933Y315774D01*
X316028Y315741D01*
X316086Y315744D01*
X316142Y315733D01*
X387402D01*
X387402Y315733D01*
X387709Y315794D01*
X387969Y315968D01*
X387969Y315968D01*
X405057Y333055D01*
X483858D01*
X483858Y333055D01*
X484165Y333117D01*
X484426Y333291D01*
X484426Y333291D01*
X496789Y345654D01*
X550849Y345654D01*
X551993Y344510D01*
X551837Y332016D01*
X551838Y332011D01*
X551837Y332006D01*
X551866Y331857D01*
X551894Y331708D01*
X551897Y331704D01*
X551898Y331699D01*
X551982Y331573D01*
X552065Y331446D01*
X552069Y331443D01*
X552072Y331438D01*
X557700Y325810D01*
X557700Y325810D01*
X557961Y325636D01*
X558268Y325575D01*
X567323Y325575D01*
X567323Y325575D01*
X567630Y325636D01*
X567891Y325810D01*
X573796Y331716D01*
X573970Y331976D01*
X574031Y332283D01*
X574031Y341732D01*
X574031Y341732D01*
X573970Y342039D01*
X573796Y342300D01*
X573796Y342300D01*
X561198Y354898D01*
X560937Y355072D01*
X560630Y355134D01*
D02*
G37*
G36*
X283462Y338583D02*
X282679D01*
X281956Y338283D01*
X281402Y337729D01*
X281102Y337006D01*
Y336223D01*
X281402Y335499D01*
X281956Y334945D01*
X282679Y334646D01*
X283462D01*
X284186Y334945D01*
X284740Y335499D01*
X285039Y336223D01*
Y337006D01*
X284740Y337729D01*
X284186Y338283D01*
X283462Y338583D01*
D02*
G37*
G36*
X429880Y331693D02*
X429175D01*
X428524Y331423D01*
X428026Y330925D01*
X427756Y330274D01*
Y329569D01*
X428026Y328918D01*
X428524Y328419D01*
X429175Y328150D01*
X429880D01*
X430531Y328419D01*
X431030Y328918D01*
X431299Y329569D01*
Y330274D01*
X431030Y330925D01*
X430531Y331423D01*
X429880Y331693D01*
D02*
G37*
G36*
X383423D02*
X382718D01*
X382067Y331423D01*
X381569Y330925D01*
X381299Y330274D01*
Y329569D01*
X381569Y328918D01*
X382067Y328419D01*
X382718Y328150D01*
X383423D01*
X384074Y328419D01*
X384573Y328918D01*
X384842Y329569D01*
Y330274D01*
X384573Y330925D01*
X384074Y331423D01*
X383423Y331693D01*
D02*
G37*
G36*
X370037D02*
X369333D01*
X368682Y331423D01*
X368183Y330925D01*
X367913Y330274D01*
Y329569D01*
X368183Y328918D01*
X368682Y328419D01*
X369333Y328150D01*
X370037D01*
X370689Y328419D01*
X371187Y328918D01*
X371457Y329569D01*
Y330274D01*
X371187Y330925D01*
X370689Y331423D01*
X370037Y331693D01*
D02*
G37*
G36*
X322400D02*
X321695D01*
X321044Y331423D01*
X320545Y330925D01*
X320276Y330274D01*
Y329569D01*
X320545Y328918D01*
X321044Y328419D01*
X321695Y328150D01*
X322400D01*
X323051Y328419D01*
X323549Y328918D01*
X323819Y329569D01*
Y330274D01*
X323549Y330925D01*
X323051Y331423D01*
X322400Y331693D01*
D02*
G37*
G36*
X583562Y325984D02*
X582422D01*
X581320Y325689D01*
X580333Y325119D01*
X579527Y324313D01*
X578957Y323325D01*
X578661Y322224D01*
Y321083D01*
X578957Y319982D01*
X579527Y318994D01*
X580333Y318188D01*
X581320Y317618D01*
X582422Y317323D01*
X583562D01*
X584664Y317618D01*
X585651Y318188D01*
X586457Y318994D01*
X587028Y319982D01*
X587323Y321083D01*
Y322224D01*
X587028Y323325D01*
X586457Y324313D01*
X585651Y325119D01*
X584664Y325689D01*
X583562Y325984D01*
D02*
G37*
G36*
X543562D02*
X542422D01*
X541321Y325689D01*
X540333Y325119D01*
X539527Y324313D01*
X538957Y323325D01*
X538661Y322224D01*
Y321083D01*
X538957Y319982D01*
X539527Y318994D01*
X540333Y318188D01*
X541321Y317618D01*
X542422Y317323D01*
X543562D01*
X544664Y317618D01*
X545651Y318188D01*
X546457Y318994D01*
X547028Y319982D01*
X547323Y321083D01*
Y322224D01*
X547028Y323325D01*
X546457Y324313D01*
X545651Y325119D01*
X544664Y325689D01*
X543562Y325984D01*
D02*
G37*
G36*
X528444D02*
X527304D01*
X526202Y325689D01*
X525215Y325119D01*
X524409Y324313D01*
X523839Y323325D01*
X523543Y322224D01*
Y321083D01*
X523839Y319982D01*
X524409Y318994D01*
X525215Y318188D01*
X526202Y317618D01*
X527304Y317323D01*
X528444D01*
X529546Y317618D01*
X530533Y318188D01*
X531339Y318994D01*
X531910Y319982D01*
X532205Y321083D01*
Y322224D01*
X531910Y323325D01*
X531339Y324313D01*
X530533Y325119D01*
X529546Y325689D01*
X528444Y325984D01*
D02*
G37*
G36*
X488444D02*
X487304D01*
X486202Y325689D01*
X485215Y325119D01*
X484409Y324313D01*
X483839Y323325D01*
X483543Y322224D01*
Y321083D01*
X483839Y319982D01*
X484409Y318994D01*
X485215Y318188D01*
X486202Y317618D01*
X487304Y317323D01*
X488444D01*
X489546Y317618D01*
X490533Y318188D01*
X491339Y318994D01*
X491910Y319982D01*
X492205Y321083D01*
Y322224D01*
X491910Y323325D01*
X491339Y324313D01*
X490533Y325119D01*
X489546Y325689D01*
X488444Y325984D01*
D02*
G37*
G36*
X291336Y318898D02*
X290553D01*
X289830Y318598D01*
X289276Y318044D01*
X288976Y317321D01*
Y316538D01*
X289276Y315814D01*
X289830Y315260D01*
X290553Y314961D01*
X291336D01*
X292060Y315260D01*
X292614Y315814D01*
X292913Y316538D01*
Y317321D01*
X292614Y318044D01*
X292060Y318598D01*
X291336Y318898D01*
D02*
G37*
G36*
X299604Y300000D02*
X298821D01*
X298097Y299700D01*
X297544Y299147D01*
X297244Y298423D01*
Y297640D01*
X297544Y296916D01*
X298097Y296363D01*
X298821Y296063D01*
X299604D01*
X300328Y296363D01*
X300881Y296916D01*
X301181Y297640D01*
Y298423D01*
X300881Y299147D01*
X300328Y299700D01*
X299604Y300000D01*
D02*
G37*
G36*
X517192Y291189D02*
X516194D01*
X515231Y290931D01*
X514367Y290432D01*
X513662Y289727D01*
X513164Y288863D01*
X512906Y287900D01*
Y286903D01*
X513164Y285940D01*
X513662Y285076D01*
X514367Y284371D01*
X515231Y283872D01*
X516194Y283614D01*
X517192D01*
X518155Y283872D01*
X519018Y284371D01*
X519724Y285076D01*
X520222Y285940D01*
X520480Y286903D01*
Y287900D01*
X520222Y288863D01*
X519724Y289727D01*
X519018Y290432D01*
X518155Y290931D01*
X517192Y291189D01*
D02*
G37*
G36*
X507192D02*
X506194D01*
X505231Y290931D01*
X504367Y290432D01*
X503662Y289727D01*
X503164Y288863D01*
X502906Y287900D01*
Y286903D01*
X503164Y285940D01*
X503662Y285076D01*
X504367Y284371D01*
X505231Y283872D01*
X506194Y283614D01*
X507192D01*
X508155Y283872D01*
X509018Y284371D01*
X509724Y285076D01*
X510222Y285940D01*
X510480Y286903D01*
Y287900D01*
X510222Y288863D01*
X509724Y289727D01*
X509018Y290432D01*
X508155Y290931D01*
X507192Y291189D01*
D02*
G37*
G36*
X497191D02*
X496194D01*
X495231Y290931D01*
X494367Y290432D01*
X493662Y289727D01*
X493164Y288863D01*
X492906Y287900D01*
Y286903D01*
X493164Y285940D01*
X493662Y285076D01*
X494367Y284371D01*
X495231Y283872D01*
X496194Y283614D01*
X497191D01*
X498155Y283872D01*
X499018Y284371D01*
X499724Y285076D01*
X500222Y285940D01*
X500480Y286903D01*
Y287900D01*
X500222Y288863D01*
X499724Y289727D01*
X499018Y290432D01*
X498155Y290931D01*
X497191Y291189D01*
D02*
G37*
G36*
X41443Y287925D02*
X40360D01*
X39314Y287645D01*
X38375Y287103D01*
X37609Y286337D01*
X37068Y285399D01*
X36787Y284353D01*
Y283269D01*
X37068Y282223D01*
X37609Y281285D01*
X38375Y280519D01*
X39314Y279977D01*
X40360Y279697D01*
X41443D01*
X42490Y279977D01*
X43428Y280519D01*
X44194Y281285D01*
X44735Y282223D01*
X45016Y283269D01*
Y284353D01*
X44735Y285399D01*
X44194Y286337D01*
X43428Y287103D01*
X42490Y287645D01*
X41443Y287925D01*
D02*
G37*
G36*
X52624Y282490D02*
X51541D01*
X50495Y282210D01*
X49557Y281668D01*
X48791Y280902D01*
X48249Y279964D01*
X47969Y278918D01*
Y277834D01*
X48249Y276788D01*
X48791Y275850D01*
X49557Y275084D01*
X50495Y274542D01*
X51541Y274262D01*
X52624D01*
X53671Y274542D01*
X54609Y275084D01*
X55375Y275850D01*
X55917Y276788D01*
X56197Y277834D01*
Y278918D01*
X55917Y279964D01*
X55375Y280902D01*
X54609Y281668D01*
X53671Y282210D01*
X52624Y282490D01*
D02*
G37*
G36*
X416247Y278984D02*
X415249D01*
X414286Y278726D01*
X413422Y278227D01*
X412717Y277522D01*
X412219Y276659D01*
X411961Y275695D01*
Y274698D01*
X412219Y273735D01*
X412717Y272871D01*
X413422Y272166D01*
X414286Y271668D01*
X415249Y271410D01*
X416247D01*
X417210Y271668D01*
X418074Y272166D01*
X418779Y272871D01*
X419277Y273735D01*
X419535Y274698D01*
Y275695D01*
X419277Y276659D01*
X418779Y277522D01*
X418074Y278227D01*
X417210Y278726D01*
X416247Y278984D01*
D02*
G37*
G36*
X396247D02*
X395249D01*
X394286Y278726D01*
X393423Y278227D01*
X392717Y277522D01*
X392219Y276659D01*
X391961Y275695D01*
Y274698D01*
X392219Y273735D01*
X392717Y272871D01*
X393423Y272166D01*
X394286Y271668D01*
X395249Y271410D01*
X396247D01*
X397210Y271668D01*
X398074Y272166D01*
X398779Y272871D01*
X399277Y273735D01*
X399535Y274698D01*
Y275695D01*
X399277Y276659D01*
X398779Y277522D01*
X398074Y278227D01*
X397210Y278726D01*
X396247Y278984D01*
D02*
G37*
G36*
X356404D02*
X355407D01*
X354444Y278726D01*
X353580Y278227D01*
X352875Y277522D01*
X352376Y276659D01*
X352118Y275695D01*
Y274698D01*
X352376Y273735D01*
X352875Y272871D01*
X353580Y272166D01*
X354444Y271668D01*
X355407Y271410D01*
X356404D01*
X357367Y271668D01*
X358231Y272166D01*
X358936Y272871D01*
X359435Y273735D01*
X359693Y274698D01*
Y275695D01*
X359435Y276659D01*
X358936Y277522D01*
X358231Y278227D01*
X357367Y278726D01*
X356404Y278984D01*
D02*
G37*
G36*
X336404D02*
X335407D01*
X334444Y278726D01*
X333580Y278227D01*
X332875Y277522D01*
X332376Y276659D01*
X332118Y275695D01*
Y274698D01*
X332376Y273735D01*
X332875Y272871D01*
X333580Y272166D01*
X334444Y271668D01*
X335407Y271410D01*
X336404D01*
X337367Y271668D01*
X338231Y272166D01*
X338936Y272871D01*
X339435Y273735D01*
X339693Y274698D01*
Y275695D01*
X339435Y276659D01*
X338936Y277522D01*
X338231Y278227D01*
X337367Y278726D01*
X336404Y278984D01*
D02*
G37*
G36*
X41443Y277055D02*
X40360D01*
X39314Y276775D01*
X38375Y276233D01*
X37609Y275467D01*
X37068Y274529D01*
X36787Y273482D01*
Y272399D01*
X37068Y271353D01*
X37609Y270415D01*
X38375Y269649D01*
X39314Y269107D01*
X40360Y268827D01*
X41443D01*
X42490Y269107D01*
X43428Y269649D01*
X44194Y270415D01*
X44735Y271353D01*
X45016Y272399D01*
Y273482D01*
X44735Y274529D01*
X44194Y275467D01*
X43428Y276233D01*
X42490Y276775D01*
X41443Y277055D01*
D02*
G37*
G36*
X451736Y273760D02*
X450870D01*
X450034Y273536D01*
X449285Y273103D01*
X448673Y272491D01*
X448240Y271741D01*
X448016Y270905D01*
Y270040D01*
X448240Y269203D01*
X448673Y268454D01*
X449285Y267842D01*
X450034Y267409D01*
X450870Y267185D01*
X451736D01*
X452572Y267409D01*
X453322Y267842D01*
X453934Y268454D01*
X454366Y269203D01*
X454591Y270040D01*
Y270905D01*
X454366Y271741D01*
X453934Y272491D01*
X453322Y273103D01*
X452572Y273536D01*
X451736Y273760D01*
D02*
G37*
G36*
X63805Y266185D02*
X62722D01*
X61676Y265905D01*
X60738Y265363D01*
X59972Y264597D01*
X59430Y263659D01*
X59150Y262613D01*
Y261529D01*
X59430Y260483D01*
X59972Y259545D01*
X60738Y258779D01*
X61676Y258237D01*
X62722Y257957D01*
X63805D01*
X64852Y258237D01*
X65790Y258779D01*
X66556Y259545D01*
X67098Y260483D01*
X67378Y261529D01*
Y262613D01*
X67098Y263659D01*
X66556Y264597D01*
X65790Y265363D01*
X64852Y265905D01*
X63805Y266185D01*
D02*
G37*
G36*
X41443D02*
X40360D01*
X39314Y265905D01*
X38375Y265363D01*
X37609Y264597D01*
X37068Y263659D01*
X36787Y262613D01*
Y261529D01*
X37068Y260483D01*
X37609Y259545D01*
X38375Y258779D01*
X39314Y258237D01*
X40360Y257957D01*
X41443D01*
X42490Y258237D01*
X43428Y258779D01*
X44194Y259545D01*
X44735Y260483D01*
X45016Y261529D01*
Y262613D01*
X44735Y263659D01*
X44194Y264597D01*
X43428Y265363D01*
X42490Y265905D01*
X41443Y266185D01*
D02*
G37*
G36*
X613187Y260236D02*
X612404D01*
X611680Y259936D01*
X611127Y259383D01*
X610827Y258659D01*
Y257876D01*
X611127Y257152D01*
X611680Y256599D01*
X612404Y256299D01*
X613187D01*
X613910Y256599D01*
X614464Y257152D01*
X614764Y257876D01*
Y258659D01*
X614464Y259383D01*
X613910Y259936D01*
X613187Y260236D01*
D02*
G37*
G36*
X612990Y253937D02*
X612207D01*
X611483Y253637D01*
X610930Y253083D01*
X610630Y252360D01*
Y251577D01*
X610930Y250853D01*
X611483Y250300D01*
X612207Y250000D01*
X612990D01*
X613714Y250300D01*
X614267Y250853D01*
X614567Y251577D01*
Y252360D01*
X614267Y253083D01*
X613714Y253637D01*
X612990Y253937D01*
D02*
G37*
G36*
X507192Y257331D02*
X506194D01*
X505231Y257073D01*
X504367Y256574D01*
X503662Y255869D01*
X503164Y255005D01*
X502906Y254042D01*
Y253045D01*
X503164Y252081D01*
X503662Y251218D01*
X504367Y250513D01*
X505231Y250014D01*
X506194Y249756D01*
X507192D01*
X508155Y250014D01*
X509018Y250513D01*
X509724Y251218D01*
X510222Y252081D01*
X510480Y253045D01*
Y254042D01*
X510222Y255005D01*
X509724Y255869D01*
X509018Y256574D01*
X508155Y257073D01*
X507192Y257331D01*
D02*
G37*
G36*
X497191D02*
X496194D01*
X495231Y257073D01*
X494367Y256574D01*
X493662Y255869D01*
X493164Y255005D01*
X492906Y254042D01*
Y253045D01*
X493164Y252081D01*
X493662Y251218D01*
X494367Y250513D01*
X495231Y250014D01*
X496194Y249756D01*
X497191D01*
X498155Y250014D01*
X499018Y250513D01*
X499724Y251218D01*
X500222Y252081D01*
X500480Y253045D01*
Y254042D01*
X500222Y255005D01*
X499724Y255869D01*
X499018Y256574D01*
X498155Y257073D01*
X497191Y257331D01*
D02*
G37*
G36*
X406247Y278984D02*
X405249D01*
X404286Y278726D01*
X403422Y278227D01*
X402717Y277522D01*
X402219Y276659D01*
X401961Y275695D01*
Y274698D01*
X402219Y273735D01*
X402717Y272871D01*
X403422Y272166D01*
X404286Y271668D01*
X405249Y271410D01*
X406247D01*
X406826Y271565D01*
X421400Y256990D01*
X421986Y256599D01*
X422677Y256461D01*
X477165D01*
X477857Y256599D01*
X478443Y256990D01*
X492406Y270953D01*
X492906Y270746D01*
Y269974D01*
X493164Y269011D01*
X493662Y268147D01*
X494367Y267442D01*
X495231Y266943D01*
X496194Y266685D01*
X497191D01*
X498155Y266943D01*
X499018Y267442D01*
X499724Y268147D01*
X500222Y269011D01*
X500480Y269974D01*
Y270971D01*
X500222Y271934D01*
X499724Y272798D01*
X499018Y273503D01*
X498716Y273678D01*
X498850Y274178D01*
X504536D01*
X504670Y273678D01*
X504367Y273503D01*
X503662Y272798D01*
X503164Y271934D01*
X502906Y270971D01*
Y269974D01*
X503164Y269011D01*
X503662Y268147D01*
X504367Y267442D01*
X505231Y266943D01*
X506194Y266685D01*
X507192D01*
X507771Y266840D01*
X516780Y257831D01*
X516573Y257331D01*
X516194D01*
X515231Y257073D01*
X514367Y256574D01*
X513662Y255869D01*
X513164Y255005D01*
X512906Y254042D01*
Y253045D01*
X513061Y252466D01*
X507890Y247294D01*
X376362D01*
X349538Y274119D01*
X349693Y274698D01*
Y275695D01*
X349435Y276659D01*
X348936Y277522D01*
X348231Y278227D01*
X347367Y278726D01*
X346404Y278984D01*
X345407D01*
X344444Y278726D01*
X343580Y278227D01*
X342875Y277522D01*
X342376Y276659D01*
X342118Y275695D01*
Y274698D01*
X342376Y273735D01*
X342875Y272871D01*
X343580Y272166D01*
X344444Y271668D01*
X345407Y271410D01*
X346404D01*
X346983Y271565D01*
X374337Y244211D01*
X374923Y243819D01*
X375614Y243682D01*
X508638D01*
X509329Y243819D01*
X509915Y244211D01*
X515615Y249911D01*
X516194Y249756D01*
X517192D01*
X518155Y250014D01*
X519018Y250513D01*
X519724Y251218D01*
X519741Y251248D01*
X520241Y251114D01*
Y164134D01*
X421164Y65057D01*
X420772Y64471D01*
X420635Y63779D01*
Y28583D01*
X414631Y22579D01*
X409508D01*
Y14902D01*
X417185D01*
Y20024D01*
X423718Y26557D01*
X424110Y27143D01*
X424247Y27835D01*
Y63031D01*
X523324Y162109D01*
X523716Y162695D01*
X523854Y163386D01*
Y255118D01*
X523716Y255809D01*
X523324Y256395D01*
X510325Y269395D01*
X510480Y269974D01*
Y270971D01*
X510222Y271934D01*
X509724Y272798D01*
X509018Y273503D01*
X508716Y273678D01*
X508850Y274178D01*
X510433D01*
X513061Y271550D01*
X512906Y270971D01*
Y269974D01*
X513164Y269011D01*
X513662Y268147D01*
X514367Y267442D01*
X515231Y266943D01*
X516194Y266685D01*
X517192D01*
X518155Y266943D01*
X519018Y267442D01*
X519724Y268147D01*
X520222Y269011D01*
X520480Y269974D01*
Y270971D01*
X520222Y271934D01*
X519724Y272798D01*
X519018Y273503D01*
X518155Y274002D01*
X517192Y274260D01*
X516194D01*
X515615Y274105D01*
X512458Y277261D01*
X511872Y277653D01*
X511181Y277791D01*
X494882D01*
X494191Y277653D01*
X493605Y277261D01*
X476417Y260074D01*
X423425D01*
X409380Y274119D01*
X409535Y274698D01*
Y275695D01*
X409277Y276659D01*
X408779Y277522D01*
X408074Y278227D01*
X407210Y278726D01*
X406247Y278984D01*
D02*
G37*
G36*
X63805Y255315D02*
X62722D01*
X61676Y255035D01*
X60738Y254493D01*
X59972Y253727D01*
X59430Y252789D01*
X59150Y251743D01*
Y250659D01*
X59430Y249613D01*
X59972Y248675D01*
X60738Y247909D01*
X61676Y247367D01*
X62722Y247087D01*
X63805D01*
X64852Y247367D01*
X65790Y247909D01*
X66556Y248675D01*
X67098Y249613D01*
X67378Y250659D01*
Y251743D01*
X67098Y252789D01*
X66556Y253727D01*
X65790Y254493D01*
X64852Y255035D01*
X63805Y255315D01*
D02*
G37*
G36*
X41443D02*
X40360D01*
X39314Y255035D01*
X38375Y254493D01*
X37609Y253727D01*
X37068Y252789D01*
X36787Y251743D01*
Y250659D01*
X37068Y249613D01*
X37609Y248675D01*
X38375Y247909D01*
X39314Y247367D01*
X40360Y247087D01*
X41443D01*
X42490Y247367D01*
X43428Y247909D01*
X44194Y248675D01*
X44735Y249613D01*
X45016Y250659D01*
Y251743D01*
X44735Y252789D01*
X44194Y253727D01*
X43428Y254493D01*
X42490Y255035D01*
X41443Y255315D01*
D02*
G37*
G36*
X612990Y247637D02*
X612207D01*
X611483Y247337D01*
X610930Y246783D01*
X610630Y246060D01*
Y245277D01*
X610930Y244553D01*
X611483Y244000D01*
X612207Y243700D01*
X612990D01*
X613714Y244000D01*
X614267Y244553D01*
X614567Y245277D01*
Y246060D01*
X614267Y246783D01*
X613714Y247337D01*
X612990Y247637D01*
D02*
G37*
G36*
X598778Y243898D02*
X598073D01*
X597422Y243628D01*
X596923Y243129D01*
X596654Y242478D01*
Y241774D01*
X596923Y241122D01*
X597422Y240624D01*
X597908Y240423D01*
Y239892D01*
X597422Y239691D01*
X596923Y239193D01*
X596654Y238541D01*
Y237837D01*
X596923Y237185D01*
X597422Y236687D01*
X598073Y236417D01*
X598778D01*
X599429Y236687D01*
X599927Y237185D01*
X600197Y237837D01*
Y238541D01*
X599927Y239193D01*
X599429Y239691D01*
X598942Y239892D01*
Y240423D01*
X599429Y240624D01*
X599927Y241122D01*
X600197Y241774D01*
Y242478D01*
X599927Y243129D01*
X599429Y243628D01*
X598778Y243898D01*
D02*
G37*
G36*
X63805Y244445D02*
X62722D01*
X61676Y244164D01*
X60738Y243623D01*
X59972Y242857D01*
X59430Y241919D01*
X59150Y240872D01*
Y239789D01*
X59430Y238743D01*
X59972Y237805D01*
X60738Y237038D01*
X61676Y236497D01*
X62722Y236216D01*
X63805D01*
X64852Y236497D01*
X65790Y237038D01*
X66556Y237805D01*
X67098Y238743D01*
X67378Y239789D01*
Y240872D01*
X67098Y241919D01*
X66556Y242857D01*
X65790Y243623D01*
X64852Y244164D01*
X63805Y244445D01*
D02*
G37*
G36*
X41443D02*
X40360D01*
X39314Y244164D01*
X38375Y243623D01*
X37609Y242857D01*
X37068Y241919D01*
X36787Y240872D01*
Y239789D01*
X37068Y238743D01*
X37609Y237805D01*
X38375Y237038D01*
X39314Y236497D01*
X40360Y236216D01*
X41443D01*
X42490Y236497D01*
X43428Y237038D01*
X44194Y237805D01*
X44735Y238743D01*
X45016Y239789D01*
Y240872D01*
X44735Y241919D01*
X44194Y242857D01*
X43428Y243623D01*
X42490Y244164D01*
X41443Y244445D01*
D02*
G37*
G36*
X591366Y237136D02*
X590661D01*
X590010Y236867D01*
X589511Y236368D01*
X589242Y235717D01*
Y235141D01*
X588860Y234916D01*
X588780Y234896D01*
X588428Y235248D01*
X587777Y235518D01*
X587072D01*
X586421Y235248D01*
X585922Y234750D01*
X585653Y234099D01*
Y233394D01*
X585922Y232743D01*
X586421Y232244D01*
X587072Y231975D01*
X587777D01*
X588428Y232244D01*
X588926Y232743D01*
X589196Y233394D01*
Y233969D01*
X589578Y234194D01*
X589658Y234214D01*
X590010Y233863D01*
X590661Y233593D01*
X591366D01*
X592017Y233863D01*
X592515Y234361D01*
X592785Y235012D01*
Y235717D01*
X592515Y236368D01*
X592017Y236867D01*
X591366Y237136D01*
D02*
G37*
G36*
X440510Y241929D02*
X439805D01*
X439154Y241659D01*
X438656Y241161D01*
X438386Y240510D01*
Y239805D01*
X438656Y239154D01*
X439154Y238655D01*
X439640Y238454D01*
Y237924D01*
X439154Y237722D01*
X438656Y237224D01*
X438386Y236573D01*
Y235868D01*
X438656Y235217D01*
X439154Y234719D01*
X439805Y234449D01*
X440510D01*
X441161Y234719D01*
X441659Y235217D01*
X441929Y235868D01*
Y236573D01*
X441659Y237224D01*
X441161Y237722D01*
X440675Y237924D01*
Y238454D01*
X441161Y238655D01*
X441659Y239154D01*
X441929Y239805D01*
Y240510D01*
X441659Y241161D01*
X441161Y241659D01*
X440510Y241929D01*
D02*
G37*
G36*
X455903Y237117D02*
X455198D01*
X454547Y236847D01*
X454049Y236349D01*
X453779Y235697D01*
Y234993D01*
X454049Y234341D01*
X454547Y233843D01*
X455198Y233573D01*
X455903D01*
X456537Y233836D01*
X456603Y233805D01*
X456953Y233535D01*
X456807Y233181D01*
Y232476D01*
X457076Y231825D01*
X457575Y231326D01*
X458226Y231057D01*
X458930D01*
X459582Y231326D01*
X460080Y231825D01*
X460350Y232476D01*
Y233181D01*
X460080Y233832D01*
X459582Y234330D01*
X458930Y234600D01*
X458226D01*
X457592Y234337D01*
X457526Y234368D01*
X457175Y234638D01*
X457322Y234993D01*
Y235697D01*
X457052Y236349D01*
X456554Y236847D01*
X455903Y237117D01*
D02*
G37*
G36*
X434142Y236742D02*
X433437D01*
X432786Y236472D01*
X432287Y235974D01*
X432018Y235323D01*
Y234618D01*
X432287Y233967D01*
X432786Y233469D01*
X433437Y233199D01*
X433781D01*
X433880Y232699D01*
X433818Y232673D01*
X433320Y232175D01*
X433050Y231524D01*
Y230819D01*
X433320Y230168D01*
X433818Y229669D01*
X434469Y229400D01*
X435174D01*
X435825Y229669D01*
X436324Y230168D01*
X436593Y230819D01*
Y231524D01*
X436324Y232175D01*
X435825Y232673D01*
X435174Y232943D01*
X434831D01*
X434731Y233443D01*
X434793Y233469D01*
X435291Y233967D01*
X435561Y234618D01*
Y235323D01*
X435291Y235974D01*
X434793Y236472D01*
X434142Y236742D01*
D02*
G37*
G36*
X598778Y232480D02*
X598073D01*
X597422Y232211D01*
X596923Y231712D01*
X596654Y231061D01*
Y230356D01*
X596923Y229705D01*
X597422Y229207D01*
X598073Y228937D01*
X598778D01*
X599429Y229207D01*
X599927Y229705D01*
X600197Y230356D01*
Y231061D01*
X599927Y231712D01*
X599429Y232211D01*
X598778Y232480D01*
D02*
G37*
G36*
X63805Y233575D02*
X62722D01*
X61676Y233295D01*
X60738Y232753D01*
X59972Y231987D01*
X59430Y231049D01*
X59150Y230002D01*
Y228919D01*
X59430Y227873D01*
X59972Y226935D01*
X60738Y226168D01*
X61676Y225627D01*
X62722Y225346D01*
X63805D01*
X64852Y225627D01*
X65790Y226168D01*
X66556Y226935D01*
X67098Y227873D01*
X67378Y228919D01*
Y230002D01*
X67098Y231049D01*
X66556Y231987D01*
X65790Y232753D01*
X64852Y233295D01*
X63805Y233575D01*
D02*
G37*
G36*
X41443D02*
X40360D01*
X39314Y233295D01*
X38375Y232753D01*
X37609Y231987D01*
X37068Y231049D01*
X36787Y230002D01*
Y228919D01*
X37068Y227873D01*
X37609Y226935D01*
X38375Y226168D01*
X39314Y225627D01*
X40360Y225346D01*
X41443D01*
X42490Y225627D01*
X43428Y226168D01*
X44194Y226935D01*
X44735Y227873D01*
X45016Y228919D01*
Y230002D01*
X44735Y231049D01*
X44194Y231987D01*
X43428Y232753D01*
X42490Y233295D01*
X41443Y233575D01*
D02*
G37*
G36*
X592075Y227429D02*
X591370D01*
X590719Y227159D01*
X590221Y226661D01*
X589951Y226009D01*
Y225328D01*
X589885Y225268D01*
X589511Y225062D01*
X589237Y225335D01*
X588586Y225605D01*
X587881D01*
X587230Y225335D01*
X586732Y224837D01*
X586462Y224186D01*
Y223481D01*
X586732Y222830D01*
X587230Y222331D01*
X587881Y222062D01*
X588586D01*
X589237Y222331D01*
X589736Y222830D01*
X590005Y223481D01*
Y224162D01*
X590072Y224222D01*
X590446Y224428D01*
X590719Y224155D01*
X591370Y223885D01*
X592075D01*
X592727Y224155D01*
X593225Y224654D01*
X593495Y225305D01*
Y226009D01*
X593225Y226661D01*
X592727Y227159D01*
X592075Y227429D01*
D02*
G37*
G36*
X598778Y228437D02*
X598073D01*
X597422Y228167D01*
X596923Y227669D01*
X596654Y227018D01*
Y226313D01*
X596923Y225662D01*
X597422Y225163D01*
X598073Y224894D01*
X598778D01*
X599429Y225163D01*
X599927Y225662D01*
X600197Y226313D01*
Y227018D01*
X599927Y227669D01*
X599429Y228167D01*
X598778Y228437D01*
D02*
G37*
G36*
X440113Y232187D02*
X439408D01*
X438757Y231917D01*
X438258Y231418D01*
X437989Y230767D01*
Y230063D01*
X438258Y229411D01*
X438757Y228913D01*
X439408Y228643D01*
X439750D01*
X439849Y228143D01*
X439784Y228116D01*
X439286Y227618D01*
X439016Y226967D01*
Y226262D01*
X439286Y225611D01*
X439784Y225112D01*
X440435Y224843D01*
X441140D01*
X441791Y225112D01*
X442289Y225611D01*
X442559Y226262D01*
Y226967D01*
X442289Y227618D01*
X441791Y228116D01*
X441140Y228386D01*
X440798D01*
X440698Y228886D01*
X440764Y228913D01*
X441262Y229411D01*
X441532Y230063D01*
Y230767D01*
X441262Y231418D01*
X440764Y231917D01*
X440113Y232187D01*
D02*
G37*
G36*
X455903Y227274D02*
X455198D01*
X454547Y227004D01*
X454049Y226506D01*
X453779Y225855D01*
Y225150D01*
X454049Y224499D01*
X454547Y224001D01*
X455198Y223731D01*
X455903D01*
X456531Y223991D01*
X456614Y223952D01*
X456946Y223685D01*
X456798Y223328D01*
Y222623D01*
X457068Y221972D01*
X457566Y221474D01*
X458217Y221204D01*
X458922D01*
X459573Y221474D01*
X460072Y221972D01*
X460341Y222623D01*
Y223328D01*
X460072Y223979D01*
X459573Y224478D01*
X458922Y224747D01*
X458217D01*
X457589Y224487D01*
X457506Y224526D01*
X457174Y224793D01*
X457322Y225150D01*
Y225855D01*
X457052Y226506D01*
X456554Y227004D01*
X455903Y227274D01*
D02*
G37*
G36*
X433465Y227293D02*
X432760D01*
X432109Y227024D01*
X431611Y226525D01*
X431341Y225874D01*
Y225169D01*
X431611Y224518D01*
X432109Y224020D01*
X432760Y223750D01*
X433104D01*
X433203Y223250D01*
X433141Y223224D01*
X432643Y222726D01*
X432373Y222075D01*
Y221370D01*
X432643Y220719D01*
X433141Y220220D01*
X433793Y219951D01*
X434497D01*
X435148Y220220D01*
X435647Y220719D01*
X435917Y221370D01*
Y222075D01*
X435647Y222726D01*
X435148Y223224D01*
X434497Y223494D01*
X434154D01*
X434054Y223994D01*
X434116Y224020D01*
X434615Y224518D01*
X434884Y225169D01*
Y225874D01*
X434615Y226525D01*
X434116Y227024D01*
X433465Y227293D01*
D02*
G37*
G36*
X598778Y222669D02*
X598073D01*
X597422Y222399D01*
X596923Y221901D01*
X596654Y221250D01*
Y220545D01*
X596923Y219894D01*
X597422Y219395D01*
X598073Y219125D01*
X598482D01*
X598612Y218820D01*
X598635Y218625D01*
X598178Y218169D01*
X597909Y217518D01*
Y216813D01*
X598178Y216162D01*
X598677Y215664D01*
X599328Y215394D01*
X600033D01*
X600684Y215664D01*
X601182Y216162D01*
X601452Y216813D01*
Y217518D01*
X601182Y218169D01*
X600684Y218668D01*
X600033Y218937D01*
X599624D01*
X599494Y219242D01*
X599471Y219437D01*
X599927Y219894D01*
X600197Y220545D01*
Y221250D01*
X599927Y221901D01*
X599429Y222399D01*
X598778Y222669D01*
D02*
G37*
G36*
X440313Y222737D02*
X439608D01*
X438957Y222468D01*
X438459Y221969D01*
X438189Y221318D01*
Y220613D01*
X438459Y219962D01*
X438957Y219464D01*
X439608Y219194D01*
X439887D01*
X439987Y218694D01*
X439827Y218628D01*
X439329Y218130D01*
X439059Y217478D01*
Y216774D01*
X439329Y216122D01*
X439827Y215624D01*
X440478Y215354D01*
X441183D01*
X441834Y215624D01*
X442333Y216122D01*
X442602Y216774D01*
Y217478D01*
X442333Y218130D01*
X441834Y218628D01*
X441183Y218898D01*
X440904D01*
X440805Y219398D01*
X440964Y219464D01*
X441463Y219962D01*
X441732Y220613D01*
Y221318D01*
X441463Y221969D01*
X440964Y222468D01*
X440313Y222737D01*
D02*
G37*
G36*
X63805Y222705D02*
X62722D01*
X61676Y222424D01*
X60738Y221883D01*
X59972Y221117D01*
X59430Y220179D01*
X59150Y219132D01*
Y218049D01*
X59430Y217002D01*
X59972Y216064D01*
X60738Y215298D01*
X61676Y214757D01*
X62722Y214476D01*
X63805D01*
X64852Y214757D01*
X65790Y215298D01*
X66556Y216064D01*
X67098Y217002D01*
X67378Y218049D01*
Y219132D01*
X67098Y220179D01*
X66556Y221117D01*
X65790Y221883D01*
X64852Y222424D01*
X63805Y222705D01*
D02*
G37*
G36*
X41443D02*
X40360D01*
X39314Y222424D01*
X38375Y221883D01*
X37609Y221117D01*
X37068Y220179D01*
X36787Y219132D01*
Y218049D01*
X37068Y217002D01*
X37609Y216064D01*
X38375Y215298D01*
X39314Y214757D01*
X40360Y214476D01*
X41443D01*
X42490Y214757D01*
X43428Y215298D01*
X44194Y216064D01*
X44735Y217002D01*
X45016Y218049D01*
Y219132D01*
X44735Y220179D01*
X44194Y221117D01*
X43428Y221883D01*
X42490Y222424D01*
X41443Y222705D01*
D02*
G37*
G36*
X593050Y217555D02*
X592346D01*
X591694Y217285D01*
X591196Y216787D01*
X590926Y216136D01*
Y215431D01*
X591196Y214780D01*
X591694Y214281D01*
X592346Y214012D01*
X593050D01*
X593702Y214281D01*
X594200Y214780D01*
X594470Y215431D01*
Y216136D01*
X594200Y216787D01*
X593702Y217285D01*
X593050Y217555D01*
D02*
G37*
G36*
X589249Y216115D02*
X588544D01*
X587893Y215845D01*
X587395Y215347D01*
X587125Y214696D01*
Y213991D01*
X587395Y213340D01*
X587893Y212842D01*
X588544Y212572D01*
X589249D01*
X589900Y212842D01*
X590399Y213340D01*
X590668Y213991D01*
Y214696D01*
X590399Y215347D01*
X589900Y215845D01*
X589249Y216115D01*
D02*
G37*
G36*
X455874Y217586D02*
X455169D01*
X454518Y217316D01*
X454019Y216818D01*
X453750Y216167D01*
Y215462D01*
X454019Y214811D01*
X454518Y214313D01*
X455169Y214043D01*
X455874D01*
X456525Y214313D01*
X456798Y214586D01*
X457172Y214380D01*
X457239Y214319D01*
Y213638D01*
X457508Y212987D01*
X458007Y212489D01*
X458658Y212219D01*
X459363D01*
X460014Y212489D01*
X460512Y212987D01*
X460782Y213638D01*
Y214343D01*
X460512Y214994D01*
X460014Y215493D01*
X459363Y215762D01*
X458658D01*
X458007Y215493D01*
X457734Y215220D01*
X457359Y215425D01*
X457293Y215486D01*
Y216167D01*
X457023Y216818D01*
X456525Y217316D01*
X455874Y217586D01*
D02*
G37*
G36*
X433817Y217845D02*
X433112D01*
X432461Y217575D01*
X431963Y217076D01*
X431693Y216425D01*
Y215720D01*
X431963Y215069D01*
X432461Y214571D01*
X433112Y214301D01*
X433456D01*
X433555Y213801D01*
X433493Y213776D01*
X432995Y213277D01*
X432725Y212626D01*
Y211921D01*
X432995Y211270D01*
X433493Y210772D01*
X434145Y210502D01*
X434849D01*
X435501Y210772D01*
X435999Y211270D01*
X436269Y211921D01*
Y212626D01*
X435999Y213277D01*
X435501Y213776D01*
X434849Y214045D01*
X434506D01*
X434406Y214545D01*
X434468Y214571D01*
X434967Y215069D01*
X435236Y215720D01*
Y216425D01*
X434967Y217076D01*
X434468Y217575D01*
X433817Y217845D01*
D02*
G37*
G36*
X592682Y208593D02*
X591978D01*
X591327Y208323D01*
X590828Y207825D01*
X590558Y207174D01*
Y206469D01*
X590575Y206429D01*
X590151Y206146D01*
X589900Y206397D01*
X589249Y206666D01*
X588544D01*
X587893Y206397D01*
X587395Y205898D01*
X587125Y205247D01*
Y204542D01*
X587395Y203891D01*
X587893Y203393D01*
X588544Y203123D01*
X589249D01*
X589900Y203393D01*
X590399Y203891D01*
X590668Y204542D01*
Y205247D01*
X590652Y205287D01*
X591076Y205570D01*
X591327Y205319D01*
X591978Y205050D01*
X592682D01*
X593334Y205319D01*
X593832Y205818D01*
X594102Y206469D01*
Y207174D01*
X593832Y207825D01*
X593334Y208323D01*
X592682Y208593D01*
D02*
G37*
G36*
X598778Y213288D02*
X598073D01*
X597422Y213019D01*
X596923Y212520D01*
X596654Y211869D01*
Y211164D01*
X596923Y210513D01*
X597422Y210015D01*
X597908Y209813D01*
Y209283D01*
X597422Y209082D01*
X596923Y208583D01*
X596654Y207932D01*
Y207227D01*
X596923Y206576D01*
X597422Y206078D01*
X598073Y205808D01*
X598778D01*
X599429Y206078D01*
X599927Y206576D01*
X600197Y207227D01*
Y207932D01*
X599927Y208583D01*
X599429Y209082D01*
X598942Y209283D01*
Y209813D01*
X599429Y210015D01*
X599927Y210513D01*
X600197Y211164D01*
Y211869D01*
X599927Y212520D01*
X599429Y213019D01*
X598778Y213288D01*
D02*
G37*
G36*
X440916Y213189D02*
X440211D01*
X439560Y212919D01*
X439061Y212421D01*
X438792Y211770D01*
Y211065D01*
X439061Y210414D01*
X439560Y209915D01*
X440046Y209714D01*
X440034Y209184D01*
X439548Y208982D01*
X439049Y208484D01*
X438779Y207833D01*
Y207128D01*
X439049Y206477D01*
X439548Y205978D01*
X440199Y205709D01*
X440904D01*
X441555Y205978D01*
X442053Y206477D01*
X442323Y207128D01*
Y207833D01*
X442053Y208484D01*
X441555Y208982D01*
X441068Y209184D01*
X441081Y209714D01*
X441567Y209915D01*
X442065Y210414D01*
X442335Y211065D01*
Y211770D01*
X442065Y212421D01*
X441567Y212919D01*
X440916Y213189D01*
D02*
G37*
G36*
X433409Y208193D02*
X432705D01*
X432053Y207924D01*
X431555Y207425D01*
X431285Y206774D01*
Y206069D01*
X431555Y205418D01*
X432053Y204920D01*
X432705Y204650D01*
X433409D01*
X434060Y204920D01*
X434559Y205418D01*
X434829Y206069D01*
Y206774D01*
X434559Y207425D01*
X434060Y207924D01*
X433409Y208193D01*
D02*
G37*
G36*
X63805Y211835D02*
X62722D01*
X61676Y211554D01*
X60738Y211013D01*
X59972Y210247D01*
X59430Y209309D01*
X59150Y208262D01*
Y207179D01*
X59430Y206132D01*
X59972Y205194D01*
X60738Y204428D01*
X61676Y203887D01*
X62722Y203606D01*
X63805D01*
X64852Y203887D01*
X65790Y204428D01*
X66556Y205194D01*
X67098Y206132D01*
X67378Y207179D01*
Y208262D01*
X67098Y209309D01*
X66556Y210247D01*
X65790Y211013D01*
X64852Y211554D01*
X63805Y211835D01*
D02*
G37*
G36*
X41443D02*
X40360D01*
X39314Y211554D01*
X38375Y211013D01*
X37609Y210247D01*
X37068Y209309D01*
X36787Y208262D01*
Y207179D01*
X37068Y206132D01*
X37609Y205194D01*
X38375Y204428D01*
X39314Y203887D01*
X40360Y203606D01*
X41443D01*
X42490Y203887D01*
X43428Y204428D01*
X44194Y205194D01*
X44735Y206132D01*
X45016Y207179D01*
Y208262D01*
X44735Y209309D01*
X44194Y210247D01*
X43428Y211013D01*
X42490Y211554D01*
X41443Y211835D01*
D02*
G37*
G36*
X455874Y208137D02*
X455169D01*
X454518Y207868D01*
X454019Y207369D01*
X453750Y206718D01*
Y206013D01*
X454019Y205362D01*
X454518Y204864D01*
X455169Y204594D01*
X455874D01*
X456525Y204864D01*
X456798Y205137D01*
X457172Y204931D01*
X457239Y204871D01*
Y204190D01*
X457508Y203538D01*
X458007Y203040D01*
X458658Y202770D01*
X459363D01*
X460014Y203040D01*
X460512Y203538D01*
X460782Y204190D01*
Y204894D01*
X460512Y205546D01*
X460014Y206044D01*
X459363Y206314D01*
X458658D01*
X458007Y206044D01*
X457734Y205771D01*
X457359Y205977D01*
X457293Y206037D01*
Y206718D01*
X457023Y207369D01*
X456525Y207868D01*
X455874Y208137D01*
D02*
G37*
G36*
X433423Y204134D02*
X432719D01*
X432067Y203864D01*
X431569Y203366D01*
X431299Y202715D01*
Y202010D01*
X431569Y201359D01*
X432067Y200860D01*
X432719Y200591D01*
X433423D01*
X434074Y200860D01*
X434573Y201359D01*
X434842Y202010D01*
Y202715D01*
X434573Y203366D01*
X434074Y203864D01*
X433423Y204134D01*
D02*
G37*
G36*
X599011Y203343D02*
X598306D01*
X597655Y203074D01*
X597157Y202575D01*
X596887Y201924D01*
Y201219D01*
X597157Y200568D01*
X597655Y200070D01*
X598204Y199842D01*
X598270Y199470D01*
X598254Y199321D01*
X597815Y199140D01*
X597317Y198641D01*
X597047Y197990D01*
Y197285D01*
X597317Y196634D01*
X597815Y196136D01*
X598466Y195866D01*
X599171D01*
X599823Y196136D01*
X600321Y196634D01*
X600591Y197285D01*
Y197990D01*
X600321Y198641D01*
X599823Y199140D01*
X599273Y199367D01*
X599207Y199739D01*
X599223Y199888D01*
X599662Y200070D01*
X600161Y200568D01*
X600430Y201219D01*
Y201924D01*
X600161Y202575D01*
X599662Y203074D01*
X599011Y203343D01*
D02*
G37*
G36*
X440904Y202953D02*
X440199D01*
X439548Y202683D01*
X439049Y202185D01*
X438779Y201534D01*
Y200829D01*
X439049Y200178D01*
X439548Y199679D01*
X440034Y199478D01*
Y198948D01*
X439548Y198746D01*
X439049Y198248D01*
X438779Y197597D01*
Y196892D01*
X439049Y196240D01*
X439548Y195742D01*
X440199Y195473D01*
X440904D01*
X441555Y195742D01*
X442053Y196240D01*
X442323Y196892D01*
Y197597D01*
X442053Y198248D01*
X441555Y198746D01*
X441068Y198948D01*
Y199478D01*
X441555Y199679D01*
X442053Y200178D01*
X442323Y200829D01*
Y201534D01*
X442053Y202185D01*
X441555Y202683D01*
X440904Y202953D01*
D02*
G37*
G36*
X593650Y197901D02*
X592945D01*
X592294Y197631D01*
X591796Y197133D01*
X591526Y196482D01*
Y195777D01*
X591796Y195126D01*
X592294Y194627D01*
X592945Y194358D01*
X593650D01*
X594301Y194627D01*
X594800Y195126D01*
X595069Y195777D01*
Y196482D01*
X594800Y197133D01*
X594301Y197631D01*
X593650Y197901D01*
D02*
G37*
G36*
X63805Y200965D02*
X62722D01*
X61676Y200684D01*
X60738Y200143D01*
X59972Y199377D01*
X59430Y198439D01*
X59150Y197392D01*
Y196309D01*
X59430Y195262D01*
X59972Y194324D01*
X60738Y193558D01*
X61676Y193017D01*
X62722Y192736D01*
X63805D01*
X64852Y193017D01*
X65790Y193558D01*
X66556Y194324D01*
X67098Y195262D01*
X67378Y196309D01*
Y197392D01*
X67098Y198439D01*
X66556Y199377D01*
X65790Y200143D01*
X64852Y200684D01*
X63805Y200965D01*
D02*
G37*
G36*
X41443D02*
X40360D01*
X39314Y200684D01*
X38375Y200143D01*
X37609Y199377D01*
X37068Y198439D01*
X36787Y197392D01*
Y196309D01*
X37068Y195262D01*
X37609Y194324D01*
X38375Y193558D01*
X39314Y193017D01*
X40360Y192736D01*
X41443D01*
X42490Y193017D01*
X43428Y193558D01*
X44194Y194324D01*
X44735Y195262D01*
X45016Y196309D01*
Y197392D01*
X44735Y198439D01*
X44194Y199377D01*
X43428Y200143D01*
X42490Y200684D01*
X41443Y200965D01*
D02*
G37*
G36*
X590099Y195824D02*
X589395D01*
X588743Y195555D01*
X588245Y195056D01*
X587975Y194405D01*
Y193700D01*
X588245Y193049D01*
X588743Y192551D01*
X589395Y192281D01*
X590099D01*
X590751Y192551D01*
X591249Y193049D01*
X591519Y193700D01*
Y194405D01*
X591249Y195056D01*
X590751Y195555D01*
X590099Y195824D01*
D02*
G37*
G36*
X63805Y190094D02*
X62722D01*
X61676Y189814D01*
X60738Y189272D01*
X59972Y188506D01*
X59430Y187568D01*
X59150Y186522D01*
Y185439D01*
X59430Y184392D01*
X59972Y183454D01*
X60738Y182688D01*
X61676Y182147D01*
X62722Y181866D01*
X63805D01*
X64852Y182147D01*
X65790Y182688D01*
X66556Y183454D01*
X67098Y184392D01*
X67378Y185439D01*
Y186522D01*
X67098Y187568D01*
X66556Y188506D01*
X65790Y189272D01*
X64852Y189814D01*
X63805Y190094D01*
D02*
G37*
G36*
X41443D02*
X40360D01*
X39314Y189814D01*
X38375Y189272D01*
X37609Y188506D01*
X37068Y187568D01*
X36787Y186522D01*
Y185439D01*
X37068Y184392D01*
X37609Y183454D01*
X38375Y182688D01*
X39314Y182147D01*
X40360Y181866D01*
X41443D01*
X42490Y182147D01*
X43428Y182688D01*
X44194Y183454D01*
X44735Y184392D01*
X45016Y185439D01*
Y186522D01*
X44735Y187568D01*
X44194Y188506D01*
X43428Y189272D01*
X42490Y189814D01*
X41443Y190094D01*
D02*
G37*
G36*
X594841Y183268D02*
X594136D01*
X593485Y182998D01*
X592986Y182500D01*
X592717Y181849D01*
Y181144D01*
X592986Y180492D01*
X593485Y179994D01*
X594136Y179724D01*
X594841D01*
X595492Y179994D01*
X595990Y180492D01*
X596260Y181144D01*
Y181849D01*
X595990Y182500D01*
X595492Y182998D01*
X594841Y183268D01*
D02*
G37*
G36*
X455673Y182544D02*
X454968D01*
X454317Y182274D01*
X453818Y181776D01*
X453548Y181125D01*
Y180420D01*
X453818Y179769D01*
X454317Y179271D01*
X454968Y179001D01*
X455673D01*
X456324Y179271D01*
X456822Y179769D01*
X457092Y180420D01*
Y181125D01*
X456822Y181776D01*
X456324Y182274D01*
X455673Y182544D01*
D02*
G37*
G36*
X598384Y180905D02*
X597679D01*
X597028Y180636D01*
X596530Y180137D01*
X596260Y179486D01*
Y178781D01*
X596530Y178130D01*
X597028Y177632D01*
X597679Y177362D01*
X598384D01*
X599035Y177632D01*
X599533Y178130D01*
X599803Y178781D01*
Y179486D01*
X599533Y180137D01*
X599035Y180636D01*
X598384Y180905D01*
D02*
G37*
G36*
X433817Y177642D02*
X433112D01*
X432461Y177372D01*
X431963Y176874D01*
X431693Y176223D01*
Y175518D01*
X431963Y174866D01*
X432461Y174368D01*
X433112Y174098D01*
X433817D01*
X434468Y174368D01*
X434967Y174866D01*
X435236Y175518D01*
Y176223D01*
X434967Y176874D01*
X434468Y177372D01*
X433817Y177642D01*
D02*
G37*
G36*
X460154Y181382D02*
X459449D01*
X458798Y181112D01*
X458299Y180614D01*
X458030Y179963D01*
Y179258D01*
X458299Y178607D01*
X458798Y178108D01*
X459449Y177839D01*
X459392Y177362D01*
X458703Y177362D01*
X458052Y177093D01*
X457553Y176594D01*
X457283Y175943D01*
Y175238D01*
X457553Y174587D01*
X458052Y174089D01*
X458703Y173819D01*
X459408D01*
X460059Y174089D01*
X460557Y174587D01*
X460827Y175238D01*
Y175943D01*
X460557Y176594D01*
X460059Y177093D01*
X459408Y177362D01*
X459465Y177839D01*
X460154Y177839D01*
X460805Y178108D01*
X461303Y178607D01*
X461573Y179258D01*
Y179963D01*
X461303Y180614D01*
X460805Y181112D01*
X460154Y181382D01*
D02*
G37*
G36*
X598778Y176575D02*
X598073D01*
X597422Y176305D01*
X596923Y175807D01*
X596654Y175156D01*
Y174451D01*
X596923Y173800D01*
X597422Y173301D01*
X598073Y173031D01*
X598778D01*
X599429Y173301D01*
X599927Y173800D01*
X600197Y174451D01*
Y175156D01*
X599927Y175807D01*
X599429Y176305D01*
X598778Y176575D01*
D02*
G37*
G36*
X593659Y175394D02*
X592955D01*
X592304Y175124D01*
X591805Y174626D01*
X591535Y173975D01*
Y173270D01*
X591805Y172618D01*
X592304Y172120D01*
X592955Y171850D01*
X593659D01*
X594311Y172120D01*
X594809Y172618D01*
X595079Y173270D01*
Y173975D01*
X594809Y174626D01*
X594311Y175124D01*
X593659Y175394D01*
D02*
G37*
G36*
X456258Y174606D02*
X455553D01*
X454902Y174337D01*
X454404Y173838D01*
X454134Y173187D01*
Y172482D01*
X454404Y171831D01*
X454902Y171333D01*
X455553Y171063D01*
X456258D01*
X456909Y171333D01*
X457407Y171831D01*
X457677Y172482D01*
Y173187D01*
X457407Y173838D01*
X456909Y174337D01*
X456258Y174606D01*
D02*
G37*
G36*
X63805Y179224D02*
X62722D01*
X61676Y178944D01*
X60738Y178402D01*
X59972Y177636D01*
X59430Y176698D01*
X59150Y175652D01*
Y174569D01*
X59430Y173522D01*
X59972Y172584D01*
X60738Y171818D01*
X61676Y171276D01*
X62722Y170996D01*
X63805D01*
X64852Y171276D01*
X65790Y171818D01*
X66556Y172584D01*
X67098Y173522D01*
X67378Y174569D01*
Y175652D01*
X67098Y176698D01*
X66556Y177636D01*
X65790Y178402D01*
X64852Y178944D01*
X63805Y179224D01*
D02*
G37*
G36*
X41443D02*
X40360D01*
X39314Y178944D01*
X38375Y178402D01*
X37609Y177636D01*
X37068Y176698D01*
X36787Y175652D01*
Y174569D01*
X37068Y173522D01*
X37609Y172584D01*
X38375Y171818D01*
X39314Y171276D01*
X40360Y170996D01*
X41443D01*
X42490Y171276D01*
X43428Y171818D01*
X44194Y172584D01*
X44735Y173522D01*
X45016Y174569D01*
Y175652D01*
X44735Y176698D01*
X44194Y177636D01*
X43428Y178402D01*
X42490Y178944D01*
X41443Y179224D01*
D02*
G37*
G36*
X433817Y171850D02*
X433112D01*
X432461Y171581D01*
X431963Y171082D01*
X431693Y170431D01*
Y169726D01*
X431963Y169075D01*
X432461Y168577D01*
X433112Y168307D01*
X433817D01*
X434468Y168577D01*
X434967Y169075D01*
X435236Y169726D01*
Y170431D01*
X434967Y171082D01*
X434468Y171581D01*
X433817Y171850D01*
D02*
G37*
G36*
X614171Y172047D02*
X613388D01*
X612665Y171747D01*
X612111Y171194D01*
X611811Y170470D01*
Y169687D01*
X612111Y168963D01*
X612665Y168410D01*
X613388Y168110D01*
X614171D01*
X614895Y168410D01*
X615448Y168963D01*
X615748Y169687D01*
Y170470D01*
X615448Y171194D01*
X614895Y171747D01*
X614171Y172047D01*
D02*
G37*
G36*
X458686Y169159D02*
X457981D01*
X457330Y168889D01*
X456832Y168391D01*
X456562Y167739D01*
Y167035D01*
X456763Y166549D01*
X456364Y166206D01*
X455864Y166413D01*
X455159D01*
X454508Y166144D01*
X454010Y165645D01*
X453740Y164994D01*
Y164289D01*
X454010Y163638D01*
X454508Y163140D01*
X455159Y162870D01*
Y162402D01*
X454508Y162132D01*
X454010Y161634D01*
X453740Y160982D01*
Y160277D01*
X454010Y159626D01*
X454508Y159128D01*
X455159Y158858D01*
X455864D01*
X456515Y159128D01*
X457014Y159626D01*
X457283Y160277D01*
Y160982D01*
X457014Y161634D01*
X456515Y162132D01*
X455864Y162402D01*
Y162870D01*
X456515Y163140D01*
X457014Y163638D01*
X457283Y164289D01*
Y164994D01*
X457082Y165480D01*
X457482Y165822D01*
X457981Y165615D01*
X458686D01*
X459337Y165885D01*
X459836Y166384D01*
X460105Y167035D01*
Y167739D01*
X459836Y168391D01*
X459337Y168889D01*
X458686Y169159D01*
D02*
G37*
G36*
X594841Y169095D02*
X594136D01*
X593485Y168825D01*
X592986Y168326D01*
X592717Y167675D01*
Y166970D01*
X592986Y166319D01*
X593485Y165821D01*
X594136Y165551D01*
X594841D01*
X595492Y165821D01*
X595990Y166319D01*
X596260Y166970D01*
Y167675D01*
X595990Y168326D01*
X595492Y168825D01*
X594841Y169095D01*
D02*
G37*
G36*
X598778Y166339D02*
X598073D01*
X597422Y166069D01*
X596923Y165570D01*
X596654Y164919D01*
Y164215D01*
X596923Y163563D01*
X597422Y163065D01*
X598073Y162795D01*
X598778D01*
X599429Y163065D01*
X599927Y163563D01*
X600197Y164215D01*
Y164919D01*
X599927Y165570D01*
X599429Y166069D01*
X598778Y166339D01*
D02*
G37*
G36*
X433817Y164764D02*
X433112D01*
X432461Y164494D01*
X431963Y163996D01*
X431693Y163345D01*
Y162640D01*
X431963Y161989D01*
X432461Y161490D01*
X433112Y161221D01*
X433817D01*
X434468Y161490D01*
X434967Y161989D01*
X435236Y162640D01*
Y163345D01*
X434967Y163996D01*
X434468Y164494D01*
X433817Y164764D01*
D02*
G37*
G36*
X589329Y163705D02*
X588624D01*
X587973Y163435D01*
X587474Y162937D01*
X587205Y162285D01*
Y161581D01*
X587474Y160930D01*
X587973Y160431D01*
X588624Y160161D01*
X589329D01*
X589980Y160431D01*
X590478Y160930D01*
X590748Y161581D01*
Y162285D01*
X590478Y162937D01*
X589980Y163435D01*
X589329Y163705D01*
D02*
G37*
G36*
X63805Y168354D02*
X62722D01*
X61676Y168074D01*
X60738Y167532D01*
X59972Y166766D01*
X59430Y165828D01*
X59150Y164782D01*
Y163698D01*
X59430Y162652D01*
X59972Y161714D01*
X60738Y160948D01*
X61676Y160406D01*
X62722Y160126D01*
X63805D01*
X64852Y160406D01*
X65790Y160948D01*
X66556Y161714D01*
X67098Y162652D01*
X67378Y163698D01*
Y164782D01*
X67098Y165828D01*
X66556Y166766D01*
X65790Y167532D01*
X64852Y168074D01*
X63805Y168354D01*
D02*
G37*
G36*
X41443D02*
X40360D01*
X39314Y168074D01*
X38375Y167532D01*
X37609Y166766D01*
X37068Y165828D01*
X36787Y164782D01*
Y163698D01*
X37068Y162652D01*
X37609Y161714D01*
X38375Y160948D01*
X39314Y160406D01*
X40360Y160126D01*
X41443D01*
X42490Y160406D01*
X43428Y160948D01*
X44194Y161714D01*
X44735Y162652D01*
X45016Y163698D01*
Y164782D01*
X44735Y165828D01*
X44194Y166766D01*
X43428Y167532D01*
X42490Y168074D01*
X41443Y168354D01*
D02*
G37*
G36*
X598778Y161221D02*
X598073D01*
X597422Y160951D01*
X596923Y160452D01*
X596654Y159801D01*
Y159096D01*
X596923Y158445D01*
X597422Y157947D01*
X598073Y157677D01*
X598778D01*
X599429Y157947D01*
X599927Y158445D01*
X600197Y159096D01*
Y159801D01*
X599927Y160452D01*
X599429Y160951D01*
X598778Y161221D01*
D02*
G37*
G36*
X603108Y159646D02*
X602403D01*
X601752Y159376D01*
X601254Y158878D01*
X600984Y158226D01*
Y157522D01*
X601254Y156870D01*
X601752Y156372D01*
X602403Y156102D01*
X603108D01*
X603759Y156372D01*
X604258Y156870D01*
X604528Y157522D01*
Y158226D01*
X604258Y158878D01*
X603759Y159376D01*
X603108Y159646D01*
D02*
G37*
G36*
X52624Y162919D02*
X51541D01*
X50495Y162639D01*
X49557Y162097D01*
X48791Y161331D01*
X48249Y160393D01*
X47969Y159347D01*
Y158263D01*
X48249Y157217D01*
X48791Y156279D01*
X49557Y155513D01*
X50495Y154971D01*
X51541Y154691D01*
X52624D01*
X53671Y154971D01*
X54609Y155513D01*
X55375Y156279D01*
X55917Y157217D01*
X56197Y158263D01*
Y159347D01*
X55917Y160393D01*
X55375Y161331D01*
X54609Y162097D01*
X53671Y162639D01*
X52624Y162919D01*
D02*
G37*
G36*
X456258Y158071D02*
X455553D01*
X454902Y157801D01*
X454404Y157303D01*
X454134Y156652D01*
Y155947D01*
X454404Y155296D01*
X454902Y154797D01*
X455553Y154528D01*
X456258D01*
X456909Y154797D01*
X457407Y155296D01*
X457677Y155947D01*
Y156652D01*
X457407Y157303D01*
X456909Y157801D01*
X456258Y158071D01*
D02*
G37*
G36*
X589234Y156768D02*
X588530D01*
X587879Y156498D01*
X587380Y156000D01*
X587110Y155349D01*
Y154644D01*
X587380Y153992D01*
X587879Y153494D01*
X588530Y153224D01*
X589234D01*
X589787Y153453D01*
X590087Y153247D01*
X590190Y153120D01*
X590010Y152686D01*
Y151981D01*
X590280Y151330D01*
X590778Y150831D01*
X591430Y150562D01*
X592135D01*
X592786Y150831D01*
X593284Y151330D01*
X593554Y151981D01*
Y152686D01*
X593284Y153337D01*
X592786Y153835D01*
X592135Y154105D01*
X591430D01*
X590877Y153876D01*
X590577Y154083D01*
X590474Y154209D01*
X590654Y154644D01*
Y155349D01*
X590384Y156000D01*
X589886Y156498D01*
X589234Y156768D01*
D02*
G37*
G36*
X63805Y157484D02*
X62722D01*
X61676Y157204D01*
X60738Y156662D01*
X59972Y155896D01*
X59430Y154958D01*
X59150Y153912D01*
Y152828D01*
X59430Y151782D01*
X59972Y150844D01*
X60738Y150078D01*
X61676Y149536D01*
X62722Y149256D01*
X63805D01*
X64852Y149536D01*
X65790Y150078D01*
X66556Y150844D01*
X67098Y151782D01*
X67378Y152828D01*
Y153912D01*
X67098Y154958D01*
X66556Y155896D01*
X65790Y156662D01*
X64852Y157204D01*
X63805Y157484D01*
D02*
G37*
G36*
X41443D02*
X40360D01*
X39314Y157204D01*
X38375Y156662D01*
X37609Y155896D01*
X37068Y154958D01*
X36787Y153912D01*
Y152828D01*
X37068Y151782D01*
X37609Y150844D01*
X38375Y150078D01*
X39314Y149536D01*
X40360Y149256D01*
X41443D01*
X42490Y149536D01*
X43428Y150078D01*
X44194Y150844D01*
X44735Y151782D01*
X45016Y152828D01*
Y153912D01*
X44735Y154958D01*
X44194Y155896D01*
X43428Y156662D01*
X42490Y157204D01*
X41443Y157484D01*
D02*
G37*
G36*
X599171Y153865D02*
X598466D01*
X597815Y153595D01*
X597317Y153097D01*
X597047Y152445D01*
Y151741D01*
X597317Y151090D01*
X597815Y150591D01*
X598302Y150390D01*
Y149859D01*
X597815Y149658D01*
X597317Y149160D01*
X597047Y148509D01*
Y147804D01*
X597317Y147153D01*
X597815Y146654D01*
X598466Y146385D01*
X599171D01*
X599823Y146654D01*
X600321Y147153D01*
X600591Y147804D01*
Y148509D01*
X600321Y149160D01*
X599823Y149658D01*
X599336Y149859D01*
Y150390D01*
X599823Y150591D01*
X600321Y151090D01*
X600591Y151741D01*
Y152445D01*
X600321Y153097D01*
X599823Y153595D01*
X599171Y153865D01*
D02*
G37*
G36*
X457045Y153543D02*
X456341D01*
X455689Y153274D01*
X455191Y152775D01*
X454921Y152124D01*
Y151419D01*
X455191Y150768D01*
X455689Y150270D01*
X456176Y150068D01*
Y149538D01*
X455689Y149337D01*
X455191Y148838D01*
X454921Y148187D01*
Y147482D01*
X455191Y146831D01*
X455689Y146333D01*
X456341Y146063D01*
X457045D01*
X457696Y146333D01*
X458195Y146831D01*
X458465Y147482D01*
Y148187D01*
X458195Y148838D01*
X457696Y149337D01*
X457210Y149538D01*
Y150068D01*
X457696Y150270D01*
X458195Y150768D01*
X458465Y151419D01*
Y152124D01*
X458195Y152775D01*
X457696Y153274D01*
X457045Y153543D01*
D02*
G37*
G36*
X592478Y148456D02*
X591774D01*
X591122Y148187D01*
X590624Y147688D01*
X590354Y147037D01*
Y146332D01*
X590624Y145681D01*
X591122Y145183D01*
X591774Y144913D01*
X592478D01*
X593129Y145183D01*
X593628Y145681D01*
X593898Y146332D01*
Y147037D01*
X593628Y147688D01*
X593129Y148187D01*
X592478Y148456D01*
D02*
G37*
G36*
X52624Y152049D02*
X51541D01*
X50495Y151769D01*
X49557Y151227D01*
X48791Y150461D01*
X48249Y149523D01*
X47969Y148477D01*
Y147393D01*
X48249Y146347D01*
X48791Y145409D01*
X49557Y144643D01*
X50495Y144101D01*
X51541Y143821D01*
X52624D01*
X53671Y144101D01*
X54609Y144643D01*
X55375Y145409D01*
X55917Y146347D01*
X56197Y147393D01*
Y148477D01*
X55917Y149523D01*
X55375Y150461D01*
X54609Y151227D01*
X53671Y151769D01*
X52624Y152049D01*
D02*
G37*
G36*
X599565Y144638D02*
X598860D01*
X598209Y144368D01*
X597711Y143870D01*
X597441Y143219D01*
Y142514D01*
X597711Y141863D01*
X598209Y141364D01*
X598860Y141095D01*
X599565D01*
X600216Y141364D01*
X600714Y141863D01*
X600984Y142514D01*
Y143219D01*
X600714Y143870D01*
X600216Y144368D01*
X599565Y144638D01*
D02*
G37*
G36*
X434604Y148553D02*
X433900D01*
X433248Y148283D01*
X432750Y147785D01*
X432480Y147134D01*
Y146429D01*
X432750Y145778D01*
X433248Y145280D01*
X433600Y145134D01*
X433531Y144677D01*
X433512Y144629D01*
X432873Y144364D01*
X432375Y143866D01*
X432105Y143215D01*
Y142510D01*
X432375Y141859D01*
X432873Y141360D01*
X433524Y141091D01*
X434229D01*
X434880Y141360D01*
X435379Y141859D01*
X435648Y142510D01*
Y143215D01*
X435379Y143866D01*
X434880Y144364D01*
X434529Y144510D01*
X434598Y144967D01*
X434616Y145015D01*
X435255Y145280D01*
X435754Y145778D01*
X436024Y146429D01*
Y147134D01*
X435754Y147785D01*
X435255Y148283D01*
X434604Y148553D01*
D02*
G37*
G36*
X599647Y140578D02*
X598942D01*
X598291Y140309D01*
X597792Y139810D01*
X597523Y139159D01*
Y138916D01*
X597023Y138816D01*
X596940Y139015D01*
X596442Y139514D01*
X595791Y139783D01*
X595086D01*
X594435Y139514D01*
X593936Y139015D01*
X593667Y138364D01*
Y137659D01*
X593936Y137008D01*
X594435Y136510D01*
X594977Y136285D01*
X594877Y135785D01*
X594715D01*
X594064Y135516D01*
X593565Y135017D01*
X593296Y134366D01*
Y133661D01*
X593565Y133010D01*
X594064Y132512D01*
X594715Y132242D01*
X595420D01*
X596071Y132512D01*
X596569Y133010D01*
X596839Y133661D01*
Y134366D01*
X596569Y135017D01*
X596071Y135516D01*
X595529Y135740D01*
X595628Y136240D01*
X595791D01*
X596442Y136510D01*
X596940Y137008D01*
X597210Y137659D01*
Y137902D01*
X597710Y138002D01*
X597792Y137803D01*
X598291Y137305D01*
X598942Y137035D01*
X599647D01*
X600298Y137305D01*
X600796Y137803D01*
X601066Y138454D01*
Y139159D01*
X600796Y139810D01*
X600298Y140309D01*
X599647Y140578D01*
D02*
G37*
G36*
X63805Y146614D02*
X62722D01*
X61676Y146334D01*
X60738Y145792D01*
X59972Y145026D01*
X59430Y144088D01*
X59150Y143042D01*
Y141958D01*
X59430Y140912D01*
X59972Y139974D01*
X60738Y139208D01*
X61676Y138666D01*
X62722Y138386D01*
X63805D01*
X64852Y138666D01*
X65790Y139208D01*
X66556Y139974D01*
X67098Y140912D01*
X67378Y141958D01*
Y143042D01*
X67098Y144088D01*
X66556Y145026D01*
X65790Y145792D01*
X64852Y146334D01*
X63805Y146614D01*
D02*
G37*
G36*
X41443D02*
X40360D01*
X39314Y146334D01*
X38375Y145792D01*
X37609Y145026D01*
X37068Y144088D01*
X36787Y143042D01*
Y141958D01*
X37068Y140912D01*
X37609Y139974D01*
X38375Y139208D01*
X39314Y138666D01*
X40360Y138386D01*
X41443D01*
X42490Y138666D01*
X43428Y139208D01*
X44194Y139974D01*
X44735Y140912D01*
X45016Y141958D01*
Y143042D01*
X44735Y144088D01*
X44194Y145026D01*
X43428Y145792D01*
X42490Y146334D01*
X41443Y146614D01*
D02*
G37*
G36*
X457833Y143898D02*
X457128D01*
X456477Y143628D01*
X455978Y143130D01*
X455709Y142478D01*
Y141774D01*
X455978Y141122D01*
X456477Y140624D01*
X456963Y140423D01*
Y139892D01*
X456477Y139691D01*
X455978Y139192D01*
X455709Y138541D01*
Y137837D01*
X455978Y137185D01*
X456477Y136687D01*
X457128Y136417D01*
X457833D01*
X458484Y136687D01*
X458982Y137185D01*
X459252Y137837D01*
Y138541D01*
X458982Y139192D01*
X458484Y139691D01*
X457998Y139892D01*
Y140423D01*
X458484Y140624D01*
X458982Y141122D01*
X459252Y141774D01*
Y142478D01*
X458982Y143130D01*
X458484Y143628D01*
X457833Y143898D01*
D02*
G37*
G36*
X440509Y143898D02*
X439804D01*
X439153Y143628D01*
X438655Y143130D01*
X438385Y142478D01*
Y141774D01*
X438655Y141122D01*
X439153Y140624D01*
X439640Y140423D01*
X439640Y139892D01*
X439154Y139691D01*
X438656Y139192D01*
X438386Y138541D01*
Y137837D01*
X438656Y137185D01*
X439154Y136687D01*
X439805Y136417D01*
X440510D01*
X441161Y136687D01*
X441659Y137185D01*
X441929Y137837D01*
Y138541D01*
X441659Y139192D01*
X441161Y139691D01*
X440675Y139892D01*
X440674Y140423D01*
X441160Y140624D01*
X441659Y141122D01*
X441928Y141774D01*
Y142478D01*
X441659Y143130D01*
X441160Y143628D01*
X440509Y143898D01*
D02*
G37*
G36*
X52624Y141179D02*
X51541D01*
X50495Y140899D01*
X49557Y140357D01*
X48791Y139591D01*
X48249Y138653D01*
X47969Y137607D01*
Y136523D01*
X48249Y135477D01*
X48791Y134539D01*
X49557Y133773D01*
X50495Y133231D01*
X51541Y132951D01*
X52624D01*
X53671Y133231D01*
X54609Y133773D01*
X55375Y134539D01*
X55917Y135477D01*
X56197Y136523D01*
Y137607D01*
X55917Y138653D01*
X55375Y139591D01*
X54609Y140357D01*
X53671Y140899D01*
X52624Y141179D01*
D02*
G37*
G36*
X591297Y134768D02*
X590593D01*
X589942Y134498D01*
X589443Y134000D01*
X589173Y133349D01*
Y132644D01*
X589443Y131992D01*
X589942Y131494D01*
X590593Y131224D01*
X591297D01*
X591949Y131494D01*
X592447Y131992D01*
X592717Y132644D01*
Y133349D01*
X592447Y134000D01*
X591949Y134498D01*
X591297Y134768D01*
D02*
G37*
G36*
X433817Y134055D02*
X433112D01*
X432461Y133785D01*
X431963Y133287D01*
X431693Y132636D01*
Y131931D01*
X431963Y131280D01*
X432461Y130781D01*
X433112Y130512D01*
X433817D01*
X434468Y130781D01*
X434967Y131280D01*
X435236Y131931D01*
Y132636D01*
X434967Y133287D01*
X434468Y133785D01*
X433817Y134055D01*
D02*
G37*
G36*
X455471D02*
X454766D01*
X454114Y133785D01*
X453616Y133287D01*
X453346Y132636D01*
Y131931D01*
X453616Y131280D01*
X454114Y130781D01*
X454766Y130512D01*
X455471D01*
X456040Y130748D01*
X456292Y130588D01*
X456444Y130415D01*
X456273Y130002D01*
Y129297D01*
X456542Y128646D01*
X457041Y128148D01*
X457692Y127878D01*
X458397D01*
X459048Y128148D01*
X459546Y128646D01*
X459816Y129297D01*
Y130002D01*
X459546Y130653D01*
X459048Y131151D01*
X458397Y131421D01*
X457692D01*
X457122Y131185D01*
X456871Y131345D01*
X456719Y131518D01*
X456890Y131931D01*
Y132636D01*
X456620Y133287D01*
X456122Y133785D01*
X455471Y134055D01*
D02*
G37*
G36*
X63805Y135744D02*
X62722D01*
X61676Y135464D01*
X60738Y134922D01*
X59972Y134156D01*
X59430Y133218D01*
X59150Y132171D01*
Y131088D01*
X59430Y130042D01*
X59972Y129104D01*
X60738Y128338D01*
X61676Y127796D01*
X62722Y127516D01*
X63805D01*
X64852Y127796D01*
X65790Y128338D01*
X66556Y129104D01*
X67098Y130042D01*
X67378Y131088D01*
Y132171D01*
X67098Y133218D01*
X66556Y134156D01*
X65790Y134922D01*
X64852Y135464D01*
X63805Y135744D01*
D02*
G37*
G36*
X41443D02*
X40360D01*
X39314Y135464D01*
X38375Y134922D01*
X37609Y134156D01*
X37068Y133218D01*
X36787Y132171D01*
Y131088D01*
X37068Y130042D01*
X37609Y129104D01*
X38375Y128338D01*
X39314Y127796D01*
X40360Y127516D01*
X41443D01*
X42490Y127796D01*
X43428Y128338D01*
X44194Y129104D01*
X44735Y130042D01*
X45016Y131088D01*
Y132171D01*
X44735Y133218D01*
X44194Y134156D01*
X43428Y134922D01*
X42490Y135464D01*
X41443Y135744D01*
D02*
G37*
G36*
X599171Y131055D02*
X598466D01*
X597815Y130786D01*
X597317Y130287D01*
X597047Y129636D01*
Y128931D01*
X597317Y128280D01*
X597815Y127782D01*
X598466Y127512D01*
X599171D01*
X599823Y127782D01*
X600321Y128280D01*
X600591Y128931D01*
Y129636D01*
X600321Y130287D01*
X599823Y130786D01*
X599171Y131055D01*
D02*
G37*
G36*
X595262Y128571D02*
X594558D01*
X593906Y128302D01*
X593408Y127803D01*
X593138Y127152D01*
Y126447D01*
X593340Y125961D01*
X592965Y125586D01*
X592478Y125787D01*
X591774D01*
X591122Y125518D01*
X590624Y125019D01*
X590354Y124368D01*
Y123663D01*
X590624Y123012D01*
X591122Y122514D01*
X591774Y122244D01*
X592478D01*
X593129Y122514D01*
X593628Y123012D01*
X593898Y123663D01*
Y124368D01*
X593696Y124855D01*
X594071Y125229D01*
X594558Y125028D01*
X595262D01*
X595913Y125298D01*
X596412Y125796D01*
X596681Y126447D01*
Y127152D01*
X596412Y127803D01*
X595913Y128302D01*
X595262Y128571D01*
D02*
G37*
G36*
X450310Y128192D02*
X449605D01*
X448954Y127922D01*
X448455Y127424D01*
X448186Y126773D01*
Y126068D01*
X448455Y125417D01*
X448954Y124919D01*
X449605Y124649D01*
X450310D01*
X450961Y124919D01*
X451459Y125417D01*
X451729Y126068D01*
Y126773D01*
X451459Y127424D01*
X450961Y127922D01*
X450310Y128192D01*
D02*
G37*
G36*
X52624Y130309D02*
X51541D01*
X50495Y130029D01*
X49557Y129487D01*
X48791Y128721D01*
X48249Y127783D01*
X47969Y126736D01*
Y125653D01*
X48249Y124607D01*
X48791Y123669D01*
X49557Y122903D01*
X50495Y122361D01*
X51541Y122081D01*
X52624D01*
X53671Y122361D01*
X54609Y122903D01*
X55375Y123669D01*
X55917Y124607D01*
X56197Y125653D01*
Y126736D01*
X55917Y127783D01*
X55375Y128721D01*
X54609Y129487D01*
X53671Y130029D01*
X52624Y130309D01*
D02*
G37*
G36*
X110628Y124016D02*
X109845D01*
X109121Y123716D01*
X108567Y123162D01*
X108268Y122439D01*
Y121656D01*
X108567Y120932D01*
X109121Y120378D01*
X109845Y120079D01*
X110628D01*
X111351Y120378D01*
X111905Y120932D01*
X112205Y121656D01*
Y122439D01*
X111905Y123162D01*
X111351Y123716D01*
X110628Y124016D01*
D02*
G37*
G36*
X457642Y126516D02*
X456776D01*
X455940Y126292D01*
X455190Y125859D01*
X454578Y125247D01*
X454145Y124497D01*
X453921Y123661D01*
Y122796D01*
X454145Y121959D01*
X454578Y121210D01*
X455190Y120598D01*
X455940Y120165D01*
X456776Y119941D01*
X457642D01*
X458478Y120165D01*
X459227Y120598D01*
X459839Y121210D01*
X460272Y121959D01*
X460496Y122796D01*
Y123661D01*
X460272Y124497D01*
X459839Y125247D01*
X459227Y125859D01*
X458478Y126292D01*
X457642Y126516D01*
D02*
G37*
G36*
X63805Y124874D02*
X62722D01*
X61676Y124594D01*
X60738Y124052D01*
X59972Y123286D01*
X59430Y122348D01*
X59150Y121301D01*
Y120218D01*
X59430Y119172D01*
X59972Y118234D01*
X60738Y117468D01*
X61676Y116926D01*
X62722Y116646D01*
X63805D01*
X64852Y116926D01*
X65790Y117468D01*
X66556Y118234D01*
X67098Y119172D01*
X67378Y120218D01*
Y121301D01*
X67098Y122348D01*
X66556Y123286D01*
X65790Y124052D01*
X64852Y124594D01*
X63805Y124874D01*
D02*
G37*
G36*
X41443D02*
X40360D01*
X39314Y124594D01*
X38375Y124052D01*
X37609Y123286D01*
X37068Y122348D01*
X36787Y121301D01*
Y120218D01*
X37068Y119172D01*
X37609Y118234D01*
X38375Y117468D01*
X39314Y116926D01*
X40360Y116646D01*
X41443D01*
X42490Y116926D01*
X43428Y117468D01*
X44194Y118234D01*
X44735Y119172D01*
X45016Y120218D01*
Y121301D01*
X44735Y122348D01*
X44194Y123286D01*
X43428Y124052D01*
X42490Y124594D01*
X41443Y124874D01*
D02*
G37*
G36*
X110628Y119291D02*
X109845D01*
X109121Y118992D01*
X108567Y118438D01*
X108268Y117714D01*
Y116931D01*
X108567Y116208D01*
X109121Y115654D01*
X109845Y115354D01*
X110628D01*
X111351Y115654D01*
X111905Y116208D01*
X112205Y116931D01*
Y117714D01*
X111905Y118438D01*
X111351Y118992D01*
X110628Y119291D01*
D02*
G37*
G36*
X52624Y119439D02*
X51541D01*
X50495Y119159D01*
X49557Y118617D01*
X48791Y117851D01*
X48249Y116913D01*
X47969Y115866D01*
Y114783D01*
X48249Y113737D01*
X48791Y112799D01*
X49557Y112033D01*
X50495Y111491D01*
X51541Y111211D01*
X52624D01*
X53671Y111491D01*
X54609Y112033D01*
X55375Y112799D01*
X55917Y113737D01*
X56197Y114783D01*
Y115866D01*
X55917Y116913D01*
X55375Y117851D01*
X54609Y118617D01*
X53671Y119159D01*
X52624Y119439D01*
D02*
G37*
G36*
X67378Y114004D02*
X59150D01*
Y105775D01*
X67378D01*
Y114004D01*
D02*
G37*
G36*
X41443D02*
X40360D01*
X39314Y113724D01*
X38375Y113182D01*
X37609Y112416D01*
X37068Y111478D01*
X36787Y110431D01*
Y109348D01*
X37068Y108302D01*
X37609Y107363D01*
X38375Y106597D01*
X39314Y106056D01*
X40360Y105775D01*
X41443D01*
X42490Y106056D01*
X43428Y106597D01*
X44194Y107363D01*
X44735Y108302D01*
X45016Y109348D01*
Y110431D01*
X44735Y111478D01*
X44194Y112416D01*
X43428Y113182D01*
X42490Y113724D01*
X41443Y114004D01*
D02*
G37*
G36*
X110234Y109055D02*
X109451D01*
X108727Y108755D01*
X108174Y108202D01*
X107874Y107478D01*
Y106695D01*
X108174Y105972D01*
X108727Y105418D01*
X109451Y105118D01*
X110234D01*
X110958Y105418D01*
X111511Y105972D01*
X111811Y106695D01*
Y107478D01*
X111511Y108202D01*
X110958Y108755D01*
X110234Y109055D01*
D02*
G37*
G36*
X572507Y110756D02*
X571509D01*
X570546Y110498D01*
X569682Y109999D01*
X568977Y109294D01*
X568479Y108430D01*
X568221Y107467D01*
Y106470D01*
X568479Y105507D01*
X568977Y104643D01*
X569682Y103938D01*
X570546Y103439D01*
X571509Y103181D01*
X572507D01*
X573470Y103439D01*
X574333Y103938D01*
X575038Y104643D01*
X575537Y105507D01*
X575795Y106470D01*
Y107467D01*
X575537Y108430D01*
X575038Y109294D01*
X574333Y109999D01*
X573470Y110498D01*
X572507Y110756D01*
D02*
G37*
G36*
X562506D02*
X561509D01*
X560546Y110498D01*
X559682Y109999D01*
X558977Y109294D01*
X558479Y108430D01*
X558220Y107467D01*
Y106470D01*
X558479Y105507D01*
X558977Y104643D01*
X559682Y103938D01*
X560546Y103439D01*
X561509Y103181D01*
X562506D01*
X563470Y103439D01*
X564333Y103938D01*
X565038Y104643D01*
X565537Y105507D01*
X565795Y106470D01*
Y107467D01*
X565537Y108430D01*
X565038Y109294D01*
X564333Y109999D01*
X563470Y110498D01*
X562506Y110756D01*
D02*
G37*
G36*
X552506D02*
X551509D01*
X550546Y110498D01*
X549682Y109999D01*
X548977Y109294D01*
X548479Y108430D01*
X548220Y107467D01*
Y106470D01*
X548479Y105507D01*
X548977Y104643D01*
X549682Y103938D01*
X550546Y103439D01*
X551509Y103181D01*
X552506D01*
X553470Y103439D01*
X554333Y103938D01*
X555038Y104643D01*
X555537Y105507D01*
X555795Y106470D01*
Y107467D01*
X555537Y108430D01*
X555038Y109294D01*
X554333Y109999D01*
X553470Y110498D01*
X552506Y110756D01*
D02*
G37*
G36*
X542507D02*
X541509D01*
X540546Y110498D01*
X539682Y109999D01*
X538977Y109294D01*
X538479Y108430D01*
X538221Y107467D01*
Y106470D01*
X538479Y105507D01*
X538977Y104643D01*
X539682Y103938D01*
X540546Y103439D01*
X541509Y103181D01*
X542507D01*
X543470Y103439D01*
X544333Y103938D01*
X545039Y104643D01*
X545537Y105507D01*
X545795Y106470D01*
Y107467D01*
X545537Y108430D01*
X545039Y109294D01*
X544333Y109999D01*
X543470Y110498D01*
X542507Y110756D01*
D02*
G37*
G36*
X532507D02*
X531509D01*
X530546Y110498D01*
X529682Y109999D01*
X528977Y109294D01*
X528479Y108430D01*
X528221Y107467D01*
Y106470D01*
X528479Y105507D01*
X528977Y104643D01*
X529682Y103938D01*
X530546Y103439D01*
X531509Y103181D01*
X532507D01*
X533470Y103439D01*
X534333Y103938D01*
X535039Y104643D01*
X535537Y105507D01*
X535795Y106470D01*
Y107467D01*
X535537Y108430D01*
X535039Y109294D01*
X534333Y109999D01*
X533470Y110498D01*
X532507Y110756D01*
D02*
G37*
G36*
X522507D02*
X521509D01*
X520546Y110498D01*
X519682Y109999D01*
X518977Y109294D01*
X518479Y108430D01*
X518221Y107467D01*
Y106470D01*
X518479Y105507D01*
X518977Y104643D01*
X519682Y103938D01*
X520546Y103439D01*
X521509Y103181D01*
X522507D01*
X523470Y103439D01*
X524333Y103938D01*
X525038Y104643D01*
X525537Y105507D01*
X525795Y106470D01*
Y107467D01*
X525537Y108430D01*
X525038Y109294D01*
X524333Y109999D01*
X523470Y110498D01*
X522507Y110756D01*
D02*
G37*
G36*
X512506D02*
X511509D01*
X510546Y110498D01*
X509682Y109999D01*
X508977Y109294D01*
X508479Y108430D01*
X508220Y107467D01*
Y106470D01*
X508479Y105507D01*
X508977Y104643D01*
X509682Y103938D01*
X510546Y103439D01*
X511509Y103181D01*
X512506D01*
X513470Y103439D01*
X514333Y103938D01*
X515038Y104643D01*
X515537Y105507D01*
X515795Y106470D01*
Y107467D01*
X515537Y108430D01*
X515038Y109294D01*
X514333Y109999D01*
X513470Y110498D01*
X512506Y110756D01*
D02*
G37*
G36*
X502506D02*
X501509D01*
X500546Y110498D01*
X499682Y109999D01*
X498977Y109294D01*
X498479Y108430D01*
X498220Y107467D01*
Y106470D01*
X498479Y105507D01*
X498977Y104643D01*
X499682Y103938D01*
X500546Y103439D01*
X501509Y103181D01*
X502506D01*
X503470Y103439D01*
X504333Y103938D01*
X505038Y104643D01*
X505537Y105507D01*
X505795Y106470D01*
Y107467D01*
X505537Y108430D01*
X505038Y109294D01*
X504333Y109999D01*
X503470Y110498D01*
X502506Y110756D01*
D02*
G37*
G36*
X370971Y101425D02*
X369974D01*
X369011Y101167D01*
X368147Y100669D01*
X367442Y99963D01*
X366943Y99100D01*
X366685Y98136D01*
Y97139D01*
X366943Y96176D01*
X367442Y95312D01*
X368147Y94607D01*
X369011Y94108D01*
X369974Y93850D01*
X370971D01*
X371934Y94108D01*
X372798Y94607D01*
X373503Y95312D01*
X374002Y96176D01*
X374260Y97139D01*
Y98136D01*
X374002Y99100D01*
X373503Y99963D01*
X372798Y100669D01*
X371934Y101167D01*
X370971Y101425D01*
D02*
G37*
G36*
X360971D02*
X359974D01*
X359011Y101167D01*
X358147Y100669D01*
X357442Y99963D01*
X356943Y99100D01*
X356685Y98136D01*
Y97139D01*
X356943Y96176D01*
X357442Y95312D01*
X358147Y94607D01*
X359011Y94108D01*
X359974Y93850D01*
X360971D01*
X361934Y94108D01*
X362798Y94607D01*
X363503Y95312D01*
X364002Y96176D01*
X364260Y97139D01*
Y98136D01*
X364002Y99100D01*
X363503Y99963D01*
X362798Y100669D01*
X361934Y101167D01*
X360971Y101425D01*
D02*
G37*
G36*
X572507Y100756D02*
X571509D01*
X570546Y100498D01*
X569682Y99999D01*
X568977Y99294D01*
X568479Y98430D01*
X568221Y97467D01*
Y96470D01*
X568479Y95507D01*
X568977Y94643D01*
X569682Y93938D01*
X570546Y93439D01*
X571509Y93181D01*
X572507D01*
X573470Y93439D01*
X574333Y93938D01*
X575038Y94643D01*
X575537Y95507D01*
X575795Y96470D01*
Y97467D01*
X575537Y98430D01*
X575038Y99294D01*
X574333Y99999D01*
X573470Y100498D01*
X572507Y100756D01*
D02*
G37*
G36*
X562506D02*
X561509D01*
X560546Y100498D01*
X559682Y99999D01*
X558977Y99294D01*
X558479Y98430D01*
X558220Y97467D01*
Y96470D01*
X558479Y95507D01*
X558977Y94643D01*
X559682Y93938D01*
X560546Y93439D01*
X561509Y93181D01*
X562506D01*
X563470Y93439D01*
X564333Y93938D01*
X565038Y94643D01*
X565537Y95507D01*
X565795Y96470D01*
Y97467D01*
X565537Y98430D01*
X565038Y99294D01*
X564333Y99999D01*
X563470Y100498D01*
X562506Y100756D01*
D02*
G37*
G36*
X552506D02*
X551509D01*
X550546Y100498D01*
X549682Y99999D01*
X548977Y99294D01*
X548479Y98430D01*
X548220Y97467D01*
Y96470D01*
X548479Y95507D01*
X548977Y94643D01*
X549682Y93938D01*
X550546Y93439D01*
X551509Y93181D01*
X552506D01*
X553470Y93439D01*
X554333Y93938D01*
X555038Y94643D01*
X555537Y95507D01*
X555795Y96470D01*
Y97467D01*
X555537Y98430D01*
X555038Y99294D01*
X554333Y99999D01*
X553470Y100498D01*
X552506Y100756D01*
D02*
G37*
G36*
X542507D02*
X541509D01*
X540546Y100498D01*
X539682Y99999D01*
X538977Y99294D01*
X538479Y98430D01*
X538221Y97467D01*
Y96470D01*
X538479Y95507D01*
X538977Y94643D01*
X539682Y93938D01*
X540546Y93439D01*
X541509Y93181D01*
X542507D01*
X543470Y93439D01*
X544333Y93938D01*
X545039Y94643D01*
X545537Y95507D01*
X545795Y96470D01*
Y97467D01*
X545537Y98430D01*
X545039Y99294D01*
X544333Y99999D01*
X543470Y100498D01*
X542507Y100756D01*
D02*
G37*
G36*
X532507D02*
X531509D01*
X530546Y100498D01*
X529682Y99999D01*
X528977Y99294D01*
X528479Y98430D01*
X528221Y97467D01*
Y96470D01*
X528479Y95507D01*
X528977Y94643D01*
X529682Y93938D01*
X530546Y93439D01*
X531509Y93181D01*
X532507D01*
X533470Y93439D01*
X534333Y93938D01*
X535039Y94643D01*
X535537Y95507D01*
X535795Y96470D01*
Y97467D01*
X535537Y98430D01*
X535039Y99294D01*
X534333Y99999D01*
X533470Y100498D01*
X532507Y100756D01*
D02*
G37*
G36*
X522507D02*
X521509D01*
X520546Y100498D01*
X519682Y99999D01*
X518977Y99294D01*
X518479Y98430D01*
X518221Y97467D01*
Y96470D01*
X518479Y95507D01*
X518977Y94643D01*
X519682Y93938D01*
X520546Y93439D01*
X521509Y93181D01*
X522507D01*
X523470Y93439D01*
X524333Y93938D01*
X525038Y94643D01*
X525537Y95507D01*
X525795Y96470D01*
Y97467D01*
X525537Y98430D01*
X525038Y99294D01*
X524333Y99999D01*
X523470Y100498D01*
X522507Y100756D01*
D02*
G37*
G36*
X512506D02*
X511509D01*
X510546Y100498D01*
X509682Y99999D01*
X508977Y99294D01*
X508479Y98430D01*
X508220Y97467D01*
Y96470D01*
X508479Y95507D01*
X508977Y94643D01*
X509682Y93938D01*
X510546Y93439D01*
X511509Y93181D01*
X512506D01*
X513470Y93439D01*
X514333Y93938D01*
X515038Y94643D01*
X515537Y95507D01*
X515795Y96470D01*
Y97467D01*
X515537Y98430D01*
X515038Y99294D01*
X514333Y99999D01*
X513470Y100498D01*
X512506Y100756D01*
D02*
G37*
G36*
X505795D02*
X498220D01*
Y93181D01*
X505795D01*
Y100756D01*
D02*
G37*
G36*
X380971Y83709D02*
X379974D01*
X379011Y83451D01*
X378147Y82952D01*
X377442Y82247D01*
X376943Y81383D01*
X376685Y80420D01*
Y79423D01*
X376943Y78459D01*
X377442Y77596D01*
X378147Y76891D01*
X379011Y76392D01*
X379974Y76134D01*
X380971D01*
X381934Y76392D01*
X382798Y76891D01*
X383503Y77596D01*
X384002Y78459D01*
X384260Y79423D01*
Y80420D01*
X384002Y81383D01*
X383503Y82247D01*
X382798Y82952D01*
X381934Y83451D01*
X380971Y83709D01*
D02*
G37*
G36*
X370971D02*
X369974D01*
X369011Y83451D01*
X368147Y82952D01*
X367442Y82247D01*
X366943Y81383D01*
X366685Y80420D01*
Y79423D01*
X366943Y78459D01*
X367442Y77596D01*
X368147Y76891D01*
X369011Y76392D01*
X369974Y76134D01*
X370971D01*
X371934Y76392D01*
X372798Y76891D01*
X373503Y77596D01*
X374002Y78459D01*
X374260Y79423D01*
Y80420D01*
X374002Y81383D01*
X373503Y82247D01*
X372798Y82952D01*
X371934Y83451D01*
X370971Y83709D01*
D02*
G37*
G36*
X360971D02*
X359974D01*
X359011Y83451D01*
X358147Y82952D01*
X357442Y82247D01*
X356943Y81383D01*
X356685Y80420D01*
Y79423D01*
X356943Y78459D01*
X357442Y77596D01*
X358147Y76891D01*
X359011Y76392D01*
X359974Y76134D01*
X360971D01*
X361934Y76392D01*
X362798Y76891D01*
X363503Y77596D01*
X364002Y78459D01*
X364260Y79423D01*
Y80420D01*
X364002Y81383D01*
X363503Y82247D01*
X362798Y82952D01*
X361934Y83451D01*
X360971Y83709D01*
D02*
G37*
G36*
X66533Y75197D02*
X65750D01*
X65027Y74897D01*
X64473Y74343D01*
X64173Y73620D01*
Y72837D01*
X64473Y72113D01*
X65027Y71560D01*
X65750Y71260D01*
X66533D01*
X67257Y71560D01*
X67811Y72113D01*
X68110Y72837D01*
Y73620D01*
X67811Y74343D01*
X67257Y74897D01*
X66533Y75197D01*
D02*
G37*
G36*
X564647Y61821D02*
X563715D01*
X562816Y61580D01*
X562009Y61114D01*
X561350Y60456D01*
X560885Y59649D01*
X560644Y58749D01*
Y57818D01*
X560885Y56918D01*
X561350Y56112D01*
X562009Y55453D01*
X562816Y54987D01*
X563715Y54746D01*
X564647D01*
X565547Y54987D01*
X566353Y55453D01*
X567012Y56112D01*
X567477Y56918D01*
X567719Y57818D01*
Y58749D01*
X567477Y59649D01*
X567012Y60456D01*
X566353Y61114D01*
X565547Y61580D01*
X564647Y61821D01*
D02*
G37*
G36*
X555647D02*
X554715D01*
X553816Y61580D01*
X553009Y61114D01*
X552351Y60456D01*
X551885Y59649D01*
X551644Y58749D01*
Y57818D01*
X551885Y56918D01*
X552351Y56112D01*
X553009Y55453D01*
X553816Y54987D01*
X554715Y54746D01*
X555647D01*
X556546Y54987D01*
X557353Y55453D01*
X558012Y56112D01*
X558477Y56918D01*
X558718Y57818D01*
Y58749D01*
X558477Y59649D01*
X558012Y60456D01*
X557353Y61114D01*
X556546Y61580D01*
X555647Y61821D01*
D02*
G37*
G36*
X519647D02*
X518715D01*
X517816Y61580D01*
X517009Y61114D01*
X516351Y60456D01*
X515885Y59649D01*
X515644Y58749D01*
Y57818D01*
X515885Y56918D01*
X516351Y56112D01*
X517009Y55453D01*
X517816Y54987D01*
X518715Y54746D01*
X519647D01*
X520546Y54987D01*
X521353Y55453D01*
X522012Y56112D01*
X522477Y56918D01*
X522718Y57818D01*
Y58749D01*
X522477Y59649D01*
X522012Y60456D01*
X521353Y61114D01*
X520546Y61580D01*
X519647Y61821D01*
D02*
G37*
G36*
X510647D02*
X509715D01*
X508816Y61580D01*
X508009Y61114D01*
X507350Y60456D01*
X506885Y59649D01*
X506644Y58749D01*
Y57818D01*
X506885Y56918D01*
X507350Y56112D01*
X508009Y55453D01*
X508816Y54987D01*
X509715Y54746D01*
X510647D01*
X511547Y54987D01*
X512353Y55453D01*
X513012Y56112D01*
X513477Y56918D01*
X513719Y57818D01*
Y58749D01*
X513477Y59649D01*
X513012Y60456D01*
X512353Y61114D01*
X511547Y61580D01*
X510647Y61821D01*
D02*
G37*
G36*
X374262Y62630D02*
X372588D01*
X370947Y62303D01*
X369401Y61663D01*
X368009Y60733D01*
X366826Y59550D01*
X365896Y58158D01*
X365256Y56612D01*
X364929Y54971D01*
Y53297D01*
X365256Y51656D01*
X365896Y50109D01*
X366826Y48718D01*
X368009Y47534D01*
X369401Y46605D01*
X370947Y45964D01*
X372588Y45638D01*
X374262D01*
X375903Y45964D01*
X377450Y46605D01*
X378841Y47534D01*
X380025Y48718D01*
X380954Y50109D01*
X381595Y51656D01*
X381921Y53297D01*
Y54971D01*
X381595Y56612D01*
X380954Y58158D01*
X380025Y59550D01*
X378841Y60733D01*
X377450Y61663D01*
X375903Y62303D01*
X374262Y62630D01*
D02*
G37*
G36*
X336073D02*
X334399D01*
X332758Y62303D01*
X331212Y61663D01*
X329820Y60733D01*
X328637Y59550D01*
X327707Y58158D01*
X327067Y56612D01*
X326740Y54971D01*
Y53297D01*
X327067Y51656D01*
X327707Y50109D01*
X328637Y48718D01*
X329820Y47534D01*
X331212Y46605D01*
X332758Y45964D01*
X334399Y45638D01*
X336073D01*
X337714Y45964D01*
X339261Y46605D01*
X340652Y47534D01*
X341835Y48718D01*
X342765Y50109D01*
X343406Y51656D01*
X343732Y53297D01*
Y54971D01*
X343406Y56612D01*
X342765Y58158D01*
X341835Y59550D01*
X340652Y60733D01*
X339261Y61663D01*
X337714Y62303D01*
X336073Y62630D01*
D02*
G37*
G36*
X547647Y42821D02*
X546715D01*
X545816Y42580D01*
X545009Y42114D01*
X544350Y41456D01*
X543885Y40649D01*
X543644Y39749D01*
Y38818D01*
X543885Y37918D01*
X544350Y37111D01*
X545009Y36453D01*
X545816Y35987D01*
X546715Y35746D01*
X547647D01*
X548547Y35987D01*
X549353Y36453D01*
X550012Y37111D01*
X550477Y37918D01*
X550718Y38818D01*
Y39749D01*
X550477Y40649D01*
X550012Y41456D01*
X549353Y42114D01*
X548547Y42580D01*
X547647Y42821D01*
D02*
G37*
G36*
X539647D02*
X538715D01*
X537816Y42580D01*
X537009Y42114D01*
X536350Y41456D01*
X535885Y40649D01*
X535644Y39749D01*
Y38818D01*
X535885Y37918D01*
X536350Y37111D01*
X537009Y36453D01*
X537816Y35987D01*
X538715Y35746D01*
X539647D01*
X540547Y35987D01*
X541353Y36453D01*
X542012Y37111D01*
X542477Y37918D01*
X542719Y38818D01*
Y39749D01*
X542477Y40649D01*
X542012Y41456D01*
X541353Y42114D01*
X540547Y42580D01*
X539647Y42821D01*
D02*
G37*
G36*
X531647D02*
X530715D01*
X529816Y42580D01*
X529009Y42114D01*
X528350Y41456D01*
X527885Y40649D01*
X527644Y39749D01*
Y38818D01*
X527885Y37918D01*
X528350Y37111D01*
X529009Y36453D01*
X529816Y35987D01*
X530715Y35746D01*
X531647D01*
X532547Y35987D01*
X533353Y36453D01*
X534012Y37111D01*
X534477Y37918D01*
X534719Y38818D01*
Y39749D01*
X534477Y40649D01*
X534012Y41456D01*
X533353Y42114D01*
X532547Y42580D01*
X531647Y42821D01*
D02*
G37*
G36*
X523647D02*
X522715D01*
X521816Y42580D01*
X521009Y42114D01*
X520351Y41456D01*
X519885Y40649D01*
X519644Y39749D01*
Y38818D01*
X519885Y37918D01*
X520351Y37111D01*
X521009Y36453D01*
X521816Y35987D01*
X522715Y35746D01*
X523647D01*
X524546Y35987D01*
X525353Y36453D01*
X526012Y37111D01*
X526477Y37918D01*
X526719Y38818D01*
Y39749D01*
X526477Y40649D01*
X526012Y41456D01*
X525353Y42114D01*
X524546Y42580D01*
X523647Y42821D01*
D02*
G37*
G36*
X569838Y40771D02*
X568525D01*
X567256Y40431D01*
X566119Y39774D01*
X565190Y38846D01*
X564534Y37709D01*
X564194Y36440D01*
Y35127D01*
X564534Y33858D01*
X565190Y32721D01*
X566119Y31793D01*
X567256Y31136D01*
X568525Y30796D01*
X569838D01*
X571106Y31136D01*
X572243Y31793D01*
X573172Y32721D01*
X573829Y33858D01*
X574168Y35127D01*
Y36440D01*
X573829Y37709D01*
X573172Y38846D01*
X572243Y39774D01*
X571106Y40431D01*
X569838Y40771D01*
D02*
G37*
G36*
X505838D02*
X504525D01*
X503256Y40431D01*
X502119Y39774D01*
X501190Y38846D01*
X500534Y37709D01*
X500194Y36440D01*
Y35127D01*
X500534Y33858D01*
X501190Y32721D01*
X502119Y31793D01*
X503256Y31136D01*
X504525Y30796D01*
X505838D01*
X507106Y31136D01*
X508243Y31793D01*
X509172Y32721D01*
X509829Y33858D01*
X510169Y35127D01*
Y36440D01*
X509829Y37709D01*
X509172Y38846D01*
X508243Y39774D01*
X507106Y40431D01*
X505838Y40771D01*
D02*
G37*
G36*
X354940Y39665D02*
X353722D01*
X352545Y39350D01*
X351490Y38741D01*
X350629Y37880D01*
X350020Y36825D01*
X349705Y35648D01*
Y34430D01*
X350020Y33254D01*
X350629Y32199D01*
X351490Y31338D01*
X352545Y30729D01*
X353722Y30413D01*
X354940D01*
X356116Y30729D01*
X357171Y31338D01*
X358032Y32199D01*
X358641Y33254D01*
X358957Y34430D01*
Y35648D01*
X358641Y36825D01*
X358032Y37880D01*
X357171Y38741D01*
X356116Y39350D01*
X354940Y39665D01*
D02*
G37*
G36*
X551647Y35821D02*
X550715D01*
X549816Y35580D01*
X549009Y35114D01*
X548350Y34455D01*
X547885Y33649D01*
X547644Y32749D01*
Y31818D01*
X547885Y30918D01*
X548350Y30112D01*
X549009Y29453D01*
X549816Y28987D01*
X550715Y28746D01*
X551647D01*
X552547Y28987D01*
X553353Y29453D01*
X554012Y30112D01*
X554477Y30918D01*
X554718Y31818D01*
Y32749D01*
X554477Y33649D01*
X554012Y34455D01*
X553353Y35114D01*
X552547Y35580D01*
X551647Y35821D01*
D02*
G37*
G36*
X543647D02*
X542715D01*
X541816Y35580D01*
X541009Y35114D01*
X540350Y34455D01*
X539885Y33649D01*
X539644Y32749D01*
Y31818D01*
X539885Y30918D01*
X540350Y30112D01*
X541009Y29453D01*
X541816Y28987D01*
X542715Y28746D01*
X543647D01*
X544547Y28987D01*
X545353Y29453D01*
X546012Y30112D01*
X546477Y30918D01*
X546719Y31818D01*
Y32749D01*
X546477Y33649D01*
X546012Y34455D01*
X545353Y35114D01*
X544547Y35580D01*
X543647Y35821D01*
D02*
G37*
G36*
X535647D02*
X534715D01*
X533816Y35580D01*
X533009Y35114D01*
X532350Y34455D01*
X531885Y33649D01*
X531644Y32749D01*
Y31818D01*
X531885Y30918D01*
X532350Y30112D01*
X533009Y29453D01*
X533816Y28987D01*
X534715Y28746D01*
X535647D01*
X536547Y28987D01*
X537353Y29453D01*
X538012Y30112D01*
X538477Y30918D01*
X538719Y31818D01*
Y32749D01*
X538477Y33649D01*
X538012Y34455D01*
X537353Y35114D01*
X536547Y35580D01*
X535647Y35821D01*
D02*
G37*
G36*
X527647D02*
X526715D01*
X525816Y35580D01*
X525009Y35114D01*
X524351Y34455D01*
X523885Y33649D01*
X523644Y32749D01*
Y31818D01*
X523885Y30918D01*
X524351Y30112D01*
X525009Y29453D01*
X525816Y28987D01*
X526715Y28746D01*
X527647D01*
X528546Y28987D01*
X529353Y29453D01*
X530012Y30112D01*
X530477Y30918D01*
X530719Y31818D01*
Y32749D01*
X530477Y33649D01*
X530012Y34455D01*
X529353Y35114D01*
X528546Y35580D01*
X527647Y35821D01*
D02*
G37*
G36*
X413852Y32579D02*
X412841D01*
X411865Y32317D01*
X410990Y31812D01*
X410275Y31097D01*
X409769Y30222D01*
X409508Y29245D01*
Y28235D01*
X409769Y27259D01*
X410275Y26383D01*
X410990Y25668D01*
X411865Y25163D01*
X412841Y24902D01*
X413852D01*
X414828Y25163D01*
X415703Y25668D01*
X416418Y26383D01*
X416923Y27259D01*
X417185Y28235D01*
Y29245D01*
X416923Y30222D01*
X416418Y31097D01*
X415703Y31812D01*
X414828Y32317D01*
X413852Y32579D01*
D02*
G37*
G36*
X562889Y29471D02*
X561473D01*
X560085Y29195D01*
X558777Y28653D01*
X557599Y27866D01*
X556598Y26865D01*
X555812Y25688D01*
X555270Y24380D01*
X554994Y22991D01*
Y21576D01*
X555270Y20187D01*
X555812Y18879D01*
X556598Y17702D01*
X557599Y16701D01*
X558777Y15914D01*
X560085Y15372D01*
X561473Y15096D01*
X562889D01*
X564278Y15372D01*
X565586Y15914D01*
X566763Y16701D01*
X567764Y17702D01*
X568550Y18879D01*
X569092Y20187D01*
X569369Y21576D01*
Y22991D01*
X569092Y24380D01*
X568550Y25688D01*
X567764Y26865D01*
X566763Y27866D01*
X565586Y28653D01*
X564278Y29195D01*
X562889Y29471D01*
D02*
G37*
G36*
X512889D02*
X511473D01*
X510085Y29195D01*
X508777Y28653D01*
X507599Y27866D01*
X506598Y26865D01*
X505812Y25688D01*
X505270Y24380D01*
X504994Y22991D01*
Y21576D01*
X505270Y20187D01*
X505812Y18879D01*
X506598Y17702D01*
X507599Y16701D01*
X508777Y15914D01*
X510085Y15372D01*
X511473Y15096D01*
X512889D01*
X514278Y15372D01*
X515586Y15914D01*
X516763Y16701D01*
X517764Y17702D01*
X518550Y18879D01*
X519092Y20187D01*
X519369Y21576D01*
Y22991D01*
X519092Y24380D01*
X518550Y25688D01*
X517764Y26865D01*
X516763Y27866D01*
X515586Y28653D01*
X514278Y29195D01*
X512889Y29471D01*
D02*
G37*
G36*
X374262Y24441D02*
X372588D01*
X370947Y24114D01*
X369401Y23474D01*
X368009Y22544D01*
X366826Y21361D01*
X365896Y19969D01*
X365256Y18423D01*
X364929Y16782D01*
Y15108D01*
X365256Y13467D01*
X365896Y11920D01*
X366826Y10529D01*
X368009Y9346D01*
X369401Y8416D01*
X370947Y7775D01*
X372588Y7449D01*
X374262D01*
X375903Y7775D01*
X377450Y8416D01*
X378841Y9346D01*
X380025Y10529D01*
X380954Y11920D01*
X381595Y13467D01*
X381921Y15108D01*
Y16782D01*
X381595Y18423D01*
X380954Y19969D01*
X380025Y21361D01*
X378841Y22544D01*
X377450Y23474D01*
X375903Y24114D01*
X374262Y24441D01*
D02*
G37*
G36*
X336073D02*
X334399D01*
X332758Y24114D01*
X331212Y23474D01*
X329820Y22544D01*
X328637Y21361D01*
X327707Y19969D01*
X327067Y18423D01*
X326740Y16782D01*
Y15108D01*
X327067Y13467D01*
X327707Y11920D01*
X328637Y10529D01*
X329820Y9346D01*
X331212Y8416D01*
X332758Y7775D01*
X334399Y7449D01*
X336073D01*
X337714Y7775D01*
X339261Y8416D01*
X340652Y9346D01*
X341835Y10529D01*
X342765Y11920D01*
X343406Y13467D01*
X343732Y15108D01*
Y16782D01*
X343406Y18423D01*
X342765Y19969D01*
X341835Y21361D01*
X340652Y22544D01*
X339261Y23474D01*
X337714Y24114D01*
X336073Y24441D01*
D02*
G37*
%LPD*%
G36*
X573228Y341732D02*
X573228Y332283D01*
X567323Y326378D01*
X558268Y326378D01*
X552640Y332006D01*
X552800Y344838D01*
X551181Y346457D01*
X496457Y346457D01*
X483858Y333858D01*
X404724D01*
X387402Y316535D01*
X316142D01*
X314961Y318110D01*
Y321260D01*
X316142Y322835D01*
X385039D01*
X402362Y340158D01*
X437008D01*
X438976Y342126D01*
X438976Y346457D01*
X442126Y349606D01*
X446457Y349606D01*
X449606Y346457D01*
X449606Y342126D01*
X451575Y340158D01*
X479921D01*
X494095Y354331D01*
X560630Y354331D01*
X573228Y341732D01*
D02*
G37*
D13*
X422441Y27835D02*
Y63779D01*
X413346Y18740D02*
X422441Y27835D01*
Y63779D02*
X522047Y163386D01*
Y255118D01*
X506693Y270472D02*
X522047Y255118D01*
X508638Y245488D02*
X516693Y253543D01*
X375614Y245488D02*
X508638D01*
X494882Y275984D02*
X511181D01*
X516693Y270472D01*
X477165Y258268D02*
X494882Y275984D01*
X422677Y258268D02*
X477165D01*
X405748Y275197D02*
X422677Y258268D01*
X345905Y275197D02*
X375614Y245488D01*
D72*
X52083Y267506D02*
D03*
Y256636D02*
D03*
Y245766D02*
D03*
Y234896D02*
D03*
Y224026D02*
D03*
Y213156D02*
D03*
Y202285D02*
D03*
Y191415D02*
D03*
Y180545D02*
D03*
Y169675D02*
D03*
X63264Y283811D02*
D03*
Y272941D02*
D03*
D73*
X52083Y76555D02*
D03*
Y317146D02*
D03*
D77*
X380472Y97638D02*
D03*
X516693Y270472D02*
D03*
X506693D02*
D03*
X405748Y275197D02*
D03*
X345905D02*
D03*
X516693Y253543D02*
D03*
X377000Y371800D02*
D03*
X316600Y372800D02*
D03*
X444400Y354500D02*
D03*
X454400D02*
D03*
X464400D02*
D03*
X444400Y344500D02*
D03*
D83*
X507874Y336614D02*
D03*
X562992D02*
D03*
D84*
X413346Y18740D02*
D03*
D85*
Y38740D02*
D03*
D86*
X19685Y19685D02*
D03*
X610236D02*
D03*
Y374016D02*
D03*
X19685D02*
D03*
D87*
X616535Y264567D02*
D03*
Y261417D02*
D03*
Y255118D02*
D03*
Y248819D02*
D03*
Y242520D02*
D03*
Y233071D02*
D03*
Y223622D02*
D03*
Y214173D02*
D03*
Y204724D02*
D03*
Y135433D02*
D03*
Y144882D02*
D03*
Y154331D02*
D03*
Y163780D02*
D03*
Y182677D02*
D03*
Y173228D02*
D03*
X446063Y133534D02*
D03*
X468504Y133533D02*
D03*
X446063Y142982D02*
D03*
X468504Y142982D02*
D03*
X446063Y152431D02*
D03*
X468504Y152431D02*
D03*
X446063Y161880D02*
D03*
X468504Y161880D02*
D03*
X446063Y171329D02*
D03*
X468504Y171328D02*
D03*
X446063Y180778D02*
D03*
X468504Y180777D02*
D03*
X446063Y202825D02*
D03*
X468504Y202824D02*
D03*
X446063Y212274D02*
D03*
X468504Y212273D02*
D03*
X446063Y221722D02*
D03*
X468504Y221722D02*
D03*
Y231171D02*
D03*
X446063Y231171D02*
D03*
Y242520D02*
D03*
X468110D02*
D03*
Y248819D02*
D03*
X446063D02*
D03*
X468110Y255118D02*
D03*
X446063D02*
D03*
X468110Y261417D02*
D03*
Y264567D02*
D03*
X446063Y261417D02*
D03*
Y264567D02*
D03*
X382677Y337795D02*
D03*
X319291Y337795D02*
D03*
D88*
X170472Y71496D02*
D03*
X267146Y71673D02*
D03*
X228740Y101496D02*
D03*
X267323D02*
D03*
X228740Y141496D02*
D03*
X267323D02*
D03*
X228740Y171496D02*
D03*
X267323D02*
D03*
X228740Y201496D02*
D03*
X267323D02*
D03*
X228740Y231496D02*
D03*
X267323D02*
D03*
X228740Y261496D02*
D03*
X267323D02*
D03*
X228740Y291496D02*
D03*
X267323D02*
D03*
X228740Y311496D02*
D03*
X267323D02*
D03*
Y331496D02*
D03*
X228740D02*
D03*
X116535Y101496D02*
D03*
X170472D02*
D03*
X116535Y141496D02*
D03*
X170472D02*
D03*
X116535Y171496D02*
D03*
X170472D02*
D03*
X116535Y201496D02*
D03*
X170472D02*
D03*
X116535Y231496D02*
D03*
X170472D02*
D03*
X116535Y261496D02*
D03*
X170472D02*
D03*
X116535Y291496D02*
D03*
X170472D02*
D03*
X116535Y311496D02*
D03*
X170472D02*
D03*
Y331496D02*
D03*
X116535D02*
D03*
X348031Y313779D02*
D03*
X408021Y314042D02*
D03*
X343202Y310799D02*
D03*
X346702Y305799D02*
D03*
X343202Y307549D02*
D03*
X346702Y302299D02*
D03*
X343202Y304299D02*
D03*
X391102Y377165D02*
D03*
X388740Y374803D02*
D03*
X386378Y377165D02*
D03*
X388740Y379528D02*
D03*
X386378Y372441D02*
D03*
X388740Y370079D02*
D03*
X391102Y372441D02*
D03*
X386378Y367717D02*
D03*
X388740Y365354D02*
D03*
X391102Y367717D02*
D03*
X386378Y362992D02*
D03*
X388740Y360630D02*
D03*
X391102Y362992D02*
D03*
X386378Y358268D02*
D03*
X388740Y355906D02*
D03*
X391102Y358268D02*
D03*
X388740Y351181D02*
D03*
X391102Y353543D02*
D03*
X386378D02*
D03*
Y348819D02*
D03*
X388740Y346457D02*
D03*
X391102Y348819D02*
D03*
X421003Y377221D02*
D03*
X423366Y379584D02*
D03*
X425728Y377221D02*
D03*
Y372497D02*
D03*
X421003D02*
D03*
X423366Y374859D02*
D03*
X421003Y367772D02*
D03*
X423366Y370135D02*
D03*
X425728Y367772D02*
D03*
X421003Y363048D02*
D03*
X423366Y365410D02*
D03*
X425728Y363048D02*
D03*
X421003Y358324D02*
D03*
X423366Y360686D02*
D03*
X425728Y358324D02*
D03*
X421003Y353599D02*
D03*
X423366Y355961D02*
D03*
X425728Y353599D02*
D03*
X423366Y346513D02*
D03*
X425728Y348875D02*
D03*
X423366Y351237D02*
D03*
X421003Y348875D02*
D03*
X361003D02*
D03*
X363366Y351237D02*
D03*
X365728Y348875D02*
D03*
X363366Y346513D02*
D03*
X365728Y353599D02*
D03*
X363366Y355961D02*
D03*
X361003Y353599D02*
D03*
X365728Y358324D02*
D03*
X363366Y360686D02*
D03*
X361003Y358324D02*
D03*
X365728Y363048D02*
D03*
X363366Y365410D02*
D03*
X361003Y363048D02*
D03*
X365728Y367772D02*
D03*
X363366Y370135D02*
D03*
X361003Y367772D02*
D03*
X363366Y374859D02*
D03*
X361003Y372497D02*
D03*
X365728D02*
D03*
Y377221D02*
D03*
X363366Y379584D02*
D03*
X361003Y377221D02*
D03*
X331102Y348819D02*
D03*
X328740Y346457D02*
D03*
X326378Y348819D02*
D03*
Y353543D02*
D03*
X331102D02*
D03*
X328740Y351181D02*
D03*
X331102Y358268D02*
D03*
X328740Y355906D02*
D03*
X326378Y358268D02*
D03*
X331102Y362992D02*
D03*
X328740Y360630D02*
D03*
X326378Y362992D02*
D03*
X331102Y367717D02*
D03*
X328740Y365354D02*
D03*
X326378Y367717D02*
D03*
X331102Y372441D02*
D03*
X328740Y370079D02*
D03*
X326378Y372441D02*
D03*
X328740Y379528D02*
D03*
X326378Y377165D02*
D03*
X328740Y374803D02*
D03*
X331102Y377165D02*
D03*
X321900Y318204D02*
D03*
X319144D02*
D03*
X316388D02*
D03*
X376378Y318110D02*
D03*
X379134D02*
D03*
X381890D02*
D03*
X343202Y301049D02*
D03*
Y297799D02*
D03*
X346702Y308799D02*
D03*
Y298799D02*
D03*
X403202Y310799D02*
D03*
Y307549D02*
D03*
Y304299D02*
D03*
Y301049D02*
D03*
Y297799D02*
D03*
X406702Y308799D02*
D03*
Y305799D02*
D03*
Y302299D02*
D03*
Y298799D02*
D03*
M02*
