G04*
G04 #@! TF.GenerationSoftware,Altium Limited,Altium Designer,22.7.1 (60)*
G04*
G04 Layer_Color=128*
%FSLAX25Y25*%
%MOIN*%
G70*
G04*
G04 #@! TF.SameCoordinates,2DED55E5-687B-4796-A7DD-68A5C89E5390*
G04*
G04*
G04 #@! TF.FilePolarity,Positive*
G04*
G01*
G75*
%ADD21R,0.07874X0.01969*%
%ADD22R,0.07874X0.03937*%
G36*
X616142Y106496D02*
X624016D01*
Y102559D01*
X616142D01*
Y106496D01*
D02*
G37*
G36*
X618898Y130118D02*
X626772D01*
Y128149D01*
X618898D01*
Y130118D01*
D02*
G37*
G36*
Y133268D02*
X626772D01*
Y131299D01*
X618898D01*
Y133268D01*
D02*
G37*
G36*
Y136417D02*
X626772D01*
Y134448D01*
X618898D01*
Y136417D01*
D02*
G37*
G36*
Y139567D02*
X626772D01*
Y137598D01*
X618898D01*
Y139567D01*
D02*
G37*
G36*
Y142716D02*
X626772D01*
Y140747D01*
X618898D01*
Y142716D01*
D02*
G37*
G36*
Y145866D02*
X626772D01*
Y143897D01*
X618898D01*
Y145866D01*
D02*
G37*
G36*
Y149016D02*
X626772D01*
Y147047D01*
X618898D01*
Y149016D01*
D02*
G37*
G36*
Y152165D02*
X626772D01*
Y150196D01*
X618898D01*
Y152165D01*
D02*
G37*
G36*
Y155315D02*
X626772D01*
Y153346D01*
X618898D01*
Y155315D01*
D02*
G37*
G36*
Y158464D02*
X626772D01*
Y156495D01*
X618898D01*
Y158464D01*
D02*
G37*
G36*
Y161614D02*
X626772D01*
Y159645D01*
X618898D01*
Y161614D01*
D02*
G37*
G36*
Y164764D02*
X626772D01*
Y162795D01*
X618898D01*
Y164764D01*
D02*
G37*
G36*
Y167913D02*
X626772D01*
Y165944D01*
X618898D01*
Y167913D01*
D02*
G37*
G36*
Y171063D02*
X626772D01*
Y169094D01*
X618898D01*
Y171063D01*
D02*
G37*
G36*
Y174212D02*
X626772D01*
Y172243D01*
X618898D01*
Y174212D01*
D02*
G37*
G36*
Y177362D02*
X626772D01*
Y175393D01*
X618898D01*
Y177362D01*
D02*
G37*
G36*
Y180512D02*
X626772D01*
Y178543D01*
X618898D01*
Y180512D01*
D02*
G37*
G36*
Y183661D02*
X626772D01*
Y181692D01*
X618898D01*
Y183661D01*
D02*
G37*
G36*
Y199409D02*
X626772D01*
Y197440D01*
X618898D01*
Y199409D01*
D02*
G37*
G36*
Y202559D02*
X626772D01*
Y200590D01*
X618898D01*
Y202559D01*
D02*
G37*
G36*
Y205707D02*
X626772D01*
Y203739D01*
X618898D01*
Y205707D01*
D02*
G37*
G36*
Y208857D02*
X626772D01*
Y206889D01*
X618898D01*
Y208857D01*
D02*
G37*
G36*
Y212007D02*
X626772D01*
Y210039D01*
X618898D01*
Y212007D01*
D02*
G37*
G36*
Y215157D02*
X626772D01*
Y213188D01*
X618898D01*
Y215157D01*
D02*
G37*
G36*
Y218307D02*
X626772D01*
Y216338D01*
X618898D01*
Y218307D01*
D02*
G37*
G36*
Y221457D02*
X626772D01*
Y219488D01*
X618898D01*
Y221457D01*
D02*
G37*
G36*
Y224606D02*
X626772D01*
Y222637D01*
X618898D01*
Y224606D01*
D02*
G37*
G36*
Y227756D02*
X626772D01*
Y225787D01*
X618898D01*
Y227756D01*
D02*
G37*
G36*
Y230905D02*
X626772D01*
Y228936D01*
X618898D01*
Y230905D01*
D02*
G37*
G36*
Y234055D02*
X626772D01*
Y232086D01*
X618898D01*
Y234055D01*
D02*
G37*
G36*
Y237205D02*
X626772D01*
Y235236D01*
X618898D01*
Y237205D01*
D02*
G37*
G36*
Y240354D02*
X626772D01*
Y238385D01*
X618898D01*
Y240354D01*
D02*
G37*
G36*
Y243504D02*
X626772D01*
Y241535D01*
X618898D01*
Y243504D01*
D02*
G37*
G36*
Y246653D02*
X626772D01*
Y244684D01*
X618898D01*
Y246653D01*
D02*
G37*
G36*
Y249803D02*
X626772D01*
Y247834D01*
X618898D01*
Y249803D01*
D02*
G37*
G36*
Y252953D02*
X626772D01*
Y250984D01*
X618898D01*
Y252953D01*
D02*
G37*
G36*
Y256102D02*
X626772D01*
Y254133D01*
X618898D01*
Y256102D01*
D02*
G37*
G36*
Y259252D02*
X626772D01*
Y257283D01*
X618898D01*
Y259252D01*
D02*
G37*
G36*
Y262401D02*
X626772D01*
Y260432D01*
X618898D01*
Y262401D01*
D02*
G37*
G36*
Y265551D02*
X626772D01*
Y263582D01*
X618898D01*
Y265551D01*
D02*
G37*
G36*
X616142Y291141D02*
X624016D01*
Y287204D01*
X616142D01*
Y291141D01*
D02*
G37*
D21*
X622835Y264566D02*
D03*
Y261416D02*
D03*
Y258267D02*
D03*
Y255117D02*
D03*
Y251968D02*
D03*
Y248818D02*
D03*
Y245668D02*
D03*
Y242519D02*
D03*
Y239369D02*
D03*
Y236220D02*
D03*
Y233070D02*
D03*
Y229920D02*
D03*
Y226771D02*
D03*
Y223621D02*
D03*
Y220472D02*
D03*
Y217322D02*
D03*
Y214172D02*
D03*
Y211023D02*
D03*
Y207873D02*
D03*
Y204723D02*
D03*
Y201574D02*
D03*
Y198424D02*
D03*
Y182676D02*
D03*
Y179527D02*
D03*
Y176377D02*
D03*
Y173227D02*
D03*
Y170078D02*
D03*
Y166928D02*
D03*
Y163779D02*
D03*
Y160629D02*
D03*
Y157479D02*
D03*
Y154330D02*
D03*
Y151180D02*
D03*
Y148031D02*
D03*
Y144881D02*
D03*
Y141731D02*
D03*
Y138582D02*
D03*
Y135432D02*
D03*
Y132283D02*
D03*
Y129133D02*
D03*
D22*
X620079Y289172D02*
D03*
Y104527D02*
D03*
M02*
