G04*
G04 #@! TF.GenerationSoftware,Altium Limited,Altium Designer,22.7.1 (60)*
G04*
G04 Layer_Color=8421504*
%FSLAX25Y25*%
%MOIN*%
G70*
G04*
G04 #@! TF.SameCoordinates,CA0B0F3D-B29A-4581-BD7C-EADF094AE913*
G04*
G04*
G04 #@! TF.FilePolarity,Positive*
G04*
G01*
G75*
%ADD21R,0.03150X0.03150*%
%ADD22R,0.07874X0.01969*%
%ADD23R,0.07874X0.03937*%
G04:AMPARAMS|DCode=24|XSize=47.24mil|YSize=19.68mil|CornerRadius=2.95mil|HoleSize=0mil|Usage=FLASHONLY|Rotation=0.000|XOffset=0mil|YOffset=0mil|HoleType=Round|Shape=RoundedRectangle|*
%AMROUNDEDRECTD24*
21,1,0.04724,0.01378,0,0,0.0*
21,1,0.04134,0.01968,0,0,0.0*
1,1,0.00591,0.02067,-0.00689*
1,1,0.00591,-0.02067,-0.00689*
1,1,0.00591,-0.02067,0.00689*
1,1,0.00591,0.02067,0.00689*
%
%ADD24ROUNDEDRECTD24*%
G04:AMPARAMS|DCode=25|XSize=19.68mil|YSize=35.43mil|CornerRadius=3.25mil|HoleSize=0mil|Usage=FLASHONLY|Rotation=270.000|XOffset=0mil|YOffset=0mil|HoleType=Round|Shape=RoundedRectangle|*
%AMROUNDEDRECTD25*
21,1,0.01968,0.02894,0,0,270.0*
21,1,0.01319,0.03543,0,0,270.0*
1,1,0.00650,-0.01447,-0.00659*
1,1,0.00650,-0.01447,0.00659*
1,1,0.00650,0.01447,0.00659*
1,1,0.00650,0.01447,-0.00659*
%
%ADD25ROUNDEDRECTD25*%
%ADD26O,0.03504X0.12047*%
%ADD27R,0.21063X0.33622*%
G04:AMPARAMS|DCode=28|XSize=47.64mil|YSize=71.65mil|CornerRadius=7.86mil|HoleSize=0mil|Usage=FLASHONLY|Rotation=180.000|XOffset=0mil|YOffset=0mil|HoleType=Round|Shape=RoundedRectangle|*
%AMROUNDEDRECTD28*
21,1,0.04764,0.05593,0,0,180.0*
21,1,0.03192,0.07165,0,0,180.0*
1,1,0.01572,-0.01596,0.02797*
1,1,0.01572,0.01596,0.02797*
1,1,0.01572,0.01596,-0.02797*
1,1,0.01572,-0.01596,-0.02797*
%
%ADD28ROUNDEDRECTD28*%
G04:AMPARAMS|DCode=29|XSize=39.37mil|YSize=51.58mil|CornerRadius=6.5mil|HoleSize=0mil|Usage=FLASHONLY|Rotation=90.000|XOffset=0mil|YOffset=0mil|HoleType=Round|Shape=RoundedRectangle|*
%AMROUNDEDRECTD29*
21,1,0.03937,0.03858,0,0,90.0*
21,1,0.02638,0.05158,0,0,90.0*
1,1,0.01299,0.01929,0.01319*
1,1,0.01299,0.01929,-0.01319*
1,1,0.01299,-0.01929,-0.01319*
1,1,0.01299,-0.01929,0.01319*
%
%ADD29ROUNDEDRECTD29*%
G04:AMPARAMS|DCode=30|XSize=19.68mil|YSize=35.43mil|CornerRadius=3.25mil|HoleSize=0mil|Usage=FLASHONLY|Rotation=0.000|XOffset=0mil|YOffset=0mil|HoleType=Round|Shape=RoundedRectangle|*
%AMROUNDEDRECTD30*
21,1,0.01968,0.02894,0,0,0.0*
21,1,0.01319,0.03543,0,0,0.0*
1,1,0.00650,0.00659,-0.01447*
1,1,0.00650,-0.00659,-0.01447*
1,1,0.00650,-0.00659,0.01447*
1,1,0.00650,0.00659,0.01447*
%
%ADD30ROUNDEDRECTD30*%
G04:AMPARAMS|DCode=31|XSize=27.95mil|YSize=34.65mil|CornerRadius=4.61mil|HoleSize=0mil|Usage=FLASHONLY|Rotation=270.000|XOffset=0mil|YOffset=0mil|HoleType=Round|Shape=RoundedRectangle|*
%AMROUNDEDRECTD31*
21,1,0.02795,0.02542,0,0,270.0*
21,1,0.01873,0.03465,0,0,270.0*
1,1,0.00922,-0.01271,-0.00936*
1,1,0.00922,-0.01271,0.00936*
1,1,0.00922,0.01271,0.00936*
1,1,0.00922,0.01271,-0.00936*
%
%ADD31ROUNDEDRECTD31*%
G04:AMPARAMS|DCode=32|XSize=27.95mil|YSize=34.65mil|CornerRadius=4.61mil|HoleSize=0mil|Usage=FLASHONLY|Rotation=180.000|XOffset=0mil|YOffset=0mil|HoleType=Round|Shape=RoundedRectangle|*
%AMROUNDEDRECTD32*
21,1,0.02795,0.02542,0,0,180.0*
21,1,0.01873,0.03465,0,0,180.0*
1,1,0.00922,-0.00936,0.01271*
1,1,0.00922,0.00936,0.01271*
1,1,0.00922,0.00936,-0.01271*
1,1,0.00922,-0.00936,-0.01271*
%
%ADD32ROUNDEDRECTD32*%
%ADD33R,0.14488X0.05000*%
%ADD34R,0.20000X0.05000*%
%ADD35R,0.25197X0.03937*%
%ADD36R,0.25197X0.03937*%
G36*
X616142Y106496D02*
X624016D01*
Y102559D01*
X616142D01*
Y106496D01*
D02*
G37*
G36*
X618898Y130117D02*
X626772D01*
Y128149D01*
X618898D01*
Y130117D01*
D02*
G37*
G36*
Y133267D02*
X626772D01*
Y131299D01*
X618898D01*
Y133267D01*
D02*
G37*
G36*
Y136416D02*
X626772D01*
Y134448D01*
X618898D01*
Y136416D01*
D02*
G37*
G36*
Y139566D02*
X626772D01*
Y137598D01*
X618898D01*
Y139566D01*
D02*
G37*
G36*
Y142715D02*
X626772D01*
Y140747D01*
X618898D01*
Y142715D01*
D02*
G37*
G36*
Y145865D02*
X626772D01*
Y143897D01*
X618898D01*
Y145865D01*
D02*
G37*
G36*
Y149015D02*
X626772D01*
Y147047D01*
X618898D01*
Y149015D01*
D02*
G37*
G36*
Y152164D02*
X626772D01*
Y150196D01*
X618898D01*
Y152164D01*
D02*
G37*
G36*
Y155314D02*
X626772D01*
Y153346D01*
X618898D01*
Y155314D01*
D02*
G37*
G36*
Y158463D02*
X626772D01*
Y156495D01*
X618898D01*
Y158463D01*
D02*
G37*
G36*
Y161613D02*
X626772D01*
Y159645D01*
X618898D01*
Y161613D01*
D02*
G37*
G36*
Y164763D02*
X626772D01*
Y162795D01*
X618898D01*
Y164763D01*
D02*
G37*
G36*
Y167912D02*
X626772D01*
Y165944D01*
X618898D01*
Y167912D01*
D02*
G37*
G36*
Y171062D02*
X626772D01*
Y169094D01*
X618898D01*
Y171062D01*
D02*
G37*
G36*
Y174211D02*
X626772D01*
Y172243D01*
X618898D01*
Y174211D01*
D02*
G37*
G36*
Y177361D02*
X626772D01*
Y175393D01*
X618898D01*
Y177361D01*
D02*
G37*
G36*
Y180511D02*
X626772D01*
Y178543D01*
X618898D01*
Y180511D01*
D02*
G37*
G36*
Y183660D02*
X626772D01*
Y181692D01*
X618898D01*
Y183660D01*
D02*
G37*
G36*
Y199408D02*
X626772D01*
Y197440D01*
X618898D01*
Y199408D01*
D02*
G37*
G36*
Y202558D02*
X626772D01*
Y200590D01*
X618898D01*
Y202558D01*
D02*
G37*
G36*
Y205707D02*
X626772D01*
Y203739D01*
X618898D01*
Y205707D01*
D02*
G37*
G36*
Y208857D02*
X626772D01*
Y206889D01*
X618898D01*
Y208857D01*
D02*
G37*
G36*
Y212007D02*
X626772D01*
Y210039D01*
X618898D01*
Y212007D01*
D02*
G37*
G36*
Y215156D02*
X626772D01*
Y213188D01*
X618898D01*
Y215156D01*
D02*
G37*
G36*
Y218306D02*
X626772D01*
Y216338D01*
X618898D01*
Y218306D01*
D02*
G37*
G36*
Y221456D02*
X626772D01*
Y219488D01*
X618898D01*
Y221456D01*
D02*
G37*
G36*
Y224605D02*
X626772D01*
Y222637D01*
X618898D01*
Y224605D01*
D02*
G37*
G36*
Y227755D02*
X626772D01*
Y225787D01*
X618898D01*
Y227755D01*
D02*
G37*
G36*
Y230904D02*
X626772D01*
Y228936D01*
X618898D01*
Y230904D01*
D02*
G37*
G36*
Y234054D02*
X626772D01*
Y232086D01*
X618898D01*
Y234054D01*
D02*
G37*
G36*
Y237204D02*
X626772D01*
Y235236D01*
X618898D01*
Y237204D01*
D02*
G37*
G36*
Y240353D02*
X626772D01*
Y238385D01*
X618898D01*
Y240353D01*
D02*
G37*
G36*
Y243503D02*
X626772D01*
Y241535D01*
X618898D01*
Y243503D01*
D02*
G37*
G36*
Y246652D02*
X626772D01*
Y244684D01*
X618898D01*
Y246652D01*
D02*
G37*
G36*
Y249802D02*
X626772D01*
Y247834D01*
X618898D01*
Y249802D01*
D02*
G37*
G36*
Y252952D02*
X626772D01*
Y250984D01*
X618898D01*
Y252952D01*
D02*
G37*
G36*
Y256101D02*
X626772D01*
Y254133D01*
X618898D01*
Y256101D01*
D02*
G37*
G36*
Y259251D02*
X626772D01*
Y257283D01*
X618898D01*
Y259251D01*
D02*
G37*
G36*
Y262400D02*
X626772D01*
Y260432D01*
X618898D01*
Y262400D01*
D02*
G37*
G36*
Y265550D02*
X626772D01*
Y263582D01*
X618898D01*
Y265550D01*
D02*
G37*
G36*
X616142Y291141D02*
X624016D01*
Y287204D01*
X616142D01*
Y291141D01*
D02*
G37*
D21*
X381496Y335039D02*
D03*
X375197D02*
D03*
X319291D02*
D03*
X312992D02*
D03*
D22*
X622835Y264566D02*
D03*
Y261416D02*
D03*
Y258267D02*
D03*
Y255117D02*
D03*
Y251968D02*
D03*
Y248818D02*
D03*
Y245668D02*
D03*
Y242519D02*
D03*
Y239369D02*
D03*
Y236220D02*
D03*
Y233070D02*
D03*
Y229920D02*
D03*
Y226771D02*
D03*
Y223621D02*
D03*
Y220472D02*
D03*
Y217322D02*
D03*
Y214172D02*
D03*
Y211023D02*
D03*
Y207873D02*
D03*
Y204723D02*
D03*
Y201574D02*
D03*
Y198424D02*
D03*
Y182676D02*
D03*
Y179527D02*
D03*
Y176377D02*
D03*
Y173227D02*
D03*
Y170078D02*
D03*
Y166928D02*
D03*
Y163779D02*
D03*
Y160629D02*
D03*
Y157479D02*
D03*
Y154330D02*
D03*
Y151180D02*
D03*
Y148031D02*
D03*
Y144881D02*
D03*
Y141731D02*
D03*
Y138582D02*
D03*
Y135432D02*
D03*
Y132283D02*
D03*
Y129133D02*
D03*
D23*
X620079Y289172D02*
D03*
Y104527D02*
D03*
D24*
X463902Y129134D02*
D03*
X450516D02*
D03*
X463902Y132283D02*
D03*
X450516D02*
D03*
X463902Y135433D02*
D03*
X450516D02*
D03*
X463902Y138583D02*
D03*
X450516D02*
D03*
X463902Y141732D02*
D03*
X450516D02*
D03*
X463902Y144882D02*
D03*
X450516D02*
D03*
X463902Y148031D02*
D03*
X450516D02*
D03*
X463902Y151181D02*
D03*
X450516D02*
D03*
X463902Y154331D02*
D03*
X450516D02*
D03*
X463902Y157480D02*
D03*
X450516D02*
D03*
X463902Y160630D02*
D03*
X450516D02*
D03*
X463902Y163779D02*
D03*
X450516D02*
D03*
X463902Y166929D02*
D03*
X450516D02*
D03*
X463902Y170079D02*
D03*
X450516D02*
D03*
X463902Y173228D02*
D03*
X450516D02*
D03*
X463902Y176378D02*
D03*
X450516D02*
D03*
X463902Y179528D02*
D03*
X450516D02*
D03*
X463902Y182677D02*
D03*
X450516D02*
D03*
X463902Y198425D02*
D03*
X450516D02*
D03*
X463902Y201575D02*
D03*
X450516D02*
D03*
X463902Y204724D02*
D03*
X450516D02*
D03*
X463902Y207874D02*
D03*
X450516D02*
D03*
X463902Y211024D02*
D03*
X450516D02*
D03*
X463902Y214173D02*
D03*
X450516D02*
D03*
X463902Y217323D02*
D03*
X450516D02*
D03*
X463902Y220472D02*
D03*
X450516D02*
D03*
X463902Y223622D02*
D03*
X450516D02*
D03*
X463902Y226772D02*
D03*
X450516D02*
D03*
X463902Y229921D02*
D03*
X450516D02*
D03*
X463902Y233071D02*
D03*
X450516D02*
D03*
X463902Y236221D02*
D03*
X450516D02*
D03*
X463902Y239370D02*
D03*
X450516D02*
D03*
X463902Y242520D02*
D03*
X450516D02*
D03*
X463902Y245669D02*
D03*
X450516D02*
D03*
X463902Y248819D02*
D03*
X450516D02*
D03*
X463902Y251969D02*
D03*
X450516D02*
D03*
X463902Y255118D02*
D03*
X450516D02*
D03*
X463902Y258268D02*
D03*
X450516D02*
D03*
X463902Y261417D02*
D03*
X450516D02*
D03*
X463902Y264567D02*
D03*
X450516D02*
D03*
D25*
X404865Y316230D02*
D03*
Y321978D02*
D03*
X345276Y316417D02*
D03*
Y322165D02*
D03*
X350783Y322076D02*
D03*
Y316328D02*
D03*
X411023Y316233D02*
D03*
Y321981D02*
D03*
D26*
X331043Y332713D02*
D03*
X336043D02*
D03*
X341043D02*
D03*
X346043D02*
D03*
X351043D02*
D03*
X356043D02*
D03*
X361043D02*
D03*
X391043D02*
D03*
X396043D02*
D03*
X401043D02*
D03*
X406043D02*
D03*
X411043D02*
D03*
X416043D02*
D03*
X421043D02*
D03*
D27*
X346043Y361473D02*
D03*
X406043D02*
D03*
D28*
X410672Y308387D02*
D03*
X422090D02*
D03*
X350672Y290048D02*
D03*
X362090D02*
D03*
X350672Y299320D02*
D03*
X362090D02*
D03*
X350672Y308387D02*
D03*
X362090D02*
D03*
X338735Y316485D02*
D03*
X327318D02*
D03*
X338735Y307623D02*
D03*
X327318D02*
D03*
X338739Y298761D02*
D03*
X327322D02*
D03*
X338763Y289934D02*
D03*
X327346D02*
D03*
X410672Y290048D02*
D03*
X422090D02*
D03*
X410672Y299320D02*
D03*
X422090D02*
D03*
X398735Y316485D02*
D03*
X387318D02*
D03*
X398735Y307623D02*
D03*
X387318D02*
D03*
X398739Y298761D02*
D03*
X387322D02*
D03*
X398763Y289934D02*
D03*
X387346D02*
D03*
D29*
X319313Y307515D02*
D03*
Y314602D02*
D03*
X379302Y307422D02*
D03*
Y314509D02*
D03*
D30*
X319409Y329921D02*
D03*
X313661D02*
D03*
X381221Y329921D02*
D03*
X375472D02*
D03*
D31*
X360653Y316170D02*
D03*
Y322233D02*
D03*
X355861Y316170D02*
D03*
Y322233D02*
D03*
X420653Y316076D02*
D03*
Y322139D02*
D03*
X415862Y316076D02*
D03*
Y322139D02*
D03*
D32*
X330456Y323119D02*
D03*
X336519D02*
D03*
X390456D02*
D03*
X396519D02*
D03*
D33*
X238287Y341850D02*
D03*
X257776D02*
D03*
X238287Y331850D02*
D03*
X257776D02*
D03*
X238287Y321850D02*
D03*
X257776D02*
D03*
X238287Y311850D02*
D03*
X257776D02*
D03*
X238287Y301850D02*
D03*
X257776D02*
D03*
X238287Y291850D02*
D03*
X257776D02*
D03*
X238287Y281850D02*
D03*
X257776D02*
D03*
X238287Y271850D02*
D03*
X257776D02*
D03*
X238287Y261850D02*
D03*
X257776D02*
D03*
X238287Y251850D02*
D03*
X257776D02*
D03*
X238287Y241850D02*
D03*
X257776D02*
D03*
X238287Y231850D02*
D03*
X257776D02*
D03*
X238287Y221850D02*
D03*
X257776D02*
D03*
X238287Y211850D02*
D03*
X257776D02*
D03*
X238287Y201850D02*
D03*
X257776D02*
D03*
X238287Y191850D02*
D03*
X257776D02*
D03*
X238287Y181850D02*
D03*
X257776D02*
D03*
X238287Y171850D02*
D03*
X257776D02*
D03*
X238287Y161850D02*
D03*
X257776D02*
D03*
X238287Y151850D02*
D03*
X257776D02*
D03*
X238287Y141850D02*
D03*
X257776D02*
D03*
X238287Y131850D02*
D03*
X257776D02*
D03*
X238287Y121850D02*
D03*
X257776D02*
D03*
X238287Y111850D02*
D03*
X257776D02*
D03*
X238287Y101850D02*
D03*
X257776D02*
D03*
X238287Y91850D02*
D03*
X257776D02*
D03*
X238287Y81850D02*
D03*
X257776D02*
D03*
X238287Y71850D02*
D03*
X257776D02*
D03*
X238287Y61850D02*
D03*
X257776D02*
D03*
X238287Y51850D02*
D03*
X257776D02*
D03*
D34*
X129921Y341849D02*
D03*
X156921D02*
D03*
X129921Y331849D02*
D03*
X156921D02*
D03*
X129921Y321849D02*
D03*
X156921D02*
D03*
X129921Y311849D02*
D03*
X156921D02*
D03*
X129921Y301849D02*
D03*
X156921D02*
D03*
X129921Y291849D02*
D03*
X156921D02*
D03*
X129921Y281849D02*
D03*
X156921D02*
D03*
X129921Y271849D02*
D03*
X156921D02*
D03*
X129921Y261849D02*
D03*
X156921D02*
D03*
X129921Y251849D02*
D03*
X156921D02*
D03*
X129921Y241849D02*
D03*
X156921D02*
D03*
X129921Y231849D02*
D03*
X156921D02*
D03*
X129921Y221849D02*
D03*
X156921D02*
D03*
X129921Y211849D02*
D03*
X156921D02*
D03*
X129921Y201849D02*
D03*
X156921D02*
D03*
X129921Y191849D02*
D03*
X156921D02*
D03*
X129921Y181849D02*
D03*
X156921D02*
D03*
X129921Y171849D02*
D03*
X156921D02*
D03*
X129921Y161849D02*
D03*
X156921D02*
D03*
X129921Y151849D02*
D03*
X156921D02*
D03*
X129921Y141849D02*
D03*
X156921D02*
D03*
X129921Y131849D02*
D03*
X156921D02*
D03*
X129921Y121849D02*
D03*
X156921D02*
D03*
X129921Y111849D02*
D03*
X156921D02*
D03*
X129921Y101849D02*
D03*
X156921D02*
D03*
X129921Y91849D02*
D03*
X156921D02*
D03*
X129921Y81849D02*
D03*
X156921D02*
D03*
X129921Y71849D02*
D03*
X156921D02*
D03*
X129921Y61849D02*
D03*
X156921D02*
D03*
X129921Y51849D02*
D03*
X156921D02*
D03*
D35*
X346042Y376316D02*
D03*
X406042D02*
D03*
D36*
X346043Y346632D02*
D03*
X406043Y346632D02*
D03*
M02*
